# Blender 5.2.0 LTS
# www.blender.org
mtllib 1fist.mtl
o Untitled
v 1.946932 -0.350335 0.371941
v 1.947054 -0.350490 0.372360
v 1.946929 -0.391758 0.332612
v 1.947057 -0.392174 0.332783
v 1.999797 -0.350311 0.332591
v 2.000203 -0.350513 0.332804
v 1.946617 -0.390738 0.332193
v 1.947369 -0.393195 0.333202
v 1.997973 -0.349404 -0.331633
v 2.002027 -0.351420 -0.333761
v 1.998887 -0.349859 0.332113
v 2.001113 -0.350966 0.333282
v 1.998881 -0.349856 -0.332110
v 2.001119 -0.350969 -0.333284
v 1.946312 -0.389740 0.331782
v 1.947674 -0.394193 0.333613
v 1.946619 -0.390744 -0.332195
v 1.947367 -0.393189 -0.333200
v 1.946929 -0.391758 -0.332612
v 1.947057 -0.392174 -0.332783
v 1.946932 -0.350335 -0.371941
v 1.947054 -0.350490 -0.372360
v 1.999797 -0.350311 -0.332591
v 2.000203 -0.350513 -0.332804
v 1.946932 0.350335 0.371941
v 1.947054 0.350490 0.372360
v 1.999797 0.350311 0.332591
v 2.000203 0.350513 0.332804
v 1.946929 0.391758 0.332612
v 1.947057 0.392174 0.332783
v 1.946312 0.389740 -0.331782
v 1.947674 0.394193 -0.333613
v 1.946619 0.390744 0.332195
v 1.947367 0.393189 0.333200
v 1.998881 0.349856 0.332110
v 2.001119 0.350969 0.333284
v 1.997973 0.349404 0.331633
v 2.002027 0.351420 0.333761
v 1.998887 0.349859 -0.332113
v 2.001113 0.350966 -0.333282
v 1.946617 0.390738 -0.332193
v 1.947369 0.393195 -0.333202
v 1.946932 0.350335 -0.371941
v 1.947054 0.350490 -0.372360
v 1.946929 0.391758 -0.332612
v 1.947057 0.392174 -0.332783
v 1.999797 0.350311 -0.332591
v 2.000203 0.350513 -0.332804
v -1.946932 -0.350335 0.371941
v -1.947054 -0.350490 0.372360
v -1.999797 -0.350311 0.332591
v -2.000203 -0.350513 0.332804
v -1.946929 -0.391758 0.332612
v -1.947057 -0.392174 0.332783
v -1.946312 -0.389740 -0.331782
v -1.947674 -0.394193 -0.333613
v -1.946619 -0.390743 0.332195
v -1.947367 -0.393189 0.333200
v -1.998881 -0.349856 0.332110
v -2.001119 -0.350969 0.333284
v -1.997973 -0.349404 0.331634
v -2.002027 -0.351420 0.333761
v -1.998887 -0.349859 -0.332113
v -2.001113 -0.350966 -0.333282
v -1.946617 -0.390738 -0.332192
v -1.947369 -0.393195 -0.333202
v -1.946932 -0.350335 -0.371941
v -1.947054 -0.350490 -0.372360
v -1.946929 -0.391758 -0.332612
v -1.947057 -0.392174 -0.332783
v -1.999797 -0.350311 -0.332591
v -2.000203 -0.350513 -0.332804
v -1.946932 0.350335 0.371941
v -1.947054 0.350490 0.372360
v -1.946929 0.391758 0.332612
v -1.947057 0.392174 0.332783
v -1.999797 0.350311 0.332591
v -2.000203 0.350513 0.332804
v -1.997973 0.349404 -0.331634
v -2.002027 0.351420 -0.333761
v -1.998887 0.349859 0.332113
v -2.001113 0.350966 0.333282
v -1.946617 0.390738 0.332192
v -1.947369 0.393195 0.333202
v -1.946312 0.389740 0.331782
v -1.947674 0.394193 0.333613
v -1.946619 0.390743 -0.332195
v -1.947367 0.393189 -0.333200
v -1.998881 0.349856 -0.332110
v -2.001119 0.350969 -0.333284
v -1.946932 0.350335 -0.371941
v -1.947054 0.350490 -0.372360
v -1.999797 0.350311 -0.332591
v -2.000203 0.350513 -0.332804
v -1.946929 0.391758 -0.332612
v -1.947057 0.392174 -0.332783
v 1.998830 -0.349830 0.332084
v 2.001170 -0.350995 0.333311
v 1.946301 0.349529 0.369768
v 1.947685 0.351295 0.374534
v 1.946615 -0.349930 0.370850
v 1.947371 -0.350894 0.373452
v 1.946614 0.349928 0.370844
v 1.947372 0.350896 0.373457
v 1.997866 -0.349350 0.331578
v 2.002134 -0.351475 0.333817
v 1.998835 0.349832 0.332086
v 2.001165 0.350993 0.333308
v 1.998830 0.349830 -0.332084
v 2.001170 0.350995 -0.333311
v 1.946301 -0.349529 -0.369768
v 1.947685 -0.351295 -0.374534
v 1.946615 0.349930 -0.370850
v 1.947371 0.350894 -0.373452
v 1.946614 -0.349928 -0.370844
v 1.947372 -0.350896 -0.373457
v 1.997866 0.349350 -0.331578
v 2.002134 0.351475 -0.333817
v 1.998835 -0.349832 -0.332086
v 2.001165 -0.350993 -0.333308
v -1.997866 0.349350 0.331578
v -2.002134 0.351475 0.333817
v -1.998835 -0.349832 0.332086
v -2.001165 -0.350993 0.333308
v -1.946614 -0.349928 0.370844
v -1.947372 -0.350896 0.373457
v -1.946301 -0.349529 0.369768
v -1.947685 -0.351295 0.374534
v -1.946615 0.349930 0.370850
v -1.947371 0.350894 0.373452
v -1.998830 0.349830 0.332084
v -2.001170 0.350995 0.333311
v -1.997866 -0.349350 -0.331578
v -2.002134 -0.351475 -0.333817
v -1.998835 0.349832 -0.332086
v -2.001165 0.350993 -0.333308
v -1.946614 0.349928 -0.370844
v -1.947372 0.350896 -0.373457
v -1.946301 0.349529 -0.369768
v -1.947685 0.351295 -0.374534
v -1.946615 -0.349930 -0.370850
v -1.947371 -0.350894 -0.373452
v -1.998830 -0.349830 -0.332084
v -2.001170 -0.350995 -0.333311
v 1.943017 0.378970 0.327355
v 1.950969 0.404962 0.338040
v -1.944975 0.385373 0.329987
v -1.949010 0.398559 0.335408
v -1.945045 0.347928 0.365447
v -1.948941 0.352897 0.378854
v 1.944975 0.385372 0.329986
v 1.949011 0.398560 0.335408
v -1.943155 0.345517 0.358939
v -1.950831 0.355308 0.385363
v 1.945046 0.347928 0.365448
v 1.948940 0.352896 0.378853
v 1.943155 0.345516 -0.358939
v 1.950831 0.355308 -0.385363
v -1.945046 0.347928 -0.365448
v -1.948940 0.352896 -0.378853
v -1.944975 0.385372 -0.329986
v -1.949011 0.398560 -0.335408
v 1.945045 0.347928 -0.365447
v 1.948941 0.352897 -0.378854
v -1.943017 0.378970 -0.327355
v -1.950969 0.404962 -0.338040
v 1.944975 0.385373 -0.329987
v 1.949010 0.398559 -0.335408
v -1.943017 -0.378970 0.327355
v -1.950969 -0.404962 0.338040
v 1.944975 -0.385373 0.329987
v 1.949010 -0.398559 0.335408
v 1.945045 -0.347928 0.365447
v 1.948941 -0.352897 0.378854
v -1.944975 -0.385372 0.329986
v -1.949011 -0.398560 0.335408
v 1.943155 -0.345516 0.358939
v 1.950831 -0.355308 0.385363
v -1.945046 -0.347928 0.365448
v -1.948940 -0.352896 0.378853
v -1.943155 -0.345517 -0.358939
v -1.950831 -0.355308 -0.385363
v 1.945046 -0.347928 -0.365448
v 1.948940 -0.352896 -0.378853
v 1.944975 -0.385372 -0.329986
v 1.949011 -0.398560 -0.335408
v -1.945045 -0.347928 -0.365447
v -1.948941 -0.352897 -0.378854
v 1.943017 -0.378970 -0.327355
v 1.950969 -0.404962 -0.338040
v -1.944975 -0.385373 -0.329987
v -1.949010 -0.398559 -0.335408
v 1.947197 -0.350596 0.371824
v 1.947199 -0.391615 0.332877
v 1.999487 -0.350611 0.332890
v 1.948195 -0.391024 0.331317
v 1.998031 -0.351956 -0.283143
v 1.998919 -0.351260 0.331324
v 1.998798 -0.351354 -0.331317
v 1.948962 -0.390423 0.283144
v 1.948074 -0.391119 -0.331324
v 1.947199 -0.391615 -0.332877
v 1.947197 -0.350596 -0.371824
v 1.999487 -0.350611 -0.332890
v 1.947197 0.350596 0.371824
v 1.999487 0.350611 0.332890
v 1.947199 0.391615 0.332877
v 1.948962 0.390423 -0.283144
v 1.948074 0.391119 0.331324
v 1.998798 0.351354 0.331317
v 1.998031 0.351956 0.283143
v 1.998919 0.351260 -0.331324
v 1.948195 0.391024 -0.331317
v 1.947197 0.350596 -0.371824
v 1.947199 0.391615 -0.332877
v 1.999487 0.350611 -0.332890
v -1.947197 -0.350596 0.371824
v -1.999487 -0.350611 0.332890
v -1.947199 -0.391615 0.332877
v -1.948962 -0.390423 -0.283143
v -1.948074 -0.391119 0.331324
v -1.998798 -0.351354 0.331317
v -1.998031 -0.351956 0.283144
v -1.998919 -0.351260 -0.331324
v -1.948195 -0.391024 -0.331317
v -1.947197 -0.350596 -0.371824
v -1.947199 -0.391615 -0.332877
v -1.999487 -0.350611 -0.332890
v -1.947197 0.350596 0.371824
v -1.947199 0.391615 0.332877
v -1.999487 0.350611 0.332890
v -1.998031 0.351956 -0.283144
v -1.998919 0.351260 0.331324
v -1.948195 0.391024 0.331317
v -1.948962 0.390423 0.283143
v -1.948074 0.391119 -0.331324
v -1.998798 0.351354 -0.331317
v -1.947197 0.350596 -0.371824
v -1.999487 0.350611 -0.332890
v -1.947199 0.391615 -0.332877
v 1.998727 -0.348969 0.333645
v 1.949106 0.294418 0.370578
v 1.948146 -0.348974 0.371292
v 1.948266 0.348969 0.371203
v 1.997887 -0.294418 0.334270
v 1.998847 0.348974 0.333556
v 1.998727 0.348969 -0.333645
v 1.949106 -0.294418 -0.370578
v 1.948146 0.348974 -0.371292
v 1.948266 -0.348969 -0.371203
v 1.997887 0.294418 -0.334270
v 1.998847 -0.348974 -0.333556
v -1.997887 0.294418 0.334270
v -1.998847 -0.348974 0.333556
v -1.948266 -0.348969 0.371204
v -1.949106 -0.294418 0.370578
v -1.948146 0.348974 0.371292
v -1.998727 0.348969 0.333645
v -1.997887 -0.294418 -0.334270
v -1.998847 0.348974 -0.333556
v -1.948266 0.348969 -0.371204
v -1.949106 0.294418 -0.370578
v -1.948146 -0.348974 -0.371292
v -1.998727 -0.348969 -0.333645
v -0.037927 0.381388 0.342741
v -1.939584 0.386593 0.337799
v -1.939584 0.355865 0.366973
v 1.939584 0.386513 0.337875
v 0.037927 0.360990 0.362107
v 1.939584 0.355785 0.367049
v -0.037927 0.360990 -0.362107
v -1.939584 0.355785 -0.367050
v -1.939584 0.386513 -0.337875
v 1.939584 0.355865 -0.366973
v 0.037927 0.381388 -0.342741
v 1.939584 0.386593 -0.337799
v 0.037927 -0.381388 0.342741
v 1.939584 -0.386593 0.337799
v 1.939584 -0.355865 0.366973
v -1.939584 -0.386513 0.337875
v -0.037927 -0.360990 0.362107
v -1.939584 -0.355785 0.367050
v 0.037927 -0.360990 -0.362107
v 1.939584 -0.355785 -0.367049
v 1.939584 -0.386513 -0.337875
v -1.939584 -0.355865 -0.366973
v -0.037927 -0.381388 -0.342741
v -1.939584 -0.386593 -0.337799
vn 0.1498 -0.7080 -0.6901
vn 0.3018 0.9079 0.2908
vn -0.4045 0.7402 -0.5371
vn -0.3887 0.4942 -0.7777
vn 0.5031 -0.5894 0.6321
vn 0.4991 -0.6167 0.6087
vn -0.9489 -0.2218 0.2247
vn -0.5575 0.5735 -0.6002
vn 0.5539 -0.5769 0.6003
vn 0.2438 0.1308 -0.9610
vn 0.5035 -0.8640 -0.0111
vn -0.7600 0.5037 -0.4108
vn -0.5775 0.7942 -0.1888
vn 0.6767 -0.7343 0.0537
vn 0.8006 -0.4543 -0.3907
vn -0.6862 -0.1341 -0.7150
vn -0.7355 0.6461 -0.2039
vn 0.6839 -0.7210 0.1114
vn -0.1271 -0.1309 0.9832
vn 0.7925 -0.6042 -0.0831
vn -0.3626 0.8663 0.3436
vn -0.6059 0.7831 0.1403
vn 0.6016 -0.7912 -0.1100
vn 0.3312 -0.8844 0.3289
vn 0.3751 0.6029 0.7042
vn -0.4022 0.8804 0.2514
vn 0.6059 -0.7942 -0.0469
vn 0.1273 0.7243 -0.6777
vn 0.3240 -0.3150 0.8921
vn -0.3887 0.4941 0.7777
vn -0.4045 0.7402 0.5371
vn 0.4991 -0.6167 -0.6087
vn 0.5031 -0.5893 -0.6321
vn -0.9489 -0.2218 -0.2246
vn -0.5575 0.5735 0.6003
vn 0.5539 -0.5769 -0.6003
vn 0.7688 0.1537 -0.6207
vn -0.9489 0.2218 0.2246
vn -0.5575 -0.5735 -0.6003
vn -0.3887 -0.4941 -0.7777
vn 0.5031 0.5893 0.6321
vn 0.5539 0.5769 0.6003
vn 0.3018 -0.9080 0.2907
vn -0.4045 -0.7402 -0.5371
vn 0.4991 0.6167 0.6087
vn 0.3483 0.2597 0.9007
vn 0.3751 -0.6029 -0.7042
vn -0.4022 -0.8804 -0.2514
vn -0.3626 -0.8663 -0.3436
vn 0.3312 0.8844 -0.3289
vn 0.6059 0.7942 0.0469
vn -0.7446 0.0330 -0.6667
vn -0.6059 -0.7831 -0.1403
vn 0.6016 0.7912 0.1100
vn 0.1697 0.3009 -0.9385
vn -0.6862 0.1341 0.7150
vn -0.7355 -0.6461 0.2039
vn -0.7600 -0.5037 0.4108
vn 0.8006 0.4543 0.3907
vn 0.6839 0.7210 -0.1114
vn 0.2820 -0.6793 0.6775
vn -0.5775 -0.7942 0.1888
vn 0.6767 0.7343 -0.0537
vn 0.1498 0.7080 0.6901
vn 0.3018 -0.9079 -0.2908
vn -0.4045 -0.7402 0.5371
vn -0.3887 -0.4942 0.7777
vn 0.5031 0.5894 -0.6321
vn 0.4991 0.6167 -0.6087
vn -0.9489 0.2218 -0.2247
vn -0.5575 -0.5735 0.6002
vn 0.5539 0.5769 -0.6003
vn -0.7688 -0.1537 -0.6207
vn 0.9489 -0.2218 0.2246
vn 0.5575 0.5735 -0.6003
vn 0.3887 0.4941 -0.7777
vn -0.5031 -0.5893 0.6321
vn -0.5539 -0.5769 0.6003
vn -0.3018 0.9080 0.2907
vn 0.4045 0.7402 -0.5371
vn -0.4991 -0.6167 0.6087
vn -0.3483 -0.2597 0.9007
vn -0.3751 0.6029 -0.7042
vn 0.4022 0.8804 -0.2514
vn 0.3626 0.8663 -0.3436
vn -0.3312 -0.8844 -0.3289
vn -0.6059 -0.7942 0.0469
vn 0.7446 -0.0330 -0.6667
vn 0.6059 0.7831 -0.1403
vn -0.6016 -0.7912 0.1100
vn -0.1697 -0.3009 -0.9385
vn 0.6862 -0.1341 0.7150
vn 0.7355 0.6461 0.2039
vn 0.7600 0.5037 0.4108
vn -0.8006 -0.4543 0.3907
vn -0.6839 -0.7210 -0.1114
vn -0.2820 0.6793 0.6775
vn 0.5775 0.7942 0.1888
vn -0.6767 -0.7343 -0.0537
vn -0.1498 -0.7080 0.6901
vn -0.3018 0.9079 -0.2908
vn 0.4045 0.7402 0.5371
vn 0.3887 0.4942 0.7777
vn -0.5031 -0.5894 -0.6321
vn -0.4991 -0.6167 -0.6087
vn 0.9489 -0.2218 -0.2247
vn 0.5575 0.5735 0.6002
vn -0.5539 -0.5769 -0.6003
vn -0.1498 0.7080 -0.6901
vn -0.3018 -0.9079 0.2908
vn 0.4045 -0.7402 -0.5371
vn 0.3887 -0.4942 -0.7777
vn -0.5031 0.5894 0.6321
vn -0.4991 0.6167 0.6087
vn 0.9489 0.2218 0.2247
vn 0.5575 -0.5735 -0.6002
vn -0.5539 0.5769 0.6003
vn -0.1697 0.3009 0.9385
vn 0.6862 0.1341 -0.7150
vn 0.7355 -0.6461 -0.2039
vn 0.7600 -0.5037 -0.4108
vn -0.8006 0.4543 -0.3907
vn -0.6839 0.7210 0.1114
vn -0.2820 -0.6793 -0.6775
vn 0.5775 -0.7942 -0.1888
vn -0.6767 0.7343 0.0537
vn -0.3483 0.2597 -0.9007
vn -0.3751 -0.6029 0.7042
vn 0.4022 -0.8804 0.2514
vn 0.3626 -0.8663 0.3436
vn -0.3312 0.8844 0.3289
vn -0.6059 0.7942 -0.0469
vn 0.7446 0.0330 0.6667
vn 0.6059 -0.7831 0.1403
vn -0.6016 0.7912 -0.1100
vn -0.7688 0.1537 0.6207
vn 0.9489 0.2218 -0.2246
vn 0.5575 -0.5735 0.6003
vn 0.3887 -0.4941 0.7777
vn -0.5031 0.5893 -0.6321
vn -0.5539 0.5769 -0.6003
vn -0.3018 -0.9080 -0.2907
vn 0.4045 -0.7402 0.5371
vn -0.4991 0.6167 -0.6087
vn -0.1374 0.9809 0.1376
vn 0.7761 -0.0859 0.6248
vn -0.3474 0.3135 -0.8838
vn -0.6009 0.1363 -0.7876
vn 0.5793 -0.0823 0.8110
vn 0.3213 0.3001 0.8982
vn 0.4168 0.6902 -0.5915
vn -0.3621 0.2555 -0.8964
vn 0.5994 -0.0115 0.8004
vn 0.2709 -0.9527 -0.1381
vn 0.4928 -0.0267 0.8698
vn -0.7592 -0.3904 -0.5208
vn -0.5368 -0.1935 -0.8212
vn 0.6729 0.0176 0.7395
vn 0.7984 -0.3708 0.4744
vn -0.7066 -0.6945 0.1356
vn -0.7283 -0.2006 -0.6553
vn 0.6671 0.0855 0.7401
vn -0.1374 -0.9809 -0.1376
vn 0.7761 0.0859 -0.6248
vn -0.3474 -0.3135 0.8838
vn -0.6009 -0.1363 0.7876
vn 0.5793 0.0823 -0.8110
vn 0.3213 -0.3001 -0.8982
vn 0.4168 -0.6902 0.5915
vn -0.3621 -0.2555 0.8964
vn 0.5994 0.0115 -0.8004
vn 0.2709 0.9527 0.1381
vn 0.4928 0.0267 -0.8698
vn -0.7592 0.3904 0.5208
vn -0.5368 0.1935 0.8212
vn 0.6729 -0.0176 -0.7395
vn 0.7984 0.3708 -0.4744
vn -0.7066 0.6945 -0.1356
vn -0.7283 0.2006 0.6553
vn 0.6671 -0.0855 -0.7401
vn -0.1854 -0.9230 0.3372
vn 0.7066 0.6945 0.1356
vn 0.7283 0.2006 -0.6553
vn 0.7592 0.3904 -0.5208
vn -0.7984 0.3708 0.4744
vn -0.6671 -0.0855 0.7401
vn -0.3208 0.6661 -0.6733
vn 0.5368 0.1935 -0.8212
vn -0.6729 -0.0176 0.7395
vn -0.3804 0.8747 0.3003
vn -0.4168 -0.6902 -0.5915
vn 0.3621 -0.2555 -0.8964
vn 0.3474 -0.3135 -0.8838
vn -0.3213 -0.3001 0.8982
vn -0.5994 0.0115 0.8004
vn 0.7616 -0.6475 0.0268
vn 0.6009 -0.1363 -0.7876
vn -0.5793 0.0823 0.8110
vn -0.1854 0.9230 -0.3372
vn 0.7066 -0.6945 -0.1356
vn 0.7283 -0.2006 0.6553
vn 0.7592 -0.3904 0.5208
vn -0.7984 -0.3708 -0.4744
vn -0.6671 0.0855 -0.7401
vn -0.3208 -0.6661 0.6733
vn 0.5368 -0.1935 0.8212
vn -0.6729 0.0176 -0.7395
vn -0.3804 -0.8747 -0.3003
vn -0.4168 0.6902 0.5915
vn 0.3621 0.2555 0.8964
vn 0.3474 0.3135 0.8838
vn -0.3213 0.3001 -0.8982
vn -0.5994 -0.0115 -0.8004
vn 0.7616 0.6475 -0.0268
vn 0.6009 0.1363 0.7876
vn -0.5793 -0.0823 -0.8110
vn -0.5841 0.4393 0.6825
vn 0.6950 -0.6698 0.2614
vn 0.1751 -0.8032 -0.5694
vn -0.4842 -0.5898 -0.6463
vn 0.2656 0.8849 0.3827
vn 0.0454 0.7495 0.6605
vn 0.6964 0.2212 -0.6827
vn 0.1477 -0.6107 -0.7780
vn 0.0676 0.6883 0.7223
vn -0.9780 -0.1147 0.1744
vn -0.3482 0.7747 0.5279
vn 0.4677 -0.6196 -0.6304
vn -0.1378 -0.7408 -0.6575
vn -0.0573 0.6975 0.7143
vn -0.2561 0.3550 0.8991
vn -0.6984 0.3074 -0.6463
vn -0.1844 -0.5176 -0.8355
vn -0.0565 0.6343 0.7710
vn -0.5684 0.6797 -0.4637
vn 0.6984 0.3074 0.6463
vn 0.1844 -0.5176 0.8355
vn -0.4677 -0.6196 0.6304
vn 0.2561 0.3550 -0.8991
vn 0.0565 0.6343 -0.7710
vn 0.6906 -0.7019 -0.1743
vn 0.1378 -0.7408 0.6575
vn 0.0573 0.6975 -0.7143
vn -0.9737 0.1962 0.1163
vn -0.3654 0.5034 -0.7830
vn 0.4842 -0.5898 0.6463
vn -0.1477 -0.6107 0.7780
vn -0.0676 0.6883 -0.7223
vn -0.2656 0.8849 -0.3827
vn -0.6950 -0.6698 -0.2614
vn -0.1751 -0.8032 0.5694
vn -0.0454 0.7495 -0.6605
vn 0.5841 -0.4393 0.6825
vn -0.6950 0.6698 0.2614
vn -0.1751 0.8032 -0.5694
vn 0.4842 0.5898 -0.6463
vn -0.2656 -0.8849 0.3827
vn -0.0454 -0.7495 0.6605
vn -0.6964 -0.2212 -0.6827
vn -0.1477 0.6107 -0.7780
vn -0.0676 -0.6883 0.7223
vn 0.9780 0.1147 0.1744
vn 0.3482 -0.7747 0.5279
vn -0.4677 0.6196 -0.6304
vn 0.1378 0.7408 -0.6575
vn 0.0573 -0.6975 0.7143
vn 0.2561 -0.3550 0.8991
vn 0.6984 -0.3074 -0.6463
vn 0.1844 0.5176 -0.8355
vn 0.0565 -0.6343 0.7710
vn 0.5684 -0.6797 -0.4637
vn -0.6984 -0.3074 0.6463
vn -0.1844 0.5176 0.8355
vn 0.4677 0.6196 0.6304
vn -0.2561 -0.3550 -0.8991
vn -0.0565 -0.6343 -0.7710
vn -0.6906 0.7019 -0.1743
vn -0.1378 0.7408 0.6575
vn -0.0573 -0.6975 -0.7143
vn 0.9737 -0.1962 0.1163
vn 0.3654 -0.5034 -0.7830
vn -0.4842 0.5898 0.6463
vn 0.1477 0.6107 0.7780
vn 0.0676 -0.6883 -0.7223
vn 0.2656 -0.8849 -0.3827
vn 0.6950 0.6698 -0.2614
vn 0.1751 0.8032 0.5694
vn 0.0454 -0.7495 -0.6605
vt 0.372650 0.370304
vt 0.478632 0.370304
vt 0.372650 0.481216
vt 0.478632 0.481216
vt 0.478632 0.019678
vt 0.372650 0.019678
vt 0.478632 0.130590
vt 0.372650 0.130590
vt 0.478632 0.363148
vt 0.478632 0.137746
vt 0.365812 0.363148
vt 0.365812 0.137746
vt 0.140171 0.137746
vt 0.140171 0.363148
vt 0.252991 0.137746
vt 0.252991 0.363148
s 1
f 193/1/1 194/1/2 3/1/3 1/1/4
f 194/1/2 193/1/1 2/1/5 4/1/6
f 194/1/2 195/1/7 5/1/8 3/1/3
f 195/1/7 194/1/2 4/1/6 6/1/9
f 195/1/7 193/1/1 1/1/4 5/1/8
f 193/1/1 195/1/7 6/1/9 2/1/5
f 196/1/10 197/2/11 9/2/12 7/1/13
f 197/2/11 196/1/10 8/1/14 10/2/15
f 197/2/11 198/1/16 11/1/17 9/2/12
f 198/1/16 197/2/11 10/2/15 12/1/18
f 198/1/16 196/1/10 7/1/13 11/1/17
f 196/1/10 198/1/16 12/1/18 8/1/14
f 199/2/19 200/1/20 15/1/21 13/2/22
f 200/1/20 199/2/19 14/2/23 16/1/24
f 200/1/20 201/2/25 17/2/26 15/1/21
f 201/2/25 200/1/20 16/1/24 18/2/27
f 201/2/25 199/2/19 13/2/22 17/2/26
f 199/2/19 201/2/25 18/2/27 14/2/23
f 202/2/28 203/2/29 21/2/30 19/2/31
f 203/2/29 202/2/28 20/2/32 22/2/33
f 203/2/29 204/2/34 23/2/35 21/2/30
f 204/2/34 203/2/29 22/2/33 24/2/36
f 204/2/34 202/2/28 19/2/31 23/2/35
f 202/2/28 204/2/34 24/2/36 20/2/32
f 205/3/37 206/3/38 27/3/39 25/3/40
f 206/3/38 205/3/37 26/3/41 28/3/42
f 206/3/38 207/3/43 29/3/44 27/3/39
f 207/3/43 206/3/38 28/3/42 30/3/45
f 207/3/43 205/3/37 25/3/40 29/3/44
f 205/3/37 207/3/43 30/3/45 26/3/41
f 208/4/46 209/3/47 33/3/48 31/4/49
f 209/3/47 208/4/46 32/4/50 34/3/51
f 209/3/47 210/3/52 35/3/53 33/3/48
f 210/3/52 209/3/47 34/3/51 36/3/54
f 210/3/52 208/4/46 31/4/49 35/3/53
f 208/4/46 210/3/52 36/3/54 32/4/50
f 211/3/55 212/4/56 39/4/57 37/3/58
f 212/4/56 211/3/55 38/3/59 40/4/60
f 212/4/56 213/4/61 41/4/62 39/4/57
f 213/4/61 212/4/56 40/4/60 42/4/63
f 213/4/61 211/3/55 37/3/58 41/4/62
f 211/3/55 213/4/61 42/4/63 38/3/59
f 214/4/64 215/4/65 45/4/66 43/4/67
f 215/4/65 214/4/64 44/4/68 46/4/69
f 215/4/65 216/4/70 47/4/71 45/4/66
f 216/4/70 215/4/65 46/4/69 48/4/72
f 216/4/70 214/4/64 43/4/67 47/4/71
f 214/4/64 216/4/70 48/4/72 44/4/68
f 217/5/73 218/5/74 51/5/75 49/5/76
f 218/5/74 217/5/73 50/5/77 52/5/78
f 218/5/74 219/5/79 53/5/80 51/5/75
f 219/5/79 218/5/74 52/5/78 54/5/81
f 219/5/79 217/5/73 49/5/76 53/5/80
f 217/5/73 219/5/79 54/5/81 50/5/77
f 220/6/82 221/5/83 57/5/84 55/6/85
f 221/5/83 220/6/82 56/6/86 58/5/87
f 221/5/83 222/5/88 59/5/89 57/5/84
f 222/5/88 221/5/83 58/5/87 60/5/90
f 222/5/88 220/6/82 55/6/85 59/5/89
f 220/6/82 222/5/88 60/5/90 56/6/86
f 223/5/91 224/6/92 63/6/93 61/5/94
f 224/6/92 223/5/91 62/5/95 64/6/96
f 224/6/92 225/6/97 65/6/98 63/6/93
f 225/6/97 224/6/92 64/6/96 66/6/99
f 225/6/97 223/5/91 61/5/94 65/6/98
f 223/5/91 225/6/97 66/6/99 62/5/95
f 226/6/100 227/6/101 69/6/102 67/6/103
f 227/6/101 226/6/100 68/6/104 70/6/105
f 227/6/101 228/6/106 71/6/107 69/6/102
f 228/6/106 227/6/101 70/6/105 72/6/108
f 228/6/106 226/6/100 67/6/103 71/6/107
f 226/6/100 228/6/106 72/6/108 68/6/104
f 229/7/109 230/7/110 75/7/111 73/7/112
f 230/7/110 229/7/109 74/7/113 76/7/114
f 230/7/110 231/7/115 77/7/116 75/7/111
f 231/7/115 230/7/110 76/7/114 78/7/117
f 231/7/115 229/7/109 73/7/112 77/7/116
f 229/7/109 231/7/115 78/7/117 74/7/113
f 232/8/118 233/7/119 81/7/120 79/8/121
f 233/7/119 232/8/118 80/8/122 82/7/123
f 233/7/119 234/7/124 83/7/125 81/7/120
f 234/7/124 233/7/119 82/7/123 84/7/126
f 234/7/124 232/8/118 79/8/121 83/7/125
f 232/8/118 234/7/124 84/7/126 80/8/122
f 235/7/127 236/8/128 87/8/129 85/7/130
f 236/8/128 235/7/127 86/7/131 88/8/132
f 236/8/128 237/8/133 89/8/134 87/8/129
f 237/8/133 236/8/128 88/8/132 90/8/135
f 237/8/133 235/7/127 85/7/130 89/8/134
f 235/7/127 237/8/133 90/8/135 86/7/131
f 238/8/136 239/8/137 93/8/138 91/8/139
f 239/8/137 238/8/136 92/8/140 94/8/141
f 239/8/137 240/8/142 95/8/143 93/8/138
f 240/8/142 239/8/137 94/8/141 96/8/144
f 240/8/142 238/8/136 91/8/139 95/8/143
f 238/8/136 240/8/142 96/8/144 92/8/140
f 241/1/145 242/3/146 99/3/147 97/1/148
f 242/3/146 241/1/145 98/1/149 100/3/150
f 242/3/146 243/1/151 101/1/152 99/3/147
f 243/1/151 242/3/146 100/3/150 102/1/153
f 243/1/151 241/1/145 97/1/148 101/1/152
f 241/1/145 243/1/151 102/1/153 98/1/149
f 244/3/154 245/1/155 105/1/156 103/3/157
f 245/1/155 244/3/154 104/3/158 106/1/159
f 245/1/155 246/3/160 107/3/161 105/1/156
f 246/3/160 245/1/155 106/1/159 108/3/162
f 246/3/160 244/3/154 103/3/157 107/3/161
f 244/3/154 246/3/160 108/3/162 104/3/158
f 247/4/163 248/2/164 111/2/165 109/4/166
f 248/2/164 247/4/163 110/4/167 112/2/168
f 248/2/164 249/4/169 113/4/170 111/2/165
f 249/4/169 248/2/164 112/2/168 114/4/171
f 249/4/169 247/4/163 109/4/166 113/4/170
f 247/4/163 249/4/169 114/4/171 110/4/167
f 250/2/172 251/4/173 117/4/174 115/2/175
f 251/4/173 250/2/172 116/2/176 118/4/177
f 251/4/173 252/2/178 119/2/179 117/4/174
f 252/2/178 251/4/173 118/4/177 120/2/180
f 252/2/178 250/2/172 115/2/175 119/2/179
f 250/2/172 252/2/178 120/2/180 116/2/176
f 253/7/181 254/5/182 123/5/183 121/7/184
f 254/5/182 253/7/181 122/7/185 124/5/186
f 254/5/182 255/5/187 125/5/188 123/5/183
f 255/5/187 254/5/182 124/5/186 126/5/189
f 255/5/187 253/7/181 121/7/184 125/5/188
f 253/7/181 255/5/187 126/5/189 122/7/185
f 256/5/190 257/7/191 129/7/192 127/5/193
f 257/7/191 256/5/190 128/5/194 130/7/195
f 257/7/191 258/7/196 131/7/197 129/7/192
f 258/7/196 257/7/191 130/7/195 132/7/198
f 258/7/196 256/5/190 127/5/193 131/7/197
f 256/5/190 258/7/196 132/7/198 128/5/194
f 259/6/199 260/8/200 135/8/201 133/6/202
f 260/8/200 259/6/199 134/6/203 136/8/204
f 260/8/200 261/8/205 137/8/206 135/8/201
f 261/8/205 260/8/200 136/8/204 138/8/207
f 261/8/205 259/6/199 133/6/202 137/8/206
f 259/6/199 261/8/205 138/8/207 134/6/203
f 262/8/208 263/6/209 141/6/210 139/8/211
f 263/6/209 262/8/208 140/8/212 142/6/213
f 263/6/209 264/6/214 143/6/215 141/6/210
f 264/6/214 263/6/209 142/6/213 144/6/216
f 264/6/214 262/8/208 139/8/211 143/6/215
f 262/8/208 264/6/214 144/6/216 140/8/212
f 265/9/217 266/10/218 147/10/219 145/9/220
f 266/10/218 265/9/217 146/9/221 148/10/222
f 266/10/218 267/10/223 149/10/224 147/10/219
f 267/10/223 266/10/218 148/10/222 150/10/225
f 267/10/223 265/9/217 145/9/220 149/10/224
f 265/9/217 267/10/223 150/10/225 146/9/221
f 268/9/226 269/10/227 153/10/228 151/9/229
f 269/10/227 268/9/226 152/9/230 154/10/231
f 269/10/227 270/9/232 155/9/233 153/10/228
f 270/9/232 269/10/227 154/10/231 156/9/234
f 270/9/232 268/9/226 151/9/229 155/9/233
f 268/9/226 270/9/232 156/9/234 152/9/230
f 271/11/235 272/12/236 159/12/237 157/11/238
f 272/12/236 271/11/235 158/11/239 160/12/240
f 272/12/236 273/12/241 161/12/242 159/12/237
f 273/12/241 272/12/236 160/12/240 162/12/243
f 273/12/241 271/11/235 157/11/238 161/12/242
f 271/11/235 273/12/241 162/12/243 158/11/239
f 274/11/244 275/12/245 165/12/246 163/11/247
f 275/12/245 274/11/244 164/11/248 166/12/249
f 275/12/245 276/11/250 167/11/251 165/12/246
f 276/11/250 275/12/245 166/12/249 168/11/252
f 276/11/250 274/11/244 163/11/247 167/11/251
f 274/11/244 276/11/250 168/11/252 164/11/248
f 277/13/253 278/14/254 171/14/255 169/13/256
f 278/14/254 277/13/253 170/13/257 172/14/258
f 278/14/254 279/14/259 173/14/260 171/14/255
f 279/14/259 278/14/254 172/14/258 174/14/261
f 279/14/259 277/13/253 169/13/256 173/14/260
f 277/13/253 279/14/259 174/14/261 170/13/257
f 280/13/262 281/14/263 177/14/264 175/13/265
f 281/14/263 280/13/262 176/13/266 178/14/267
f 281/14/263 282/13/268 179/13/269 177/14/264
f 282/13/268 281/14/263 178/14/267 180/13/270
f 282/13/268 280/13/262 175/13/265 179/13/269
f 280/13/262 282/13/268 180/13/270 176/13/266
f 283/15/271 284/16/272 183/16/273 181/15/274
f 284/16/272 283/15/271 182/15/275 184/16/276
f 284/16/272 285/16/277 185/16/278 183/16/273
f 285/16/277 284/16/272 184/16/276 186/16/279
f 285/16/277 283/15/271 181/15/274 185/16/278
f 283/15/271 285/16/277 186/16/279 182/15/275
f 286/15/280 287/16/281 189/16/282 187/15/283
f 287/16/281 286/15/280 188/15/284 190/16/285
f 287/16/281 288/15/286 191/15/287 189/16/282
f 288/15/286 287/16/281 190/16/285 192/15/288
f 288/15/286 286/15/280 187/15/283 191/15/287
f 286/15/280 288/15/286 192/15/288 188/15/284
