# Converted from Roblox mesh format
# Vertices: 104, Faces: 102

v 0.012108 0.000000 0.059524 1.000000 1.000000 1.000000
v 0.000000 -0.012107 0.059524 1.000000 1.000000 1.000000
v 0.008562 -0.008561 0.059524 1.000000 1.000000 1.000000
v -0.012107 0.000000 0.059524 1.000000 1.000000 1.000000
v -0.008561 -0.008561 0.059524 1.000000 1.000000 1.000000
v 0.000000 0.012108 0.059524 1.000000 1.000000 1.000000
v 0.008562 0.008562 0.059524 1.000000 1.000000 1.000000
v -0.008561 0.008562 0.059524 1.000000 1.000000 1.000000
v -0.014582 -0.014582 0.033969 1.000000 1.000000 1.000000
v -0.008561 -0.008561 0.059524 1.000000 1.000000 1.000000
v -0.020622 0.000000 0.033969 1.000000 1.000000 1.000000
v 0.000000 -0.020621 0.033969 1.000000 1.000000 1.000000
v -0.012107 0.000000 0.059524 1.000000 1.000000 1.000000
v 0.000000 -0.012107 0.059524 1.000000 1.000000 1.000000
v -0.008561 0.008562 0.059524 1.000000 1.000000 1.000000
v 0.008562 -0.008561 0.059524 1.000000 1.000000 1.000000
v -0.014582 0.014582 0.033969 1.000000 1.000000 1.000000
v 0.014582 -0.014582 0.033969 1.000000 1.000000 1.000000
v 0.000000 0.020622 0.033969 1.000000 1.000000 1.000000
v 0.020622 0.000000 0.033969 1.000000 1.000000 1.000000
v 0.000000 0.012108 0.059524 1.000000 1.000000 1.000000
v 0.012108 0.000000 0.059524 1.000000 1.000000 1.000000
v 0.008562 0.008562 0.059524 1.000000 1.000000 1.000000
v 0.014582 0.014582 0.033969 1.000000 1.000000 1.000000
v 0.020411 0.020412 -0.023010 1.000000 1.000000 1.000000
v 0.000000 0.040981 -0.023010 1.000000 1.000000 1.000000
v 0.028978 0.028978 -0.023010 1.000000 1.000000 1.000000
v 0.000000 0.028866 -0.023010 1.000000 1.000000 1.000000
v 0.028866 0.000000 -0.023010 1.000000 1.000000 1.000000
v -0.020411 0.020412 -0.023010 1.000000 1.000000 1.000000
v 0.040981 0.000000 -0.023010 1.000000 1.000000 1.000000
v -0.028978 0.028978 -0.023010 1.000000 1.000000 1.000000
v 0.028978 -0.028977 -0.023010 1.000000 1.000000 1.000000
v -0.028866 0.000000 -0.023010 1.000000 1.000000 1.000000
v 0.020411 -0.020411 -0.023010 1.000000 1.000000 1.000000
v -0.040981 0.000000 -0.023010 1.000000 1.000000 1.000000
v 0.000000 -0.040981 -0.023010 1.000000 1.000000 1.000000
v -0.028978 -0.028977 -0.023010 1.000000 1.000000 1.000000
v 0.000000 -0.028865 -0.023010 1.000000 1.000000 1.000000
v -0.020411 -0.020411 -0.023010 1.000000 1.000000 1.000000
v 0.028687 0.000000 0.033969 1.000000 1.000000 1.000000
v 0.020285 0.020285 0.033969 1.000000 1.000000 1.000000
v 0.014582 0.014582 0.033969 1.000000 1.000000 1.000000
v 0.000000 0.028687 0.033969 1.000000 1.000000 1.000000
v 0.020622 0.000000 0.033969 1.000000 1.000000 1.000000
v 0.000000 0.020622 0.033969 1.000000 1.000000 1.000000
v 0.020285 -0.020284 0.033969 1.000000 1.000000 1.000000
v -0.020284 0.020285 0.033969 1.000000 1.000000 1.000000
v 0.014582 -0.014582 0.033969 1.000000 1.000000 1.000000
v -0.014582 0.014582 0.033969 1.000000 1.000000 1.000000
v 0.000000 -0.028686 0.033969 1.000000 1.000000 1.000000
v -0.028686 0.000000 0.033969 1.000000 1.000000 1.000000
v 0.000000 -0.020621 0.033969 1.000000 1.000000 1.000000
v -0.020622 0.000000 0.033969 1.000000 1.000000 1.000000
v -0.014582 -0.014582 0.033969 1.000000 1.000000 1.000000
v -0.020284 -0.020284 0.033969 1.000000 1.000000 1.000000
v 0.020285 0.020285 0.033969 1.000000 1.000000 1.000000
v 0.000000 0.040981 0.023404 1.000000 1.000000 1.000000
v 0.000000 0.028687 0.033969 1.000000 1.000000 1.000000
v -0.020284 0.020285 0.033969 1.000000 1.000000 1.000000
v 0.028978 0.028978 0.023404 1.000000 1.000000 1.000000
v -0.028978 0.028978 0.023404 1.000000 1.000000 1.000000
v 0.040981 0.000000 0.023404 1.000000 1.000000 1.000000
v -0.028686 0.000000 0.033969 1.000000 1.000000 1.000000
v 0.028687 0.000000 0.033969 1.000000 1.000000 1.000000
v -0.040981 0.000000 0.023404 1.000000 1.000000 1.000000
v 0.028978 -0.028977 0.023404 1.000000 1.000000 1.000000
v -0.028978 -0.028977 0.023404 1.000000 1.000000 1.000000
v 0.020285 -0.020284 0.033969 1.000000 1.000000 1.000000
v -0.020284 -0.020284 0.033969 1.000000 1.000000 1.000000
v 0.000000 -0.028686 0.033969 1.000000 1.000000 1.000000
v 0.000000 -0.040981 0.023404 1.000000 1.000000 1.000000
v -0.028978 -0.028977 -0.023010 1.000000 1.000000 1.000000
v 0.000000 -0.040981 -0.023010 1.000000 1.000000 1.000000
v -0.028978 -0.028977 0.023404 1.000000 1.000000 1.000000
v 0.000000 -0.040981 0.023404 1.000000 1.000000 1.000000
v -0.040981 0.000000 0.023404 1.000000 1.000000 1.000000
v 0.028978 -0.028977 -0.023010 1.000000 1.000000 1.000000
v -0.040981 0.000000 -0.023010 1.000000 1.000000 1.000000
v 0.028978 -0.028977 0.023404 1.000000 1.000000 1.000000
v -0.028978 0.028978 0.023404 1.000000 1.000000 1.000000
v 0.040981 0.000000 -0.023010 1.000000 1.000000 1.000000
v -0.028978 0.028978 -0.023010 1.000000 1.000000 1.000000
v 0.040981 0.000000 0.023404 1.000000 1.000000 1.000000
v 0.000000 0.040981 0.023404 1.000000 1.000000 1.000000
v 0.028978 0.028978 -0.023010 1.000000 1.000000 1.000000
v 0.000000 0.040981 -0.023010 1.000000 1.000000 1.000000
v 0.028978 0.028978 0.023404 1.000000 1.000000 1.000000
v 0.000000 -0.028865 -0.059524 1.000000 1.000000 1.000000
v 0.000000 -0.028865 -0.023010 1.000000 1.000000 1.000000
v -0.020411 -0.020411 -0.059524 1.000000 1.000000 1.000000
v -0.020411 -0.020411 -0.023010 1.000000 1.000000 1.000000
v 0.020411 -0.020411 -0.023010 1.000000 1.000000 1.000000
v -0.028866 0.000000 -0.059524 1.000000 1.000000 1.000000
v 0.020411 -0.020411 -0.059524 1.000000 1.000000 1.000000
v -0.028866 0.000000 -0.023010 1.000000 1.000000 1.000000
v 0.028866 0.000000 -0.023010 1.000000 1.000000 1.000000
v -0.020411 0.020412 -0.059524 1.000000 1.000000 1.000000
v 0.028866 0.000000 -0.059524 1.000000 1.000000 1.000000
v -0.020411 0.020412 -0.023010 1.000000 1.000000 1.000000
v 0.020411 0.020412 -0.023010 1.000000 1.000000 1.000000
v 0.000000 0.028866 -0.059524 1.000000 1.000000 1.000000
v 0.020411 0.020412 -0.059524 1.000000 1.000000 1.000000
v 0.000000 0.028866 -0.023010 1.000000 1.000000 1.000000

vn -0.000000 -0.000000 1.000000
vn -0.000000 -0.000000 1.000000
vn -0.000000 -0.000000 1.000000
vn -0.000000 -0.000000 1.000000
vn -0.000000 -0.000000 1.000000
vn -0.000000 -0.000000 1.000000
vn -0.000000 -0.000000 1.000000
vn -0.000000 -0.000000 1.000000
vn -0.670855 -0.670855 0.316079
vn -0.670855 -0.670855 0.316079
vn -0.948723 0.000000 0.316108
vn -0.000000 -0.948723 0.316108
vn -0.948723 0.000000 0.316108
vn -0.000000 -0.948723 0.316108
vn -0.670855 0.670855 0.316079
vn 0.670855 -0.670855 0.316079
vn -0.670855 0.670855 0.316079
vn 0.670855 -0.670855 0.316079
vn 0.000000 0.948723 0.316108
vn 0.948723 -0.000000 0.316108
vn 0.000000 0.948723 0.316108
vn 0.948723 -0.000000 0.316108
vn 0.670855 0.670855 0.316079
vn 0.670855 0.670855 0.316079
vn 0.000000 0.000000 -1.000000
vn 0.000000 0.000000 -1.000000
vn 0.000000 0.000000 -1.000000
vn 0.000000 0.000000 -1.000000
vn 0.000000 0.000000 -1.000000
vn 0.000000 0.000000 -1.000000
vn 0.000000 0.000000 -1.000000
vn 0.000000 0.000000 -1.000000
vn 0.000000 0.000000 -1.000000
vn 0.000000 0.000000 -1.000000
vn 0.000000 0.000000 -1.000000
vn 0.000000 0.000000 -1.000000
vn 0.000000 0.000000 -1.000000
vn 0.000000 0.000000 -1.000000
vn 0.000000 0.000000 -1.000000
vn 0.000000 0.000000 -1.000000
vn -0.000000 -0.000000 1.000000
vn -0.000000 -0.000000 1.000000
vn -0.000000 -0.000000 1.000000
vn -0.000000 -0.000000 1.000000
vn -0.000000 -0.000000 1.000000
vn -0.000000 -0.000000 1.000000
vn -0.000000 -0.000000 1.000000
vn -0.000000 -0.000000 1.000000
vn -0.000000 -0.000000 1.000000
vn -0.000000 -0.000000 1.000000
vn -0.000000 -0.000000 1.000000
vn -0.000000 -0.000000 1.000000
vn -0.000000 -0.000000 1.000000
vn -0.000000 -0.000000 1.000000
vn -0.000000 -0.000000 1.000000
vn -0.000000 -0.000000 1.000000
vn 0.460894 0.460894 0.758389
vn 0.000000 0.651796 0.758395
vn 0.000000 0.651796 0.758395
vn -0.460894 0.460894 0.758389
vn 0.460894 0.460894 0.758389
vn -0.460894 0.460894 0.758389
vn 0.651796 -0.000000 0.758395
vn -0.651738 -0.000000 0.758444
vn 0.651796 -0.000000 0.758395
vn -0.651738 -0.000000 0.758444
vn 0.460894 -0.460894 0.758389
vn -0.460894 -0.460894 0.758389
vn 0.460894 -0.460894 0.758389
vn -0.460894 -0.460894 0.758389
vn -0.000000 -0.651796 0.758395
vn -0.000000 -0.651796 0.758395
vn -0.707107 -0.707107 -0.000000
vn -0.000000 -1.000000 -0.000000
vn -0.707107 -0.707107 -0.000000
vn -0.000000 -1.000000 -0.000000
vn -1.000000 0.000000 0.000000
vn 0.707107 -0.707107 -0.000000
vn -1.000000 0.000000 0.000000
vn 0.707107 -0.707107 -0.000000
vn -0.707107 0.707107 0.000000
vn 1.000000 -0.000000 0.000000
vn -0.707107 0.707107 0.000000
vn 1.000000 -0.000000 0.000000
vn 0.000000 1.000000 0.000000
vn 0.707107 0.707107 0.000000
vn 0.000000 1.000000 0.000000
vn 0.707107 0.707107 0.000000
vn -0.000000 -1.000000 -0.000000
vn -0.000000 -1.000000 -0.000000
vn -0.707107 -0.707107 -0.000000
vn -0.707107 -0.707107 -0.000000
vn 0.707107 -0.707107 -0.000000
vn -1.000000 0.000000 0.000000
vn 0.707107 -0.707107 -0.000000
vn -1.000000 0.000000 0.000000
vn 1.000000 -0.000000 0.000000
vn -0.707107 0.707107 0.000000
vn 1.000000 -0.000000 0.000000
vn -0.707107 0.707107 0.000000
vn 0.707107 0.707107 0.000000
vn 0.000000 1.000000 0.000000
vn 0.707107 0.707107 0.000000
vn 0.000000 1.000000 0.000000

vt 0.000000 0.000000 0.0
vt 0.000000 0.000000 0.0
vt 0.000000 0.000000 0.0
vt 0.000000 0.000000 0.0
vt 0.000000 0.000000 0.0
vt 0.000000 0.000000 0.0
vt 0.000000 0.000000 0.0
vt 0.000000 0.000000 0.0
vt 0.000000 0.000000 0.0
vt 0.000000 0.000000 0.0
vt 0.000000 0.000000 0.0
vt 0.000000 0.000000 0.0
vt 0.000000 0.000000 0.0
vt 0.000000 0.000000 0.0
vt 0.000000 0.000000 0.0
vt 0.000000 0.000000 0.0
vt 0.000000 0.000000 0.0
vt 0.000000 0.000000 0.0
vt 0.000000 0.000000 0.0
vt 0.000000 0.000000 0.0
vt 0.000000 0.000000 0.0
vt 0.000000 0.000000 0.0
vt 0.000000 0.000000 0.0
vt 0.000000 0.000000 0.0
vt 0.000000 0.000000 0.0
vt 0.000000 0.000000 0.0
vt 0.000000 0.000000 0.0
vt 0.000000 0.000000 0.0
vt 0.000000 0.000000 0.0
vt 0.000000 0.000000 0.0
vt 0.000000 0.000000 0.0
vt 0.000000 0.000000 0.0
vt 0.000000 0.000000 0.0
vt 0.000000 0.000000 0.0
vt 0.000000 0.000000 0.0
vt 0.000000 0.000000 0.0
vt 0.000000 0.000000 0.0
vt 0.000000 0.000000 0.0
vt 0.000000 0.000000 0.0
vt 0.000000 0.000000 0.0
vt 0.000000 0.000000 0.0
vt 0.000000 0.000000 0.0
vt 0.000000 0.000000 0.0
vt 0.000000 0.000000 0.0
vt 0.000000 0.000000 0.0
vt 0.000000 0.000000 0.0
vt 0.000000 0.000000 0.0
vt 0.000000 0.000000 0.0
vt 0.000000 0.000000 0.0
vt 0.000000 0.000000 0.0
vt 0.000000 0.000000 0.0
vt 0.000000 0.000000 0.0
vt 0.000000 0.000000 0.0
vt 0.000000 0.000000 0.0
vt 0.000000 0.000000 0.0
vt 0.000000 0.000000 0.0
vt 0.000000 0.000000 0.0
vt 0.000000 0.000000 0.0
vt 0.000000 0.000000 0.0
vt 0.000000 0.000000 0.0
vt 0.000000 0.000000 0.0
vt 0.000000 0.000000 0.0
vt 0.000000 0.000000 0.0
vt 0.000000 0.000000 0.0
vt 0.000000 0.000000 0.0
vt 0.000000 0.000000 0.0
vt 0.000000 0.000000 0.0
vt 0.000000 0.000000 0.0
vt 0.000000 0.000000 0.0
vt 0.000000 0.000000 0.0
vt 0.000000 0.000000 0.0
vt 0.000000 0.000000 0.0
vt 0.000000 0.000000 0.0
vt 0.000000 0.000000 0.0
vt 0.000000 0.000000 0.0
vt 0.000000 0.000000 0.0
vt 0.000000 0.000000 0.0
vt 0.000000 0.000000 0.0
vt 0.000000 0.000000 0.0
vt 0.000000 0.000000 0.0
vt 0.000000 0.000000 0.0
vt 0.000000 0.000000 0.0
vt 0.000000 0.000000 0.0
vt 0.000000 0.000000 0.0
vt 0.000000 0.000000 0.0
vt 0.000000 0.000000 0.0
vt 0.000000 0.000000 0.0
vt 0.000000 0.000000 0.0
vt 0.000000 0.000000 0.0
vt 0.000000 0.000000 0.0
vt 0.000000 0.000000 0.0
vt 0.000000 0.000000 0.0
vt 0.000000 0.000000 0.0
vt 0.000000 0.000000 0.0
vt 0.000000 0.000000 0.0
vt 0.000000 0.000000 0.0
vt 0.000000 0.000000 0.0
vt 0.000000 0.000000 0.0
vt 0.000000 0.000000 0.0
vt 0.000000 0.000000 0.0
vt 0.000000 0.000000 0.0
vt 0.000000 0.000000 0.0
vt 0.000000 0.000000 0.0
vt 0.000000 0.000000 0.0

f 1/1/1 2/2/2 3/3/3
f 1/1/1 4/4/4 2/2/2
f 2/2/2 4/4/4 5/5/5
f 4/4/4 1/1/1 6/6/6
f 6/6/6 1/1/1 7/7/7
f 4/4/4 6/6/6 8/8/8
f 9/9/9 10/10/10 11/11/11
f 12/12/12 10/10/10 9/9/9
f 11/11/11 10/10/10 13/13/13
f 10/10/10 12/12/12 14/14/14
f 15/15/15 11/11/11 13/13/13
f 12/12/12 16/16/16 14/14/14
f 11/11/11 15/15/15 17/17/17
f 16/16/16 12/12/12 18/18/18
f 15/15/15 19/19/19 17/17/17
f 20/20/20 16/16/16 18/18/18
f 19/19/19 15/15/15 21/21/21
f 16/16/16 20/20/20 22/22/22
f 23/23/23 19/19/19 21/21/21
f 20/20/20 23/23/23 22/22/22
f 19/19/19 23/23/23 24/24/24
f 24/24/24 23/23/23 20/20/20
f 25/25/25 26/26/26 27/27/27
f 26/26/26 25/25/25 28/28/28
f 27/27/27 29/29/29 25/25/25
f 30/30/30 26/26/26 28/28/28
f 27/27/27 31/31/31 29/29/29
f 26/26/26 30/30/30 32/32/32
f 33/33/33 29/29/29 31/31/31
f 34/34/34 32/32/32 30/30/30
f 29/29/29 33/33/33 35/35/35
f 32/32/32 34/34/34 36/36/36
f 37/37/37 35/35/35 33/33/33
f 34/34/34 38/38/38 36/36/36
f 35/35/35 37/37/37 39/39/39
f 38/38/38 34/34/34 40/40/40
f 40/40/40 39/39/39 37/37/37
f 37/37/37 38/38/38 40/40/40
f 41/41/41 42/42/42 43/43/43
f 44/44/44 43/43/43 42/42/42
f 41/41/41 43/43/43 45/45/45
f 43/43/43 44/44/44 46/46/46
f 47/47/47 41/41/41 45/45/45
f 48/48/48 46/46/46 44/44/44
f 47/47/47 45/45/45 49/49/49
f 46/46/46 48/48/48 50/50/50
f 49/49/49 51/51/51 47/47/47
f 52/52/52 50/50/50 48/48/48
f 51/51/51 49/49/49 53/53/53
f 50/50/50 52/52/52 54/54/54
f 55/55/55 51/51/51 53/53/53
f 56/56/56 54/54/54 52/52/52
f 51/51/51 55/55/55 56/56/56
f 54/54/54 56/56/56 55/55/55
f 57/57/57 58/58/58 59/59/59
f 60/60/60 59/59/59 58/58/58
f 58/58/58 57/57/57 61/61/61
f 58/58/58 62/62/62 60/60/60
f 63/63/63 61/61/61 57/57/57
f 62/62/62 64/64/64 60/60/60
f 63/63/63 57/57/57 65/65/65
f 64/64/64 62/62/62 66/66/66
f 67/67/67 63/63/63 65/65/65
f 68/68/68 64/64/64 66/66/66
f 67/67/67 65/65/65 69/69/69
f 64/64/64 68/68/68 70/70/70
f 71/71/71 67/67/67 69/69/69
f 72/72/72 70/70/70 68/68/68
f 67/67/67 71/71/71 72/72/72
f 70/70/70 72/72/72 71/71/71
f 73/73/73 74/74/74 75/75/75
f 74/74/74 76/76/76 75/75/75
f 73/73/73 75/75/75 77/77/77
f 74/74/74 78/78/78 76/76/76
f 79/79/79 73/73/73 77/77/77
f 78/78/78 80/80/80 76/76/76
f 79/79/79 77/77/77 81/81/81
f 78/78/78 82/82/82 80/80/80
f 83/83/83 79/79/79 81/81/81
f 82/82/82 84/84/84 80/80/80
f 83/83/83 81/81/81 85/85/85
f 82/82/82 86/86/86 84/84/84
f 87/87/87 83/83/83 85/85/85
f 86/86/86 88/88/88 84/84/84
f 87/87/87 85/85/85 88/88/88
f 86/86/86 87/87/87 88/88/88
f 89/89/89 90/90/90 91/91/91
f 91/91/91 90/90/90 92/92/92
f 89/89/89 93/93/93 90/90/90
f 91/91/91 92/92/92 94/94/94
f 95/95/95 93/93/93 89/89/89
f 94/94/94 92/92/92 96/96/96
f 95/95/95 97/97/97 93/93/93
f 94/94/94 96/96/96 98/98/98
f 99/99/99 97/97/97 95/95/95
f 98/98/98 96/96/96 100/100/100
f 99/99/99 101/101/101 97/97/97
f 98/98/98 100/100/100 102/102/102
f 103/103/103 101/101/101 99/99/99
f 102/102/102 100/100/100 104/104/104
f 103/103/103 104/104/104 101/101/101
f 102/102/102 104/104/104 103/103/103
