# Blender 5.2.0 LTS
# www.blender.org
mtllib bullet.mtl
o bullet
v 0.194241 -0.031574 -0.031573
v 0.193341 -0.030725 -0.030724
v 0.194241 -0.031574 0.031573
v 0.193341 -0.030725 0.030724
v 0.194241 -0.044652 0.000000
v 0.193341 -0.043452 0.000000
v 0.194241 0.031573 -0.031573
v 0.193341 0.030724 -0.030724
v 0.194241 -0.000001 -0.044652
v 0.193341 -0.000001 -0.043452
v 0.194241 0.031573 0.031573
v 0.193341 0.030724 0.030724
v 0.194241 -0.000001 0.044652
v 0.193341 -0.000001 0.043452
v 0.194241 0.044651 -0.000000
v 0.193341 0.043451 -0.000000
v -0.194241 0.012801 0.012801
v -0.193205 0.012034 0.012034
v -0.194241 -0.012802 0.012801
v -0.193205 -0.012035 0.012034
v -0.194241 -0.000001 0.018104
v -0.193205 -0.000001 0.017020
v -0.194241 -0.000001 -0.018103
v -0.193205 -0.000001 -0.017019
v -0.194241 -0.018104 0.000000
v -0.193205 -0.017020 0.000000
v -0.194241 -0.012802 -0.012801
v -0.193205 -0.012035 -0.012034
v -0.194241 0.018103 -0.000000
v -0.193205 0.017019 -0.000000
v -0.194241 0.012801 -0.012801
v -0.193205 0.012034 -0.012034
v -0.067914 0.021354 0.021355
v -0.067841 0.020295 0.020296
v -0.160748 0.018154 0.018155
v -0.160549 0.017103 0.017104
v -0.067914 -0.000001 0.030200
v -0.067841 -0.000001 0.028702
v -0.160748 -0.000001 0.025675
v -0.160549 -0.000001 0.024188
v -0.067914 0.030199 -0.000000
v -0.067841 0.028701 -0.000000
v -0.160748 0.025674 -0.000000
v -0.160549 0.024187 -0.000000
v -0.160748 0.018154 -0.018155
v -0.160549 0.017103 -0.017104
v -0.067914 0.021354 -0.021355
v -0.067841 0.020295 -0.020296
v -0.067914 -0.000001 -0.030200
v -0.067841 -0.000001 -0.028702
v -0.160748 -0.000001 -0.025675
v -0.160549 -0.000001 -0.024188
v -0.160748 -0.018156 -0.018155
v -0.160549 -0.017105 -0.017104
v -0.067914 -0.021355 -0.021355
v -0.067841 -0.020296 -0.020296
v -0.067914 -0.030201 0.000000
v -0.067841 -0.028703 0.000000
v -0.160748 -0.025676 0.000000
v -0.160549 -0.024189 0.000000
v -0.160748 -0.018156 0.018155
v -0.160549 -0.017105 0.017104
v -0.067914 -0.021355 0.021355
v -0.067841 -0.020296 0.020296
v -0.067914 -0.000001 -0.032153
v -0.066712 -0.000001 -0.031256
v -0.067914 -0.022736 -0.022735
v -0.066712 -0.022102 -0.022101
v -0.067914 -0.032153 0.000000
v -0.066712 -0.031256 0.000000
v -0.067914 0.022735 -0.022735
v -0.066712 0.022101 -0.022101
v -0.067914 -0.022736 0.022735
v -0.066712 -0.022102 0.022101
v -0.067914 -0.000001 0.032153
v -0.066712 -0.000001 0.031256
v -0.067914 0.032152 -0.000000
v -0.066712 0.031255 -0.000000
v -0.067914 0.022735 0.022735
v -0.066712 0.022101 0.022101
v -0.045983 -0.031574 0.031573
v -0.045624 -0.030544 0.030543
v -0.045983 -0.000001 0.044652
v -0.045624 -0.000001 0.043196
v -0.045983 -0.044652 0.000000
v -0.045624 -0.043196 0.000000
v -0.045983 -0.031574 -0.031573
v -0.045624 -0.030544 -0.030543
v -0.045983 -0.000001 -0.044652
v -0.045624 -0.000001 -0.043196
v -0.045983 0.031573 -0.031573
v -0.045624 0.030543 -0.030543
v -0.045983 0.044651 -0.000000
v -0.045624 0.043195 -0.000000
v -0.045983 0.031573 0.031573
v -0.045624 0.030543 0.030543
v -0.045053 0.000692 0.043637
v -0.045053 0.030365 0.031345
v 0.193041 0.030456 0.031436
v 0.193041 0.000692 0.043765
v 0.193791 -0.030576 0.030575
v 0.193791 -0.000001 0.043240
v 0.193791 0.030575 0.030575
v 0.193791 0.043239 -0.000000
v 0.193791 0.030575 -0.030575
v 0.193791 -0.000001 -0.043240
v 0.193791 -0.030576 -0.030575
v 0.193791 -0.043240 0.000000
v -0.193723 0.011844 0.011844
v -0.193723 -0.000001 0.016750
v -0.193723 -0.011845 0.011844
v -0.193723 -0.016750 0.000000
v -0.193723 -0.011845 -0.011844
v -0.193723 -0.000001 -0.016749
v -0.193723 0.011844 -0.011844
v -0.193723 0.016749 -0.000000
v -0.068627 0.029126 -0.000693
v -0.159900 0.024680 -0.000693
v -0.159899 0.017941 -0.016962
v -0.068627 0.021086 -0.020106
v -0.068627 -0.021087 0.020106
v -0.068627 -0.029128 0.000693
v -0.159899 -0.024682 0.000693
v -0.159899 -0.017943 0.016962
v -0.161383 -0.016818 -0.017800
v -0.161383 -0.000696 -0.024478
v -0.192989 -0.000696 -0.017439
v -0.192989 -0.011841 -0.012823
v -0.161383 0.000694 -0.024478
v -0.161383 0.016816 -0.017800
v -0.192989 0.011840 -0.012823
v -0.192989 0.000694 -0.017439
v -0.161383 0.024477 0.000695
v -0.161383 0.017799 0.016817
v -0.192989 0.012823 0.011840
v -0.192989 0.017439 0.000695
v -0.068627 0.029126 0.000693
v -0.068627 0.021086 0.020106
v -0.159899 0.017941 0.016962
v -0.159900 0.024680 0.000693
v -0.159899 0.000692 0.024681
v -0.159899 0.016961 0.017942
v -0.068627 0.020105 0.021087
v -0.068627 0.000692 0.029127
v -0.161383 -0.000696 0.024478
v -0.161383 -0.016818 0.017800
v -0.192989 -0.011841 0.012823
v -0.192989 -0.000696 0.017440
v -0.161383 -0.017801 0.016817
v -0.161383 -0.024479 0.000695
v -0.192989 -0.017440 0.000695
v -0.192989 -0.012824 0.011840
v -0.068627 -0.000694 0.029127
v -0.068627 -0.020106 0.021087
v -0.159899 -0.016963 0.017942
v -0.159899 -0.000694 0.024681
v -0.192989 0.000694 0.017440
v -0.192989 0.011840 0.012823
v -0.161383 0.016816 0.017800
v -0.161383 0.000694 0.024478
v -0.161383 0.024477 -0.000695
v -0.192989 0.017439 -0.000695
v -0.192989 0.012823 -0.011840
v -0.161383 0.017799 -0.016817
v -0.161383 -0.024479 -0.000695
v -0.161383 -0.017801 -0.016817
v -0.192989 -0.012824 -0.011840
v -0.192989 -0.017440 -0.000695
v -0.068627 -0.029128 -0.000693
v -0.068627 -0.021087 -0.020106
v -0.159899 -0.017943 -0.016962
v -0.159899 -0.024682 -0.000693
v -0.068627 0.000692 -0.029127
v -0.068627 0.020105 -0.021087
v -0.159899 0.016961 -0.017942
v -0.159899 0.000692 -0.024681
v -0.066649 0.021980 -0.022978
v -0.066649 0.000705 -0.031790
v -0.046467 0.000705 -0.043253
v -0.046467 0.030085 -0.031083
v -0.067313 -0.000001 0.030893
v -0.067313 -0.021845 0.021844
v -0.067313 -0.030893 0.000000
v -0.067313 -0.021845 -0.021844
v -0.067313 -0.000001 -0.030893
v -0.067313 0.021844 -0.021844
v -0.067313 0.030892 -0.000000
v -0.067313 0.021844 0.021844
v 0.193041 -0.000694 0.043765
v 0.193041 -0.030457 0.031436
v -0.045053 -0.030366 0.031345
v -0.045053 -0.000694 0.043637
v -0.045053 -0.043637 0.000693
v -0.045053 -0.031346 0.030365
v 0.193041 -0.031437 0.030456
v 0.193041 -0.043765 0.000693
v -0.045053 -0.031346 -0.030365
v -0.045053 -0.043637 -0.000693
v 0.193041 -0.043765 -0.000693
v 0.193041 -0.031437 -0.030456
v -0.068627 -0.020106 -0.021087
v -0.068627 -0.000694 -0.029127
v -0.159899 -0.000694 -0.024681
v -0.159899 -0.016963 -0.017942
v -0.045053 -0.000694 -0.043637
v -0.045053 -0.030366 -0.031345
v 0.193041 -0.030457 -0.031436
v 0.193041 -0.000694 -0.043765
v -0.045053 0.043636 -0.000693
v -0.045053 0.031345 -0.030365
v 0.193041 0.031436 -0.030456
v 0.193041 0.043764 -0.000693
v -0.045053 0.030365 -0.031345
v -0.045053 0.000692 -0.043637
v 0.193041 0.000692 -0.043765
v 0.193041 0.030456 -0.031436
v -0.066649 -0.000707 -0.031790
v -0.066649 -0.021981 -0.022978
v -0.046467 -0.030086 -0.031083
v -0.046467 -0.000707 -0.043253
v -0.066649 0.022978 -0.021980
v -0.046467 0.031083 -0.030085
v -0.046467 0.043252 -0.000706
v -0.066649 0.031789 -0.000706
v -0.066649 -0.022979 -0.021980
v -0.066649 -0.031790 -0.000706
v -0.046467 -0.043253 -0.000706
v -0.046467 -0.031084 -0.030085
v -0.066649 0.000705 0.031790
v -0.066649 0.021980 0.022978
v -0.046467 0.030085 0.031083
v -0.046467 0.000705 0.043253
v -0.066649 0.022978 0.021980
v -0.066649 0.031789 0.000706
v -0.046467 0.043252 0.000706
v -0.046467 0.031083 0.030085
v -0.066649 -0.031790 0.000706
v -0.066649 -0.022979 0.021980
v -0.046467 -0.031084 0.030085
v -0.046467 -0.043253 0.000706
v -0.066649 -0.021981 0.022978
v -0.066649 -0.000707 0.031790
v -0.046467 -0.000707 0.043253
v -0.046467 -0.030086 0.031083
v -0.045053 0.031345 0.030365
v -0.045053 0.043636 0.000693
v 0.193041 0.043764 0.000693
v 0.193041 0.031436 0.030456
vn 0.6932 0.7202 -0.0276
vn 0.6932 -0.5287 0.4898
vn -0.2246 0.6891 0.6890
vn -0.2246 -0.0000 0.9745
vn 0.2740 -0.0000 -0.9617
vn 0.2740 -0.6800 -0.6800
vn -0.6660 -0.4301 0.6095
vn 0.6502 0.5372 0.5372
vn -0.4526 -0.6305 -0.6305
vn -0.6660 0.7351 0.1268
vn 0.6502 -0.0000 0.7597
vn -0.4526 -0.0000 -0.8917
vn 0.4870 0.6176 -0.6176
vn 0.4870 -0.0000 -0.8734
vn 0.6502 -0.5372 0.5372
vn -0.4526 0.6305 -0.6305
vn 0.4870 -0.6176 -0.6176
vn 0.4870 -0.8734 -0.0000
vn 0.6502 0.7597 -0.0000
vn -0.4526 -0.8917 -0.0000
vn 0.4870 -0.6176 0.6176
vn 0.6502 0.5372 -0.5372
vn -0.4526 -0.6305 0.6305
vn 0.4870 -0.0000 0.8734
vn 0.6502 -0.0000 -0.7597
vn -0.4526 -0.0000 0.8917
vn 0.4870 0.6176 0.6176
vn 0.6502 -0.5372 -0.5372
vn -0.4526 0.6305 0.6305
vn 0.4870 0.8734 -0.0000
vn 0.6502 -0.7597 -0.0000
vn -0.4526 0.8917 -0.0000
vn -0.4341 -0.6370 -0.6370
vn -0.4341 -0.0000 -0.9009
vn -0.7293 -0.0000 0.6842
vn -0.7293 0.4838 0.4838
vn 0.5790 -0.5766 -0.5765
vn 0.5790 -0.0000 -0.8153
vn -0.4341 0.6370 -0.6370
vn -0.7293 -0.4838 0.4838
vn 0.5790 0.5765 -0.5765
vn -0.4341 0.9009 -0.0000
vn -0.7293 -0.6842 -0.0000
vn 0.5790 0.8153 -0.0000
vn -0.4341 0.6370 0.6370
vn -0.7293 -0.4838 -0.4838
vn 0.5790 0.5765 0.5765
vn -0.4341 -0.0000 0.9009
vn -0.7293 -0.0000 -0.6842
vn 0.5790 -0.0000 0.8153
vn -0.4341 -0.6370 0.6370
vn -0.7293 0.4838 -0.4838
vn 0.5790 -0.5765 0.5765
vn -0.4341 -0.9009 -0.0000
vn -0.7293 0.6842 -0.0000
vn 0.5789 -0.8154 -0.0000
vn -0.6823 -0.1458 -0.7164
vn 0.6740 -0.0492 -0.7371
vn -0.1237 0.9923 -0.0000
vn -0.4760 0.8795 -0.0000
vn -0.4223 -0.9065 -0.0000
vn 0.1502 -0.9887 -0.0000
vn 0.6740 0.4864 0.5560
vn -0.1237 0.7017 -0.7017
vn 0.1502 -0.6991 0.6991
vn -0.6823 0.4035 0.6097
vn -0.4760 0.6219 -0.6219
vn -0.4223 -0.6410 0.6410
vn -0.6823 -0.4035 -0.6097
vn -0.6823 0.1458 0.7164
vn -0.4760 -0.8795 -0.0000
vn -0.4760 -0.6219 0.6219
vn -0.4223 0.6410 -0.6410
vn -0.4223 0.9065 -0.0000
vn 0.6740 0.0492 0.7371
vn -0.1237 -0.9923 -0.0000
vn 0.1502 0.9887 -0.0000
vn 0.6740 -0.4864 -0.5560
vn -0.1237 -0.7017 0.7017
vn 0.1502 0.6991 -0.6991
vn -0.6897 0.6506 -0.3178
vn -0.6897 -0.6848 0.2353
vn -0.1237 -0.0000 -0.9923
vn -0.1237 -0.7017 -0.7017
vn 0.1502 0.6991 0.6991
vn 0.1502 -0.0000 0.9887
vn 0.6065 -0.7636 -0.2214
vn 0.6065 0.3834 -0.6965
vn -0.6897 0.6848 0.2353
vn -0.6897 -0.6506 -0.3178
vn 0.6065 -0.3834 -0.6965
vn 0.6065 0.7636 -0.2214
vn -0.6897 -0.2353 0.6848
vn -0.6897 0.3178 -0.6506
vn -0.1237 0.7017 0.7017
vn 0.1502 -0.6991 -0.6991
vn 0.6065 0.6965 -0.3834
vn 0.6065 0.2214 0.7636
vn -0.6823 -0.1458 0.7164
vn -0.6823 0.4035 -0.6097
vn -0.4760 0.6219 0.6219
vn -0.4223 -0.6410 -0.6410
vn 0.6740 0.4864 -0.5560
vn 0.6740 -0.0492 0.7371
vn 0.6740 0.7371 -0.0492
vn 0.6740 -0.5560 0.4864
vn -0.1237 -0.0000 0.9923
vn 0.1502 -0.0000 -0.9887
vn -0.6823 -0.6097 0.4034
vn -0.6823 0.7164 -0.1458
vn -0.4760 -0.0000 0.8795
vn -0.4223 -0.0000 -0.9065
vn -0.6897 -0.6848 -0.2353
vn -0.6897 0.6506 0.3178
vn 0.6065 0.3834 0.6965
vn 0.6065 -0.7637 0.2214
vn -0.6897 -0.3178 -0.6506
vn -0.6897 0.2353 0.6848
vn 0.6065 -0.2214 0.7636
vn 0.6065 -0.6965 -0.3834
vn -0.6823 -0.7164 -0.1458
vn -0.6823 0.6097 0.4034
vn 0.6740 0.5560 0.4864
vn 0.6740 -0.7371 -0.0492
vn 0.6065 0.7636 0.2214
vn 0.6065 -0.3834 0.6965
vn -0.6897 -0.6506 0.3178
vn -0.6897 0.6848 -0.2353
vn -0.6897 -0.2353 -0.6848
vn 0.6065 0.2214 -0.7636
vn 0.6065 0.6965 0.3834
vn -0.6897 0.3178 0.6506
vn -0.6897 0.2353 -0.6848
vn -0.6897 -0.3178 0.6506
vn 0.6065 -0.6966 0.3834
vn 0.6065 -0.2214 -0.7636
vn -0.6823 0.1458 -0.7164
vn -0.6823 -0.4035 0.6097
vn -0.4760 -0.6219 -0.6219
vn -0.4223 0.6410 0.6410
vn 0.6740 -0.4864 0.5560
vn 0.6740 0.0492 -0.7371
vn -0.6823 0.7164 0.1458
vn -0.6823 -0.6097 -0.4034
vn -0.4760 -0.0000 -0.8795
vn -0.4223 -0.0000 0.9065
vn 0.6740 -0.5560 -0.4864
vn 0.6740 0.7371 0.0492
vn 0.5160 -0.3185 -0.7952
vn 0.5160 0.7875 -0.3371
vn -0.8257 -0.0000 -0.5641
vn -0.8257 0.3989 -0.3989
vn 0.7298 -0.4834 0.4834
vn 0.7299 -0.0000 0.6836
vn -0.6598 0.6660 0.3480
vn -0.2246 -0.0000 -0.9745
vn 0.2740 -0.0000 0.9617
vn -0.6598 -0.7170 -0.2249
vn -0.2246 0.6891 -0.6890
vn 0.2740 -0.6800 0.6800
vn -0.3531 -0.0000 -0.9356
vn -0.3531 0.6616 -0.6615
vn -0.8257 -0.3989 0.3989
vn -0.8257 -0.0000 0.5641
vn 0.7299 -0.0000 -0.6836
vn 0.7298 0.4834 -0.4834
vn -0.3531 0.9356 -0.0000
vn -0.8257 -0.5641 -0.0000
vn 0.7299 0.6836 -0.0000
vn -0.3531 0.6616 0.6615
vn -0.8257 -0.3989 -0.3989
vn 0.7298 0.4834 0.4834
vn -0.3531 -0.0000 0.9356
vn -0.3531 -0.6616 0.6616
vn -0.3531 -0.9356 -0.0000
vn -0.8257 0.5641 -0.0000
vn 0.7299 -0.6836 -0.0000
vn -0.3531 -0.6616 -0.6616
vn -0.8257 0.3989 0.3989
vn 0.7298 -0.4834 -0.4834
vn -0.6660 -0.7351 0.1268
vn -0.6660 0.4301 0.6095
vn 0.6932 0.5287 0.4898
vn -0.2246 -0.6891 0.6890
vn 0.2740 0.6801 -0.6800
vn 0.6932 -0.7202 -0.0276
vn 0.6932 0.0276 0.7202
vn 0.6932 -0.4898 -0.5288
vn -0.2246 -0.9745 -0.0000
vn 0.2740 0.9617 -0.0000
vn -0.6660 -0.6095 -0.4301
vn -0.6660 -0.1268 0.7351
vn 0.6932 -0.4898 0.5288
vn 0.6932 0.0276 -0.7202
vn -0.2246 -0.6891 -0.6890
vn 0.2740 0.6801 0.6800
vn -0.6660 -0.1268 -0.7351
vn -0.6660 -0.6095 0.4301
vn -0.6823 0.6097 -0.4034
vn -0.6823 -0.7164 0.1458
vn 0.6740 -0.7371 0.0492
vn 0.6740 0.5560 -0.4864
vn 0.6932 -0.7202 0.0276
vn 0.6932 0.5287 -0.4898
vn -0.6660 0.4301 -0.6095
vn -0.6660 -0.7351 -0.1268
vn 0.6932 -0.0276 -0.7202
vn 0.6932 0.4898 0.5287
vn -0.2246 0.9745 -0.0000
vn 0.2740 -0.9617 -0.0000
vn -0.6660 0.6095 0.4301
vn -0.6660 0.1268 -0.7351
vn 0.6932 -0.5287 -0.4898
vn 0.6932 0.7202 0.0276
vn -0.6660 0.7351 -0.1268
vn -0.6660 -0.4301 -0.6095
vn 0.5160 -0.7875 -0.3370
vn 0.5160 0.3185 -0.7952
vn -0.6598 0.7170 -0.2249
vn -0.6598 -0.6660 0.3480
vn 0.5160 0.7952 0.3185
vn -0.6598 0.2249 0.7170
vn -0.6598 -0.3480 -0.6660
vn 0.5160 0.3371 -0.7875
vn 0.5160 -0.7952 0.3185
vn 0.5160 -0.3371 -0.7875
vn -0.6598 0.3480 -0.6660
vn -0.6598 -0.2249 0.7170
vn 0.5160 0.7875 0.3371
vn 0.5160 -0.3185 0.7952
vn -0.6598 -0.7170 0.2249
vn -0.6598 0.6660 -0.3480
vn 0.5160 0.7952 -0.3185
vn 0.5160 0.3371 0.7875
vn -0.6598 -0.3480 0.6660
vn -0.6598 0.2249 -0.7170
vn 0.5160 -0.3371 0.7875
vn 0.5160 -0.7952 -0.3185
vn -0.6598 -0.2249 -0.7170
vn -0.6598 0.3480 0.6660
vn 0.5160 0.3185 0.7952
vn 0.5160 -0.7875 0.3370
vn -0.6598 -0.6660 -0.3480
vn -0.6598 0.7170 0.2249
vn 0.6932 0.4898 -0.5288
vn 0.6932 -0.0276 0.7202
vn -0.6660 0.1268 0.7351
vn -0.6660 0.6095 -0.4301
vt 0.000000 1.000000
vt 0.125000 1.000000
vt 0.125000 0.500000
vt 0.000000 0.500000
vt 0.919706 0.419706
vt 0.750000 0.490000
vt 0.580294 0.419706
vt 0.510000 0.250000
vt 0.580294 0.080294
vt 0.750000 0.010000
vt 0.919706 0.080294
vt 0.990000 0.250000
vt 0.875000 1.000000
vt 0.750000 1.000000
vt 0.625000 1.000000
vt 0.500000 1.000000
vt 0.375000 1.000000
vt 0.250000 1.000000
vt 1.000000 1.000000
vt 1.000000 0.500000
vt 0.875000 0.500000
vt 0.750000 0.500000
vt 0.625000 0.500000
vt 0.500000 0.500000
vt 0.375000 0.500000
vt 0.250000 0.500000
s 1
f 97/1/1 98/2/2 95/2/3 83/1/4
f 98/2/2 97/1/1 84/1/5 96/2/6
f 98/2/2 99/3/7 11/3/8 95/2/3
f 99/3/7 98/2/2 96/2/6 12/3/9
f 99/3/7 100/4/10 13/4/11 11/3/8
f 100/4/10 99/3/7 12/3/9 14/4/12
f 100/4/10 97/1/1 83/1/4 13/4/11
f 97/1/1 100/4/10 14/4/12 84/1/5
f 101/5/13 102/6/14 13/6/11 3/5/15
f 102/6/14 101/5/13 4/5/16 14/6/12
f 102/6/14 103/7/17 11/7/8 13/6/11
f 103/7/17 102/6/14 14/6/12 12/7/9
f 103/7/17 104/8/18 15/8/19 11/7/8
f 104/8/18 103/7/17 12/7/9 16/8/20
f 104/8/18 105/9/21 7/9/22 15/8/19
f 105/9/21 104/8/18 16/8/20 8/9/23
f 105/9/21 106/10/24 9/10/25 7/9/22
f 106/10/24 105/9/21 8/9/23 10/10/26
f 106/10/24 107/11/27 1/11/28 9/10/25
f 107/11/27 106/10/24 10/10/26 2/11/29
f 107/11/27 108/12/30 5/12/31 1/11/28
f 108/12/30 107/11/27 2/11/29 6/12/32
f 108/12/30 101/5/13 3/5/15 5/12/31
f 101/5/13 108/12/30 6/12/32 4/5/16
f 109/2/33 110/1/34 21/1/35 17/2/36
f 110/1/34 109/2/33 18/2/37 22/1/38
f 110/1/34 111/13/39 19/13/40 21/1/35
f 111/13/39 110/1/34 22/1/38 20/13/41
f 111/13/39 112/14/42 25/14/43 19/13/40
f 112/14/42 111/13/39 20/13/41 26/14/44
f 112/14/42 113/15/45 27/15/46 25/14/43
f 113/15/45 112/14/42 26/14/44 28/15/47
f 113/15/45 114/16/48 23/16/49 27/15/46
f 114/16/48 113/15/45 28/15/47 24/16/50
f 114/16/48 115/17/51 31/17/52 23/16/49
f 115/17/51 114/16/48 24/16/50 32/17/53
f 115/17/51 116/18/54 29/18/55 31/17/52
f 116/18/54 115/17/51 32/17/53 30/18/56
f 116/18/54 109/2/33 17/2/36 29/18/55
f 109/2/33 116/18/54 30/18/56 18/2/37
f 117/18/57 118/18/58 43/18/59 41/18/60
f 118/18/58 117/18/57 42/18/61 44/18/62
f 118/18/58 119/17/63 45/17/64 43/18/59
f 119/17/63 118/18/58 44/18/62 46/17/65
f 119/17/63 120/17/66 47/17/67 45/17/64
f 120/17/66 119/17/63 46/17/65 48/17/68
f 120/17/66 117/18/57 41/18/60 47/17/67
f 117/18/57 120/17/66 48/17/68 42/18/61
f 121/13/69 122/14/70 57/14/71 63/13/72
f 122/14/70 121/13/69 64/13/73 58/14/74
f 122/14/70 123/14/75 59/14/76 57/14/71
f 123/14/75 122/14/70 58/14/74 60/14/77
f 123/14/75 124/13/78 61/13/79 59/14/76
f 124/13/78 123/14/75 60/14/77 62/13/80
f 124/13/78 121/13/69 63/13/72 61/13/79
f 121/13/69 124/13/78 62/13/80 64/13/73
f 125/15/81 126/16/82 51/16/83 53/15/84
f 126/16/82 125/15/81 54/15/85 52/16/86
f 126/16/82 127/16/87 23/16/49 51/16/83
f 127/16/87 126/16/82 52/16/86 24/16/50
f 127/16/87 128/15/88 27/15/46 23/16/49
f 128/15/88 127/16/87 24/16/50 28/15/47
f 128/15/88 125/15/81 53/15/84 27/15/46
f 125/15/81 128/15/88 28/15/47 54/15/85
f 129/16/89 130/17/90 45/17/64 51/16/83
f 130/17/90 129/16/89 52/16/86 46/17/65
f 130/17/90 131/17/91 31/17/52 45/17/64
f 131/17/91 130/17/90 46/17/65 32/17/53
f 131/17/91 132/16/92 23/16/49 31/17/52
f 132/16/92 131/17/91 32/17/53 24/16/50
f 132/16/92 129/16/89 51/16/83 23/16/49
f 129/16/89 132/16/92 24/16/50 52/16/86
f 133/18/93 134/2/94 35/2/95 43/18/59
f 134/2/94 133/18/93 44/18/62 36/2/96
f 134/2/94 135/2/97 17/2/36 35/2/95
f 135/2/97 134/2/94 36/2/96 18/2/37
f 135/2/97 136/18/98 29/18/55 17/2/36
f 136/18/98 135/2/97 18/2/37 30/18/56
f 136/18/98 133/18/93 43/18/59 29/18/55
f 133/18/93 136/18/98 30/18/56 44/18/62
f 137/18/99 138/2/100 33/2/101 41/18/60
f 138/2/100 137/18/99 42/18/61 34/2/102
f 138/2/100 139/2/103 35/2/95 33/2/101
f 139/2/103 138/2/100 34/2/102 36/2/96
f 139/2/103 140/18/104 43/18/59 35/2/95
f 140/18/104 139/2/103 36/2/96 44/18/62
f 140/18/104 137/18/99 41/18/60 43/18/59
f 137/18/99 140/18/104 44/18/62 42/18/61
f 141/1/105 142/2/106 35/2/95 39/1/107
f 142/2/106 141/1/105 40/1/108 36/2/96
f 142/2/106 143/2/109 33/2/101 35/2/95
f 143/2/109 142/2/106 36/2/96 34/2/102
f 143/2/109 144/1/110 37/1/111 33/2/101
f 144/1/110 143/2/109 34/2/102 38/1/112
f 144/1/110 141/1/105 39/1/107 37/1/111
f 141/1/105 144/1/110 38/1/112 40/1/108
f 145/19/113 146/13/114 61/13/79 39/19/107
f 146/13/114 145/19/113 40/19/108 62/13/80
f 146/13/114 147/13/115 19/13/40 61/13/79
f 147/13/115 146/13/114 62/13/80 20/13/41
f 147/13/115 148/19/116 21/19/35 19/13/40
f 148/19/116 147/13/115 20/13/41 22/19/38
f 148/19/116 145/19/113 39/19/107 21/19/35
f 145/19/113 148/19/116 22/19/38 40/19/108
f 149/13/117 150/14/118 59/14/76 61/13/79
f 150/14/118 149/13/117 62/13/80 60/14/77
f 150/14/118 151/14/119 25/14/43 59/14/76
f 151/14/119 150/14/118 60/14/77 26/14/44
f 151/14/119 152/13/120 19/13/40 25/14/43
f 152/13/120 151/14/119 26/14/44 20/13/41
f 152/13/120 149/13/117 61/13/79 19/13/40
f 149/13/117 152/13/120 20/13/41 62/13/80
f 153/19/121 154/13/122 63/13/72 37/19/111
f 154/13/122 153/19/121 38/19/112 64/13/73
f 154/13/122 155/13/123 61/13/79 63/13/72
f 155/13/123 154/13/122 64/13/73 62/13/80
f 155/13/123 156/19/124 39/19/107 61/13/79
f 156/19/124 155/13/123 62/13/80 40/19/108
f 156/19/124 153/19/121 37/19/111 39/19/107
f 153/19/121 156/19/124 40/19/108 38/19/112
f 157/1/125 158/2/126 17/2/36 21/1/35
f 158/2/126 157/1/125 22/1/38 18/2/37
f 158/2/126 159/2/127 35/2/95 17/2/36
f 159/2/127 158/2/126 18/2/37 36/2/96
f 159/2/127 160/1/128 39/1/107 35/2/95
f 160/1/128 159/2/127 36/2/96 40/1/108
f 160/1/128 157/1/125 21/1/35 39/1/107
f 157/1/125 160/1/128 40/1/108 22/1/38
f 161/18/129 162/18/130 29/18/55 43/18/59
f 162/18/130 161/18/129 44/18/62 30/18/56
f 162/18/130 163/17/131 31/17/52 29/18/55
f 163/17/131 162/18/130 30/18/56 32/17/53
f 163/17/131 164/17/132 45/17/64 31/17/52
f 164/17/132 163/17/131 32/17/53 46/17/65
f 164/17/132 161/18/129 43/18/59 45/17/64
f 161/18/129 164/17/132 46/17/65 44/18/62
f 165/14/133 166/15/134 53/15/84 59/14/76
f 166/15/134 165/14/133 60/14/77 54/15/85
f 166/15/134 167/15/135 27/15/46 53/15/84
f 167/15/135 166/15/134 54/15/85 28/15/47
f 167/15/135 168/14/136 25/14/43 27/15/46
f 168/14/136 167/15/135 28/15/47 26/14/44
f 168/14/136 165/14/133 59/14/76 25/14/43
f 165/14/133 168/14/136 26/14/44 60/14/77
f 169/14/137 170/15/138 55/15/139 57/14/71
f 170/15/138 169/14/137 58/14/74 56/15/140
f 170/15/138 171/15/141 53/15/84 55/15/139
f 171/15/141 170/15/138 56/15/140 54/15/85
f 171/15/141 172/14/142 59/14/76 53/15/84
f 172/14/142 171/15/141 54/15/85 60/14/77
f 172/14/142 169/14/137 57/14/71 59/14/76
f 169/14/137 172/14/142 60/14/77 58/14/74
f 173/16/143 174/17/144 47/17/67 49/16/145
f 174/17/144 173/16/143 50/16/146 48/17/68
f 174/17/144 175/17/147 45/17/64 47/17/67
f 175/17/147 174/17/144 48/17/68 46/17/65
f 175/17/147 176/16/148 51/16/83 45/17/64
f 176/16/148 175/17/147 46/17/65 52/16/86
f 176/16/148 173/16/143 49/16/145 51/16/83
f 173/16/143 176/16/148 52/16/86 50/16/146
f 177/17/149 178/16/150 65/16/151 71/17/152
f 178/16/150 177/17/149 72/17/153 66/16/154
f 178/16/150 179/16/155 89/16/156 65/16/151
f 179/16/155 178/16/150 66/16/154 90/16/157
f 179/16/155 180/17/158 91/17/159 89/16/156
f 180/17/158 179/16/155 90/16/157 92/17/160
f 180/17/158 177/17/149 71/17/152 91/17/159
f 177/17/149 180/17/158 92/17/160 72/17/153
f 181/1/161 182/13/162 73/13/163 75/1/164
f 182/13/162 181/1/161 76/1/165 74/13/166
f 182/13/162 183/14/167 69/14/168 73/13/163
f 183/14/167 182/13/162 74/13/166 70/14/169
f 183/14/167 184/15/170 67/15/171 69/14/168
f 184/15/170 183/14/167 70/14/169 68/15/172
f 184/15/170 185/16/173 65/16/151 67/15/171
f 185/16/173 184/15/170 68/15/172 66/16/154
f 185/16/173 186/17/174 71/17/152 65/16/151
f 186/17/174 185/16/173 66/16/154 72/17/153
f 186/17/174 187/18/175 77/18/176 71/17/152
f 187/18/175 186/17/174 72/17/153 78/18/177
f 187/18/175 188/2/178 79/2/179 77/18/176
f 188/2/178 187/18/175 78/18/177 80/2/180
f 188/2/178 181/1/161 75/1/164 79/2/179
f 181/1/161 188/2/178 80/2/180 76/1/165
f 189/20/181 190/21/182 3/21/15 13/20/11
f 190/21/182 189/20/181 14/20/12 4/21/16
f 190/21/182 191/13/183 81/13/184 3/21/15
f 191/13/183 190/21/182 4/21/16 82/13/185
f 191/13/183 192/19/186 83/19/4 81/13/184
f 192/19/186 191/13/183 82/13/185 84/19/5
f 192/19/186 189/20/181 13/20/11 83/19/4
f 189/20/181 192/19/186 84/19/5 14/20/12
f 193/14/187 194/13/188 81/13/184 85/14/189
f 194/13/188 193/14/187 86/14/190 82/13/185
f 194/13/188 195/21/191 3/21/15 81/13/184
f 195/21/191 194/13/188 82/13/185 4/21/16
f 195/21/191 196/22/192 5/22/31 3/21/15
f 196/22/192 195/21/191 4/21/16 6/22/32
f 196/22/192 193/14/187 85/14/189 5/22/31
f 193/14/187 196/22/192 6/22/32 86/14/190
f 197/15/193 198/14/194 85/14/189 87/15/195
f 198/14/194 197/15/193 88/15/196 86/14/190
f 198/14/194 199/22/197 5/22/31 85/14/189
f 199/22/197 198/14/194 86/14/190 6/22/32
f 199/22/197 200/23/198 1/23/28 5/22/31
f 200/23/198 199/22/197 6/22/32 2/23/29
f 200/23/198 197/15/193 87/15/195 1/23/28
f 197/15/193 200/23/198 2/23/29 88/15/196
f 201/15/199 202/16/200 49/16/145 55/15/139
f 202/16/200 201/15/199 56/15/140 50/16/146
f 202/16/200 203/16/201 51/16/83 49/16/145
f 203/16/201 202/16/200 50/16/146 52/16/86
f 203/16/201 204/15/202 53/15/84 51/16/83
f 204/15/202 203/16/201 52/16/86 54/15/85
f 204/15/202 201/15/199 55/15/139 53/15/84
f 201/15/199 204/15/202 54/15/85 56/15/140
f 205/16/203 206/15/204 87/15/195 89/16/156
f 206/15/204 205/16/203 90/16/157 88/15/196
f 206/15/204 207/23/205 1/23/28 87/15/195
f 207/23/205 206/15/204 88/15/196 2/23/29
f 207/23/205 208/24/206 9/24/25 1/23/28
f 208/24/206 207/23/205 2/23/29 10/24/26
f 208/24/206 205/16/203 89/16/156 9/24/25
f 205/16/203 208/24/206 10/24/26 90/16/157
f 209/18/207 210/17/208 91/17/159 93/18/209
f 210/17/208 209/18/207 94/18/210 92/17/160
f 210/17/208 211/25/211 7/25/22 91/17/159
f 211/25/211 210/17/208 92/17/160 8/25/23
f 211/25/211 212/26/212 15/26/19 7/25/22
f 212/26/212 211/25/211 8/25/23 16/26/20
f 212/26/212 209/18/207 93/18/209 15/26/19
f 209/18/207 212/26/212 16/26/20 94/18/210
f 213/17/213 214/16/214 89/16/156 91/17/159
f 214/16/214 213/17/213 92/17/160 90/16/157
f 214/16/214 215/24/215 9/24/25 89/16/156
f 215/24/215 214/16/214 90/16/157 10/24/26
f 215/24/215 216/25/216 7/25/22 9/24/25
f 216/25/216 215/24/215 10/24/26 8/25/23
f 216/25/216 213/17/213 91/17/159 7/25/22
f 213/17/213 216/25/216 8/25/23 92/17/160
f 217/16/217 218/15/218 67/15/171 65/16/151
f 218/15/218 217/16/217 66/16/154 68/15/172
f 218/15/218 219/15/219 87/15/195 67/15/171
f 219/15/219 218/15/218 68/15/172 88/15/196
f 219/15/219 220/16/220 89/16/156 87/15/195
f 220/16/220 219/15/219 88/15/196 90/16/157
f 220/16/220 217/16/217 65/16/151 89/16/156
f 217/16/217 220/16/220 90/16/157 66/16/154
f 221/17/221 222/17/222 91/17/159 71/17/152
f 222/17/222 221/17/221 72/17/153 92/17/160
f 222/17/222 223/18/223 93/18/209 91/17/159
f 223/18/223 222/17/222 92/17/160 94/18/210
f 223/18/223 224/18/224 77/18/176 93/18/209
f 224/18/224 223/18/223 94/18/210 78/18/177
f 224/18/224 221/17/221 71/17/152 77/18/176
f 221/17/221 224/18/224 78/18/177 72/17/153
f 225/15/225 226/14/226 69/14/168 67/15/171
f 226/14/226 225/15/225 68/15/172 70/14/169
f 226/14/226 227/14/227 85/14/189 69/14/168
f 227/14/227 226/14/226 70/14/169 86/14/190
f 227/14/227 228/15/228 87/15/195 85/14/189
f 228/15/228 227/14/227 86/14/190 88/15/196
f 228/15/228 225/15/225 67/15/171 87/15/195
f 225/15/225 228/15/228 88/15/196 68/15/172
f 229/1/229 230/2/230 79/2/179 75/1/164
f 230/2/230 229/1/229 76/1/165 80/2/180
f 230/2/230 231/2/231 95/2/3 79/2/179
f 231/2/231 230/2/230 80/2/180 96/2/6
f 231/2/231 232/1/232 83/1/4 95/2/3
f 232/1/232 231/2/231 96/2/6 84/1/5
f 232/1/232 229/1/229 75/1/164 83/1/4
f 229/1/229 232/1/232 84/1/5 76/1/165
f 233/2/233 234/18/234 77/18/176 79/2/179
f 234/18/234 233/2/233 80/2/180 78/18/177
f 234/18/234 235/18/235 93/18/209 77/18/176
f 235/18/235 234/18/234 78/18/177 94/18/210
f 235/18/235 236/2/236 95/2/3 93/18/209
f 236/2/236 235/18/235 94/18/210 96/2/6
f 236/2/236 233/2/233 79/2/179 95/2/3
f 233/2/233 236/2/236 96/2/6 80/2/180
f 237/14/237 238/13/238 73/13/163 69/14/168
f 238/13/238 237/14/237 70/14/169 74/13/166
f 238/13/238 239/13/239 81/13/184 73/13/163
f 239/13/239 238/13/238 74/13/166 82/13/185
f 239/13/239 240/14/240 85/14/189 81/13/184
f 240/14/240 239/13/239 82/13/185 86/14/190
f 240/14/240 237/14/237 69/14/168 85/14/189
f 237/14/237 240/14/240 86/14/190 70/14/169
f 241/13/241 242/19/242 75/19/164 73/13/163
f 242/19/242 241/13/241 74/13/166 76/19/165
f 242/19/242 243/19/243 83/19/4 75/19/164
f 243/19/243 242/19/242 76/19/165 84/19/5
f 243/19/243 244/13/244 81/13/184 83/19/4
f 244/13/244 243/19/243 84/19/5 82/13/185
f 244/13/244 241/13/241 73/13/163 81/13/184
f 241/13/241 244/13/244 82/13/185 74/13/166
f 245/2/245 246/18/246 93/18/209 95/2/3
f 246/18/246 245/2/245 96/2/6 94/18/210
f 246/18/246 247/26/247 15/26/19 93/18/209
f 247/26/247 246/18/246 94/18/210 16/26/20
f 247/26/247 248/3/248 11/3/8 15/26/19
f 248/3/248 247/26/247 16/26/20 12/3/9
f 248/3/248 245/2/245 95/2/3 11/3/8
f 245/2/245 248/3/248 12/3/9 96/2/6
