# Blender 5.2.0 LTS
# www.blender.org
mtllib famas mag.mtl
o FamasMag
v 0.098044 0.440802 0.061670
v 0.098210 0.440806 0.061670
v 0.100124 0.343527 -0.061523
v 0.100282 0.343521 -0.061523
v 0.098044 0.440802 -0.061523
v 0.098210 0.440806 -0.061523
v 0.100124 0.343527 0.061670
v 0.100282 0.343521 0.061670
v 0.091388 0.249180 -0.061523
v 0.091540 0.249148 -0.061523
v 0.091388 0.249180 0.061670
v 0.091540 0.249148 0.061670
v 0.063278 0.160080 -0.061523
v 0.063422 0.160016 -0.061523
v 0.063278 0.160080 0.061670
v 0.063422 0.160016 0.061670
v 0.015702 0.076219 -0.061523
v 0.015836 0.076133 -0.061523
v 0.015702 0.076219 0.061670
v 0.015836 0.076133 0.061670
v -0.042652 -0.004763 -0.061523
v -0.042518 -0.004789 -0.061523
v -0.042652 -0.004763 0.061670
v -0.042518 -0.004789 0.061670
v -0.031063 -0.052646 0.073682
v -0.030919 -0.052610 0.073682
v -0.031063 -0.052646 -0.073926
v -0.030919 -0.052610 -0.073926
v -0.047372 -0.104105 0.073682
v -0.047228 -0.104151 0.073682
v -0.047372 -0.104105 -0.073926
v -0.047228 -0.104151 -0.073926
v -0.031063 -0.052605 -0.073926
v -0.030919 -0.052651 -0.073926
v -0.031063 -0.052605 0.073682
v -0.030919 -0.052651 0.073682
v 0.098084 0.440645 -0.061523
v 0.098170 0.440963 -0.061523
v -0.208470 0.523449 -0.061523
v -0.208384 0.523767 -0.061523
v -0.208470 0.523449 0.061670
v -0.208384 0.523767 0.061670
v 0.098084 0.440645 0.061670
v 0.098170 0.440963 0.061670
v -0.349137 0.077976 0.061670
v -0.349225 0.078080 0.061670
v -0.349137 0.077976 -0.061523
v -0.349225 0.078080 -0.061523
v -0.398840 0.046670 -0.073926
v -0.398922 0.046802 -0.073926
v -0.398840 0.046670 0.073682
v -0.398922 0.046802 0.073682
v -0.047300 -0.104128 0.073519
v -0.047300 -0.104128 0.073845
v -0.398881 0.046736 0.073519
v -0.398881 0.046736 0.073845
v -0.415187 -0.004764 0.073519
v -0.415187 -0.004764 0.073845
v -0.030991 -0.052628 0.073519
v -0.030991 -0.052628 0.073845
v -0.206351 0.426328 0.061598
v -0.206351 0.426328 0.061742
v 0.098127 0.440804 0.061514
v 0.098127 0.440804 0.061826
v -0.208427 0.523608 0.061514
v -0.208427 0.523608 0.061826
v 0.100203 0.343524 0.061598
v 0.100203 0.343524 0.061742
v -0.215086 0.331972 0.061599
v -0.215086 0.331972 0.061741
v 0.091464 0.249164 0.061599
v 0.091464 0.249164 0.061741
v 0.063350 0.160048 0.061599
v 0.063350 0.160048 0.061741
v -0.243246 0.242856 0.061599
v -0.243246 0.242856 0.061741
v 0.015769 0.076176 0.061596
v 0.015769 0.076176 0.061744
v -0.290785 0.158980 0.061596
v -0.290785 0.158980 0.061744
v -0.042591 -0.004797 0.061555
v -0.042579 -0.004755 0.061785
v -0.349184 0.078016 0.061551
v -0.349178 0.078040 0.061789
v -0.031003 -0.052671 0.073526
v -0.030979 -0.052585 0.073838
v -0.398893 0.046692 0.073523
v -0.398869 0.046780 0.073841
v -0.415115 -0.004787 -0.073926
v -0.415259 -0.004741 -0.073926
v -0.398809 0.046713 0.073682
v -0.398953 0.046759 0.073682
v -0.398809 0.046713 -0.073926
v -0.398953 0.046759 -0.073926
v -0.415115 -0.004787 0.073682
v -0.415259 -0.004741 0.073682
v -0.208344 0.523610 -0.061523
v -0.208510 0.523606 -0.061523
v -0.206272 0.426325 -0.061523
v -0.206430 0.426331 -0.061523
v -0.206272 0.426325 0.061670
v -0.206430 0.426331 0.061670
v -0.208344 0.523610 0.061670
v -0.208510 0.523606 0.061670
v -0.215010 0.331956 0.061670
v -0.215162 0.331988 0.061670
v -0.215010 0.331956 -0.061523
v -0.215162 0.331988 -0.061523
v -0.243174 0.242824 0.061670
v -0.243318 0.242887 0.061670
v -0.243174 0.242824 -0.061523
v -0.243318 0.242887 -0.061523
v -0.290718 0.158937 0.061670
v -0.290852 0.159023 0.061670
v -0.290718 0.158937 -0.061523
v -0.290852 0.159023 -0.061523
v -0.349127 0.077964 0.061670
v -0.349235 0.078092 0.061670
v -0.349127 0.077964 -0.061523
v -0.349235 0.078092 -0.061523
v -0.415135 -0.004573 -0.073926
v -0.415239 -0.004955 -0.073926
v -0.047248 -0.103937 -0.073926
v -0.047352 -0.104319 -0.073926
v -0.047248 -0.103937 0.073682
v -0.047352 -0.104319 0.073682
v -0.415135 -0.004573 0.073682
v -0.415239 -0.004955 0.073682
v -0.047300 -0.104128 -0.073763
v -0.047300 -0.104128 -0.074089
v -0.398881 0.046736 -0.073763
v -0.398881 0.046736 -0.074089
v -0.030991 -0.052628 -0.073763
v -0.030991 -0.052628 -0.074089
v -0.415187 -0.004764 -0.073763
v -0.415187 -0.004764 -0.074089
v 0.098127 0.440804 -0.061367
v 0.098127 0.440804 -0.061679
v -0.206351 0.426328 -0.061451
v -0.206351 0.426328 -0.061595
v -0.208427 0.523608 -0.061367
v -0.208427 0.523608 -0.061679
v 0.100203 0.343524 -0.061451
v 0.100203 0.343524 -0.061595
v -0.215086 0.331972 -0.061452
v -0.215086 0.331972 -0.061594
v 0.091464 0.249164 -0.061452
v 0.091464 0.249164 -0.061594
v 0.063350 0.160048 -0.061452
v 0.063350 0.160048 -0.061594
v -0.243246 0.242856 -0.061452
v -0.243246 0.242856 -0.061594
v 0.015769 0.076176 -0.061449
v 0.015769 0.076176 -0.061597
v -0.290785 0.158980 -0.061449
v -0.290785 0.158980 -0.061597
v -0.042591 -0.004797 -0.061408
v -0.042579 -0.004755 -0.061638
v -0.349184 0.078016 -0.061404
v -0.349178 0.078040 -0.061642
v -0.031003 -0.052671 -0.073770
v -0.030979 -0.052585 -0.074082
v -0.398893 0.046692 -0.073767
v -0.398869 0.046780 -0.074085
v 0.057472 0.431889 -0.065527
v 0.057632 0.431895 -0.065527
v 0.057472 0.431889 0.065674
v 0.057632 0.431895 0.065674
v 0.060416 0.349135 -0.065527
v 0.060568 0.349129 -0.065527
v 0.060416 0.349135 0.065674
v 0.060568 0.349129 0.065674
v 0.051551 0.258244 -0.065527
v 0.051705 0.258212 -0.065527
v 0.051551 0.258244 0.065674
v 0.051705 0.258212 0.065674
v 0.024389 0.172296 -0.065527
v 0.024533 0.172232 -0.065527
v 0.024389 0.172296 0.065674
v 0.024533 0.172232 0.065674
v -0.021063 0.091286 -0.065527
v -0.020933 0.091202 -0.065527
v -0.021063 0.091286 0.065674
v -0.020933 0.091202 0.065674
v -0.071674 0.022996 -0.065527
v -0.071544 0.022900 -0.065527
v -0.071674 0.022996 0.065674
v -0.071544 0.022900 0.065674
v -0.042793 0.458965 -0.065527
v -0.042633 0.458971 -0.065527
v -0.042793 0.458965 0.065674
v -0.042633 0.458971 0.065674
v -0.039849 0.376215 -0.065527
v -0.039697 0.376209 -0.065527
v -0.039849 0.376215 0.065674
v -0.039697 0.376209 0.065674
v -0.048717 0.285324 -0.065527
v -0.048563 0.285292 -0.065527
v -0.048717 0.285324 0.065674
v -0.048563 0.285292 0.065674
v -0.075876 0.199376 -0.065527
v -0.075732 0.199312 -0.065527
v -0.075876 0.199376 0.065674
v -0.075732 0.199312 0.065674
v -0.121289 0.118362 -0.065527
v -0.121159 0.118278 -0.065527
v -0.121289 0.118362 0.065674
v -0.121159 0.118278 0.065674
v -0.171939 0.050076 -0.065527
v -0.171809 0.049980 -0.065527
v -0.171939 0.050076 0.065674
v -0.171809 0.049980 0.065674
v -0.143019 0.486045 -0.065527
v -0.142859 0.486051 -0.065527
v -0.143019 0.486045 0.065674
v -0.142859 0.486051 0.065674
v -0.140114 0.403291 -0.065527
v -0.139962 0.403285 -0.065527
v -0.140114 0.403291 0.065674
v -0.139962 0.403285 0.065674
v -0.148982 0.312404 -0.065527
v -0.148828 0.312372 -0.065527
v -0.148982 0.312404 0.065674
v -0.148828 0.312372 0.065674
v -0.176144 0.226456 -0.065527
v -0.176000 0.226392 -0.065527
v -0.176144 0.226456 0.065674
v -0.176000 0.226392 0.065674
v -0.221554 0.145442 -0.065527
v -0.221424 0.145358 -0.065527
v -0.221554 0.145442 0.065674
v -0.221424 0.145358 0.065674
v -0.272207 0.077152 -0.065527
v -0.272077 0.077056 -0.065527
v -0.272207 0.077152 0.065674
v -0.272077 0.077056 0.065674
v -0.069982 0.466278 -0.065527
v -0.069950 0.466394 -0.065527
v -0.069982 0.466278 0.065674
v -0.069950 0.466394 0.065674
v -0.042729 0.458910 -0.065527
v -0.042697 0.459026 -0.065527
v -0.042729 0.458910 0.065674
v -0.042697 0.459026 0.065674
v 0.030243 0.439198 -0.065527
v 0.030275 0.439314 -0.065527
v 0.030243 0.439198 0.065674
v 0.030275 0.439314 0.065674
v 0.057536 0.431834 -0.065527
v 0.057568 0.431950 -0.065527
v 0.057536 0.431834 0.065674
v 0.057568 0.431950 0.065674
v -0.170247 0.493358 -0.065527
v -0.170215 0.493474 -0.065527
v -0.170247 0.493358 0.065674
v -0.170215 0.493474 0.065674
v -0.142955 0.485990 -0.065527
v -0.142923 0.486106 -0.065527
v -0.142955 0.485990 0.065674
v -0.142923 0.486106 0.065674
v -0.067068 0.383576 0.065609
v -0.067068 0.383576 0.065739
v -0.042713 0.458968 0.065632
v -0.042713 0.458968 0.065716
v -0.069966 0.466336 0.065632
v -0.069966 0.466336 0.065716
v -0.039773 0.376212 0.065609
v -0.039773 0.376212 0.065739
v -0.075936 0.292676 0.065606
v -0.075936 0.292676 0.065742
v -0.048640 0.285308 0.065606
v -0.048640 0.285308 0.065742
v -0.075804 0.199344 0.065605
v -0.075804 0.199344 0.065743
v -0.103056 0.206712 0.065605
v -0.103056 0.206712 0.065743
v -0.121224 0.118320 0.065607
v -0.121224 0.118320 0.065741
v -0.148519 0.125688 0.065607
v -0.148519 0.125688 0.065741
v -0.171874 0.050028 0.065632
v -0.171874 0.050028 0.065716
v -0.199127 0.057392 0.065632
v -0.199127 0.057392 0.065716
v 0.033200 0.356500 0.065609
v 0.033200 0.356500 0.065739
v 0.057552 0.431892 0.065632
v 0.057552 0.431892 0.065716
v 0.030259 0.439256 0.065632
v 0.030259 0.439256 0.065716
v 0.060492 0.349132 0.065609
v 0.060492 0.349132 0.065739
v 0.024332 0.265596 0.065606
v 0.024332 0.265596 0.065742
v 0.051628 0.258228 0.065606
v 0.051628 0.258228 0.065742
v -0.002831 0.179632 0.065605
v -0.002831 0.179632 0.065743
v 0.024461 0.172264 0.065605
v 0.024461 0.172264 0.065743
v -0.020998 0.091244 0.065607
v -0.020998 0.091244 0.065741
v -0.048251 0.098608 0.065607
v -0.048251 0.098608 0.065741
v -0.071609 0.022948 0.065632
v -0.071609 0.022948 0.065716
v -0.098905 0.030316 0.065632
v -0.098905 0.030316 0.065716
v -0.167290 0.410656 0.065609
v -0.167290 0.410656 0.065739
v -0.142939 0.486048 0.065632
v -0.142939 0.486048 0.065716
v -0.170231 0.493416 0.065632
v -0.170231 0.493416 0.065716
v -0.140038 0.403288 0.065609
v -0.140038 0.403288 0.065739
v -0.176158 0.319752 0.065606
v -0.176158 0.319752 0.065742
v -0.148905 0.312388 0.065606
v -0.148905 0.312388 0.065742
v -0.203321 0.233788 0.065605
v -0.203321 0.233788 0.065743
v -0.176072 0.226424 0.065605
v -0.176072 0.226424 0.065743
v -0.221489 0.145400 0.065607
v -0.221489 0.145400 0.065741
v -0.248784 0.152764 0.065607
v -0.248784 0.152764 0.065741
v -0.272142 0.077104 0.065632
v -0.272142 0.077104 0.065716
v -0.299392 0.084472 0.065632
v -0.299392 0.084472 0.065716
v -0.170151 0.493419 -0.065527
v -0.170311 0.493413 -0.065527
v -0.167214 0.410653 -0.065527
v -0.167366 0.410659 -0.065527
v -0.167214 0.410653 0.065674
v -0.167366 0.410659 0.065674
v -0.170151 0.493419 0.065674
v -0.170311 0.493413 0.065674
v -0.176081 0.319736 0.065674
v -0.176235 0.319768 0.065674
v -0.176081 0.319736 -0.065527
v -0.176235 0.319768 -0.065527
v -0.203249 0.233756 0.065674
v -0.203393 0.233820 0.065674
v -0.203249 0.233756 -0.065527
v -0.203393 0.233820 -0.065527
v -0.248719 0.152722 0.065674
v -0.248849 0.152806 0.065674
v -0.248719 0.152722 -0.065527
v -0.248849 0.152806 -0.065527
v -0.299327 0.084424 0.065674
v -0.299457 0.084520 0.065674
v -0.299327 0.084424 -0.065527
v -0.299457 0.084520 -0.065527
v -0.069886 0.466339 -0.065527
v -0.070046 0.466333 -0.065527
v -0.066992 0.383573 -0.065527
v -0.067144 0.383579 -0.065527
v -0.066992 0.383573 0.065674
v -0.067144 0.383579 0.065674
v -0.069886 0.466339 0.065674
v -0.070046 0.466333 0.065674
v -0.075859 0.292660 0.065674
v -0.076013 0.292692 0.065674
v -0.075859 0.292660 -0.065527
v -0.076013 0.292692 -0.065527
v -0.102984 0.206680 0.065674
v -0.103128 0.206744 0.065674
v -0.102984 0.206680 -0.065527
v -0.103128 0.206744 -0.065527
v -0.148454 0.125646 0.065674
v -0.148584 0.125730 0.065674
v -0.148454 0.125646 -0.065527
v -0.148584 0.125730 -0.065527
v -0.199062 0.057344 0.065674
v -0.199192 0.057440 0.065674
v -0.199062 0.057344 -0.065527
v -0.199192 0.057440 -0.065527
v 0.030339 0.439259 -0.065527
v 0.030179 0.439253 -0.065527
v 0.033276 0.356497 -0.065527
v 0.033124 0.356503 -0.065527
v 0.033276 0.356497 0.065674
v 0.033124 0.356503 0.065674
v 0.030339 0.439259 0.065674
v 0.030179 0.439253 0.065674
v 0.024409 0.265580 0.065674
v 0.024255 0.265612 0.065674
v 0.024409 0.265580 -0.065527
v 0.024255 0.265612 -0.065527
v -0.002759 0.179600 0.065674
v -0.002903 0.179664 0.065674
v -0.002759 0.179600 -0.065527
v -0.002903 0.179664 -0.065527
v -0.048186 0.098566 0.065674
v -0.048316 0.098650 0.065674
v -0.048186 0.098566 -0.065527
v -0.048316 0.098650 -0.065527
v -0.098840 0.030268 0.065674
v -0.098970 0.030364 0.065674
v -0.098840 0.030268 -0.065527
v -0.098970 0.030364 -0.065527
v -0.171858 0.050086 -0.065527
v -0.171890 0.049970 -0.065527
v -0.171858 0.050086 0.065674
v -0.171890 0.049970 0.065674
v -0.199111 0.057450 -0.065527
v -0.199143 0.057334 -0.065527
v -0.199111 0.057450 0.065674
v -0.199143 0.057334 0.065674
v -0.071593 0.023006 -0.065527
v -0.071625 0.022890 -0.065527
v -0.071593 0.023006 0.065674
v -0.071625 0.022890 0.065674
v -0.098889 0.030374 -0.065527
v -0.098921 0.030258 -0.065527
v -0.098889 0.030374 0.065674
v -0.098921 0.030258 0.065674
v -0.272126 0.077162 -0.065527
v -0.272158 0.077046 -0.065527
v -0.272126 0.077162 0.065674
v -0.272158 0.077046 0.065674
v -0.299376 0.084530 -0.065527
v -0.299408 0.084414 -0.065527
v -0.299376 0.084530 0.065674
v -0.299408 0.084414 0.065674
v -0.042713 0.458968 -0.065485
v -0.042713 0.458968 -0.065569
v -0.067068 0.383576 -0.065462
v -0.067068 0.383576 -0.065592
v -0.069966 0.466336 -0.065485
v -0.069966 0.466336 -0.065569
v -0.039773 0.376212 -0.065462
v -0.039773 0.376212 -0.065592
v -0.075936 0.292676 -0.065459
v -0.075936 0.292676 -0.065595
v -0.048640 0.285308 -0.065459
v -0.048640 0.285308 -0.065595
v -0.075804 0.199344 -0.065458
v -0.075804 0.199344 -0.065596
v -0.103056 0.206712 -0.065458
v -0.103056 0.206712 -0.065596
v -0.121224 0.118320 -0.065460
v -0.121224 0.118320 -0.065594
v -0.148519 0.125688 -0.065460
v -0.148519 0.125688 -0.065594
v -0.171874 0.050028 -0.065485
v -0.171874 0.050028 -0.065569
v -0.199127 0.057392 -0.065485
v -0.199127 0.057392 -0.065569
v 0.057552 0.431892 -0.065485
v 0.057552 0.431892 -0.065569
v 0.033200 0.356500 -0.065462
v 0.033200 0.356500 -0.065592
v 0.030259 0.439256 -0.065485
v 0.030259 0.439256 -0.065569
v 0.060492 0.349132 -0.065462
v 0.060492 0.349132 -0.065592
v 0.024332 0.265596 -0.065459
v 0.024332 0.265596 -0.065595
v 0.051628 0.258228 -0.065459
v 0.051628 0.258228 -0.065595
v -0.002831 0.179632 -0.065458
v -0.002831 0.179632 -0.065596
v 0.024461 0.172264 -0.065458
v 0.024461 0.172264 -0.065596
v -0.020998 0.091244 -0.065460
v -0.020998 0.091244 -0.065594
v -0.048251 0.098608 -0.065460
v -0.048251 0.098608 -0.065594
v -0.071609 0.022948 -0.065485
v -0.071609 0.022948 -0.065569
v -0.098905 0.030316 -0.065485
v -0.098905 0.030316 -0.065569
v -0.142939 0.486048 -0.065485
v -0.142939 0.486048 -0.065569
v -0.167290 0.410656 -0.065462
v -0.167290 0.410656 -0.065592
v -0.170231 0.493416 -0.065485
v -0.170231 0.493416 -0.065569
v -0.140038 0.403288 -0.065462
v -0.140038 0.403288 -0.065592
v -0.176158 0.319752 -0.065459
v -0.176158 0.319752 -0.065595
v -0.148905 0.312388 -0.065459
v -0.148905 0.312388 -0.065595
v -0.203321 0.233788 -0.065458
v -0.203321 0.233788 -0.065596
v -0.176072 0.226424 -0.065458
v -0.176072 0.226424 -0.065596
v -0.221489 0.145400 -0.065460
v -0.221489 0.145400 -0.065594
v -0.248784 0.152764 -0.065460
v -0.248784 0.152764 -0.065594
v -0.272142 0.077104 -0.065485
v -0.272142 0.077104 -0.065569
v -0.299392 0.084472 -0.065485
v -0.299392 0.084472 -0.065569
v -0.203359 0.233719 -0.065448
v -0.248746 0.152831 -0.065450
v -0.248746 0.152831 0.065597
v -0.203359 0.233719 0.065595
v -0.206353 0.426407 0.061591
v -0.208425 0.523525 0.061587
v -0.208425 0.523525 -0.061440
v -0.206353 0.426407 -0.061444
v -0.048664 0.285233 0.065596
v -0.075780 0.199419 0.065595
v -0.075780 0.199419 -0.065448
v -0.048664 0.285233 -0.065449
v -0.069908 0.466320 0.065614
v -0.042771 0.458984 0.065614
v -0.042771 0.458984 -0.065467
v -0.069908 0.466320 -0.065467
v 0.033197 0.356576 0.065598
v 0.030262 0.439176 0.065594
v 0.030262 0.439176 -0.065447
v 0.033197 0.356576 -0.065451
v -0.031014 -0.052700 -0.073850
v -0.031014 -0.052700 0.073606
v -0.047277 -0.104056 0.073606
v -0.047277 -0.104056 -0.073850
v -0.140045 0.403212 0.065598
v -0.148897 0.312466 0.065596
v -0.148897 0.312466 -0.065449
v -0.140045 0.403212 -0.065451
v -0.272159 0.077153 0.065674
v -0.221545 0.145436 0.065674
v -0.176135 0.226451 0.065674
v -0.148972 0.312402 0.065674
v -0.140103 0.403290 0.065674
v -0.142980 0.486016 0.065674
v -0.170187 0.493361 0.065674
v -0.167225 0.410654 0.065674
v -0.176091 0.319738 0.065674
v -0.203258 0.233761 0.065674
v -0.248728 0.152728 0.065674
v -0.299321 0.084497 0.065674
v -0.167293 0.410732 0.065598
v -0.170228 0.493336 0.065594
v -0.170228 0.493336 -0.065447
v -0.167293 0.410732 -0.065451
v -0.272200 0.077120 0.065614
v -0.299334 0.084456 0.065614
v -0.299334 0.084456 -0.065467
v -0.272200 0.077120 -0.065467
v -0.415164 -0.004692 -0.073850
v -0.415164 -0.004692 0.073606
v -0.398904 0.046664 0.073606
v -0.398904 0.046664 -0.073850
v -0.002869 0.179563 -0.065448
v -0.048213 0.098675 -0.065450
v -0.048213 0.098675 0.065597
v -0.002869 0.179563 0.065595
v -0.243285 0.242788 -0.061445
v -0.290746 0.159049 -0.061443
v -0.290746 0.159049 0.061590
v -0.243285 0.242788 0.061592
v -0.203258 0.233761 -0.065527
v -0.176091 0.319738 -0.065527
v -0.167225 0.410654 -0.065527
v -0.170187 0.493361 -0.065527
v -0.142980 0.486016 -0.065527
v -0.140103 0.403290 -0.065527
v -0.148972 0.312402 -0.065527
v -0.176135 0.226451 -0.065527
v -0.221545 0.145436 -0.065527
v -0.272159 0.077153 -0.065527
v -0.299321 0.084497 -0.065527
v -0.248728 0.152728 -0.065527
v -0.199079 0.057457 -0.065446
v -0.199079 0.057457 0.065593
v -0.148565 0.125626 0.065597
v -0.148565 0.125626 -0.065450
v -0.208267 0.523565 0.061505
v 0.097967 0.440847 0.061505
v 0.097967 0.440847 -0.061358
v -0.208267 0.523565 -0.061358
v 0.063284 0.160077 0.061670
v 0.091394 0.249178 0.061670
v 0.100131 0.343527 0.061670
v 0.097974 0.440684 0.061670
v -0.208267 0.523404 0.061670
v -0.206279 0.426325 0.061670
v -0.215016 0.331958 0.061670
v -0.243180 0.242827 0.061670
v -0.290723 0.158940 0.061670
v -0.348983 0.078098 0.061670
v -0.042633 -0.004642 0.061670
v 0.015707 0.076216 0.061670
v -0.215016 0.331958 -0.061523
v -0.206279 0.426325 -0.061523
v -0.208267 0.523404 -0.061523
v 0.097974 0.440684 -0.061523
v 0.100131 0.343527 -0.061523
v 0.091394 0.249178 -0.061523
v 0.063284 0.160077 -0.061523
v 0.015707 0.076216 -0.061523
v -0.042633 -0.004642 -0.061523
v -0.348983 0.078098 -0.061523
v -0.290723 0.158940 -0.061523
v -0.243180 0.242827 -0.061523
v 0.091441 0.249090 0.061592
v 0.063374 0.160123 0.061592
v 0.063374 0.160123 -0.061445
v 0.091441 0.249090 -0.061445
v -0.067075 0.383500 -0.065451
v -0.075928 0.292754 -0.065449
v -0.075928 0.292754 0.065596
v -0.067075 0.383500 0.065598
v -0.167297 0.410580 -0.065451
v -0.176150 0.319830 -0.065449
v -0.176150 0.319830 0.065596
v -0.167297 0.410580 0.065598
v -0.176182 0.319677 -0.065449
v -0.203297 0.233863 -0.065448
v -0.203297 0.233863 0.065595
v -0.176182 0.319677 0.065596
v -0.047491 -0.104076 0.073484
v -0.414996 -0.004816 0.073484
v -0.414996 -0.004816 -0.073728
v -0.047491 -0.104076 -0.073728
v -0.075960 0.292601 -0.065449
v -0.103032 0.206787 -0.065448
v -0.103032 0.206787 0.065595
v -0.075960 0.292601 0.065596
v -0.031009 -0.052556 0.073587
v -0.031009 -0.052556 -0.073831
v -0.042569 -0.004843 -0.061470
v -0.042569 -0.004842 0.061616
v -0.206358 0.426250 -0.061444
v -0.215079 0.332050 -0.061445
v -0.215079 0.332050 0.061592
v -0.206358 0.426250 0.061591
v -0.047408 -0.103930 0.073682
v -0.031198 -0.052741 0.073682
v -0.398773 0.046538 0.073682
v -0.414980 -0.004651 0.073682
v -0.290832 0.158915 -0.061443
v -0.349132 0.078096 -0.061439
v -0.349132 0.078096 0.061586
v -0.290832 0.158915 0.061590
v -0.075842 0.199275 0.065595
v -0.121186 0.118387 0.065597
v -0.121186 0.118387 -0.065450
v -0.075842 0.199275 -0.065448
v -0.170173 0.493400 0.065614
v -0.142997 0.486064 0.065614
v -0.142997 0.486064 -0.065467
v -0.170173 0.493400 -0.065467
v 0.015722 0.076111 0.061590
v -0.042545 -0.004720 0.061602
v -0.042545 -0.004720 -0.061455
v 0.015722 0.076111 -0.061443
v 0.030317 0.439240 0.065614
v 0.057494 0.431908 0.065614
v 0.057494 0.431908 -0.065467
v 0.030317 0.439240 -0.065467
v -0.221535 0.145338 0.065597
v -0.272094 0.077169 0.065593
v -0.272094 0.077169 -0.065446
v -0.221535 0.145338 -0.065450
v -0.148463 0.125652 0.065674
v -0.199056 0.057417 0.065674
v -0.171891 0.050077 0.065674
v -0.121280 0.118356 0.065674
v -0.075867 0.199371 0.065674
v -0.048707 0.285322 0.065674
v -0.039838 0.376214 0.065674
v -0.042754 0.458936 0.065674
v -0.069922 0.466281 0.065674
v -0.067003 0.383574 0.065674
v -0.075869 0.292662 0.065674
v -0.102993 0.206685 0.065674
v 0.051561 0.258242 0.065674
v 0.060427 0.349134 0.065674
v 0.057511 0.431860 0.065674
v 0.030303 0.439201 0.065674
v 0.033265 0.356498 0.065674
v 0.024399 0.265582 0.065674
v -0.002768 0.179605 0.065674
v -0.048195 0.098572 0.065674
v -0.098834 0.030341 0.065674
v -0.071626 0.022997 0.065674
v -0.021054 0.091280 0.065674
v 0.024398 0.172291 0.065674
v 0.051604 0.258153 0.065596
v 0.024485 0.172339 0.065595
v 0.024485 0.172339 -0.065448
v 0.051604 0.258153 -0.065449
v 0.063311 0.159980 0.061592
v 0.015808 0.076245 0.061590
v 0.015808 0.076245 -0.061443
v 0.063311 0.159980 -0.061445
v 0.098129 0.440721 0.061587
v 0.100201 0.343603 0.061591
v 0.100201 0.343603 -0.061444
v 0.098129 0.440721 -0.061440
v -0.067071 0.383652 0.065598
v -0.069963 0.466256 0.065594
v -0.069963 0.466256 -0.065447
v -0.067071 0.383652 -0.065451
v -0.098857 0.030381 -0.065446
v -0.098857 0.030381 0.065593
v -0.048297 0.098546 0.065597
v -0.048297 0.098546 -0.065450
v -0.021044 0.091182 0.065597
v -0.071561 0.023013 0.065593
v -0.071561 0.023013 -0.065446
v -0.021044 0.091182 -0.065450
v 0.057555 0.431812 0.065594
v 0.060489 0.349208 0.065598
v 0.060489 0.349208 -0.065451
v 0.057555 0.431812 -0.065447
v 0.060485 0.349056 0.065598
v 0.051636 0.258306 0.065596
v 0.051636 0.258306 -0.065449
v 0.060485 0.349056 -0.065451
v -0.103094 0.206643 -0.065448
v -0.148481 0.125755 -0.065450
v -0.148481 0.125755 0.065597
v -0.103094 0.206643 0.065595
v -0.398815 0.046777 -0.073830
v -0.398815 0.046777 0.073587
v -0.349239 0.077991 0.061614
v -0.349239 0.077991 -0.061467
v -0.349159 0.077903 0.061702
v -0.398484 0.046794 0.073638
v -0.031210 -0.052407 0.073639
v -0.042682 -0.004866 0.061701
v -0.299344 0.084537 -0.065446
v -0.299344 0.084537 0.065593
v -0.248830 0.152702 0.065597
v -0.248830 0.152702 -0.065450
v -0.039780 0.376136 0.065598
v -0.048632 0.285386 0.065596
v -0.048632 0.285386 -0.065449
v -0.039780 0.376136 -0.065451
v -0.031210 -0.052408 -0.073881
v -0.398485 0.046794 -0.073880
v -0.349159 0.077903 -0.061556
v -0.042683 -0.004866 -0.061555
v -0.042710 0.458888 0.065594
v -0.039776 0.376288 0.065598
v -0.039776 0.376288 -0.065451
v -0.042710 0.458888 -0.065447
v 0.024423 0.172195 0.065595
v -0.020960 0.091311 0.065597
v -0.020960 0.091311 -0.065450
v 0.024423 0.172195 -0.065448
v -0.071667 0.022964 0.065614
v -0.098847 0.030300 0.065614
v -0.098847 0.030300 -0.065467
v -0.071667 0.022964 -0.065467
v 0.024308 0.265521 -0.065449
v -0.002807 0.179707 -0.065448
v -0.002807 0.179707 0.065595
v 0.024308 0.265521 0.065596
v 0.033193 0.356424 -0.065451
v 0.024340 0.265674 -0.065449
v 0.024340 0.265674 0.065596
v 0.033193 0.356424 0.065598
v -0.171932 0.050044 0.065614
v -0.199069 0.057376 0.065614
v -0.199069 0.057376 -0.065467
v -0.171932 0.050044 -0.065467
v -0.215109 0.331898 -0.061445
v -0.243222 0.242931 -0.061445
v -0.243222 0.242931 0.061592
v -0.215109 0.331898 0.061592
v 0.100196 0.343446 0.061591
v 0.091471 0.249242 0.061592
v 0.091471 0.249242 -0.061445
v 0.100196 0.343446 -0.061444
v -0.176110 0.226355 0.065595
v -0.221451 0.145467 0.065597
v -0.221451 0.145467 -0.065450
v -0.176110 0.226355 -0.065448
v -0.148929 0.312313 0.065596
v -0.176048 0.226499 0.065595
v -0.176048 0.226499 -0.065448
v -0.148929 0.312313 -0.065449
v -0.171891 0.050077 -0.065527
v -0.199056 0.057417 -0.065527
v -0.148463 0.125652 -0.065527
v -0.102993 0.206685 -0.065527
v -0.075869 0.292662 -0.065527
v -0.067003 0.383574 -0.065527
v -0.069922 0.466281 -0.065527
v -0.042754 0.458936 -0.065527
v -0.039838 0.376214 -0.065527
v -0.048707 0.285322 -0.065527
v -0.075867 0.199371 -0.065527
v -0.121280 0.118356 -0.065527
v -0.071626 0.022997 -0.065527
v -0.098834 0.030341 -0.065527
v -0.048195 0.098572 -0.065527
v -0.002768 0.179605 -0.065527
v 0.024399 0.265582 -0.065527
v 0.033265 0.356498 -0.065527
v 0.030303 0.439201 -0.065527
v 0.057511 0.431860 -0.065527
v 0.060427 0.349134 -0.065527
v 0.051561 0.258242 -0.065527
v 0.024398 0.172291 -0.065527
v -0.021054 0.091280 -0.065527
v -0.047408 -0.103930 -0.073926
v -0.414980 -0.004651 -0.073926
v -0.398773 0.046538 -0.073926
v -0.031198 -0.052741 -0.073926
v -0.121270 0.118258 0.065597
v -0.171826 0.050093 0.065593
v -0.171826 0.050093 -0.065446
v -0.121270 0.118258 -0.065450
v -0.142936 0.485968 0.065594
v -0.140041 0.403364 0.065598
v -0.140041 0.403364 -0.065451
v -0.142936 0.485968 -0.065447
vn -0.3121 -0.6409 0.7013
vn 0.3708 0.6031 0.7063
vn 0.7530 -0.4851 0.4446
vn 0.8197 -0.3627 0.4434
vn -0.8161 0.3603 0.4518
vn -0.7507 0.4838 0.4499
vn 0.3708 0.6030 -0.7063
vn 0.7531 -0.4850 -0.4446
vn -0.7507 0.4837 -0.4499
vn -0.3040 -0.6397 -0.7059
vn 0.8197 -0.3626 -0.4434
vn -0.8162 0.3602 -0.4518
vn 0.0086 0.7084 -0.7057
vn 0.0211 -0.7070 -0.7069
vn 0.8243 -0.3898 -0.4105
vn 0.8952 -0.0302 -0.4447
vn -0.8928 0.0301 -0.4495
vn -0.8059 -0.4290 -0.4081
vn 0.0210 -0.7070 0.7069
vn 0.8244 -0.3898 0.4104
vn -0.8059 -0.4290 0.4081
vn 0.0102 0.7073 0.7068
vn 0.8952 -0.0302 0.4447
vn -0.8928 0.0302 0.4495
vn -0.1724 -0.6898 -0.7032
vn 0.2520 0.6628 -0.7051
vn -0.8163 0.3599 -0.4517
vn -0.8734 0.1817 -0.4519
vn 0.8775 -0.1830 -0.4432
vn 0.8198 -0.3623 -0.4434
vn 0.2521 0.6627 0.7052
vn -0.8164 0.3598 0.4518
vn 0.8199 -0.3622 0.4434
vn -0.1746 -0.6870 0.7053
vn -0.8734 0.1817 0.4519
vn 0.8775 -0.1830 0.4432
vn 0.6841 -0.1860 -0.7053
vn -0.6830 0.1834 -0.7071
vn -0.6076 -0.6821 -0.4069
vn 0.1805 -0.8943 -0.4095
vn 0.6088 0.6803 -0.4081
vn -0.1787 0.8955 -0.4077
vn -0.6830 0.1834 0.7071
vn -0.6076 -0.6821 0.4069
vn -0.1787 0.8954 0.4077
vn 0.6818 -0.1878 0.7071
vn 0.1805 -0.8943 0.4094
vn 0.6088 0.6803 0.4081
vn 0.0046 0.7100 -0.7042
vn 0.0261 -0.7069 -0.7068
vn 0.8310 -0.3792 -0.4071
vn 0.8953 -0.0314 -0.4444
vn -0.8925 0.0310 -0.4500
vn -0.8024 -0.4358 -0.4078
vn 0.0261 -0.7069 0.7069
vn 0.8310 -0.3792 0.4071
vn -0.8024 -0.4358 0.4078
vn 0.0081 0.7075 0.7066
vn 0.8953 -0.0314 0.4444
vn -0.8925 0.0310 0.4500
vn -0.2139 -0.6722 0.7088
vn -0.2166 -0.6731 -0.7071
vn -0.9011 -0.1423 -0.4095
vn -0.9011 -0.1423 0.4095
vn 0.6537 -0.6372 0.4083
vn 0.6537 -0.6372 -0.4083
vn 0.2122 0.6745 -0.7071
vn -0.6555 0.6361 -0.4070
vn 0.9021 0.1406 -0.4079
vn 0.2122 0.6745 0.7071
vn -0.6555 0.6361 0.4071
vn 0.9021 0.1407 0.4079
vn -0.0418 -0.7090 -0.7040
vn 0.1116 0.6998 -0.7056
vn -0.8734 0.1816 -0.4519
vn -0.8925 0.0308 -0.4500
vn 0.8953 -0.0312 -0.4444
vn 0.8775 -0.1829 -0.4432
vn 0.1115 0.6998 0.7055
vn 0.8776 -0.1830 0.4432
vn -0.0445 -0.7068 0.7060
vn -0.8925 0.0308 0.4500
vn 0.8953 -0.0311 0.4444
vn -0.3282 0.9446 -0.0001
vn -0.8395 0.5433 -0.0000
vn -0.5930 0.3838 -0.7079
vn -0.2091 0.6015 -0.7710
vn -0.2091 0.6017 0.7709
vn -0.5930 0.3838 0.7079
vn -0.9177 0.3972 -0.0000
vn -0.6472 0.2801 -0.7090
vn -0.6472 0.2801 0.7090
vn -0.9797 0.2003 -0.0000
vn -0.6909 0.1413 -0.7091
vn -0.6908 0.1413 0.7091
vn -0.9995 0.0313 -0.0000
vn -0.7060 0.0221 -0.7079
vn -0.7060 0.0221 0.7079
vn -0.7833 -0.6216 -0.0000
vn -0.4910 -0.3895 -0.7793
vn -0.4909 -0.3895 0.7793
vn 0.6223 -0.7827 -0.0000
vn 0.3177 -0.3995 -0.8599
vn 0.3177 -0.3995 0.8599
vn 0.9995 -0.0307 -0.0000
vn 0.7060 -0.0217 -0.7078
vn 0.7060 -0.0217 0.7079
vn 0.9797 -0.2003 -0.0000
vn 0.6909 -0.1412 -0.7090
vn 0.6909 -0.1412 0.7090
vn 0.9176 -0.3974 -0.0000
vn 0.6471 -0.2803 -0.7090
vn 0.6472 -0.2803 0.7090
vn 0.8394 -0.5436 -0.0000
vn 0.5930 -0.3840 -0.7078
vn 0.5929 -0.3840 0.7078
vn 0.9447 0.3280 -0.0006
vn 0.4639 0.1607 -0.8712
vn 0.4638 0.1613 0.8712
vn 0.0045 0.7100 -0.7042
vn 0.0260 -0.7069 -0.7069
vn 0.8309 -0.3792 -0.4072
vn 0.8952 -0.0314 -0.4445
vn 0.8309 -0.3792 0.4071
vn -0.8024 -0.4357 0.4078
vn 0.0080 0.7075 0.7066
vn 0.8952 -0.0314 0.4445
vn -0.6839 0.1859 -0.7055
vn 0.6829 -0.1832 -0.7072
vn 0.6076 0.6821 -0.4069
vn -0.1806 0.8943 -0.4095
vn -0.6088 -0.6802 -0.4083
vn 0.1788 -0.8954 -0.4079
vn 0.6829 -0.1832 0.7072
vn 0.6076 0.6821 0.4069
vn 0.1788 -0.8954 0.4079
vn -0.6817 0.1877 0.7072
vn -0.1806 0.8943 0.4095
vn -0.6088 -0.6802 0.4083
vn 0.2138 0.6723 0.7087
vn 0.2166 0.6732 -0.7071
vn 0.9011 0.1425 -0.4095
vn 0.9011 0.1425 0.4095
vn -0.6536 0.6372 0.4083
vn -0.6536 0.6372 -0.4083
vn -0.2121 -0.6745 -0.7072
vn 0.6556 -0.6361 -0.4070
vn -0.9021 -0.1405 -0.4079
vn -0.2121 -0.6745 0.7072
vn 0.6556 -0.6361 0.4070
vn -0.9021 -0.1405 0.4080
vn -0.3119 -0.6409 0.7013
vn 0.7531 -0.4850 0.4445
vn 0.8197 -0.3626 0.4434
vn -0.8162 0.3602 0.4517
vn -0.7508 0.4837 0.4499
vn 0.3707 0.6031 -0.7063
vn 0.7530 -0.4851 -0.4445
vn -0.7507 0.4838 -0.4499
vn -0.3037 -0.6398 -0.7060
vn 0.8197 -0.3626 -0.4435
vn -0.8162 0.3602 -0.4517
vn -0.3122 -0.6389 0.7031
vn 0.3726 0.6019 0.7063
vn 0.7530 -0.4867 0.4428
vn 0.8201 -0.3619 0.4433
vn -0.8162 0.3597 0.4520
vn -0.7513 0.4852 0.4474
vn 0.3726 0.6019 -0.7063
vn 0.7531 -0.4867 -0.4428
vn -0.7513 0.4852 -0.4474
vn -0.3073 -0.6383 -0.7058
vn 0.8201 -0.3619 -0.4433
vn -0.8162 0.3597 -0.4520
vn 0.6471 -0.2803 0.7090
vn 0.6472 -0.2803 -0.7090
vn 0.7060 -0.0217 0.7078
vn 0.6224 -0.7827 -0.0000
vn -0.4910 -0.3895 -0.7792
vn -0.7060 0.0221 -0.7078
vn -0.6909 0.1413 0.7091
vn -0.6909 0.1413 -0.7090
vn -0.3282 0.9446 -0.0000
vn -0.2091 0.6016 0.7709
vn -0.2091 0.6016 -0.7709
vn 0.9447 0.3280 -0.0000
vn 0.4638 0.1610 0.8712
vn 0.4637 0.1610 -0.8712
vn 0.5930 -0.3840 0.7078
vn 0.5929 -0.3840 -0.7078
vn 0.4210 0.5683 0.7069
vn 0.4211 0.5683 -0.7069
vn 0.8992 -0.1582 -0.4080
vn 0.8991 -0.1582 0.4081
vn -0.4131 0.8142 0.4080
vn -0.4131 0.8142 -0.4080
vn -0.3971 -0.5856 -0.7067
vn 0.7530 -0.4851 -0.4446
vn -0.3970 -0.5856 0.7067
vn 0.6841 -0.1858 -0.7053
vn -0.6830 0.1829 -0.7071
vn -0.6075 -0.6822 -0.4069
vn 0.1808 -0.8941 -0.4097
vn 0.6088 0.6802 -0.4083
vn -0.1789 0.8953 -0.4079
vn -0.6830 0.1829 0.7071
vn -0.6075 -0.6822 0.4069
vn -0.1789 0.8953 0.4079
vn 0.6817 -0.1879 0.7071
vn 0.1808 -0.8941 0.4097
vn 0.6088 0.6802 0.4083
vn -0.9168 0.3994 -0.0000
vn -0.9803 0.1977 -0.0000
vn -0.6912 0.1394 -0.7091
vn -0.6465 0.2816 -0.7091
vn -0.6465 0.2816 0.7091
vn -0.6912 0.1394 0.7091
vn -0.9994 0.0351 -0.0000
vn -0.7060 0.0248 -0.7078
vn -0.7060 0.0248 0.7077
vn -0.7870 -0.6169 -0.0000
vn -0.4918 -0.3856 -0.7806
vn -0.4918 -0.3857 0.7806
vn 0.6156 -0.7881 -0.0000
vn 0.3165 -0.4054 -0.8576
vn 0.3165 -0.4054 0.8576
vn 0.9994 -0.0359 -0.0000
vn 0.7060 -0.0254 -0.7078
vn 0.7059 -0.0254 0.7078
vn 0.9802 -0.1979 -0.0000
vn 0.6911 -0.1395 -0.7092
vn 0.6911 -0.1395 0.7092
vn 0.9168 -0.3994 -0.0000
vn 0.6465 -0.2816 -0.7091
vn 0.6465 -0.2816 0.7091
vn 0.8419 -0.5396 0.0056
vn 0.5976 -0.3833 -0.7043
vn 0.5911 -0.3786 0.7122
vn 0.9119 0.4016 -0.0844
vn 0.2955 -0.5403 -0.7879
vn 0.2709 -0.3506 0.8965
vn -0.3591 0.9258 -0.1178
vn -0.4542 -0.1142 -0.8835
vn -0.3602 0.2442 0.9003
vn -0.8417 0.5399 -0.0099
vn -0.5875 0.3764 -0.7164
vn -0.5989 0.3846 0.7024
vn 0.7060 -0.0254 0.7078
vn -0.7060 0.0248 0.7078
vn -0.9803 0.1976 -0.0000
vn -0.8417 0.5399 0.0099
vn -0.5875 0.3764 0.7164
vn -0.5988 0.3846 -0.7024
vn -0.3565 0.9273 0.1140
vn -0.4541 -0.1115 0.8840
vn -0.3611 0.2427 -0.9004
vn 0.9093 0.4072 0.0864
vn 0.3011 -0.5411 0.7852
vn 0.2704 -0.3531 -0.8957
vn 0.8419 -0.5396 -0.0056
vn 0.5975 -0.3832 0.7043
vn 0.5911 -0.3786 -0.7122
vn -0.1730 -0.6915 -0.7013
vn 0.2540 0.6619 -0.7052
vn -0.8163 0.3596 -0.4520
vn -0.8733 0.1820 -0.4520
vn 0.8774 -0.1836 -0.4433
vn 0.8201 -0.3618 -0.4433
vn 0.2542 0.6619 0.7052
vn -0.8163 0.3595 0.4521
vn 0.8202 -0.3617 0.4433
vn -0.1771 -0.6865 0.7053
vn -0.8733 0.1820 0.4520
vn 0.8774 -0.1836 0.4433
vn -0.0419 -0.7091 0.7039
vn 0.1182 0.6987 0.7056
vn 0.8774 -0.1833 0.4433
vn 0.8953 -0.0313 0.4444
vn -0.8925 0.0309 0.4499
vn -0.8733 0.1821 0.4519
vn 0.1182 0.6987 -0.7056
vn 0.8774 -0.1833 -0.4433
vn -0.8733 0.1820 -0.4519
vn -0.0385 -0.7070 -0.7061
vn 0.8953 -0.0313 -0.4444
vn -0.8925 0.0309 -0.4500
vn -0.0419 -0.7093 0.7037
vn 0.1178 0.6987 0.7057
vn 0.8775 -0.1832 0.4432
vn -0.8733 0.1819 0.4520
vn 0.1179 0.6986 -0.7057
vn 0.8775 -0.1833 -0.4432
vn -0.0382 -0.7070 -0.7061
vn -0.1723 -0.6899 0.7031
vn 0.2636 0.6580 0.7054
vn 0.2635 0.6580 -0.7054
vn -0.1682 -0.6885 -0.7054
vn -0.6842 0.1859 -0.7052
vn 0.6830 -0.1828 -0.7071
vn 0.6075 0.6823 -0.4068
vn -0.1808 0.8941 -0.4097
vn -0.6088 -0.6801 -0.4083
vn 0.1788 -0.8953 -0.4079
vn 0.6830 -0.1828 0.7071
vn 0.6075 0.6823 0.4068
vn 0.1788 -0.8953 0.4079
vn -0.6817 0.1880 0.7071
vn -0.1808 0.8941 0.4097
vn -0.1724 -0.6902 0.7028
vn 0.2635 0.6580 0.7054
vn 0.8196 -0.3627 0.4435
vn -0.8161 0.3604 0.4517
vn 0.2633 0.6581 -0.7054
vn -0.1680 -0.6886 -0.7054
vn -0.1670 0.6054 -0.7782
vn -0.1692 0.6033 0.7793
vn -0.9140 0.1110 0.3903
vn -0.9134 0.1137 -0.3909
vn 0.7491 0.5170 -0.4142
vn 0.7506 0.5146 0.4144
vn -0.0398 -0.7886 0.6136
vn -0.8773 0.1137 0.4663
vn 0.8436 -0.2724 0.4627
vn -0.0396 -0.7871 -0.6155
vn -0.8773 0.1159 -0.4657
vn 0.8442 -0.2694 -0.4635
vn -0.0405 -0.7080 0.7051
vn 0.1194 0.6985 0.7056
vn 0.8773 -0.1841 0.4433
vn -0.8731 0.1825 0.4521
vn 0.1193 0.6985 -0.7056
vn 0.8773 -0.1841 -0.4433
vn -0.8731 0.1825 -0.4520
vn -0.0388 -0.7070 -0.7061
vn -0.4795 0.8775 -0.0000
vn -0.8775 -0.4796 -0.0000
vn -0.4992 -0.2728 -0.8224
vn -0.2807 0.5137 -0.8107
vn -0.2807 0.5137 0.8107
vn -0.4992 -0.2728 0.8224
vn 0.4796 -0.8775 -0.0000
vn 0.2808 -0.5137 -0.8107
vn 0.2808 -0.5137 0.8107
vn 0.8775 0.4796 -0.0000
vn 0.4992 0.2729 -0.8224
vn 0.4992 0.2729 0.8224
vn -0.3981 -0.5904 0.7021
vn 0.6589 0.3121 0.6844
vn 0.8217 -0.1721 0.5433
vn -0.2234 0.8881 0.4017
vn 0.6589 0.3121 -0.6844
vn 0.8217 -0.1721 -0.5433
vn -0.2234 0.8881 -0.4017
vn -0.3947 -0.5904 -0.7041
vn -0.3119 -0.6407 -0.7016
vn 0.3676 0.6051 -0.7062
vn 0.3676 0.6051 0.7062
vn -0.7507 0.4838 0.4500
vn -0.3149 -0.6346 0.7058
vn 0.6842 -0.1861 -0.7052
vn -0.6831 0.1826 -0.7071
vn -0.6075 -0.6823 -0.4067
vn 0.1807 -0.8941 -0.4097
vn 0.6088 0.6801 -0.4084
vn -0.1789 0.8953 -0.4080
vn -0.6832 0.1826 0.7071
vn -0.6075 -0.6823 0.4067
vn -0.1789 0.8953 0.4080
vn 0.6815 -0.1884 0.7071
vn 0.1808 -0.8941 0.4098
vn 0.6089 0.6800 0.4085
vn -0.4007 -0.5945 -0.6971
vn 0.2275 0.7049 -0.6718
vn -0.7528 0.4863 -0.4436
vn 0.7546 -0.4877 -0.4391
vn 0.2271 0.7058 0.6710
vn -0.4018 -0.5917 0.6989
vn -0.7528 0.4863 0.4436
vn 0.7546 -0.4877 0.4391
vn 0.6843 -0.1859 -0.7051
vn -0.6831 0.1826 -0.7072
vn -0.6074 -0.6823 -0.4068
vn 0.1810 -0.8940 -0.4099
vn -0.6831 0.1826 0.7072
vn -0.6074 -0.6823 0.4068
vn 0.6815 -0.1882 0.7072
vn 0.1810 -0.8940 0.4099
vn 0.6088 0.6801 0.4084
vn -0.3993 -0.5856 -0.7054
vn 0.4214 0.5681 -0.7069
vn -0.4127 0.8144 -0.4080
vn -0.7506 0.4838 -0.4500
vn 0.7529 -0.4852 -0.4445
vn 0.8991 -0.1586 -0.4080
vn 0.4214 0.5681 0.7069
vn -0.4127 0.8144 0.4080
vn 0.8991 -0.1586 0.4080
vn -0.4001 -0.5837 0.7066
vn -0.7507 0.4837 0.4500
vn 0.7530 -0.4851 0.4445
vn 0.9447 0.3281 -0.0000
vn 0.4636 0.1610 -0.8713
vn 0.4636 0.1610 0.8713
vn -0.3283 0.9446 -0.0000
vn -0.2092 0.6016 0.7709
vn -0.5930 0.3838 -0.7078
vn -0.5930 0.3838 0.7078
vn -0.6472 0.2801 -0.7089
vn -0.6909 0.1412 -0.7090
vn -0.6909 0.1413 0.7090
vn -0.9995 0.0310 -0.0000
vn -0.7060 0.0219 -0.7079
vn -0.7060 0.0219 0.7079
vn -0.7833 -0.6217 -0.0002
vn -0.4908 -0.3899 -0.7792
vn -0.4910 -0.3894 0.7793
vn 0.6219 -0.7831 -0.0003
vn 0.3173 -0.3997 -0.8600
vn 0.3174 -0.3994 0.8600
vn 0.9995 -0.0310 -0.0000
vn 0.7060 -0.0219 -0.7079
vn 0.7060 -0.0219 0.7079
vn 0.9798 -0.2001 -0.0000
vn 0.6909 -0.1411 -0.7090
vn 0.6909 -0.1411 0.7090
vn 0.9177 -0.3972 -0.0000
vn 0.6472 -0.2801 -0.7090
vn 0.6472 -0.2801 0.7090
vn -0.6909 0.1412 -0.7091
vn -0.6909 0.1412 0.7091
vn -0.7831 -0.6220 -0.0000
vn -0.4909 -0.3899 -0.7791
vn -0.4909 -0.3899 0.7791
vn 0.6222 -0.7828 -0.0000
vn 0.3177 -0.3998 -0.8598
vn 0.3177 -0.3998 0.8598
vn 0.6472 -0.2802 -0.7089
vn 0.6472 -0.2802 0.7089
vn 0.8393 -0.5436 -0.0000
vn 0.9447 0.3280 -0.0007
vn 0.4636 0.1606 -0.8714
vn 0.4635 0.1612 0.8713
vn -0.3291 0.9443 -0.0000
vn -0.2095 0.6016 -0.7708
vn -0.2093 0.6020 0.7706
vn -0.5931 0.3838 0.7078
vn -0.9176 0.3974 -0.0000
vn -0.6472 0.2803 -0.7090
vn -0.6472 0.2803 0.7090
vn -0.1723 -0.6898 -0.7032
vn 0.2524 0.6627 -0.7051
vn -0.8163 0.3598 -0.4518
vn -0.8733 0.1817 -0.4519
vn 0.8199 -0.3621 -0.4434
vn 0.2524 0.6627 0.7051
vn -0.8163 0.3598 0.4518
vn 0.8199 -0.3621 0.4434
vn -0.1745 -0.6871 0.7053
vn -0.3123 -0.6388 -0.7032
vn 0.3682 0.6047 -0.7062
vn 0.3682 0.6047 0.7062
vn -0.3141 -0.6351 0.7057
vn 0.0170 -0.7101 -0.7039
vn 0.0072 0.7074 -0.7067
vn -0.8928 0.0302 -0.4495
vn -0.8085 -0.4262 -0.4058
vn 0.8271 -0.3872 -0.4074
vn 0.0073 0.7074 0.7067
vn -0.8928 0.0303 0.4495
vn 0.8952 -0.0303 0.4447
vn 0.0125 -0.7071 0.7070
vn -0.8086 -0.4262 0.4057
vn 0.8271 -0.3872 0.4075
vn 0.0047 0.7098 -0.7044
vn 0.0253 -0.7069 -0.7068
vn 0.8306 -0.3795 -0.4075
vn -0.8023 -0.4358 -0.4079
vn 0.0253 -0.7069 0.7068
vn 0.8306 -0.3795 0.4075
vn -0.8023 -0.4358 0.4079
vn 0.0079 0.7075 0.7066
vn -0.3993 -0.5857 -0.7054
vn 0.4212 0.5682 -0.7069
vn -0.4130 0.8142 -0.4080
vn 0.8992 -0.1583 -0.4080
vn 0.4207 0.5686 0.7069
vn -0.4132 0.8143 0.4076
vn 0.8991 -0.1588 0.4080
vn -0.4000 -0.5837 0.7066
vn -0.7506 0.4838 0.4499
vn 0.7530 -0.4852 0.4446
vn 0.0246 -0.7080 -0.7058
vn 0.0015 0.7077 -0.7065
vn -0.8014 -0.4366 -0.4088
vn 0.8300 -0.3802 -0.4080
vn 0.0016 0.7077 0.7065
vn 0.8953 -0.0312 0.4444
vn 0.0230 -0.7070 0.7068
vn -0.8014 -0.4366 0.4088
vn 0.8300 -0.3802 0.4080
vn -0.0419 -0.7091 -0.7038
vn 0.1115 0.6998 -0.7056
vn 0.1116 0.6998 0.7056
vn -0.0448 -0.7068 0.7060
vn -0.3122 -0.6410 0.7012
vn 0.3708 0.6031 -0.7063
vn -0.3038 -0.6398 -0.7060
vn 0.5354 0.3292 0.7778
vn 0.5412 0.3292 -0.7738
vn 0.7364 -0.5372 -0.4113
vn 0.7351 -0.5392 0.4110
vn -0.1636 0.8944 0.4163
vn -0.1611 0.8948 -0.4163
vn -0.4986 -0.5082 -0.7022
vn 0.0211 -0.8839 -0.4672
vn -0.8760 0.2899 -0.3855
vn -0.5006 -0.5070 0.7016
vn 0.0185 -0.8845 0.4662
vn -0.8770 0.2879 0.3846
vn 0.1335 -0.9848 0.1112
vn 0.9791 0.1360 -0.1515
vn 0.3018 -0.1823 -0.9358
vn 0.4485 0.2930 0.8444
vn -0.6974 0.6988 -0.1589
vn -0.3829 0.0902 -0.9194
vn -0.2598 0.5594 0.7872
vn -0.6994 -0.7012 0.1387
vn 0.4212 0.5682 0.7069
vn 0.4215 0.5680 -0.7069
vn 0.8991 -0.1582 -0.4082
vn 0.8992 -0.1583 0.4080
vn -0.4130 0.8142 0.4080
vn -0.4128 0.8143 -0.4080
vn -0.3970 -0.5856 -0.7067
vn -0.0419 -0.7091 -0.7039
vn 0.1115 0.6998 0.7056
vn -0.0448 -0.7067 0.7060
vn -0.6976 0.7005 0.1509
vn 0.9798 0.1385 0.1443
vn 0.2966 -0.1835 0.9372
vn -0.3796 0.0852 0.9212
vn -0.2593 0.5603 -0.7867
vn 0.4487 0.2938 -0.8440
vn 0.2486 -0.9542 -0.1663
vn -0.7013 -0.6979 -0.1453
vn 0.0245 -0.7081 -0.7057
vn 0.0016 0.7077 -0.7065
vn 0.8300 -0.3803 -0.4080
vn 0.0229 -0.7070 0.7069
vn 0.8300 -0.3803 0.4080
vn -0.3118 -0.6405 -0.7018
vn 0.3677 0.6050 -0.7062
vn 0.3679 0.6049 0.7062
vn -0.3148 -0.6347 0.7057
vn -0.6843 0.1859 -0.7051
vn 0.6831 -0.1826 -0.7071
vn 0.6074 0.6824 -0.4068
vn -0.1808 0.8941 -0.4098
vn -0.6088 -0.6802 -0.4084
vn 0.1789 -0.8953 -0.4079
vn 0.6831 -0.1827 0.7071
vn 0.6074 0.6823 0.4068
vn 0.1789 -0.8953 0.4079
vn -0.6816 0.1881 0.7071
vn -0.1808 0.8941 0.4098
vn -0.1724 -0.6899 0.7031
vn 0.2634 0.6580 0.7054
vn -0.8733 0.1819 0.4519
vn 0.2634 0.6580 -0.7054
vn -0.1683 -0.6885 -0.7055
vn 0.1178 0.6986 0.7057
vn -0.6841 0.1858 -0.7053
vn 0.6831 -0.1830 -0.7071
vn 0.6076 0.6821 -0.4070
vn -0.1808 0.8942 -0.4096
vn -0.6087 -0.6802 -0.4083
vn 0.1790 -0.8953 -0.4079
vn 0.6831 -0.1830 0.7071
vn 0.6076 0.6821 0.4070
vn 0.1790 -0.8953 0.4079
vn -0.6817 0.1878 0.7071
vn -0.1808 0.8942 0.4096
vn -0.6087 -0.6802 0.4083
vn -0.1731 -0.6917 0.7011
vn 0.2611 0.6590 0.7054
vn 0.2611 0.6590 -0.7054
vn -0.1656 -0.6891 -0.7055
vn -0.0405 -0.7080 -0.7051
vn 0.1077 0.7006 -0.7054
vn 0.1077 0.7006 0.7053
vn -0.0417 -0.7069 0.7061
vn -0.3118 -0.6406 -0.7017
vn 0.3677 0.6049 -0.7063
vn -0.8164 0.3598 -0.4518
vn 0.8199 -0.3621 -0.4435
vn 0.3676 0.6050 0.7063
vn -0.3150 -0.6346 0.7057
vn -0.8163 0.3599 0.4518
vn 0.8198 -0.3623 0.4434
vn -0.1723 -0.6897 -0.7033
vn 0.2521 0.6627 -0.7051
vn 0.2520 0.6628 0.7051
vn -0.1746 -0.6871 0.7053
vn -0.3288 0.9444 -0.0002
vn 0.9446 0.3281 0.0003
vn 0.4635 0.1613 0.8713
vn -0.2090 0.6015 0.7711
vn -0.2092 0.6012 -0.7712
vn 0.4635 0.1607 -0.8714
vn 0.6221 -0.7830 -0.0000
vn 0.3176 -0.3997 0.8599
vn 0.3175 -0.3997 -0.8599
vn -0.4910 -0.3897 0.7792
vn -0.4910 -0.3897 -0.7792
vn -0.7060 0.0219 -0.7078
vn -0.3284 0.9445 -0.0002
vn 0.9447 0.3280 0.0006
vn 0.4637 0.1606 0.8713
vn -0.2095 0.6016 0.7708
vn -0.2094 0.6020 -0.7706
vn 0.4635 0.1612 -0.8713
vn 0.3178 -0.3998 0.8598
vn -0.7831 -0.6219 -0.0000
vn -0.5931 0.3838 -0.7078
vn -0.4796 0.8775 0.0001
vn 0.8775 0.4796 0.0006
vn 0.4995 0.2727 0.8223
vn -0.2808 0.5137 0.8107
vn -0.2807 0.5138 -0.8107
vn 0.4992 0.2732 -0.8223
vn 0.2807 -0.5137 -0.8107
vn -0.3994 -0.5856 -0.7054
vn 0.8991 -0.1585 -0.4080
vn -0.4001 -0.5836 0.7066
vn 0.0244 -0.7076 -0.7062
vn 0.0019 0.7077 -0.7066
vn -0.8017 -0.4363 -0.4085
vn 0.8301 -0.3802 -0.4080
vn 0.0020 0.7077 0.7066
vn 0.0232 -0.7070 0.7069
vn -0.8017 -0.4364 0.4086
vt 39.979500 0.992377
vt 39.979500 0.967057
vt 40.020500 0.967057
vt 40.020500 0.992377
vt 14.019200 -50.932301
vt 14.019200 -50.901901
vt 13.980800 -50.901901
vt 13.980800 -50.932301
vt 39.979500 1.008480
vt 39.979500 0.981613
vt 40.020500 0.981613
vt 40.020500 1.008480
vt 39.985699 1.020520
vt 39.977798 1.020520
vt 39.977798 0.979481
vt 39.985699 0.979481
vt 40.020500 1.030720
vt 40.020500 1.056590
vt 39.979500 1.056590
vt 39.979500 1.030720
vt 14.023100 -51.082001
vt 13.976900 -51.082001
vt 13.976900 -51.098099
vt 14.023100 -51.098099
vt 39.979500 1.045350
vt 39.979500 1.016940
vt 40.020500 1.016940
vt 40.020500 1.045350
vt 39.955898 0.943414
vt 39.970501 0.964755
vt 39.983601 0.990075
vt 39.991501 1.016940
vt 39.994099 1.045350
vt 39.993198 1.071210
vt 39.985298 1.073510
vt 39.986198 1.047650
vt 39.983601 1.019240
vt 39.975800 0.992377
vt 39.962601 0.967057
vt 39.948002 0.945716
vt 40.020500 1.047650
vt 40.020500 1.073510
vt 39.979500 1.073510
vt 39.979500 1.047650
vt 39.955898 1.020520
vt 39.948002 1.020520
vt 39.948002 0.979481
vt 39.955898 0.979481
vt 13.976900 -51.067001
vt 14.023100 -51.067001
vt 14.023100 -51.050900
vt 13.976900 -51.050900
vt 39.979500 0.975453
vt 39.979500 0.950133
vt 40.020500 0.950133
vt 40.020500 0.975453
vt 13.980800 -50.989700
vt 13.980800 -51.015900
vt 14.019200 -51.015900
vt 14.019200 -50.989700
vt 40.024200 0.992377
vt 40.016399 1.019240
vt 40.013802 1.047650
vt 40.014702 1.073510
vt 40.006802 1.071210
vt 40.005901 1.045350
vt 40.008499 1.016940
vt 40.016399 0.990075
vt 40.029499 0.964755
vt 40.044102 0.943414
vt 40.051998 0.945716
vt 40.037399 0.967057
vt 39.979500 0.937254
vt 40.020500 0.937254
vt 40.020500 0.958595
vt 39.979500 0.958595
vt 14.014700 -50.980801
vt 13.926100 -50.980801
vt 13.926100 -51.019199
vt 14.014700 -51.019199
vt 14.063800 -51.015499
vt 14.071900 -50.987701
vt 14.074500 -50.958199
vt 14.073900 -50.927799
vt 13.985300 -50.901901
vt 13.985900 -50.932301
vt 13.983300 -50.961800
vt 13.975200 -50.989700
vt 13.961500 -51.015900
vt 13.944600 -51.041199
vt 14.033200 -51.067001
vt 14.050100 -51.041698
vt 14.016700 -50.961800
vt 14.014100 -50.932301
vt 14.014700 -50.901901
vt 13.926100 -50.927799
vt 13.925500 -50.958199
vt 13.928100 -50.987701
vt 13.936200 -51.015499
vt 13.949900 -51.041698
vt 13.966800 -51.067001
vt 14.055400 -51.041199
vt 14.038500 -51.015900
vt 14.024800 -50.989700
vt 13.980800 -50.987701
vt 13.980800 -51.015499
vt 14.019200 -51.015499
vt 14.019200 -50.987701
vt 39.979500 1.039190
vt 39.979500 1.010780
vt 40.020500 1.010780
vt 40.020500 1.039190
vt 39.979500 1.019240
vt 40.020500 1.019240
vt 14.031800 -50.976898
vt 13.925500 -50.976898
vt 13.925500 -51.023102
vt 14.031800 -51.023102
vt 39.979500 0.983915
vt 40.020500 0.983915
vt 14.019200 -51.067001
vt 13.980800 -51.067001
vt 13.980800 -50.961800
vt 14.019200 -50.961800
vt 14.031800 -51.098099
vt 14.036600 -51.082001
vt 13.930200 -51.050900
vt 13.925500 -51.067001
vt 13.980800 -51.041199
vt 14.019200 -51.041199
vt 39.979500 0.956293
vt 40.020500 0.956293
vt 40.014702 1.020520
vt 40.006802 1.020520
vt 40.006802 0.979481
vt 40.014702 0.979481
vt 13.980800 -51.041698
vt 14.019200 -51.041698
vt 39.956699 1.020520
vt 39.948799 1.020520
vt 39.948799 0.979481
vt 39.956699 0.979481
vt 39.979500 0.964755
vt 39.979500 0.943414
vt 40.020500 0.943414
vt 40.020500 0.964755
vt 39.991600 0.958595
vt 39.977001 0.937254
vt 39.984901 0.934952
vt 39.999500 0.956293
vt 40.012600 0.981613
vt 40.022999 1.036880
vt 40.022202 1.062750
vt 40.014301 1.065050
vt 40.015099 1.039190
vt 40.012600 1.010780
vt 40.004700 0.983915
vt 40.049400 1.000010
vt 40.051998 1.028420
vt 40.051201 1.054280
vt 40.043301 1.056590
vt 40.044102 1.030720
vt 40.041599 1.002320
vt 40.033699 0.975453
vt 40.020599 0.950133
vt 40.005901 0.928792
vt 40.013802 0.926490
vt 40.028500 0.947831
vt 40.041599 0.973151
vt 39.979500 1.000010
vt 39.979500 0.973151
vt 40.020500 0.973151
vt 40.020500 1.000010
vt 13.980800 -50.927799
vt 13.980800 -50.958199
vt 14.019200 -50.958199
vt 14.019200 -50.927799
vt 40.020500 1.065050
vt 39.979500 1.065050
vt 39.979500 0.928792
vt 40.020500 0.928792
vt 39.979500 0.947831
vt 39.979500 0.926490
vt 40.020500 0.926490
vt 40.020500 0.947831
vt 39.979500 1.054280
vt 39.979500 1.028420
vt 40.020500 1.028420
vt 40.020500 1.054280
vt 14.069800 -51.023102
vt 14.069800 -50.976898
vt 14.055400 -50.980801
vt 14.055400 -51.019199
vt 39.979500 0.945716
vt 40.020500 0.945716
vt 39.979500 1.036880
vt 40.020500 1.036880
vt 13.963400 -51.082001
vt 14.069800 -51.050900
vt 39.979500 1.062750
vt 40.020500 1.062750
vt 40.013802 1.020520
vt 40.005901 1.020520
vt 40.005901 0.979481
vt 40.013802 0.979481
vt 39.979500 1.002320
vt 40.020500 1.002320
vt 39.984901 1.020520
vt 39.977001 1.020520
vt 39.977001 0.979481
vt 39.984901 0.979481
vt 39.979500 0.990075
vt 40.020500 0.990075
vt 40.015099 0.934952
vt 40.022999 0.937254
vt 40.008400 0.958595
vt 39.995300 0.983915
vt 39.987400 1.010780
vt 39.984901 1.039190
vt 39.985699 1.065050
vt 39.977798 1.062750
vt 39.977001 1.036880
vt 39.987400 0.981613
vt 40.000500 0.956293
vt 39.986198 0.926490
vt 39.994099 0.928792
vt 39.979401 0.950133
vt 39.966301 0.975453
vt 39.958401 1.002320
vt 39.955898 1.030720
vt 39.956699 1.056590
vt 39.948799 1.054280
vt 39.948002 1.028420
vt 39.950600 1.000010
vt 39.958401 0.973151
vt 39.971500 0.947831
vt 13.968200 -51.098099
vt 14.074500 -51.067001
vt 39.979500 0.934952
vt 40.020500 0.934952
vt 39.979500 1.071210
vt 40.020500 1.071210
s 1
usemtl Meshpart1Mtl.008
f 505/5/13 506/6/14 103/6/15 101/5/16
f 506/6/14 505/5/13 102/5/17 104/6/18
f 506/6/14 507/7/19 97/7/20 103/6/15
f 507/7/19 506/6/14 104/6/18 98/7/21
f 507/7/19 508/8/22 99/8/23 97/7/20
f 508/8/22 507/7/19 98/7/21 100/8/24
f 508/8/22 505/5/13 101/5/16 99/8/23
f 505/5/13 508/8/22 100/8/24 102/5/17
f 521/21/61 522/22/62 35/22/63 33/21/64
f 522/22/62 521/21/61 34/21/65 36/22/66
f 522/22/62 523/23/67 29/23/68 35/22/63
f 523/23/67 522/22/62 36/22/66 30/23/69
f 523/23/67 524/24/70 31/24/71 29/23/68
f 524/24/70 523/23/67 30/23/69 32/24/72
f 524/24/70 521/21/61 33/21/64 31/24/71
f 521/21/61 524/24/70 32/24/72 34/21/65
f 549/49/140 550/50/141 95/50/142 89/49/143
f 550/50/141 549/49/140 90/49/144 96/50/145
f 550/50/141 551/51/146 91/51/147 95/50/142
f 551/51/146 550/50/141 96/50/145 92/51/148
f 551/51/146 552/52/149 93/52/150 91/51/147
f 552/52/149 551/51/146 92/51/148 94/52/151
f 552/52/149 549/49/140 89/49/143 93/52/150
f 549/49/140 552/52/149 94/52/151 90/49/144
f 557/57/163 558/58/164 115/58/165 111/57/166
f 558/58/164 557/57/163 112/57/167 116/58/168
f 558/58/164 559/59/169 113/59/170 115/58/165
f 559/59/169 558/58/164 116/58/168 114/59/171
f 559/59/169 560/60/172 109/60/173 113/59/170
f 560/60/172 559/59/169 114/59/171 110/60/174
f 560/60/172 557/57/163 111/57/166 109/60/173
f 557/57/163 560/60/172 110/60/174 112/57/167
f 577/77/200 578/78/201 43/78/202 41/77/203
f 578/78/201 577/77/200 42/77/204 44/78/205
f 578/78/201 579/79/206 37/79/207 43/78/202
f 579/79/206 578/78/201 44/78/205 38/79/208
f 579/79/206 580/80/209 39/80/210 37/79/207
f 580/80/209 579/79/206 38/79/208 40/80/211
f 580/80/209 577/77/200 41/77/203 39/80/210
f 577/77/200 580/80/209 40/80/211 42/77/204
f 581/81/212 582/82/213 71/82/214 73/81/215
f 582/82/213 581/81/212 74/81/216 72/82/217
f 582/82/213 583/83/218 67/83/219 71/82/214
f 583/83/218 582/82/213 72/82/217 68/83/220
f 583/83/218 584/84/221 63/84/222 67/83/219
f 584/84/221 583/83/218 68/83/220 64/84/223
f 584/84/221 585/85/224 65/85/225 63/84/222
f 585/85/224 584/84/221 64/84/223 66/85/226
f 585/85/224 586/86/227 61/86/228 65/85/225
f 586/86/227 585/85/224 66/85/226 62/86/229
f 586/86/227 587/87/230 69/87/231 61/86/228
f 587/87/230 586/86/227 62/86/229 70/87/232
f 587/87/230 588/88/233 75/88/234 69/87/231
f 588/88/233 587/87/230 70/87/232 76/88/235
f 588/88/233 589/89/236 79/89/237 75/88/234
f 589/89/236 588/88/233 76/88/235 80/89/238
f 589/89/236 590/90/239 83/90/240 79/89/237
f 590/90/239 589/89/236 80/89/238 84/90/241
f 590/90/239 591/91/242 81/91/243 83/90/240
f 591/91/242 590/90/239 84/90/241 82/91/244
f 591/91/242 592/92/245 77/92/246 81/91/243
f 592/92/245 591/91/242 82/91/244 78/92/247
f 592/92/245 581/81/212 73/81/215 77/92/246
f 581/81/212 592/92/245 78/92/247 74/81/216
f 593/93/230 594/94/227 139/94/248 145/93/232
f 594/94/227 593/93/230 146/93/231 140/94/228
f 594/94/227 595/95/224 141/95/226 139/94/248
f 595/95/224 594/94/227 140/94/228 142/95/225
f 595/95/224 596/96/221 137/96/223 141/95/226
f 596/96/221 595/95/224 142/95/225 138/96/222
f 596/96/221 597/97/218 143/97/249 137/96/223
f 597/97/218 596/96/221 138/96/222 144/97/219
f 597/97/218 598/98/250 147/98/217 143/97/249
f 598/98/250 597/97/218 144/97/219 148/98/214
f 598/98/250 599/99/212 149/99/216 147/98/217
f 599/99/212 598/98/250 148/98/214 150/99/215
f 599/99/212 600/100/251 153/100/252 149/99/216
f 600/100/251 599/99/212 150/99/215 154/100/253
f 600/100/251 601/101/254 157/101/255 153/100/252
f 601/101/254 600/100/251 154/100/253 158/101/256
f 601/101/254 602/102/257 159/102/258 157/101/255
f 602/102/257 601/101/254 158/101/256 160/102/259
f 602/102/257 603/103/260 155/103/261 159/102/258
f 603/103/260 602/102/257 160/102/259 156/103/262
f 603/103/260 604/104/233 151/104/235 155/103/261
f 604/104/233 603/103/260 156/103/262 152/104/234
f 604/104/233 593/93/230 145/93/232 151/104/235
f 593/93/230 604/104/233 152/104/234 146/93/231
f 605/105/263 606/106/264 15/106/265 11/105/266
f 606/106/264 605/105/263 12/105/267 16/106/268
f 606/106/264 607/107/269 13/107/270 15/106/265
f 607/107/269 606/106/264 16/106/268 14/107/271
f 607/107/269 608/108/272 9/108/273 13/107/270
f 608/108/272 607/107/269 14/107/271 10/108/274
f 608/108/272 605/105/263 11/105/266 9/108/273
f 605/105/263 608/108/272 10/108/274 12/105/267
f 621/115/298 622/116/299 127/116/300 125/115/301
f 622/116/299 621/115/298 126/115/302 128/116/303
f 622/116/299 623/117/304 121/117/305 127/116/300
f 623/117/304 622/116/299 128/116/303 122/117/306
f 623/117/304 624/118/307 123/118/308 121/117/305
f 624/118/307 623/117/304 122/117/306 124/118/139
f 624/118/307 621/115/298 125/115/301 123/118/308
f 621/115/298 624/118/307 124/118/139 126/115/302
f 629/22/315 630/21/316 27/21/317 25/22/318
f 630/21/316 629/22/315 26/22/319 28/21/320
f 630/21/316 631/121/321 21/121/322 27/21/317
f 631/121/321 630/21/316 28/21/320 22/121/323
f 631/121/321 632/122/324 23/122/325 21/121/322
f 632/122/324 631/121/321 22/121/323 24/122/326
f 632/122/324 629/22/315 25/22/318 23/122/325
f 629/22/315 632/122/324 24/122/326 26/22/319
f 633/8/327 634/123/328 107/123/329 99/8/23
f 634/123/328 633/8/327 100/8/24 108/123/330
f 634/123/328 635/124/331 105/124/332 107/123/329
f 635/124/331 634/123/328 108/123/330 106/124/333
f 635/124/331 636/5/334 101/5/16 105/124/332
f 636/5/334 635/124/331 106/124/333 102/5/17
f 636/5/334 633/8/327 99/8/23 101/5/16
f 633/8/327 636/5/334 102/5/17 100/8/24
f 637/125/335 638/126/336 59/126/337 53/125/338
f 638/126/336 637/125/335 54/125/339 60/126/340
f 638/126/336 639/127/341 55/127/342 59/126/337
f 639/127/341 638/126/336 60/126/340 56/127/343
f 639/127/341 640/128/344 57/128/345 55/127/342
f 640/128/344 639/127/341 56/127/343 58/128/346
f 640/128/344 637/125/335 53/125/338 57/128/345
f 637/125/335 640/128/344 58/128/346 54/125/339
f 641/58/347 642/129/348 119/129/349 115/58/165
f 642/129/348 641/58/347 116/58/168 120/129/350
f 642/129/348 643/130/351 117/130/352 119/129/349
f 643/130/351 642/129/348 120/129/350 118/130/353
f 643/130/351 644/59/354 113/59/170 117/130/352
f 644/59/354 643/130/351 118/130/353 114/59/171
f 644/59/354 641/58/347 115/58/165 113/59/170
f 641/58/347 644/59/354 114/59/171 116/58/168
f 653/137/372 654/122/373 23/122/325 19/137/374
f 654/122/373 653/137/372 20/137/375 24/122/326
f 654/122/373 655/121/376 21/121/322 23/122/325
f 655/121/376 654/122/373 24/122/326 22/121/323
f 655/121/376 656/138/377 17/138/378 21/121/322
f 656/138/377 655/121/376 22/121/323 18/138/379
f 656/138/377 653/137/372 19/137/374 17/138/378
f 653/137/372 656/138/377 18/138/379 20/137/375
f 693/106/459 694/137/460 19/137/374 15/106/265
f 694/137/460 693/106/459 16/106/268 20/137/375
f 694/137/460 695/138/461 17/138/378 19/137/374
f 695/138/461 694/137/460 20/137/375 18/138/379
f 695/138/461 696/107/462 13/107/270 17/138/378
f 696/107/462 695/138/461 18/138/379 14/107/271
f 696/107/462 693/106/459 15/106/265 13/107/270
f 693/106/459 696/107/462 14/107/271 16/106/268
f 697/174/463 698/175/464 7/175/465 1/174/466
f 698/175/464 697/174/463 2/174/467 8/175/16
f 698/175/464 699/176/468 3/176/469 7/175/465
f 699/176/468 698/175/464 8/175/16 4/176/470
f 699/176/468 700/177/471 5/177/472 3/176/469
f 700/177/471 699/176/468 4/176/470 6/177/473
f 700/177/471 697/174/463 1/174/466 5/177/472
f 697/174/463 700/177/471 6/177/473 2/174/467
f 725/190/508 726/191/509 51/191/510 49/190/511
f 726/191/509 725/190/508 50/190/512 52/191/513
f 726/191/509 727/192/514 45/192/515 51/191/510
f 727/192/514 726/191/509 52/191/513 46/192/516
f 727/192/514 728/193/517 47/193/518 45/192/515
f 728/193/517 727/192/514 46/192/516 48/193/519
f 728/193/517 725/190/508 49/190/511 47/193/518
f 725/190/508 728/193/517 48/193/519 50/190/512
f 729/90/520 730/127/521 87/127/522 83/90/240
f 730/127/521 729/90/520 84/90/241 88/127/523
f 730/127/521 731/126/524 85/126/525 87/127/522
f 731/126/524 730/127/521 88/127/523 86/126/526
f 731/126/524 732/91/527 81/91/243 85/126/525
f 732/91/527 731/126/524 86/126/526 82/91/244
f 732/91/527 729/90/520 83/90/240 81/91/243
f 729/90/520 732/91/527 82/91/244 84/90/241
f 741/198/538 742/199/539 163/199/540 161/198/541
f 742/199/539 741/198/538 162/198/542 164/199/543
f 742/199/539 743/102/544 159/102/258 163/199/540
f 743/102/544 742/199/539 164/199/543 160/102/259
f 743/102/544 744/101/545 157/101/255 159/102/258
f 744/101/545 743/102/544 160/102/259 158/101/256
f 744/101/545 741/198/538 161/198/541 157/101/255
f 741/198/538 744/101/545 158/101/256 162/198/542
f 769/123/584 770/57/585 111/57/166 107/123/329
f 770/57/585 769/123/584 108/123/330 112/57/167
f 770/57/585 771/60/586 109/60/173 111/57/166
f 771/60/586 770/57/585 112/57/167 110/60/174
f 771/60/586 772/124/587 105/124/332 109/60/173
f 772/124/587 771/60/586 110/60/174 106/124/333
f 772/124/587 769/123/584 107/123/329 105/124/332
f 769/123/584 772/124/587 106/124/333 108/123/330
f 773/175/588 774/105/589 11/105/266 7/175/465
f 774/105/589 773/175/588 8/175/16 12/105/267
f 774/105/589 775/108/590 9/108/273 11/105/266
f 775/108/590 774/105/589 12/105/267 10/108/274
f 775/108/590 776/176/591 3/176/469 9/108/273
f 776/176/591 775/108/590 10/108/274 4/176/470
f 776/176/591 773/175/588 7/175/465 3/176/469
f 773/175/588 776/176/591 4/176/470 8/175/16
f 809/237/625 810/238/626 135/238/627 129/237/628
f 810/238/626 809/237/625 130/237/629 136/238/630
f 810/238/626 811/199/341 131/199/343 135/238/627
f 811/199/341 810/238/626 136/238/630 132/199/631
f 811/199/341 812/198/336 133/198/340 131/199/343
f 812/198/336 811/199/341 132/199/631 134/198/337
f 812/198/336 809/237/625 129/237/628 133/198/340
f 809/237/625 812/198/336 134/198/337 130/237/629
usemtl Meshpart2Mtl.006
f 501/1/1 502/2/2 351/2/3 347/1/4
f 502/2/2 501/1/1 348/1/5 352/2/6
f 502/2/2 503/3/7 349/3/8 351/2/3
f 503/3/7 502/2/2 352/2/6 350/3/9
f 503/3/7 504/4/10 345/4/11 349/3/8
f 504/4/10 503/3/7 350/3/9 346/4/12
f 504/4/10 501/1/1 347/1/4 345/4/11
f 501/1/1 504/4/10 346/4/12 348/1/5
f 509/9/25 510/10/26 203/10/27 199/9/28
f 510/10/26 509/9/25 200/9/29 204/10/30
f 510/10/26 511/11/31 201/11/32 203/10/27
f 511/11/31 510/10/26 204/10/30 202/11/33
f 511/11/31 512/12/34 197/12/35 201/11/32
f 512/12/34 511/11/31 202/11/33 198/12/36
f 512/12/34 509/9/25 199/9/28 197/12/35
f 509/9/25 512/12/34 198/12/36 200/9/29
f 513/13/37 514/14/38 243/14/39 239/13/40
f 514/14/38 513/13/37 240/13/41 244/14/42
f 514/14/38 515/15/43 241/15/44 243/14/39
f 515/15/43 514/14/38 244/14/42 242/15/45
f 515/15/43 516/16/46 237/16/47 241/15/44
f 516/16/46 515/15/43 242/15/45 238/16/48
f 516/16/46 513/13/37 239/13/40 237/16/47
f 513/13/37 516/16/46 238/16/48 240/13/41
f 517/17/49 518/18/50 387/18/51 385/17/52
f 518/18/50 517/17/49 386/17/53 388/18/54
f 518/18/50 519/19/55 381/19/56 387/18/51
f 519/19/55 518/18/50 388/18/54 382/19/57
f 519/19/55 520/20/58 383/20/59 381/19/56
f 520/20/58 519/19/55 382/19/57 384/20/60
f 520/20/58 517/17/49 385/17/52 383/20/59
f 517/17/49 520/20/58 384/20/60 386/17/53
f 525/25/73 526/26/74 223/26/75 219/25/76
f 526/26/74 525/25/73 220/25/77 224/26/78
f 526/26/74 527/27/79 221/27/35 223/26/75
f 527/27/79 526/26/74 224/26/78 222/27/80
f 527/27/79 528/28/81 217/28/82 221/27/35
f 528/28/81 527/27/79 222/27/80 218/28/83
f 528/28/81 525/25/73 219/25/76 217/28/82
f 525/25/73 528/28/81 218/28/83 220/25/77
f 529/29/84 530/30/85 325/30/86 329/29/87
f 530/30/85 529/29/84 330/29/88 326/30/89
f 530/30/85 531/31/90 323/31/91 325/30/86
f 531/31/90 530/30/85 326/30/89 324/31/92
f 531/31/90 532/32/93 319/32/94 323/31/91
f 532/32/93 531/31/90 324/31/92 320/32/95
f 532/32/93 533/33/96 315/33/97 319/32/94
f 533/33/96 532/32/93 320/32/95 316/33/98
f 533/33/96 534/34/99 311/34/100 315/33/97
f 534/34/99 533/33/96 316/33/98 312/34/101
f 534/34/99 535/35/102 313/35/103 311/34/100
f 535/35/102 534/34/99 312/34/101 314/35/104
f 535/35/102 536/36/105 309/36/106 313/35/103
f 536/36/105 535/35/102 314/35/104 310/36/107
f 536/36/105 537/37/108 317/37/109 309/36/106
f 537/37/108 536/36/105 310/36/107 318/37/110
f 537/37/108 538/38/111 321/38/112 317/37/109
f 538/38/111 537/37/108 318/37/110 322/38/113
f 538/38/111 539/39/114 327/39/115 321/38/112
f 539/39/114 538/38/111 322/38/113 328/39/116
f 539/39/114 540/40/117 331/40/118 327/39/115
f 540/40/117 539/39/114 328/39/116 332/40/119
f 540/40/117 529/29/84 329/29/87 331/40/118
f 529/29/84 540/40/117 332/40/119 330/29/88
f 541/41/120 542/42/121 339/42/122 337/41/123
f 542/42/121 541/41/120 338/41/53 340/42/54
f 542/42/121 543/43/55 333/43/124 339/42/122
f 543/43/55 542/42/121 340/42/54 334/43/125
f 543/43/55 544/44/126 335/44/127 333/43/124
f 544/44/126 543/43/55 334/43/125 336/44/60
f 544/44/126 541/41/120 337/41/123 335/44/127
f 541/41/120 544/44/126 336/44/60 338/41/53
f 545/45/128 546/46/129 427/46/130 423/45/131
f 546/46/129 545/45/128 424/45/132 428/46/133
f 546/46/129 547/47/134 425/47/135 427/46/130
f 547/47/134 546/46/129 428/46/133 426/47/136
f 547/47/134 548/48/137 421/48/138 425/47/135
f 548/48/137 547/47/134 426/47/136 422/48/139
f 548/48/137 545/45/128 423/45/131 421/48/138
f 545/45/128 548/48/137 422/48/139 424/45/132
f 553/53/152 554/54/2 399/54/153 395/53/154
f 554/54/2 553/53/152 396/53/155 400/54/156
f 554/54/2 555/55/157 397/55/158 399/54/153
f 555/55/157 554/54/2 400/54/156 398/55/159
f 555/55/157 556/56/160 393/56/161 397/55/158
f 556/56/160 555/55/157 398/55/159 394/56/162
f 556/56/160 553/53/152 395/53/154 393/56/161
f 553/53/152 556/56/160 394/56/162 396/53/155
f 561/61/111 562/62/108 485/62/110 489/61/175
f 562/62/108 561/61/111 490/61/176 486/62/109
f 562/62/108 563/63/105 479/63/177 485/62/110
f 563/63/105 562/62/108 486/62/109 480/63/106
f 563/63/105 564/64/178 481/64/104 479/63/177
f 564/64/178 563/63/105 480/63/106 482/64/103
f 564/64/178 565/65/99 477/65/101 481/64/104
f 565/65/99 564/64/178 482/64/103 478/65/179
f 565/65/99 566/66/96 483/66/98 477/65/101
f 566/66/96 565/65/99 478/65/179 484/66/180
f 566/66/96 567/67/93 487/67/181 483/66/98
f 567/67/93 566/66/96 484/66/180 488/67/182
f 567/67/93 568/68/90 491/68/92 487/67/181
f 568/68/90 567/67/93 488/67/182 492/68/91
f 568/68/90 569/69/85 493/69/89 491/68/92
f 569/69/85 568/68/90 492/68/91 494/69/86
f 569/69/85 570/70/183 497/70/184 493/69/89
f 570/70/183 569/69/85 494/69/86 498/70/185
f 570/70/183 571/71/186 499/71/187 497/70/184
f 571/71/186 570/70/183 498/70/185 500/71/188
f 571/71/186 572/72/114 495/72/189 499/71/187
f 572/72/114 571/71/186 500/71/188 496/72/190
f 572/72/114 561/61/111 489/61/175 495/72/189
f 561/61/111 572/72/114 496/72/190 490/61/176
f 573/73/191 574/74/192 377/74/193 379/73/194
f 574/74/192 573/73/191 380/73/195 378/74/196
f 574/74/192 575/75/197 373/75/198 377/74/193
f 575/75/197 574/74/192 378/74/196 374/75/159
f 575/75/197 576/76/199 375/76/3 373/75/198
f 576/76/199 575/75/197 374/75/159 376/76/6
f 576/76/199 573/73/191 379/73/194 375/76/3
f 573/73/191 576/76/199 376/76/6 380/73/195
f 609/109/275 610/110/276 367/110/277 359/109/278
f 610/110/276 609/109/275 360/109/279 368/110/280
f 610/110/276 611/111/281 365/111/282 367/110/277
f 611/111/281 610/110/276 368/110/280 366/111/283
f 611/111/281 612/112/284 361/112/285 365/111/282
f 612/112/284 611/111/281 366/111/283 362/112/286
f 612/112/284 609/109/275 359/109/278 361/112/285
f 609/109/275 612/112/284 362/112/286 360/109/279
f 613/44/287 614/113/288 343/113/289 335/44/127
f 614/113/288 613/44/287 336/44/60 344/113/290
f 614/113/288 615/114/291 341/114/292 343/113/289
f 615/114/291 614/113/288 344/113/290 342/114/266
f 615/114/291 616/41/293 337/41/123 341/114/292
f 616/41/293 615/114/291 342/114/266 338/41/53
f 616/41/293 613/44/287 335/44/127 337/41/123
f 613/44/287 616/41/293 338/41/53 336/44/60
f 617/113/294 618/1/295 347/1/4 343/113/289
f 618/1/295 617/113/294 344/113/290 348/1/5
f 618/1/295 619/4/296 345/4/11 347/1/4
f 619/4/296 618/1/295 348/1/5 346/4/12
f 619/4/296 620/114/297 341/114/292 345/4/11
f 620/114/297 619/4/296 346/4/12 342/114/266
f 620/114/297 617/113/294 343/113/289 341/114/292
f 617/113/294 620/114/297 342/114/266 344/113/290
f 625/110/309 626/119/310 371/119/311 367/110/277
f 626/119/310 625/110/309 368/110/280 372/119/312
f 626/119/310 627/120/313 369/120/161 371/119/311
f 627/120/313 626/119/310 372/119/312 370/120/162
f 627/120/313 628/111/314 365/111/282 369/120/161
f 628/111/314 627/120/313 370/120/162 366/111/283
f 628/111/314 625/110/309 367/110/277 365/111/282
f 625/110/309 628/111/314 366/111/283 368/110/280
f 645/10/355 646/131/356 207/131/159 203/10/27
f 646/131/356 645/10/355 204/10/30 208/131/158
f 646/131/356 647/132/357 205/132/358 207/131/159
f 647/132/357 646/131/356 208/131/158 206/132/3
f 647/132/357 648/11/359 201/11/32 205/132/358
f 648/11/359 647/132/357 206/132/3 202/11/33
f 648/11/359 645/10/355 203/10/27 201/11/32
f 645/10/355 648/11/359 202/11/33 204/10/30
f 649/133/360 650/134/361 259/134/362 255/133/363
f 650/134/361 649/133/360 256/133/364 260/134/365
f 650/134/361 651/135/366 257/135/367 259/134/362
f 651/135/366 650/134/361 260/134/365 258/135/368
f 651/135/366 652/136/369 253/136/370 257/135/367
f 652/136/369 651/135/366 258/135/368 254/136/371
f 652/136/369 649/133/360 255/133/363 253/136/370
f 649/133/360 652/136/369 254/136/371 256/133/364
f 657/139/380 658/140/381 251/140/382 247/139/383
f 658/140/381 657/139/380 248/139/364 252/140/365
f 658/140/381 659/141/384 249/141/385 251/140/382
f 659/141/384 658/140/381 252/140/365 250/141/368
f 659/141/384 660/142/386 245/142/387 249/141/385
f 660/142/386 659/141/384 250/141/368 246/142/388
f 660/142/386 657/139/380 247/139/383 245/142/387
f 657/139/380 660/142/386 246/142/388 248/139/364
f 661/143/389 662/144/390 235/144/391 231/143/392
f 662/144/390 661/143/389 232/143/393 236/144/394
f 662/144/390 663/145/395 233/145/396 235/144/391
f 663/145/395 662/144/390 236/144/394 234/145/397
f 663/145/395 664/146/398 229/146/399 233/145/396
f 664/146/398 663/145/395 234/145/397 230/146/400
f 664/146/398 661/143/389 231/143/392 229/146/399
f 661/143/389 664/146/398 230/146/400 232/143/393
f 665/147/114 666/148/401 283/148/402 279/147/190
f 666/148/401 665/147/114 280/147/116 284/148/403
f 666/148/401 667/149/404 281/149/185 283/148/402
f 667/149/404 666/148/401 284/148/403 282/149/405
f 667/149/404 668/150/85 277/150/406 281/149/185
f 668/150/85 667/149/404 282/149/405 278/150/407
f 668/150/85 669/151/90 273/151/408 277/150/406
f 669/151/90 668/150/85 278/150/407 274/151/92
f 669/151/90 670/12/93 271/12/409 273/151/408
f 670/12/93 669/151/90 274/151/92 272/12/410
f 670/12/93 671/152/411 267/152/412 271/12/409
f 671/152/411 670/12/93 272/12/410 268/152/413
f 671/152/411 672/153/414 263/153/415 267/152/412
f 672/153/414 671/152/411 268/152/413 264/153/416
f 672/153/414 673/154/417 265/154/418 263/153/415
f 673/154/417 672/153/414 264/153/416 266/154/419
f 673/154/417 674/155/420 261/155/421 265/154/418
f 674/155/420 673/154/417 266/154/419 262/155/422
f 674/155/420 675/156/423 269/156/424 261/155/421
f 675/156/423 674/155/420 262/155/422 270/156/425
f 675/156/423 676/157/426 275/157/427 269/156/424
f 676/157/426 675/156/423 270/156/425 276/157/428
f 676/157/426 665/147/114 279/147/190 275/157/427
f 665/147/114 676/157/426 276/157/428 280/147/116
f 677/158/93 678/159/411 291/159/412 295/158/429
f 678/159/411 677/158/93 296/158/430 292/159/413
f 678/159/411 679/160/431 287/160/432 291/159/412
f 679/160/431 678/159/411 292/159/413 288/160/433
f 679/160/431 680/161/434 289/161/435 287/160/432
f 680/161/434 679/160/431 288/160/433 290/161/436
f 680/161/434 681/162/105 285/162/106 289/161/435
f 681/162/105 680/161/434 290/161/436 286/162/107
f 681/162/105 682/163/108 293/163/109 285/162/106
f 682/163/108 681/162/105 286/162/107 294/163/110
f 682/163/108 683/164/426 297/164/437 293/163/109
f 683/164/426 682/163/108 294/163/110 298/164/438
f 683/164/426 684/165/439 303/165/115 297/164/437
f 684/165/439 683/164/426 298/164/438 304/165/116
f 684/165/439 685/166/440 307/166/441 303/165/115
f 685/166/440 684/165/439 304/165/116 308/166/442
f 685/166/440 686/167/443 305/167/444 307/166/441
f 686/167/443 685/166/440 308/166/442 306/167/445
f 686/167/443 687/168/85 301/168/406 305/167/444
f 687/168/85 686/167/443 306/167/445 302/168/446
f 687/168/85 688/169/447 299/169/448 301/168/406
f 688/169/447 687/168/85 302/168/446 300/169/449
f 688/169/447 677/158/93 295/158/429 299/169/448
f 677/158/93 688/169/447 300/169/449 296/158/430
f 689/170/450 690/171/451 179/171/452 175/170/453
f 690/171/451 689/170/450 176/170/29 180/171/454
f 690/171/451 691/172/455 177/172/456 179/171/452
f 691/172/455 690/171/451 180/171/454 178/172/457
f 691/172/455 692/173/458 173/173/35 177/172/456
f 692/173/458 691/172/455 178/172/457 174/173/80
f 692/173/458 689/170/450 175/170/453 173/173/35
f 689/170/450 692/173/458 174/173/80 176/170/29
f 701/112/474 702/178/475 363/178/476 361/112/285
f 702/178/475 701/112/474 362/112/286 364/178/477
f 702/178/475 703/179/478 357/179/479 363/178/476
f 703/179/478 702/178/475 364/178/477 358/179/480
f 703/179/478 704/109/481 359/109/278 357/179/479
f 704/109/481 703/179/478 358/179/480 360/109/279
f 704/109/481 701/112/474 361/112/285 359/109/278
f 701/112/474 704/109/481 360/109/279 362/112/286
f 705/180/395 706/181/390 401/181/394 403/180/397
f 706/181/390 705/180/395 404/180/396 402/181/391
f 706/181/390 707/55/197 397/55/158 401/181/394
f 707/55/197 706/181/390 402/181/391 398/55/159
f 707/55/197 708/54/199 399/54/153 397/55/158
f 708/54/199 707/55/197 398/55/159 400/54/156
f 708/54/199 705/180/395 403/180/397 399/54/153
f 705/180/395 708/54/199 400/54/156 404/180/396
f 709/182/482 710/183/483 187/183/484 183/182/159
f 710/183/483 709/182/482 184/182/198 188/183/485
f 710/183/483 711/184/486 185/184/487 187/183/484
f 711/184/486 710/183/483 188/183/485 186/184/488
f 711/184/486 712/185/489 181/185/490 185/184/487
f 712/185/489 711/184/486 186/184/488 182/185/491
f 712/185/489 709/182/482 183/182/159 181/185/490
f 709/182/482 712/185/489 182/185/491 184/182/198
f 713/186/492 714/187/493 171/187/286 167/186/494
f 714/187/493 713/186/492 168/186/495 172/187/77
f 714/187/493 715/188/496 169/188/82 171/187/286
f 715/188/496 714/187/493 172/187/77 170/188/497
f 715/188/496 716/189/498 165/189/499 169/188/82
f 716/189/498 715/188/496 170/188/497 166/189/500
f 716/189/498 713/186/492 167/186/494 165/189/499
f 713/186/492 716/189/498 166/189/500 168/186/495
f 717/187/501 718/170/502 175/170/453 171/187/286
f 718/170/502 717/187/501 172/187/77 176/170/29
f 718/170/502 719/173/503 173/173/35 175/170/453
f 719/173/503 718/170/502 176/170/29 174/173/80
f 719/173/503 720/188/504 169/188/82 173/173/35
f 720/188/504 719/173/503 174/173/80 170/188/497
f 720/188/504 717/187/501 171/187/286 169/188/82
f 717/187/501 720/188/504 170/188/497 172/187/77
f 721/119/505 722/76/2 375/76/3 371/119/311
f 722/76/2 721/119/505 372/119/312 376/76/6
f 722/76/2 723/75/506 373/75/198 375/76/3
f 723/75/506 722/76/2 376/76/6 374/75/159
f 723/75/506 724/120/507 369/120/161 373/75/198
f 724/120/507 723/75/506 374/75/159 370/120/162
f 724/120/507 721/119/505 371/119/311 369/120/161
f 721/119/505 724/120/507 370/120/162 372/119/312
f 733/194/528 734/195/529 353/195/530 355/194/531
f 734/195/529 733/194/528 356/194/532 354/195/533
f 734/195/529 735/3/534 349/3/8 353/195/530
f 735/3/534 734/195/529 354/195/533 350/3/9
f 735/3/534 736/2/199 351/2/3 349/3/8
f 736/2/199 735/3/534 350/3/9 352/2/6
f 736/2/199 733/194/528 355/194/531 351/2/3
f 733/194/528 736/2/199 352/2/6 356/194/532
f 737/196/535 738/9/502 199/9/28 195/196/76
f 738/9/502 737/196/535 196/196/77 200/9/29
f 738/9/502 739/12/536 197/12/35 199/9/28
f 739/12/536 738/9/502 200/9/29 198/12/36
f 739/12/536 740/197/537 193/197/82 197/12/35
f 740/197/537 739/12/536 198/12/36 194/197/497
f 740/197/537 737/196/535 195/196/76 193/197/82
f 737/196/535 740/197/537 194/197/497 196/196/77
f 745/200/546 746/196/547 195/196/76 191/200/494
f 746/196/547 745/200/546 192/200/548 196/196/77
f 746/196/547 747/197/496 193/197/82 195/196/76
f 747/197/496 746/196/547 196/196/77 194/197/497
f 747/197/496 748/201/549 189/201/499 193/197/82
f 748/201/549 747/197/496 194/197/497 190/201/550
f 748/201/549 745/200/546 191/200/494 189/201/499
f 745/200/546 748/201/549 190/201/550 192/200/548
f 749/171/551 750/182/552 183/182/159 179/171/452
f 750/182/552 749/171/551 180/171/454 184/182/198
f 750/182/552 751/185/553 181/185/490 183/182/159
f 751/185/553 750/182/552 184/182/198 182/185/491
f 751/185/553 752/172/554 177/172/456 181/185/490
f 752/172/554 751/185/553 182/185/491 178/172/457
f 752/172/554 749/171/551 179/171/452 177/172/456
f 749/171/551 752/172/554 178/172/457 180/171/454
f 753/202/555 754/203/556 419/203/557 415/202/558
f 754/203/556 753/202/555 416/202/559 420/203/560
f 754/203/556 755/204/561 417/204/562 419/203/557
f 755/204/561 754/203/556 420/203/560 418/204/563
f 755/204/561 756/205/564 413/205/565 417/204/562
f 756/205/564 755/204/561 418/204/563 414/205/139
f 756/205/564 753/202/555 415/202/558 413/205/565
f 753/202/555 756/205/564 414/205/139 416/202/559
f 757/206/566 758/53/567 395/53/154 391/206/289
f 758/53/567 757/206/566 392/206/568 396/53/155
f 758/53/567 759/56/569 393/56/161 395/53/154
f 759/56/569 758/53/567 396/53/155 394/56/162
f 759/56/569 760/207/570 389/207/292 393/56/161
f 760/207/570 759/56/569 394/56/162 390/207/283
f 760/207/570 757/206/566 391/206/289 389/207/292
f 757/206/566 760/207/570 390/207/283 392/206/568
f 761/20/287 762/206/571 391/206/289 383/20/59
f 762/206/571 761/20/287 384/20/60 392/206/568
f 762/206/571 763/207/291 389/207/292 391/206/289
f 763/207/291 762/206/571 392/206/568 390/207/283
f 763/207/291 764/17/293 385/17/52 389/207/292
f 764/17/293 763/207/291 390/207/283 386/17/53
f 764/17/293 761/20/287 383/20/59 385/17/52
f 761/20/287 764/17/293 386/17/53 384/20/60
f 765/208/572 766/209/573 411/209/574 407/208/575
f 766/209/573 765/208/572 408/208/576 412/209/577
f 766/209/573 767/210/578 409/210/579 411/209/574
f 767/210/578 766/209/573 412/209/577 410/210/580
f 767/210/578 768/211/581 405/211/582 409/210/579
f 768/211/581 767/210/578 410/210/580 406/211/583
f 768/211/581 765/208/572 407/208/575 405/211/582
f 765/208/572 768/211/581 406/211/583 408/208/576
f 777/212/592 778/143/593 231/143/392 227/212/594
f 778/143/593 777/212/592 228/212/595 232/143/393
f 778/143/593 779/146/596 229/146/399 231/143/392
f 779/146/596 778/143/593 232/143/393 230/146/400
f 779/146/596 780/213/597 225/213/598 229/146/399
f 780/213/597 779/146/596 230/146/400 226/213/599
f 780/213/597 777/212/592 227/212/594 225/213/598
f 777/212/592 780/213/597 226/213/599 228/212/595
f 781/26/600 782/212/601 227/212/594 223/26/75
f 782/212/601 781/26/600 224/26/78 228/212/595
f 782/212/601 783/213/602 225/213/598 227/212/594
f 783/213/602 782/212/601 228/212/595 226/213/599
f 783/213/602 784/27/603 221/27/35 225/213/598
f 784/27/603 783/213/602 226/213/599 222/27/80
f 784/27/603 781/26/600 223/26/75 221/27/35
f 781/26/600 784/27/603 222/27/80 224/26/78
f 785/214/604 786/215/605 451/215/606 449/214/607
f 786/215/605 785/214/604 450/214/608 452/215/609
f 786/215/605 787/216/114 447/216/116 451/215/606
f 787/216/114 786/215/605 452/215/609 448/216/190
f 787/216/114 788/217/426 443/217/428 447/216/116
f 788/217/426 787/216/114 448/216/190 444/217/427
f 788/217/426 789/218/423 437/218/425 443/217/428
f 789/218/423 788/217/426 444/217/427 438/218/424
f 789/218/423 790/219/420 431/219/422 437/218/425
f 790/219/420 789/218/423 438/218/424 432/219/421
f 790/219/420 791/220/610 433/220/611 431/219/422
f 791/220/610 790/219/420 432/219/421 434/220/612
f 791/220/610 792/221/99 429/221/613 433/220/611
f 792/221/99 791/220/610 434/220/612 430/221/614
f 792/221/99 793/222/411 435/222/413 429/221/613
f 793/222/411 792/221/99 430/221/614 436/222/615
f 793/222/411 794/9/93 439/9/410 435/222/413
f 794/9/93 793/222/411 436/222/615 440/9/182
f 794/9/93 795/223/90 441/223/92 439/9/410
f 795/223/90 794/9/93 440/9/182 442/223/91
f 795/223/90 796/224/85 445/224/446 441/223/92
f 796/224/85 795/223/90 442/223/91 446/224/406
f 796/224/85 785/214/604 449/214/607 445/224/446
f 785/214/604 796/224/85 446/224/406 450/214/608
f 797/225/616 798/226/617 475/226/618 473/225/619
f 798/226/617 797/225/616 474/225/620 476/226/621
f 798/226/617 799/227/439 471/227/189 475/226/618
f 799/227/439 798/226/617 476/226/621 472/227/190
f 799/227/439 800/228/426 465/228/438 471/227/189
f 800/228/426 799/227/439 472/227/190 466/228/437
f 800/228/426 801/229/108 461/229/110 465/228/438
f 801/229/108 800/228/426 466/228/437 462/229/109
f 801/229/108 802/230/105 455/230/177 461/229/110
f 802/230/105 801/229/108 462/229/109 456/230/106
f 802/230/105 803/231/434 457/231/622 455/230/177
f 803/231/434 802/230/105 456/230/106 458/231/435
f 803/231/434 804/232/623 453/232/433 457/231/622
f 804/232/623 803/231/434 458/231/435 454/232/432
f 804/232/623 805/233/411 459/233/413 453/232/433
f 805/233/411 804/232/623 454/232/432 460/233/412
f 805/233/411 806/234/93 463/234/430 459/233/413
f 806/234/93 805/233/411 460/233/412 464/234/409
f 806/234/93 807/235/447 467/235/449 463/234/430
f 807/235/447 806/234/93 464/234/409 468/235/448
f 807/235/447 808/236/85 469/236/407 467/235/449
f 808/236/85 807/235/447 468/235/448 470/236/624
f 808/236/85 797/225/616 473/225/619 469/236/407
f 797/225/616 808/236/85 470/236/624 474/225/620
f 813/131/632 814/239/390 211/239/391 207/131/159
f 814/239/390 813/131/632 208/131/158 212/239/633
f 814/239/390 815/240/395 209/240/396 211/239/391
f 815/240/395 814/239/390 212/239/633 210/240/397
f 815/240/395 816/132/634 205/132/358 209/240/396
f 816/132/634 815/240/395 210/240/397 206/132/3
f 816/132/634 813/131/632 207/131/159 205/132/358
f 813/131/632 816/132/634 206/132/3 208/131/158
f 817/241/635 818/25/636 219/25/76 215/241/637
f 818/25/636 817/241/635 216/241/638 220/25/77
f 818/25/636 819/28/639 217/28/82 219/25/76
f 819/28/639 818/25/636 220/25/77 218/28/83
f 819/28/639 820/242/640 213/242/641 217/28/82
f 820/242/640 819/28/639 218/28/83 214/242/500
f 820/242/640 817/241/635 215/241/637 213/242/641
f 817/241/635 820/242/640 214/242/500 216/241/638
