# Blender 5.2.0 LTS
# www.blender.org
mtllib glass boneclaw bolt.mtl
o maybe_correct_sized_bc_body.003
v -0.208912 -0.038009 0.000276
v -0.208932 -0.037227 -0.000346
v -0.177613 -0.047564 0.000253
v -0.176975 -0.047052 -0.000323
v -0.208912 -0.038009 0.108338
v -0.208932 -0.037227 0.108960
v -0.239592 -0.049069 0.108339
v -0.240228 -0.048609 0.108959
v -0.239592 -0.049069 0.000275
v -0.240228 -0.048609 -0.000345
v -0.177613 -0.047564 0.108361
v -0.176975 -0.047052 0.108937
v -0.198342 -0.058589 -0.075298
v -0.197562 -0.057963 -0.075298
v -0.198214 -0.058486 0.000335
v -0.197690 -0.058066 -0.000405
v -0.187289 -0.078942 0.000361
v -0.186679 -0.078928 -0.000431
v -0.197335 -0.099811 -0.075298
v -0.196525 -0.100397 -0.075298
v -0.187484 -0.078947 -0.075298
v -0.186484 -0.078923 -0.075298
v -0.197202 -0.099907 0.000335
v -0.196658 -0.100301 -0.000405
v -0.166461 -0.078433 0.000276
v -0.165679 -0.078413 -0.000346
v -0.166461 -0.078433 0.108338
v -0.165679 -0.078413 0.108960
v -0.176079 -0.109820 0.000275
v -0.175443 -0.110280 -0.000345
v -0.176079 -0.109820 0.108339
v -0.175443 -0.110280 0.108959
v -0.228937 -0.059227 0.000350
v -0.229455 -0.058853 -0.000420
v -0.208658 -0.048365 0.000372
v -0.208672 -0.047783 -0.000442
v -0.228791 -0.059333 -0.075298
v -0.229601 -0.058747 -0.075298
v -0.208653 -0.048574 -0.075298
v -0.208677 -0.047574 -0.075298
v -0.238081 -0.111345 0.108320
v -0.238669 -0.111816 0.108978
v -0.259632 -0.080710 0.108384
v -0.260480 -0.080730 0.108914
v -0.206634 -0.131180 0.108383
v -0.206614 -0.132028 0.108915
v -0.238643 -0.080198 -0.075298
v -0.239643 -0.080222 -0.075298
v -0.238838 -0.080203 0.000361
v -0.239448 -0.080217 -0.000431
v -0.227784 -0.100555 -0.075298
v -0.228564 -0.101181 -0.075298
v -0.227925 -0.100668 0.000350
v -0.228423 -0.101068 -0.000420
v -0.259632 -0.080710 0.000230
v -0.260480 -0.080730 -0.000300
v -0.238081 -0.111345 0.000294
v -0.238669 -0.111817 -0.000364
v -0.207144 -0.110317 -0.075298
v -0.207120 -0.111317 -0.075298
v -0.207139 -0.110526 0.000372
v -0.207125 -0.111108 -0.000442
v -0.206634 -0.131180 0.000231
v -0.206614 -0.132028 -0.000301
v -0.208444 -0.037764 0.000465
v -0.208444 -0.037764 0.105289
v -0.177939 -0.047110 0.000465
v -0.209392 -0.037788 0.003337
v -0.239276 -0.048609 0.108149
v -0.209392 -0.037788 0.108149
v -0.239440 -0.048669 0.000465
v -0.239440 -0.048669 0.105277
v -0.209556 -0.037848 0.000465
v -0.177772 -0.047162 0.003325
v -0.208277 -0.037816 0.108149
v -0.177772 -0.047162 0.108149
v -0.187302 -0.078335 -0.000535
v -0.197718 -0.058718 -0.072004
v -0.197718 -0.058718 -0.000535
v -0.197634 -0.058876 -0.074798
v -0.187218 -0.078493 -0.003329
v -0.187218 -0.078493 -0.074798
v -0.196641 -0.099489 -0.000535
v -0.187197 -0.079388 -0.072004
v -0.187197 -0.079388 -0.000535
v -0.187273 -0.079550 -0.074798
v -0.196717 -0.099651 -0.003329
v -0.196717 -0.099651 -0.074798
v -0.177124 -0.047778 0.000465
v -0.177124 -0.047778 0.105289
v -0.166299 -0.077788 0.000465
v -0.166240 -0.077953 0.003325
v -0.177065 -0.047943 0.108149
v -0.166240 -0.077953 0.108149
v -0.166216 -0.078901 0.000465
v -0.166216 -0.078901 0.105289
v -0.175563 -0.109405 0.000465
v -0.175615 -0.109572 0.003325
v -0.166268 -0.079068 0.108149
v -0.175615 -0.109572 0.108149
v -0.209263 -0.048393 -0.000535
v -0.228755 -0.058804 -0.071989
v -0.228755 -0.058804 -0.000535
v -0.228598 -0.058721 -0.074798
v -0.209106 -0.048310 -0.003344
v -0.209106 -0.048310 -0.074798
v -0.208303 -0.048419 -0.005171
v -0.198392 -0.057857 -0.074798
v -0.208303 -0.048419 -0.074798
v -0.198314 -0.057931 -0.070162
v -0.208225 -0.048493 -0.000535
v -0.198314 -0.057931 -0.000535
v -0.238915 -0.109942 0.108649
v -0.240369 -0.050502 0.108649
v -0.259455 -0.080705 0.108649
v -0.239381 -0.050035 0.108649
v -0.237887 -0.111069 0.108649
v -0.176978 -0.109580 0.108649
v -0.177408 -0.110590 0.108649
v -0.236709 -0.112040 0.108649
v -0.206638 -0.131004 0.108649
v -0.177782 -0.047820 0.108649
v -0.238693 -0.049309 0.108649
v -0.176290 -0.108854 0.108649
v -0.176719 -0.050376 0.108649
v -0.175336 -0.106958 0.108649
v -0.166597 -0.078436 0.108649
v -0.236854 -0.048264 0.108649
v -0.180387 -0.046883 0.108649
v -0.208909 -0.038145 0.108649
v -0.238854 -0.079595 -0.074798
v -0.229409 -0.059493 -0.003329
v -0.229409 -0.059493 -0.074798
v -0.229485 -0.059655 -0.000535
v -0.238930 -0.079757 -0.072004
v -0.238930 -0.079757 -0.000535
v -0.228492 -0.100268 -0.074798
v -0.238909 -0.080652 -0.003329
v -0.238909 -0.080652 -0.074798
v -0.238825 -0.080810 -0.000535
v -0.228408 -0.100426 -0.072004
v -0.228409 -0.100426 -0.000535
v -0.240177 -0.049262 0.002931
v -0.259681 -0.080126 0.108149
v -0.240177 -0.049262 0.108149
v -0.259769 -0.081129 0.002931
v -0.238779 -0.111006 0.108149
v -0.259769 -0.081129 0.108149
v -0.259789 -0.080297 0.000465
v -0.259789 -0.080297 0.105683
v -0.240285 -0.049433 0.000465
v -0.238662 -0.111172 0.000465
v -0.238662 -0.111172 0.105683
v -0.259652 -0.081295 0.000465
v -0.207745 -0.110527 -0.074798
v -0.227722 -0.101082 -0.003344
v -0.227722 -0.101082 -0.074798
v -0.227561 -0.101158 -0.000535
v -0.207584 -0.110603 -0.071989
v -0.207584 -0.110603 -0.000535
v -0.197349 -0.100544 -0.074798
v -0.206787 -0.110455 -0.005171
v -0.206787 -0.110455 -0.074798
v -0.206713 -0.110377 -0.000535
v -0.197275 -0.100466 -0.070162
v -0.197275 -0.100466 -0.000535
v -0.176171 -0.110336 0.000465
v -0.176171 -0.110336 0.105678
v -0.206048 -0.131202 0.000465
v -0.206214 -0.131318 0.002936
v -0.176337 -0.110452 0.108149
v -0.206214 -0.131318 0.108149
v -0.237952 -0.111848 0.002944
v -0.207218 -0.131230 0.108149
v -0.237952 -0.111848 0.108149
v -0.207047 -0.131337 0.000465
v -0.207047 -0.131337 0.105670
v -0.237781 -0.111955 0.000465
v -0.198033 -0.101987 -0.000035
v -0.206199 -0.128524 -0.000035
v -0.206627 -0.111012 -0.000035
v -0.205719 -0.130362 -0.000035
v -0.196622 -0.100801 -0.000035
v -0.176756 -0.110135 -0.000035
v -0.195938 -0.100018 -0.000035
v -0.166975 -0.079670 -0.000035
v -0.176070 -0.109352 -0.000035
v -0.167709 -0.078963 -0.000035
v -0.195677 -0.098612 -0.000035
v -0.186663 -0.079427 -0.000035
v -0.196628 -0.059704 -0.000035
v -0.167733 -0.077964 -0.000035
v -0.186687 -0.078428 -0.000035
v -0.167035 -0.077222 -0.000035
v -0.196957 -0.058314 -0.000035
v -0.177569 -0.048020 -0.000035
v -0.207446 -0.048544 -0.000035
v -0.179399 -0.047860 -0.000035
v -0.197868 -0.057665 -0.000035
v -0.208405 -0.038299 -0.000035
v -0.180387 -0.046883 -0.000035
v -0.208177 -0.047562 -0.000035
v -0.209177 -0.047586 -0.000035
v -0.236854 -0.048264 -0.000035
v -0.209405 -0.038325 -0.000035
v -0.238691 -0.049309 -0.000035
v -0.210759 -0.048625 -0.000035
v -0.229113 -0.058429 -0.000035
v -0.258417 -0.080180 -0.000035
v -0.230449 -0.060531 -0.000035
v -0.239464 -0.079718 -0.000035
v -0.229983 -0.058982 -0.000035
v -0.258298 -0.078874 -0.000035
v -0.239813 -0.049622 -0.000035
v -0.238316 -0.110794 -0.000035
v -0.258210 -0.082478 -0.000035
v -0.228957 -0.100965 -0.000035
v -0.229499 -0.099439 -0.000035
v -0.258393 -0.081180 -0.000035
v -0.239440 -0.080717 -0.000035
v -0.228233 -0.101655 -0.000035
v -0.208462 -0.129854 -0.000035
v -0.237592 -0.111484 -0.000035
v -0.207164 -0.129962 -0.000035
v -0.226680 -0.102127 -0.000035
v -0.207624 -0.111137 -0.000035
vn 0.7000 0.1782 0.6915
vn 0.3958 0.4229 -0.8152
vn -0.0389 -0.9152 -0.4010
vn 0.0888 -0.7538 0.6510
vn -0.0116 0.7677 -0.6407
vn -0.0224 0.7244 0.6890
vn -0.5373 0.4796 0.6938
vn -0.4183 -0.6758 0.6069
vn 0.6319 0.4607 -0.6232
vn -0.4478 0.3733 0.8125
vn 0.4467 0.4209 -0.7895
vn 0.4282 -0.6321 -0.6459
vn -0.6219 0.5064 0.5973
vn -0.7095 0.1520 -0.6881
vn 0.2928 0.4532 0.8420
vn -0.0321 0.7478 -0.6632
vn 0.5078 -0.4864 0.7110
vn -0.5892 0.6488 -0.4816
vn -0.7717 0.0698 0.6321
vn -0.1030 0.5052 0.8569
vn 0.7715 0.0870 -0.6302
vn -0.4794 0.4948 -0.7248
vn -0.6237 -0.5131 -0.5897
vn 0.5045 0.6335 0.5867
vn -0.6428 0.4663 -0.6078
vn 0.5482 -0.0119 0.8362
vn -0.7474 -0.5923 0.3011
vn -0.5065 -0.0553 0.8604
vn 0.6411 0.0091 -0.7674
vn 0.7412 0.6118 0.2763
vn 0.0044 -0.7297 -0.6837
vn -0.5302 -0.3343 0.7792
vn 0.4274 0.4833 -0.7640
vn 0.3121 -0.6738 0.6698
vn 0.2293 0.2619 -0.9375
vn -0.1768 0.6615 0.7288
vn -0.9120 0.0526 0.4068
vn 0.9351 0.0125 0.3541
vn -0.0793 0.7879 -0.6107
vn 0.3791 -0.3023 0.8746
vn -0.5571 0.3318 0.7613
vn 0.4800 -0.3930 -0.7843
vn -0.5046 -0.4714 -0.7233
vn -0.2721 -0.7162 0.6427
vn 0.4164 0.1061 -0.9030
vn 0.3287 0.6035 0.7265
vn -0.7102 0.6028 0.3638
vn 0.7515 -0.5581 0.3519
vn 0.4954 -0.3984 0.7719
vn 0.5627 -0.0817 -0.8226
vn 0.0762 0.7793 0.6220
vn -0.6961 -0.0785 0.7137
vn 0.8046 0.0099 -0.5937
vn 0.3407 0.2842 0.8962
vn 0.4759 -0.5340 -0.6988
vn 0.1491 0.6988 -0.6996
vn -0.9259 0.0272 -0.3769
vn 0.7341 0.0324 0.6782
vn 0.1920 -0.6922 0.6958
vn 0.3305 -0.3025 -0.8940
vn 0.5428 0.5625 0.6237
vn -0.6299 0.4379 0.6414
vn 0.6259 -0.4526 -0.6351
vn 0.4429 0.0701 0.8938
vn 0.1327 -0.7711 -0.6228
vn 0.5470 0.4654 -0.6958
vn -0.5177 0.4817 -0.7071
vn 0.6321 -0.4657 0.6193
vn -0.3816 -0.5870 -0.7140
vn -0.0044 0.7196 0.6943
vn 0.6855 -0.6314 0.3626
vn 0.0211 -0.3973 0.9174
vn 0.0802 0.5743 -0.8147
vn -0.7677 0.5339 0.3544
vn 0.7692 0.0040 -0.6390
vn 0.4328 -0.2724 0.8594
vn -0.4695 0.4691 -0.7480
vn 0.5736 0.3331 0.7483
vn -0.5148 0.3918 -0.7626
vn -0.6450 -0.3096 0.6987
vn -0.0498 -0.8869 0.4593
vn -0.0692 0.8848 0.4608
vn 0.3977 0.4450 -0.8024
vn -0.5902 0.4421 0.6755
vn 0.6438 -0.4062 0.6485
vn 0.0921 0.7033 0.7049
vn 0.2219 -0.7895 -0.5723
vn -0.7158 0.1954 -0.6704
vn -0.2867 0.9399 0.1853
vn -0.2469 -0.9473 0.2040
vn 0.5547 0.5651 -0.6107
vn -0.5437 -0.4722 0.6938
vn 0.8471 0.0229 0.5309
vn 0.8945 -0.0424 -0.4450
vn -0.7786 -0.0314 0.6268
vn 0.5220 -0.7165 0.4628
vn 0.6430 0.6203 0.4493
vn -0.8171 0.4545 0.3547
vn -0.9093 -0.2110 0.3586
vn 0.9256 -0.1610 0.3425
vn -0.0178 0.8554 0.5176
vn 0.0523 0.8893 -0.4544
vn 0.0287 -0.7739 0.6326
vn -0.6440 -0.6074 0.4651
vn 0.8311 -0.4233 0.3606
vn -0.5011 0.7224 0.4764
vn 0.0430 -0.9269 0.3729
vn -0.0205 0.9384 0.3448
vn -0.8786 -0.0202 0.4771
vn 0.8550 -0.0901 0.5107
vn -0.8413 -0.1130 0.5287
vn 0.0240 -0.8940 0.4475
vn 0.2703 0.7108 0.6494
vn -0.4944 -0.1244 -0.8603
vn 0.9120 -0.0542 0.4067
vn -0.9352 -0.0133 0.3537
vn -0.2392 -0.6473 0.7237
vn 0.0627 -0.7257 -0.6852
vn -0.3674 0.3388 0.8662
vn 0.5118 0.4675 -0.7208
vn 0.4987 0.0548 0.8650
vn -0.6337 -0.0091 -0.7735
vn -0.2864 0.6110 0.7380
vn -0.2291 -0.2615 -0.9376
vn 0.7609 0.5384 0.3622
vn -0.7506 -0.5656 0.3416
vn 0.1769 -0.6615 0.7288
vn 0.6500 -0.4609 -0.6042
vn -0.6062 -0.0323 0.7946
vn 0.0838 0.7712 -0.6311
vn 0.4069 0.5034 0.7623
vn -0.4374 -0.3689 -0.8202
vn -0.2810 -0.1593 0.9464
vn 0.0345 0.8153 -0.5780
vn -0.3745 -0.3815 -0.8451
vn -0.1976 -0.4332 0.8794
vn -0.5405 0.4534 -0.7087
vn 0.7079 0.0922 0.7003
vn -0.8351 -0.0070 -0.5501
vn -0.0077 -0.7576 -0.6526
vn -0.0385 0.7530 0.6569
vn -0.2380 0.3969 -0.8865
vn -0.4122 -0.4905 0.7678
vn -0.5219 0.2828 0.8047
vn -0.4981 -0.1540 -0.8534
vn 0.5354 0.5954 0.5991
vn -0.4352 -0.5293 -0.7283
vn 0.0604 -0.8136 0.5783
vn -0.6123 0.2621 0.7459
vn -0.0034 -0.6463 -0.7631
vn -0.0083 0.9154 0.4024
vn -0.0382 -0.9265 0.3742
vn 0.6343 -0.3454 0.6917
vn 0.7192 0.0379 -0.6937
vn -0.4535 -0.5023 0.7362
vn -0.4394 0.6307 -0.6396
vn -0.1123 0.5139 0.8505
vn 0.0659 -0.5055 -0.8603
vn -0.5354 -0.4781 0.6962
vn 0.5064 -0.5955 -0.6236
vn 0.6226 0.4408 0.6466
vn 0.2243 0.6145 -0.7564
vn 0.1395 -0.7307 0.6683
vn -0.7055 -0.2301 -0.6703
vn -0.2953 -0.6552 0.6954
vn 0.0975 -0.5390 -0.8366
vn 0.8002 0.0991 0.5915
vn -0.1047 0.7051 0.7013
vn 0.0281 -0.8318 -0.5543
vn 0.5147 -0.2748 0.8122
vn -0.4294 -0.6596 -0.6168
vn 0.7570 -0.0008 -0.6535
vn -0.0083 -0.4462 0.8949
vn -0.8043 0.0452 -0.5925
vn 0.3173 -0.5339 -0.7838
vn -0.7594 -0.0430 0.6492
vn -0.5238 -0.2761 -0.8059
vn 0.4365 -0.5495 0.7124
vn -0.2674 -0.9434 0.1961
vn 0.0323 0.8000 -0.5991
vn 0.8940 -0.4014 0.1993
vn 0.4799 0.8064 -0.3456
vn 0.4285 -0.8543 0.2943
vn -0.9128 0.0188 -0.4081
vn 0.9580 -0.0108 0.2864
vn -0.5990 -0.7488 -0.2835
vn -0.4550 0.7720 -0.4438
vn -0.8614 -0.1749 -0.4769
vn 0.7297 0.6680 0.1460
vn 0.5851 -0.7708 0.2520
vn 0.7614 -0.6316 0.1459
vn -0.8689 0.1326 -0.4769
vn 0.5467 0.7985 0.2520
vn -0.6246 0.7216 -0.2987
vn 0.9540 0.0751 0.2903
vn -0.4258 -0.7816 -0.4558
vn 0.9528 -0.3035 0.0102
vn -0.7626 -0.4317 -0.4817
vn 0.2250 0.9292 0.2932
vn 0.4893 -0.7726 -0.4046
vn -0.9177 0.1560 -0.3653
vn 0.6195 0.7394 0.2637
vn -0.6514 0.7123 0.2614
vn 0.9128 0.2117 -0.3492
vn -0.4470 -0.8006 -0.3991
vn 0.7881 -0.4294 -0.4410
vn -0.9864 -0.1525 0.0617
vn 0.0538 0.9747 0.2169
vn 0.8681 0.1402 -0.4763
vn -0.7612 -0.6326 0.1425
vn -0.5963 0.7617 0.2533
vn -0.9371 0.1303 0.3237
vn 0.6673 0.6217 -0.4101
vn 0.2001 -0.9049 -0.3756
vn 0.1454 0.9207 -0.3623
vn 0.7137 -0.5843 -0.3864
vn -0.9326 -0.1654 0.3206
vn -0.7912 0.5947 0.1426
vn 0.8739 -0.0977 -0.4763
vn -0.5584 -0.7899 0.2534
vn -0.1246 -0.9579 0.2586
vn -0.6593 0.6839 -0.3126
vn 0.8925 0.1828 -0.4123
vn -0.1475 0.8593 -0.4898
vn 0.6478 -0.7599 0.0541
vn -0.7709 -0.5929 0.2328
vt 30.000000 -51.015701
vt 30.000000 -50.912102
vt 29.969000 -51.015701
vt 30.031000 -50.912102
vt 30.031000 -51.015701
vt 29.969000 -50.912102
vt 30.015699 -51.000000
vt 30.087900 -50.981400
vt 30.015699 -50.981400
vt 30.087900 -51.000000
vt 30.015699 -51.018600
vt 30.087900 -51.018600
vt 30.015699 -50.969002
vt 29.912100 -50.969002
vt 29.912100 -51.000000
vt 30.015699 -51.030998
vt 29.912100 -51.030998
vt 30.018600 -51.087898
vt 30.018600 -51.015701
vt 30.000000 -51.087898
vt 29.981400 -51.087898
vt 29.981400 -51.015701
vt 29.969000 -51.030998
vt 29.969000 -50.969002
vt 29.956100 -51.000000
vt 30.031000 -51.030998
vt 30.000000 -51.043900
vt 30.031000 -50.969002
vt 30.043900 -51.000000
vt 30.000000 -50.956100
vt 29.984301 -50.981400
vt 29.912100 -50.981400
vt 29.984301 -51.000000
vt 29.912100 -51.018600
vt 29.984301 -51.018600
vt 29.984301 -50.969002
vt 30.087900 -50.969002
vt 30.087900 -51.030998
vt 29.984301 -51.030998
vt 29.981400 -51.018600
vt 30.000000 -51.026299
vt 29.973700 -51.000000
vt 29.981400 -50.981400
vt 30.000000 -50.973701
vt 30.018600 -50.981400
vt 30.026300 -51.000000
vt 30.018600 -51.018600
s 1
usemtl Meshpart1Mtl.013
f 65/1/1 66/2/2 5/2/3 1/1/4
f 66/2/2 65/1/1 2/1/5 6/2/6
f 66/2/2 67/3/7 3/3/8 5/2/3
f 67/3/7 66/2/2 6/2/6 4/3/9
f 67/3/7 65/1/1 1/1/4 3/3/8
f 65/1/1 67/3/7 4/3/9 2/1/5
f 68/1/10 69/4/11 7/4/12 1/1/4
f 69/4/11 68/1/10 2/1/5 8/4/13
f 69/4/11 70/2/14 5/2/3 7/4/12
f 70/2/14 69/4/11 8/4/13 6/2/6
f 70/2/14 68/1/10 1/1/4 5/2/3
f 68/1/10 70/2/14 6/2/6 2/1/5
f 71/5/15 72/4/16 7/4/12 9/5/17
f 72/4/16 71/5/15 10/5/18 8/4/13
f 72/4/16 73/1/19 1/1/4 7/4/12
f 73/1/19 72/4/16 8/4/13 2/1/5
f 73/1/19 71/5/15 9/5/17 1/1/4
f 71/5/15 73/1/19 2/1/5 10/5/18
f 74/3/20 75/2/21 5/2/3 3/3/8
f 75/2/21 74/3/20 4/3/9 6/2/6
f 75/2/21 76/6/22 11/6/23 5/2/3
f 76/6/22 75/2/21 6/2/6 12/6/24
f 76/6/22 74/3/20 3/3/8 11/6/23
f 74/3/20 76/6/22 12/6/24 4/3/9
f 77/7/25 78/8/26 13/8/27 17/7/28
f 78/8/26 77/7/25 18/7/29 14/8/30
f 78/8/26 79/9/31 15/9/32 13/8/27
f 79/9/31 78/8/26 14/8/30 16/9/33
f 79/9/31 77/7/25 17/7/28 15/9/32
f 77/7/25 79/9/31 16/9/33 18/7/29
f 80/8/34 81/7/35 17/7/28 13/8/27
f 81/7/35 80/8/34 14/8/30 18/7/29
f 81/7/35 82/10/36 21/10/37 17/7/28
f 82/10/36 81/7/35 18/7/29 22/10/38
f 82/10/36 80/8/34 13/8/27 21/10/37
f 80/8/34 82/10/36 22/10/38 14/8/30
f 83/11/39 84/10/40 21/10/37 23/11/41
f 84/10/40 83/11/39 24/11/42 22/10/38
f 84/10/40 85/7/43 17/7/28 21/10/37
f 85/7/43 84/10/40 22/10/38 18/7/29
f 85/7/43 83/11/39 23/11/41 17/7/28
f 83/11/39 85/7/43 18/7/29 24/11/42
f 86/10/44 87/11/45 23/11/41 21/10/37
f 87/11/45 86/10/44 22/10/38 24/11/42
f 87/11/45 88/12/46 19/12/47 23/11/41
f 88/12/46 87/11/45 24/11/42 20/12/48
f 88/12/46 86/10/44 21/10/37 19/12/47
f 86/10/44 88/12/46 20/12/48 22/10/38
f 89/13/49 90/14/50 11/14/23 3/13/8
f 90/14/50 89/13/49 4/13/9 12/14/24
f 90/14/50 91/7/51 25/7/52 11/14/23
f 91/7/51 90/14/50 12/14/24 26/7/53
f 91/7/51 89/13/49 3/13/8 25/7/52
f 89/13/49 91/7/51 26/7/53 4/13/9
f 92/7/54 93/14/55 11/14/23 25/7/52
f 93/14/55 92/7/54 26/7/53 12/14/24
f 93/14/55 94/15/56 27/15/57 11/14/23
f 94/15/56 93/14/55 12/14/24 28/15/58
f 94/15/56 92/7/54 25/7/52 27/15/57
f 92/7/54 94/15/56 28/15/58 26/7/53
f 95/7/59 96/15/60 27/15/57 25/7/52
f 96/15/60 95/7/59 26/7/53 28/15/58
f 96/15/60 97/16/61 29/16/62 27/15/57
f 97/16/61 96/15/60 28/15/58 30/16/63
f 97/16/61 95/7/59 25/7/52 29/16/62
f 95/7/59 97/16/61 30/16/63 26/7/53
f 98/16/64 99/15/65 27/15/57 29/16/62
f 99/15/65 98/16/64 30/16/63 28/15/58
f 99/15/65 100/17/66 31/17/67 27/15/57
f 100/17/66 99/15/65 28/15/58 32/17/68
f 100/17/66 98/16/64 29/16/62 31/17/67
f 98/16/64 100/17/66 32/17/68 30/16/63
f 101/1/69 102/18/70 37/18/71 35/1/72
f 102/18/70 101/1/69 36/1/73 38/18/74
f 102/18/70 103/19/75 33/19/76 37/18/71
f 103/19/75 102/18/70 38/18/74 34/19/77
f 103/19/75 101/1/69 35/1/72 33/19/76
f 101/1/69 103/19/75 34/19/77 36/1/73
f 104/18/78 105/1/79 35/1/72 37/18/71
f 105/1/79 104/18/78 38/18/74 36/1/73
f 105/1/79 106/20/80 39/20/81 35/1/72
f 106/20/80 105/1/79 36/1/73 40/20/82
f 106/20/80 104/18/78 37/18/71 39/20/81
f 104/18/78 106/20/80 40/20/82 38/18/74
f 107/1/83 108/21/84 13/21/27 35/1/72
f 108/21/84 107/1/83 36/1/73 14/21/30
f 108/21/84 109/20/85 39/20/81 13/21/27
f 109/20/85 108/21/84 14/21/30 40/20/82
f 109/20/85 107/1/83 35/1/72 39/20/81
f 107/1/83 109/20/85 40/20/82 36/1/73
f 110/21/86 111/1/87 35/1/72 13/21/27
f 111/1/87 110/21/86 14/21/30 36/1/73
f 111/1/87 112/22/88 15/22/32 35/1/72
f 112/22/88 111/1/87 36/1/73 16/22/33
f 112/22/88 110/21/86 13/21/27 15/22/32
f 110/21/86 112/22/88 16/22/33 14/21/30
f 113/23/89 114/24/90 7/24/12 41/23/91
f 114/24/90 113/23/89 42/23/92 8/24/13
f 114/24/90 115/25/93 43/25/94 7/24/12
f 115/25/93 114/24/90 8/24/13 44/25/95
f 115/25/93 113/23/89 41/23/91 43/25/94
f 113/23/89 115/25/93 44/25/95 42/23/92
f 116/24/96 117/23/97 41/23/91 7/24/12
f 117/23/97 116/24/96 8/24/13 42/23/92
f 117/23/97 118/26/98 31/26/67 41/23/91
f 118/26/98 117/23/97 42/23/92 32/26/68
f 118/26/98 116/24/96 7/24/12 31/26/67
f 116/24/96 118/26/98 32/26/68 8/24/13
f 119/26/99 120/23/100 41/23/91 31/26/67
f 120/23/100 119/26/99 32/26/68 42/23/92
f 120/23/100 121/27/101 45/27/102 41/23/91
f 121/27/101 120/23/100 42/23/92 46/27/103
f 121/27/101 119/26/99 31/26/67 45/27/102
f 119/26/99 121/27/101 46/27/103 32/26/68
f 122/28/104 123/24/105 7/24/12 11/28/23
f 123/24/105 122/28/104 12/28/24 8/24/13
f 123/24/105 124/26/106 31/26/67 7/24/12
f 124/26/106 123/24/105 8/24/13 32/26/68
f 124/26/106 122/28/104 11/28/23 31/26/67
f 122/28/104 124/26/106 32/26/68 12/28/24
f 125/28/107 126/26/108 31/26/67 11/28/23
f 126/26/108 125/28/107 12/28/24 32/26/68
f 126/26/108 127/29/109 27/29/57 31/26/67
f 127/29/109 126/26/108 32/26/68 28/29/58
f 127/29/109 125/28/107 11/28/23 27/29/57
f 125/28/107 127/29/109 28/29/58 12/28/24
f 128/24/110 129/28/111 11/28/23 7/24/12
f 129/28/111 128/24/110 8/24/13 12/28/24
f 129/28/111 130/30/112 5/30/3 11/28/23
f 130/30/112 129/28/111 12/28/24 6/30/6
f 130/30/112 128/24/110 7/24/12 5/30/3
f 128/24/110 130/30/112 6/30/6 8/24/13
f 131/15/113 132/31/114 33/31/76 47/15/115
f 132/31/114 131/15/113 48/15/116 34/31/77
f 132/31/114 133/32/117 37/32/71 33/31/76
f 133/32/117 132/31/114 34/31/77 38/32/74
f 133/32/117 131/15/113 47/15/115 37/32/71
f 131/15/113 133/32/117 38/32/74 48/15/116
f 134/31/118 135/15/119 47/15/115 33/31/76
f 135/15/119 134/31/118 34/31/77 48/15/116
f 135/15/119 136/33/120 49/33/121 47/15/115
f 136/33/120 135/15/119 48/15/116 50/33/122
f 136/33/120 134/31/118 33/31/76 49/33/121
f 134/31/118 136/33/120 50/33/122 34/31/77
f 137/34/123 138/33/124 49/33/121 51/34/125
f 138/33/124 137/34/123 52/34/126 50/33/122
f 138/33/124 139/15/127 47/15/115 49/33/121
f 139/15/127 138/33/124 50/33/122 48/15/116
f 139/15/127 137/34/123 51/34/125 47/15/115
f 137/34/123 139/15/127 48/15/116 52/34/126
f 140/33/128 141/34/129 51/34/125 49/33/121
f 141/34/129 140/33/128 50/33/122 52/34/126
f 141/34/129 142/35/130 53/35/131 51/34/125
f 142/35/130 141/34/129 52/34/126 54/35/132
f 142/35/130 140/33/128 49/33/121 53/35/131
f 140/33/128 142/35/130 54/35/132 50/33/122
f 143/36/133 144/10/134 43/10/94 9/36/17
f 144/10/134 143/36/133 10/36/18 44/10/95
f 144/10/134 145/37/135 7/37/12 43/10/94
f 145/37/135 144/10/134 44/10/95 8/37/13
f 145/37/135 143/36/133 9/36/17 7/37/12
f 143/36/133 145/37/135 8/37/13 10/36/18
f 146/33/136 147/38/137 41/38/91 55/33/138
f 147/38/137 146/33/136 56/33/139 42/38/92
f 147/38/137 148/10/140 43/10/94 41/38/91
f 148/10/140 147/38/137 42/38/92 44/10/95
f 148/10/140 146/33/136 55/33/138 43/10/94
f 146/33/136 148/10/140 44/10/95 56/33/139
f 149/33/141 150/10/142 43/10/94 55/33/138
f 150/10/142 149/33/141 56/33/139 44/10/95
f 150/10/142 151/36/143 9/36/17 43/10/94
f 151/36/143 150/10/142 44/10/95 10/36/18
f 151/36/143 149/33/141 55/33/138 9/36/17
f 149/33/141 151/36/143 10/36/18 56/33/139
f 152/39/144 153/38/145 41/38/91 57/39/146
f 153/38/145 152/39/144 58/39/147 42/38/92
f 153/38/145 154/33/148 55/33/138 41/38/91
f 154/33/148 153/38/145 42/38/92 56/33/139
f 154/33/148 152/39/144 57/39/146 55/33/138
f 152/39/144 154/33/148 56/33/139 58/39/147
f 155/20/149 156/22/150 53/22/131 59/20/151
f 156/22/150 155/20/149 60/20/152 54/22/132
f 156/22/150 157/21/153 51/21/125 53/22/131
f 157/21/153 156/22/150 54/22/132 52/21/126
f 157/21/153 155/20/149 59/20/151 51/21/125
f 155/20/149 157/21/153 52/21/126 60/20/152
f 158/22/154 159/20/155 59/20/151 53/22/131
f 159/20/155 158/22/154 54/22/132 60/20/152
f 159/20/155 160/1/156 61/1/157 59/20/151
f 160/1/156 159/20/155 60/20/152 62/1/158
f 160/1/156 158/22/154 53/22/131 61/1/157
f 158/22/154 160/1/156 62/1/158 54/22/132
f 161/18/159 162/1/160 61/1/157 19/18/47
f 162/1/160 161/18/159 20/18/48 62/1/158
f 162/1/160 163/20/161 59/20/151 61/1/157
f 163/20/161 162/1/160 62/1/158 60/20/152
f 163/20/161 161/18/159 19/18/47 59/20/151
f 161/18/159 163/20/161 60/20/152 20/18/48
f 164/1/162 165/18/163 19/18/47 61/1/157
f 165/18/163 164/1/162 62/1/158 20/18/48
f 165/18/163 166/19/164 23/19/41 19/18/47
f 166/19/164 165/18/163 20/18/48 24/19/42
f 166/19/164 164/1/162 61/1/157 23/19/41
f 164/1/162 166/19/164 24/19/42 62/1/158
f 167/5/165 168/4/166 31/4/67 29/5/62
f 168/4/166 167/5/165 30/5/63 32/4/68
f 168/4/166 169/1/167 63/1/168 31/4/67
f 169/1/167 168/4/166 32/4/68 64/1/169
f 169/1/167 167/5/165 29/5/62 63/1/168
f 167/5/165 169/1/167 64/1/169 30/5/63
f 170/1/170 171/4/171 31/4/67 63/1/168
f 171/4/171 170/1/170 64/1/169 32/4/68
f 171/4/171 172/2/172 45/2/102 31/4/67
f 172/2/172 171/4/171 32/4/68 46/2/103
f 172/2/172 170/1/170 63/1/168 45/2/102
f 170/1/170 172/2/172 46/2/103 64/1/169
f 173/3/173 174/2/174 45/2/102 57/3/146
f 174/2/174 173/3/173 58/3/147 46/2/103
f 174/2/174 175/6/175 41/6/91 45/2/102
f 175/6/175 174/2/174 46/2/103 42/6/92
f 175/6/175 173/3/173 57/3/146 41/6/91
f 173/3/173 175/6/175 42/6/92 58/3/147
f 176/1/176 177/2/177 45/2/102 63/1/168
f 177/2/177 176/1/176 64/1/169 46/2/103
f 177/2/177 178/3/178 57/3/146 45/2/102
f 178/3/178 177/2/177 46/2/103 58/3/147
f 178/3/178 176/1/176 63/1/168 57/3/146
f 176/1/176 178/3/178 58/3/147 64/1/169
f 179/40/179 180/27/180 63/27/168 23/40/41
f 180/27/180 179/40/179 24/40/42 64/27/169
f 180/27/180 181/41/181 61/41/157 63/27/168
f 181/41/181 180/27/180 64/27/169 62/41/158
f 181/41/181 179/40/179 23/40/41 61/41/157
f 179/40/179 181/41/181 62/41/158 24/40/42
f 182/27/182 183/40/183 23/40/41 63/27/168
f 183/40/183 182/27/182 64/27/169 24/40/42
f 183/40/183 184/23/184 29/23/62 23/40/41
f 184/23/184 183/40/183 24/40/42 30/23/63
f 184/23/184 182/27/182 63/27/168 29/23/62
f 182/27/182 184/23/184 30/23/63 64/27/169
f 185/40/185 186/25/186 25/25/52 23/40/41
f 186/25/186 185/40/185 24/40/42 26/25/53
f 186/25/186 187/23/187 29/23/62 25/25/52
f 187/23/187 186/25/186 26/25/53 30/23/63
f 187/23/187 185/40/185 23/40/41 29/23/62
f 185/40/185 187/23/187 30/23/63 24/40/42
f 188/25/188 189/40/189 23/40/41 25/25/52
f 189/40/189 188/25/188 26/25/53 24/40/42
f 189/40/189 190/42/190 17/42/28 23/40/41
f 190/42/190 189/40/189 24/40/42 18/42/29
f 190/42/190 188/25/188 25/25/52 17/42/28
f 188/25/188 190/42/190 18/42/29 26/25/53
f 191/43/191 192/25/192 25/25/52 15/43/32
f 192/25/192 191/43/191 16/43/33 26/25/53
f 192/25/192 193/42/193 17/42/28 25/25/52
f 193/42/193 192/25/192 26/25/53 18/42/29
f 193/42/193 191/43/191 15/43/32 17/42/28
f 191/43/191 193/42/193 18/42/29 16/43/33
f 194/25/194 195/43/195 15/43/32 25/25/52
f 195/43/195 194/25/194 26/25/53 16/43/33
f 195/43/195 196/24/196 3/24/8 15/43/32
f 196/24/196 195/43/195 16/43/33 4/24/9
f 196/24/196 194/25/194 25/25/52 3/24/8
f 194/25/194 196/24/196 4/24/9 26/25/53
f 197/44/197 198/24/198 3/24/8 35/44/72
f 198/24/198 197/44/197 36/44/73 4/24/9
f 198/24/198 199/43/199 15/43/32 3/24/8
f 199/43/199 198/24/198 4/24/9 16/43/33
f 199/43/199 197/44/197 35/44/72 15/43/32
f 197/44/197 199/43/199 16/43/33 36/44/73
f 200/30/200 201/24/201 3/24/8 1/30/4
f 201/24/201 200/30/200 2/30/5 4/24/9
f 201/24/201 202/44/202 35/44/72 3/24/8
f 202/44/202 201/24/201 4/24/9 36/44/73
f 202/44/202 200/30/200 1/30/4 35/44/72
f 200/30/200 202/44/202 36/44/73 2/30/5
f 203/44/203 204/28/204 9/28/17 35/44/72
f 204/28/204 203/44/203 36/44/73 10/28/18
f 204/28/204 205/30/205 1/30/4 9/28/17
f 205/30/205 204/28/204 10/28/18 2/30/5
f 205/30/205 203/44/203 35/44/72 1/30/4
f 203/44/203 205/30/205 2/30/5 36/44/73
f 206/28/206 207/44/207 35/44/72 9/28/17
f 207/44/207 206/28/206 10/28/18 36/44/73
f 207/44/207 208/45/208 33/45/76 35/44/72
f 208/45/208 207/44/207 36/44/73 34/45/77
f 208/45/208 206/28/206 9/28/17 33/45/76
f 206/28/206 208/45/208 34/45/77 10/28/18
f 209/29/209 210/45/210 33/45/76 55/29/138
f 210/45/210 209/29/209 56/29/139 34/45/77
f 210/45/210 211/46/211 49/46/121 33/45/76
f 211/46/211 210/45/210 34/45/77 50/46/122
f 211/46/211 209/29/209 55/29/138 49/46/121
f 209/29/209 211/46/211 50/46/122 56/29/139
f 212/45/212 213/29/213 55/29/138 33/45/76
f 213/29/213 212/45/212 34/45/77 56/29/139
f 213/29/213 214/28/214 9/28/17 55/29/138
f 214/28/214 213/29/213 56/29/139 10/28/18
f 214/28/214 212/45/212 33/45/76 9/28/17
f 212/45/212 214/28/214 10/28/18 34/45/77
f 215/26/215 216/29/216 55/29/138 57/26/146
f 216/29/216 215/26/215 58/26/147 56/29/139
f 216/29/216 217/47/217 53/47/131 55/29/138
f 217/47/217 216/29/216 56/29/139 54/47/132
f 217/47/217 215/26/215 57/26/146 53/47/131
f 215/26/215 217/47/217 54/47/132 58/26/147
f 218/47/218 219/29/219 55/29/138 53/47/131
f 219/29/219 218/47/218 54/47/132 56/29/139
f 219/29/219 220/46/220 49/46/121 55/29/138
f 220/46/220 219/29/219 56/29/139 50/46/122
f 220/46/220 218/47/218 53/47/131 49/46/121
f 218/47/218 220/46/220 50/46/122 54/47/132
f 221/47/221 222/27/222 63/27/168 53/47/131
f 222/27/222 221/47/221 54/47/132 64/27/169
f 222/27/222 223/26/223 57/26/146 63/27/168
f 223/26/223 222/27/222 64/27/169 58/26/147
f 223/26/223 221/47/221 53/47/131 57/26/146
f 221/47/221 223/26/223 58/26/147 54/47/132
f 224/27/224 225/47/225 53/47/131 63/27/168
f 225/47/225 224/27/224 64/27/169 54/47/132
f 225/47/225 226/41/226 61/41/157 53/47/131
f 226/41/226 225/47/225 54/47/132 62/41/158
f 226/41/226 224/27/224 63/27/168 61/41/157
f 224/27/224 226/41/226 62/41/158 64/27/169
