# This file is brought to you by Roblox Corporation
# Generated by Roblox Studio

mtllib keylisong.mtl

g Default1

v 8.30139 0.773723 5.27859 
v 8.30053 0.824741 5.27863 
v 8.30139 0.773723 5.30425 
v 8.28716 0.753559 5.27829 
v 8.30053 0.824741 5.30422 
v 8.28716 0.753559 5.30456 
v 8.28742 0.571559 5.27872 
v 8.28742 0.571559 5.30413 
v 8.27723 0.555997 5.30454 
v 8.27723 0.555997 5.27831 
v 8.27722 0.386437 5.27822 
v 8.27722 0.386437 5.30463 
v 8.28739 0.371007 5.27865 
v 8.28739 0.371007 5.3042 
v 8.28673 0.109766 5.27799 
v 8.28673 0.109764 5.30487 
v 8.30179 0.0959973 5.30426 
v 8.30179 0.0959973 5.27859 
v 8.30215 0.0566743 5.30412 
v 8.30215 0.0566743 5.27873 
v 8.25773 1.52886e-05 5.2787 
v 8.25773 1.52886e-05 5.30415 
v 8.30053 0.824741 5.25051 
v 8.30139 0.773723 5.25054 
v 8.30139 0.773723 5.22488 
v 8.28716 0.753559 5.25085 
v 8.30053 0.824741 5.22492 
v 8.28716 0.753559 5.22457 
v 8.28742 0.571559 5.25042 
v 8.28742 0.571559 5.22501 
v 8.27723 0.555997 5.2246 
v 8.27723 0.555997 5.25083 
v 8.27722 0.386437 5.25092 
v 8.27722 0.386437 5.22451 
v 8.28739 0.371007 5.25048 
v 8.28739 0.371007 5.22494 
v 8.28673 0.109766 5.25115 
v 8.28673 0.109764 5.22427 
v 8.30179 0.0959973 5.22488 
v 8.30179 0.0959973 5.25055 
v 8.30215 0.0566743 5.22502 
v 8.30215 0.0566743 5.25041 
v 8.25773 1.52886e-05 5.25044 
v 8.25773 1.52886e-05 5.22499 
v 8.23629 0.404094 5.2512 
v 8.21127 0.813065 5.26713 
v 8.21127 0.813065 5.31572 
v 8.21127 0.779752 5.26713 
v 8.21127 0.779752 5.31572 
v 8.24012 0.0344203 5.26713 
v 8.24012 0.0344203 5.31572 
v 8.21127 0.0510773 5.26713 
v 8.21127 0.0510773 5.31572 
v 8.21127 0.0843903 5.26713 
v 8.21127 0.0843903 5.31572 
v 8.21127 0.813065 5.26201 
v 8.21127 0.813065 5.21342 
v 8.21127 0.779752 5.26201 
v 8.21127 0.779752 5.21342 
v 8.22212 0.181189 5.26713 
v 8.22212 0.297829 5.31572 
v 8.22212 0.181189 5.31572 
v 8.22212 0.297829 5.26713 
v 8.25812 0.181189 5.26713 
v 8.25812 0.297829 5.31572 
v 8.22212 0.181189 5.26201 
v 8.22212 0.297829 5.21342 
v 8.22212 0.297829 5.26201 
v 8.22212 0.181189 5.21342 
v 8.25812 0.181189 5.26201 
v 8.24012 0.0344203 5.26201 
v 8.24012 0.0344203 5.21342 
v 8.21127 0.0510773 5.26201 
v 8.21127 0.0510773 5.21342 
v 8.21127 0.0843903 5.26201 
v 8.21127 0.0843903 5.21342 
v 8.22212 0.628685 5.31572 
v 8.22212 0.628685 5.26713 
v 8.22212 0.710333 5.31572 
v 8.22212 0.710333 5.26713 
v 8.22212 0.628685 5.26201 
v 8.22212 0.710333 5.21342 
v 8.22212 0.710333 5.26201 
v 8.22212 0.628685 5.21342 
v 8.1961 0.816328 5.31572 
v 8.1797 0.824825 5.30409 
v 8.28297 0.817155 5.31572 
v 8.30053 0.824741 5.30422 
v 8.1961 0.816328 5.21342 
v 8.1797 0.824825 5.22505 
v 8.28297 0.817155 5.21342 
v 8.30053 0.824741 5.22492 
v 8.30053 0.824741 5.27863 
v 8.30053 0.824741 5.30422 
v 8.24012 0.860571 5.27885 
v 8.24012 0.860571 5.304 
v 8.1797 0.824825 5.27876 
v 8.1797 0.824825 5.30409 
v 8.28673 0.109766 5.27799 
v 8.28673 0.109764 5.30487 
v 8.30179 0.0959973 5.30426 
v 8.30179 0.0959973 5.27859 
v 8.22291 0.39041 5.27816 
v 8.17843 0.0959923 5.27863 
v 8.22291 0.39041 5.30469 
v 8.17843 0.0959923 5.30422 
v 8.19553 0.388519 5.30424 
v 8.19328 0.1097 5.30445 
v 8.19553 0.388519 5.27861 
v 8.19328 0.1097 5.2784 
v 8.30053 0.824741 5.25051 
v 8.30053 0.824741 5.22492 
v 8.24012 0.860571 5.25029 
v 8.24012 0.860571 5.22514 
v 8.1797 0.824825 5.25038 
v 8.1797 0.824825 5.22505 
v 8.28673 0.109766 5.25115 
v 8.28673 0.109764 5.22427 
v 8.30179 0.0959973 5.22488 
v 8.30179 0.0959973 5.25055 
v 8.22291 0.39041 5.25097 
v 8.17843 0.0959923 5.2505 
v 8.22291 0.39041 5.22445 
v 8.17843 0.0959923 5.22492 
v 8.19553 0.388519 5.2249 
v 8.19328 0.1097 5.22468 
v 8.19553 0.388519 5.25053 
v 8.19328 0.1097 5.25074 
v 8.21127 0.813065 5.26713 
v 8.26897 0.779752 5.26713 
v 8.21127 0.813065 5.31572 
v 8.26897 0.779752 5.31572 
v 8.21127 0.779752 5.26713 
v 8.24012 0.763095 5.26713 
v 8.21127 0.779752 5.31572 
v 8.24012 0.763095 5.31572 
v 8.26897 0.0843903 5.31572 
v 8.26897 0.0510773 5.26713 
v 8.26897 0.0510773 5.31572 
v 8.24012 0.0344203 5.26713 
v 8.24012 0.0344203 5.31572 
v 8.21127 0.0510773 5.26713 
v 8.21127 0.0510773 5.31572 
v 8.21127 0.0843903 5.26713 
v 8.21127 0.0843903 5.31572 
v 8.26897 0.779752 5.26201 
v 8.26897 0.779752 5.21342 
v 8.21127 0.813065 5.26201 
v 8.24012 0.763095 5.26201 
v 8.21127 0.813065 5.21342 
v 8.24012 0.763095 5.21342 
v 8.21127 0.779752 5.26201 
v 8.21127 0.779752 5.21342 
v 8.22212 0.181189 5.26713 
v 8.22212 0.181189 5.31572 
v 8.24012 0.163693 5.31572 
v 8.24012 0.163693 5.26713 
v 8.25812 0.181189 5.31572 
v 8.25812 0.181189 5.26713 
v 8.22212 0.181189 5.26201 
v 8.22212 0.181189 5.21342 
v 8.24012 0.163693 5.21342 
v 8.24012 0.163693 5.26201 
v 8.25812 0.181189 5.21342 
v 8.25812 0.181189 5.26201 
v 8.26897 0.0843903 5.21342 
v 8.26897 0.0510773 5.26201 
v 8.26897 0.0510773 5.21342 
v 8.24012 0.0344203 5.26201 
v 8.24012 0.0344203 5.21342 
v 8.21127 0.0510773 5.26201 
v 8.21127 0.0510773 5.21342 
v 8.21127 0.0843903 5.26201 
v 8.21127 0.0843903 5.21342 
v 8.22212 0.628685 5.31572 
v 8.22212 0.628685 5.26713 
v 8.24012 0.616438 5.31572 
v 8.24012 0.616438 5.26713 
v 8.25812 0.628685 5.31572 
v 8.25812 0.628685 5.26713 
v 8.22212 0.628685 5.26201 
v 8.22212 0.628685 5.21342 
v 8.24012 0.616438 5.21342 
v 8.24012 0.616438 5.26201 
v 8.25812 0.628685 5.21342 
v 8.25812 0.628685 5.26201 
v 8.26897 0.813065 5.31572 
v 8.28301 0.777435 5.31572 
v 8.28297 0.817155 5.31572 
v 8.24012 0.842452 5.31572 
v 8.26897 0.779752 5.31572 
v 8.24012 0.829722 5.31572 
v 8.21127 0.813065 5.31572 
v 8.1961 0.816328 5.31572 
v 8.1961 0.779045 5.31572 
v 8.21127 0.779752 5.31572 
v 8.27009 0.758921 5.31572 
v 8.21014 0.758921 5.31572 
v 8.24012 0.763095 5.31572 
v 8.24012 0.72258 5.31572 
v 8.25812 0.710333 5.31572 
v 8.22212 0.710333 5.31572 
v 8.25812 0.628685 5.31572 
v 8.22212 0.628685 5.31572 
v 8.27009 0.57663 5.31572 
v 8.21014 0.571733 5.31572 
v 8.24012 0.616438 5.31572 
v 8.21993 0.568376 5.31572 
v 8.2601 0.561011 5.31572 
v 8.24274 0.540473 5.31572 
v 8.24274 0.511565 5.31572 
v 8.25409 0.400244 5.31572 
v 8.22855 0.488208 5.31572 
v 8.2601 0.38153 5.31572 
v 8.22953 0.373536 5.31572 
v 8.27019 0.363126 5.31572 
v 8.24012 0.315325 5.31572 
v 8.20824 0.373548 5.31572 
v 8.25812 0.297829 5.31572 
v 8.22212 0.297829 5.31572 
v 8.25812 0.181189 5.31572 
v 8.22212 0.181189 5.31572 
v 8.27032 0.101464 5.31572 
v 8.20824 0.0999683 5.31572 
v 8.24012 0.163693 5.31572 
v 8.24012 0.101047 5.31572 
v 8.21127 0.0843903 5.31572 
v 8.26897 0.0843903 5.31572 
v 8.19528 0.0877033 5.31572 
v 8.28496 0.0867213 5.31572 
v 8.19528 0.0625403 5.31572 
v 8.28496 0.0625403 5.31572 
v 8.21127 0.0510773 5.31572 
v 8.26897 0.0510773 5.31572 
v 8.23068 0.0166923 5.31572 
v 8.24955 0.0166923 5.31572 
v 8.24012 0.0344203 5.31572 
v 8.1961 0.816328 5.31572 
v 8.17882 0.773637 5.30412 
v 8.1961 0.779045 5.31572 
v 8.1797 0.824825 5.30409 
v 8.19307 0.753553 5.30455 
v 8.24012 0.860571 5.304 
v 8.21014 0.758921 5.31572 
v 8.24012 0.842452 5.31572 
v 8.21014 0.571733 5.31572 
v 8.28297 0.817155 5.31572 
v 8.19432 0.560556 5.30425 
v 8.30053 0.824741 5.30422 
v 8.20964 0.553772 5.30449 
v 8.30139 0.773723 5.30425 
v 8.21993 0.568376 5.31572 
v 8.28301 0.777435 5.31572 
v 8.22583 0.534445 5.30463 
v 8.28716 0.753559 5.30456 
v 8.24274 0.540473 5.31572 
v 8.27009 0.758921 5.31572 
v 8.24274 0.511565 5.31572 
v 8.27009 0.57663 5.31572 
v 8.22555 0.516369 5.30451 
v 8.28742 0.571559 5.30413 
v 8.22855 0.488208 5.31572 
v 8.27723 0.555997 5.30454 
v 8.21028 0.490601 5.30414 
v 8.2601 0.561011 5.31572 
v 8.23629 0.404094 5.30491 
v 8.2601 0.38153 5.31572 
v 8.25409 0.400244 5.31572 
v 8.27722 0.386437 5.30463 
v 8.22953 0.373536 5.31572 
v 8.27019 0.363126 5.31572 
v 8.22291 0.39041 5.30469 
v 8.28739 0.371007 5.3042 
v 8.20824 0.373548 5.31572 
v 8.28673 0.109764 5.30487 
v 8.19553 0.388519 5.30424 
v 8.27032 0.101464 5.31572 
v 8.19328 0.1097 5.30445 
v 8.28496 0.0867213 5.31572 
v 8.20824 0.0999683 5.31572 
v 8.30179 0.0959973 5.30426 
v 8.19528 0.0877033 5.31572 
v 8.30215 0.0566743 5.30412 
v 8.17843 0.0959923 5.30422 
v 8.28496 0.0625403 5.31572 
v 8.17808 0.0566743 5.30412 
v 8.24955 0.0166923 5.31572 
v 8.19528 0.0625403 5.31572 
v 8.25773 1.52886e-05 5.30415 
v 8.23068 0.0166923 5.31572 
v 8.2225 1.52886e-05 5.30415 
v 8.30053 0.824741 5.27863 
v 8.30215 0.0566743 5.27873 
v 8.25773 1.52886e-05 5.25044 
v 8.21028 0.490601 5.25043 
v 8.2225 1.52886e-05 5.22499 
v 8.17808 0.0566743 5.22502 
v 8.22291 0.39041 5.25097 
v 8.19553 0.388519 5.2249 
v 8.21127 0.813065 5.26713 
v 8.26897 0.0843903 5.31572 
v 8.21127 0.0843903 5.31572 
v 8.24012 0.0344203 5.26713 
v 8.21127 0.0510773 5.26713 
v 8.22212 0.181189 5.26713 
v 8.26897 0.0843903 5.21342 
v 8.24012 0.0344203 5.26201 
v 8.21127 0.0843903 5.26201 
v 8.22212 0.710333 5.26713 
v 8.25812 0.628685 5.31572 
v 8.25812 0.628685 5.26713 
v 8.25812 0.710333 5.26713 
v 8.26897 0.813065 5.26201 
v 8.24012 0.842452 5.26201 
v 8.24012 0.829722 5.26201 
v 8.21127 0.813065 5.26201 
v 8.28297 0.817155 5.26201 
v 8.1961 0.816328 5.26201 
v 8.28301 0.777435 5.26201 
v 8.1961 0.779045 5.26201 
v 8.26897 0.779752 5.26201 
v 8.21127 0.779752 5.26201 
v 8.27009 0.758921 5.26201 
v 8.21014 0.758921 5.26201 
v 8.24012 0.763095 5.26201 
v 8.24012 0.72258 5.26201 
v 8.25812 0.710333 5.26201 
v 8.22212 0.710333 5.26201 
v 8.25812 0.628685 5.26201 
v 8.22212 0.628685 5.26201 
v 8.27009 0.57663 5.26201 
v 8.21014 0.571733 5.26201 
v 8.24012 0.616438 5.26201 
v 8.21993 0.568376 5.26201 
v 8.2601 0.561011 5.26201 
v 8.24274 0.540473 5.26201 
v 8.24274 0.511565 5.26201 
v 8.25409 0.400244 5.26201 
v 8.22855 0.488208 5.26201 
v 8.2601 0.38153 5.26201 
v 8.22953 0.373536 5.26201 
v 8.27019 0.363126 5.26201 
v 8.24012 0.315325 5.26201 
v 8.20824 0.373548 5.26201 
v 8.25812 0.297829 5.26201 
v 8.22212 0.297829 5.26201 
v 8.25812 0.181189 5.26201 
v 8.22212 0.181189 5.26201 
v 8.27032 0.101464 5.26201 
v 8.20824 0.0999683 5.26201 
v 8.24012 0.163693 5.26201 
v 8.24012 0.101047 5.26201 
v 8.26897 0.0843903 5.26201 
v 8.21127 0.0843903 5.26201 
v 8.28496 0.0867553 5.26201 
v 8.19528 0.0877033 5.26201 
v 8.28496 0.0625403 5.26201 
v 8.19528 0.0625403 5.26201 
v 8.26897 0.0510773 5.26201 
v 8.21127 0.0510773 5.26201 
v 8.24955 0.0166923 5.26201 
v 8.23068 0.0166923 5.26201 
v 8.24012 0.0344203 5.26201 
v 8.21028 0.490601 5.27871 
v 8.22291 0.39041 5.27816 
v 8.20824 0.373548 5.26713 
v 8.28297 0.817155 5.26201 
v 8.30139 0.773723 5.25054 
v 8.30053 0.824741 5.25051 
v 8.24012 0.860571 5.25029 
v 8.28301 0.777435 5.26201 
v 8.24012 0.842452 5.26201 
v 8.28716 0.753559 5.25085 
v 8.1961 0.816328 5.26201 
v 8.27009 0.758921 5.26201 
v 8.1797 0.824825 5.25038 
v 8.27009 0.57663 5.26201 
v 8.17882 0.773637 5.25041 
v 8.28742 0.571559 5.25042 
v 8.1961 0.779045 5.26201 
v 8.27723 0.555997 5.25083 
v 8.19307 0.753553 5.25083 
v 8.2601 0.561011 5.26201 
v 8.21014 0.758921 5.26201 
v 8.2601 0.38153 5.26201 
v 8.21014 0.571733 5.26201 
v 8.27722 0.386437 5.25092 
v 8.19432 0.560556 5.25054 
v 8.27019 0.363126 5.26201 
v 8.20964 0.553772 5.25078 
v 8.28739 0.371007 5.25048 
v 8.21993 0.568376 5.26201 
v 8.28673 0.109766 5.25115 
v 8.22583 0.534445 5.25092 
v 8.27032 0.101464 5.26201 
v 8.24274 0.540473 5.26201 
v 8.28496 0.0867553 5.26201 
v 8.24274 0.511565 5.26201 
v 8.30179 0.0959973 5.25055 
v 8.22555 0.516369 5.25079 
v 8.30215 0.0566743 5.25041 
v 8.22855 0.488208 5.26201 
v 8.28496 0.0625403 5.26201 
v 8.21028 0.490601 5.25043 
v 8.24955 0.0166923 5.26201 
v 8.23629 0.404094 5.2512 
v 8.25773 1.52886e-05 5.25044 
v 8.25409 0.400244 5.26201 
v 8.23068 0.0166923 5.26201 
v 8.22953 0.373536 5.26201 
v 8.2225 1.52886e-05 5.25044 
v 8.22291 0.39041 5.25097 
v 8.17808 0.0566743 5.25041 
v 8.20824 0.373548 5.26201 
v 8.19528 0.0625403 5.26201 
v 8.19553 0.388519 5.25053 
v 8.19528 0.0877033 5.26201 
v 8.19328 0.1097 5.25074 
v 8.17843 0.0959923 5.2505 
v 8.20824 0.0999683 5.26201 
v 8.1961 0.816328 5.31572 
v 8.19307 0.753553 5.30455 
v 8.21014 0.571733 5.31572 
v 8.1961 0.816328 5.21342 
v 8.19307 0.753553 5.22459 
v 8.21014 0.571733 5.21342 
v 8.1797 0.824825 5.27876 
v 8.1797 0.824825 5.30409 
v 8.17882 0.773637 5.30412 
v 8.17882 0.773637 5.27873 
v 8.19307 0.753553 5.2783 
v 8.19307 0.753553 5.30455 
v 8.19432 0.560556 5.2786 
v 8.19432 0.560556 5.30425 
v 8.20964 0.553772 5.30449 
v 8.20964 0.553772 5.27836 
v 8.22583 0.534445 5.30463 
v 8.22583 0.534445 5.27821 
v 8.22555 0.516369 5.27834 
v 8.22555 0.516369 5.30451 
v 8.21028 0.490601 5.30414 
v 8.2225 1.52886e-05 5.2787 
v 8.21028 0.490601 5.27871 
v 8.2225 1.52886e-05 5.30415 
v 8.23629 0.404094 5.27794 
v 8.17808 0.0566743 5.30412 
v 8.23629 0.404094 5.30491 
v 8.17808 0.0566743 5.27873 
v 8.22291 0.39041 5.27816 
v 8.17843 0.0959923 5.27863 
v 8.22291 0.39041 5.30469 
v 8.17843 0.0959923 5.30422 
v 8.19553 0.388519 5.30424 
v 8.19328 0.1097 5.30445 
v 8.19553 0.388519 5.27861 
v 8.19328 0.1097 5.2784 
v 8.1797 0.824825 5.25038 
v 8.1797 0.824825 5.22505 
v 8.17882 0.773637 5.22502 
v 8.17882 0.773637 5.25041 
v 8.19307 0.753553 5.25083 
v 8.19307 0.753553 5.22459 
v 8.19432 0.560556 5.25054 
v 8.19432 0.560556 5.22489 
v 8.20964 0.553772 5.22465 
v 8.20964 0.553772 5.25078 
v 8.22583 0.534445 5.2245 
v 8.22583 0.534445 5.25092 
v 8.22555 0.516369 5.25079 
v 8.22555 0.516369 5.22463 
v 8.21028 0.490601 5.225 
v 8.2225 1.52886e-05 5.25044 
v 8.21028 0.490601 5.25043 
v 8.2225 1.52886e-05 5.22499 
v 8.23629 0.404094 5.2512 
v 8.17808 0.0566743 5.22502 
v 8.23629 0.404094 5.22423 
v 8.17808 0.0566743 5.25041 
v 8.22291 0.39041 5.25097 
v 8.17843 0.0959923 5.2505 
v 8.22291 0.39041 5.22445 
v 8.17843 0.0959923 5.22492 
v 8.19553 0.388519 5.2249 
v 8.19328 0.1097 5.22468 
v 8.19553 0.388519 5.25053 
v 8.19328 0.1097 5.25074 
v 8.24012 0.829722 5.26713 
v 8.26897 0.813065 5.31572 
v 8.26897 0.813065 5.26713 
v 8.26897 0.779752 5.26713 
v 8.26897 0.779752 5.31572 
v 8.26897 0.0843903 5.26713 
v 8.26897 0.0843903 5.31572 
v 8.26897 0.0510773 5.26713 
v 8.21127 0.0843903 5.31572 
v 8.21127 0.0843903 5.26713 
v 8.26897 0.0510773 5.31572 
v 8.24012 0.0344203 5.26713 
v 8.24012 0.0344203 5.31572 
v 8.21127 0.0510773 5.26713 
v 8.24012 0.829722 5.26201 
v 8.26897 0.813065 5.21342 
v 8.26897 0.813065 5.26201 
v 8.26897 0.779752 5.26201 
v 8.26897 0.779752 5.21342 
v 8.22212 0.181189 5.26713 
v 8.22212 0.181189 5.31572 
v 8.22212 0.297829 5.26713 
v 8.25812 0.181189 5.31572 
v 8.25812 0.181189 5.26713 
v 8.25812 0.297829 5.31572 
v 8.25812 0.297829 5.26713 
v 8.22212 0.297829 5.26201 
v 8.22212 0.181189 5.21342 
v 8.25812 0.297829 5.21342 
v 8.25812 0.297829 5.26201 
v 8.25812 0.181189 5.21342 
v 8.25812 0.181189 5.26201 
v 8.26897 0.0843903 5.26201 
v 8.21127 0.0843903 5.21342 
v 8.21127 0.0843903 5.26201 
v 8.26897 0.0843903 5.21342 
v 8.26897 0.0510773 5.26201 
v 8.26897 0.0510773 5.21342 
v 8.24012 0.0344203 5.26201 
v 8.24012 0.0344203 5.21342 
v 8.22212 0.710333 5.31572 
v 8.25812 0.628685 5.31572 
v 8.25812 0.628685 5.26713 
v 8.25812 0.710333 5.31572 
v 8.25812 0.710333 5.26713 
v 8.22212 0.710333 5.21342 
v 8.25812 0.710333 5.21342 
v 8.25812 0.710333 5.26201 
v 8.25812 0.628685 5.21342 
v 8.25812 0.628685 5.26201 
v 8.30215 0.0566743 5.30412 
v 8.24955 0.0166923 5.31572 
v 8.2225 1.52886e-05 5.30415 
v 8.30215 0.0566743 5.22502 
v 8.28496 0.0625403 5.21342 
v 8.17808 0.0566743 5.22502 
v 8.24955 0.0166923 5.21342 
v 8.19528 0.0625403 5.21342 
v 8.2225 1.52886e-05 5.22499 
v 8.19432 0.560556 5.2786 
v 8.19432 0.560556 5.30425 
v 8.20964 0.553772 5.30449 
v 8.20964 0.553772 5.27836 
v 8.30215 0.0566743 5.30412 
v 8.25773 1.52886e-05 5.2787 
v 8.25773 1.52886e-05 5.30415 
v 8.2225 1.52886e-05 5.2787 
v 8.2225 1.52886e-05 5.30415 
v 8.17808 0.0566743 5.30412 
v 8.17808 0.0566743 5.27873 
v 8.19432 0.560556 5.25054 
v 8.19432 0.560556 5.22489 
v 8.20964 0.553772 5.22465 
v 8.20964 0.553772 5.25078 
v 8.30215 0.0566743 5.22502 
v 8.25773 1.52886e-05 5.25044 
v 8.25773 1.52886e-05 5.22499 
v 8.2225 1.52886e-05 5.25044 
v 8.2225 1.52886e-05 5.22499 
v 8.17808 0.0566743 5.22502 
v 8.17808 0.0566743 5.25041 
v 8.24012 0.829722 5.31572 
v 8.24012 0.829722 5.26713 
v 8.26897 0.813065 5.31572 
v 8.26897 0.813065 5.26713 
v 8.21127 0.813065 5.26713 
v 8.21127 0.813065 5.31572 
v 8.26897 0.779752 5.31572 
v 8.24012 0.101047 5.31572 
v 8.26897 0.0843903 5.26713 
v 8.26897 0.0843903 5.31572 
v 8.24012 0.101047 5.26713 
v 8.21127 0.0843903 5.31572 
v 8.21127 0.0843903 5.26713 
v 8.24012 0.829722 5.26201 
v 8.26897 0.813065 5.21342 
v 8.26897 0.813065 5.26201 
v 8.24012 0.829722 5.21342 
v 8.26897 0.779752 5.21342 
v 8.21127 0.813065 5.26201 
v 8.21127 0.813065 5.21342 
v 8.22212 0.297829 5.31572 
v 8.22212 0.297829 5.26713 
v 8.24012 0.315325 5.31572 
v 8.24012 0.315325 5.26713 
v 8.25812 0.297829 5.31572 
v 8.25812 0.297829 5.26713 
v 8.22212 0.297829 5.21342 
v 8.22212 0.297829 5.26201 
v 8.24012 0.315325 5.21342 
v 8.24012 0.315325 5.26201 
v 8.25812 0.297829 5.21342 
v 8.25812 0.297829 5.26201 
v 8.24012 0.101047 5.26201 
v 8.24012 0.101047 5.21342 
v 8.26897 0.0843903 5.26201 
v 8.21127 0.0843903 5.21342 
v 8.21127 0.0843903 5.26201 
v 8.26897 0.0843903 5.21342 
v 8.22212 0.710333 5.31572 
v 8.22212 0.710333 5.26713 
v 8.24012 0.72258 5.31572 
v 8.24012 0.72258 5.26713 
v 8.25812 0.710333 5.31572 
v 8.25812 0.710333 5.26713 
v 8.22212 0.710333 5.21342 
v 8.22212 0.710333 5.26201 
v 8.24012 0.72258 5.21342 
v 8.24012 0.72258 5.26201 
v 8.25812 0.710333 5.21342 
v 8.25812 0.710333 5.26201 
v 8.28301 0.777435 5.21342 
v 8.26897 0.813065 5.21342 
v 8.28297 0.817155 5.21342 
v 8.24012 0.842452 5.21342 
v 8.26897 0.779752 5.21342 
v 8.24012 0.829722 5.21342 
v 8.21127 0.813065 5.21342 
v 8.1961 0.816328 5.21342 
v 8.1961 0.779045 5.21342 
v 8.21127 0.779752 5.21342 
v 8.27009 0.758921 5.21342 
v 8.21014 0.758921 5.21342 
v 8.24012 0.763095 5.21342 
v 8.24012 0.72258 5.21342 
v 8.25812 0.710333 5.21342 
v 8.22212 0.710333 5.21342 
v 8.25812 0.628685 5.21342 
v 8.22212 0.628685 5.21342 
v 8.27009 0.57663 5.21342 
v 8.21014 0.571733 5.21342 
v 8.24012 0.616438 5.21342 
v 8.21993 0.568376 5.21342 
v 8.2601 0.561011 5.21342 
v 8.24274 0.540473 5.21342 
v 8.24274 0.511565 5.21342 
v 8.25409 0.400244 5.21342 
v 8.22855 0.488208 5.21342 
v 8.2601 0.38153 5.21342 
v 8.22953 0.373536 5.21342 
v 8.27019 0.363126 5.21342 
v 8.24012 0.315325 5.21342 
v 8.20824 0.373548 5.21342 
v 8.25812 0.297829 5.21342 
v 8.22212 0.297829 5.21342 
v 8.25812 0.181189 5.21342 
v 8.22212 0.181189 5.21342 
v 8.27032 0.101464 5.21342 
v 8.20824 0.0999683 5.21342 
v 8.24012 0.163693 5.21342 
v 8.24012 0.101047 5.21342 
v 8.21127 0.0843903 5.21342 
v 8.19528 0.0877033 5.21342 
v 8.26897 0.0843903 5.21342 
v 8.19528 0.0625403 5.21342 
v 8.28496 0.0867213 5.21342 
v 8.21127 0.0510773 5.21342 
v 8.28496 0.0625403 5.21342 
v 8.23068 0.0166923 5.21342 
v 8.26897 0.0510773 5.21342 
v 8.24012 0.0344203 5.21342 
v 8.24955 0.0166923 5.21342 
v 8.17882 0.773637 5.22502 
v 8.1961 0.816328 5.21342 
v 8.1961 0.779045 5.21342 
v 8.1797 0.824825 5.22505 
v 8.19307 0.753553 5.22459 
v 8.24012 0.860571 5.22514 
v 8.21014 0.758921 5.21342 
v 8.24012 0.842452 5.21342 
v 8.21014 0.571733 5.21342 
v 8.28297 0.817155 5.21342 
v 8.19432 0.560556 5.22489 
v 8.30053 0.824741 5.22492 
v 8.20964 0.553772 5.22465 
v 8.30139 0.773723 5.22488 
v 8.21993 0.568376 5.21342 
v 8.28301 0.777435 5.21342 
v 8.22583 0.534445 5.2245 
v 8.28716 0.753559 5.22457 
v 8.24274 0.540473 5.21342 
v 8.27009 0.758921 5.21342 
v 8.24274 0.511565 5.21342 
v 8.27009 0.57663 5.21342 
v 8.22555 0.516369 5.22463 
v 8.28742 0.571559 5.22501 
v 8.22855 0.488208 5.21342 
v 8.27723 0.555997 5.2246 
v 8.21028 0.490601 5.225 
v 8.2601 0.561011 5.21342 
v 8.23629 0.404094 5.22423 
v 8.2601 0.38153 5.21342 
v 8.25409 0.400244 5.21342 
v 8.27722 0.386437 5.22451 
v 8.22953 0.373536 5.21342 
v 8.27019 0.363126 5.21342 
v 8.22291 0.39041 5.22445 
v 8.28739 0.371007 5.22494 
v 8.20824 0.373548 5.21342 
v 8.28673 0.109764 5.22427 
v 8.19553 0.388519 5.2249 
v 8.27032 0.101464 5.21342 
v 8.19328 0.1097 5.22468 
v 8.28496 0.0867213 5.21342 
v 8.20824 0.0999683 5.21342 
v 8.30179 0.0959973 5.22488 
v 8.19528 0.0877033 5.21342 
v 8.30215 0.0566743 5.22502 
v 8.17843 0.0959923 5.22492 
v 8.28496 0.0625403 5.21342 
v 8.17808 0.0566743 5.22502 
v 8.24955 0.0166923 5.21342 
v 8.19528 0.0625403 5.21342 
v 8.25773 1.52886e-05 5.22499 
v 8.23068 0.0166923 5.21342 
v 8.2225 1.52886e-05 5.22499 
v 8.30053 0.824741 5.27863 
v 8.30215 0.0566743 5.27873 
v 8.25773 1.52886e-05 5.2787 
v 8.21028 0.490601 5.27871 
v 8.2225 1.52886e-05 5.30415 
v 8.17808 0.0566743 5.30412 
v 8.22291 0.39041 5.27816 
v 8.19553 0.388519 5.30424 
v 8.21127 0.813065 5.26713 
v 8.26897 0.0843903 5.31572 
v 8.24012 0.0344203 5.26713 
v 8.21127 0.0510773 5.26713 
v 8.21127 0.0843903 5.26713 
v 8.22212 0.181189 5.26713 
v 8.21127 0.0843903 5.21342 
v 8.26897 0.0843903 5.21342 
v 8.24012 0.0344203 5.26201 
v 8.22212 0.710333 5.26713 
v 8.25812 0.628685 5.31572 
v 8.25812 0.628685 5.26713 
v 8.25812 0.710333 5.26713 
v 8.24012 0.842452 5.26713 
v 8.26897 0.813065 5.26713 
v 8.24012 0.829722 5.26713 
v 8.21127 0.813065 5.26713 
v 8.28297 0.817155 5.26713 
v 8.1961 0.816328 5.26713 
v 8.28301 0.777435 5.26713 
v 8.1961 0.779045 5.26713 
v 8.26897 0.779752 5.26713 
v 8.21127 0.779752 5.26713 
v 8.27009 0.758921 5.26713 
v 8.21014 0.758921 5.26713 
v 8.24012 0.763095 5.26713 
v 8.24012 0.72258 5.26713 
v 8.25812 0.710333 5.26713 
v 8.22212 0.710333 5.26713 
v 8.25812 0.628685 5.26713 
v 8.22212 0.628685 5.26713 
v 8.27009 0.57663 5.26713 
v 8.21014 0.571733 5.26713 
v 8.24012 0.616438 5.26713 
v 8.21993 0.568376 5.26713 
v 8.2601 0.561011 5.26713 
v 8.24274 0.540473 5.26713 
v 8.24274 0.511565 5.26713 
v 8.25409 0.400244 5.26713 
v 8.22855 0.488208 5.26713 
v 8.2601 0.38153 5.26713 
v 8.22953 0.373536 5.26713 
v 8.27019 0.363126 5.26713 
v 8.24012 0.315325 5.26713 
v 8.20824 0.373548 5.26713 
v 8.25812 0.297829 5.26713 
v 8.22212 0.297829 5.26713 
v 8.25812 0.181189 5.26713 
v 8.22212 0.181189 5.26713 
v 8.27032 0.101464 5.26713 
v 8.20824 0.0999683 5.26713 
v 8.24012 0.163693 5.26713 
v 8.24012 0.101047 5.26713 
v 8.26897 0.0843903 5.26713 
v 8.21127 0.0843903 5.26713 
v 8.28496 0.0867553 5.26713 
v 8.19528 0.0877033 5.26713 
v 8.28496 0.0625403 5.26713 
v 8.19528 0.0625403 5.26713 
v 8.26897 0.0510773 5.26713 
v 8.21127 0.0510773 5.26713 
v 8.24955 0.0166923 5.26713 
v 8.23068 0.0166923 5.26713 
v 8.24012 0.0344203 5.26713 
v 8.30139 0.773723 5.27859 
v 8.28297 0.817155 5.26713 
v 8.30053 0.824741 5.27863 
v 8.24012 0.860571 5.27885 
v 8.28301 0.777435 5.26713 
v 8.24012 0.842452 5.26713 
v 8.28716 0.753559 5.27829 
v 8.1961 0.816328 5.26713 
v 8.27009 0.758921 5.26713 
v 8.1797 0.824825 5.27876 
v 8.27009 0.57663 5.26713 
v 8.17882 0.773637 5.27873 
v 8.28742 0.571559 5.27872 
v 8.1961 0.779045 5.26713 
v 8.27723 0.555997 5.27831 
v 8.19307 0.753553 5.2783 
v 8.2601 0.561011 5.26713 
v 8.21014 0.758921 5.26713 
v 8.2601 0.38153 5.26713 
v 8.21014 0.571733 5.26713 
v 8.27722 0.386437 5.27822 
v 8.19432 0.560556 5.2786 
v 8.27019 0.363126 5.26713 
v 8.20964 0.553772 5.27836 
v 8.28739 0.371007 5.27865 
v 8.21993 0.568376 5.26713 
v 8.28673 0.109766 5.27799 
v 8.22583 0.534445 5.27821 
v 8.27032 0.101464 5.26713 
v 8.24274 0.540473 5.26713 
v 8.28496 0.0867553 5.26713 
v 8.24274 0.511565 5.26713 
v 8.30179 0.0959973 5.27859 
v 8.22555 0.516369 5.27834 
v 8.30215 0.0566743 5.27873 
v 8.22855 0.488208 5.26713 
v 8.28496 0.0625403 5.26713 
v 8.21028 0.490601 5.27871 
v 8.24955 0.0166923 5.26713 
v 8.23629 0.404094 5.27794 
v 8.25773 1.52886e-05 5.2787 
v 8.25409 0.400244 5.26713 
v 8.23068 0.0166923 5.26713 
v 8.22953 0.373536 5.26713 
v 8.2225 1.52886e-05 5.2787 
v 8.22291 0.39041 5.27816 
v 8.17808 0.0566743 5.27873 
v 8.20824 0.373548 5.26713 
v 8.19528 0.0625403 5.26713 
v 8.19553 0.388519 5.27861 
v 8.19528 0.0877033 5.26713 
v 8.19328 0.1097 5.2784 
v 8.17843 0.0959923 5.27863 
v 8.20824 0.0999683 5.26713 

vn 0.952756 -0.299213 0 
vn 0.866142 0.503937 0 
vn 0.952756 -0.299213 0 
vn 0.952756 -0.299213 0 
vn 0.866142 0.503937 0 
vn 0.952756 -0.299213 0 
vn 0.96063 -0.283465 0 
vn 0.96063 -0.283465 0 
vn 0.96063 -0.283465 0 
vn 0.96063 -0.283465 0 
vn 0.96063 0.283465 0 
vn 0.96063 0.283465 0 
vn 0.96063 0.291339 0 
vn 0.96063 0.291339 0 
vn 0.92126 0.401575 0 
vn 0.92126 0.401575 0 
vn 0.913386 0.409449 0 
vn 0.913386 0.409449 0 
vn 0.944882 -0.322835 0 
vn 0.944882 -0.322835 0 
vn 0.433071 -0.897638 0 
vn 0.433071 -0.897638 0 
vn 0.866142 0.503937 0 
vn 0.952756 -0.299213 0 
vn 0.952756 -0.299213 0 
vn 0.952756 -0.299213 0 
vn 0.866142 0.503937 0 
vn 0.952756 -0.299213 0 
vn 0.96063 -0.283465 0 
vn 0.96063 -0.283465 0 
vn 0.96063 -0.283465 0 
vn 0.96063 -0.283465 0 
vn 0.96063 0.283465 0 
vn 0.96063 0.283465 0 
vn 0.96063 0.291339 0 
vn 0.96063 0.291339 0 
vn 0.92126 0.401575 0 
vn 0.92126 0.401575 0 
vn 0.913386 0.409449 0 
vn 0.913386 0.409449 0 
vn 0.944882 -0.322835 0 
vn 0.944882 -0.322835 0 
vn 0.433071 -0.897638 0 
vn 0.433071 -0.897638 0 
vn -0.968504 0.23622 0 
vn 0.866142 -0.496063 0 
vn 0.866142 -0.496063 0 
vn 0.866142 0.496063 0 
vn 0.866142 0.496063 0 
vn 0 1 0 
vn 0 1 0 
vn 0.866142 0.496063 0 
vn 0.866142 0.496063 0 
vn 1 0 0 
vn 1 0 0 
vn 0.866142 -0.496063 0 
vn 0.866142 -0.496063 0 
vn 0.866142 0.496063 0 
vn 0.866142 0.496063 0 
vn 0.92126 0.385827 0 
vn 0.92126 -0.385827 0 
vn 0.92126 0.385827 0 
vn 0.92126 -0.385827 0 
vn -0.92126 0.385827 0 
vn -0.92126 -0.385827 0 
vn 0.92126 0.385827 0 
vn 0.92126 -0.385827 0 
vn 0.92126 -0.385827 0 
vn 0.92126 0.385827 0 
vn -0.92126 0.385827 0 
vn 0 1 0 
vn 0 1 0 
vn 0.866142 0.496063 0 
vn 0.866142 0.496063 0 
vn 1 0 0 
vn 1 0 0 
vn 0.88189 0.464567 0 
vn 0.88189 0.464567 0 
vn 0.88189 -0.464567 0 
vn 0.88189 -0.464567 0 
vn 0.88189 0.464567 0 
vn 0.88189 -0.464567 0 
vn 0.88189 -0.464567 0 
vn 0.88189 0.464567 0 
vn -0.456693 0.275591 0.850394 
vn -0.456693 0.259843 0.850394 
vn 0.433071 0.283465 0.858268 
vn 0.448819 0.251969 0.858268 
vn -0.456693 0.275591 -0.850394 
vn -0.456693 0.259843 -0.850394 
vn 0.433071 0.283465 -0.858268 
vn 0.448819 0.251969 -0.858268 
vn 0.866142 0.503937 0 
vn 0.866142 0.503937 0 
vn 0 1 0 
vn 0 1 0 
vn -0.866142 0.503937 0 
vn -0.866142 0.503937 0 
vn 0.92126 0.401575 0 
vn 0.92126 0.401575 0 
vn 0.913386 0.409449 0 
vn 0.913386 0.409449 0 
vn -0.425197 0.905512 0 
vn -0.913386 0.409449 0 
vn -0.425197 0.905512 0 
vn -0.913386 0.409449 0 
vn -0.724409 0.685039 0 
vn -0.913386 0.401575 0 
vn -0.724409 0.685039 0 
vn -0.913386 0.401575 0 
vn 0.866142 0.503937 0 
vn 0.866142 0.503937 0 
vn 0 1 0 
vn 0 1 0 
vn -0.866142 0.503937 0 
vn -0.866142 0.503937 0 
vn 0.92126 0.401575 0 
vn 0.92126 0.401575 0 
vn 0.913386 0.409449 0 
vn 0.913386 0.409449 0 
vn -0.425197 0.905512 0 
vn -0.913386 0.409449 0 
vn -0.425197 0.905512 0 
vn -0.913386 0.409449 0 
vn -0.724409 0.685039 0 
vn -0.913386 0.401575 0 
vn -0.724409 0.685039 0 
vn -0.913386 0.401575 0 
vn 0.866142 -0.496063 0 
vn -0.866142 0.496063 0 
vn 0.866142 -0.496063 0 
vn -0.866142 0.496063 0 
vn 0.866142 0.496063 0 
vn 0 1 0 
vn 0.866142 0.496063 0 
vn 0 1 0 
vn -0.866142 -0.496063 0 
vn -0.866142 0.496063 0 
vn -0.866142 0.496063 0 
vn 0 1 0 
vn 0 1 0 
vn 0.866142 0.496063 0 
vn 0.866142 0.496063 0 
vn 1 0 0 
vn 1 0 0 
vn -0.866142 0.496063 0 
vn -0.866142 0.496063 0 
vn 0.866142 -0.496063 0 
vn 0 1 0 
vn 0.866142 -0.496063 0 
vn 0 1 0 
vn 0.866142 0.496063 0 
vn 0.866142 0.496063 0 
vn 0.92126 0.385827 0 
vn 0.92126 0.385827 0 
vn 0 1 0 
vn 0 1 0 
vn -0.92126 0.385827 0 
vn -0.92126 0.385827 0 
vn 0.92126 0.385827 0 
vn 0.92126 0.385827 0 
vn 0 1 0 
vn 0 1 0 
vn -0.92126 0.385827 0 
vn -0.92126 0.385827 0 
vn -0.866142 -0.496063 0 
vn -0.866142 0.496063 0 
vn -0.866142 0.496063 0 
vn 0 1 0 
vn 0 1 0 
vn 0.866142 0.496063 0 
vn 0.866142 0.496063 0 
vn 1 0 0 
vn 1 0 0 
vn 0.88189 0.464567 0 
vn 0.88189 0.464567 0 
vn 0 1 0 
vn 0 1 0 
vn -0.88189 0.464567 0 
vn -0.88189 0.464567 0 
vn 0.88189 0.464567 0 
vn 0.88189 0.464567 0 
vn 0 1 0 
vn 0 1 0 
vn -0.88189 0.464567 0 
vn -0.88189 0.464567 0 
vn 0 0 1 
vn 0 0 1 
vn 0 0 1 
vn 0 0 1 
vn 0 0 1 
vn 0 0 1 
vn 0 0 1 
vn 0 0 1 
vn 0 0 1 
vn 0 0 1 
vn 0 0 1 
vn 0 0 1 
vn 0 0 1 
vn 0 0 1 
vn 0 0 1 
vn 0 0 1 
vn 0 0 1 
vn 0 0 1 
vn 0 0 1 
vn 0 0 1 
vn 0 0 1 
vn 0 0 1 
vn 0 0 1 
vn 0 0 1 
vn 0 0 1 
vn 0 0 1 
vn 0 0 1 
vn 0 0 1 
vn 0 0 1 
vn 0 0 1 
vn 0 0 1 
vn 0 0 1 
vn 0 0 1 
vn 0 0 1 
vn 0 0 1 
vn 0 0 1 
vn 0 0 1 
vn 0 0 1 
vn 0 0 1 
vn 0 0 1 
vn 0 0 1 
vn 0 0 1 
vn 0 0 1 
vn 0 0 1 
vn 0 0 1 
vn 0 0 1 
vn 0 0 1 
vn 0 0 1 
vn 0 0 1 
vn 0 0 1 
vn 0 0 1 
vn -0.456693 0.275591 0.850394 
vn -0.519685 -0.15748 0.84252 
vn -0.519685 -0.15748 0.84252 
vn -0.456693 0.259843 0.850394 
vn -0.519685 -0.15748 0.84252 
vn 0 0.543307 0.84252 
vn -0.519685 -0.15748 0.84252 
vn 0 0.543307 0.84252 
vn -0.409449 -0.275591 0.866142 
vn 0.433071 0.283465 0.858268 
vn -0.409449 -0.275591 0.866142 
vn 0.448819 0.251969 0.858268 
vn -0.322835 -0.433071 0.84252 
vn 0.503937 -0.141732 0.850394 
vn -0.322835 -0.433071 0.84252 
vn 0.503937 -0.165354 0.850394 
vn -0.496063 -0.173228 0.850394 
vn 0.511811 -0.15748 0.84252 
vn -0.496063 -0.173228 0.850394 
vn 0.511811 -0.15748 0.84252 
vn -0.519685 0.141732 0.84252 
vn 0.511811 -0.149606 0.84252 
vn -0.519685 0.141732 0.84252 
vn 0.511811 -0.149606 0.84252 
vn -0.519685 0.0629921 0.850394 
vn 0.511811 -0.149606 0.850394 
vn -0.519685 0.0629921 0.850394 
vn 0.511811 -0.149606 0.850394 
vn -0.496063 0.11811 0.858268 
vn 0.503937 0.133858 0.850394 
vn -0.496063 0.11811 0.858268 
vn 0.503937 0.133858 0.850394 
vn -0.220472 0.488189 0.84252 
vn 0.519685 0.125984 0.850394 
vn -0.228346 0.480315 0.84252 
vn 0.503937 0.141732 0.850394 
vn -0.370079 0.307087 0.874016 
vn 0.472441 0.188976 0.858268 
vn -0.330709 0.338583 0.88189 
vn 0.472441 0.19685 0.858268 
vn -0.527559 0.188976 0.826772 
vn 0.480315 0.181102 0.858268 
vn -0.503937 0.228346 0.834646 
vn 0.472441 0.19685 0.858268 
vn -0.480315 0.19685 0.850394 
vn 0.511811 -0.173228 0.84252 
vn -0.480315 0.204724 0.850394 
vn 0.511811 -0.173228 0.84252 
vn -0.511811 -0.173228 0.84252 
vn 0.228346 -0.472441 0.850394 
vn -0.511811 -0.173228 0.84252 
vn 0.228346 -0.472441 0.850394 
vn -0.228346 -0.472441 0.850394 
vn -0.228346 -0.472441 0.850394 
vn 0.866142 0.503937 0 
vn 0.944882 -0.322835 0 
vn 0.433071 -0.897638 0 
vn -0.992126 0.11811 0 
vn -0.440945 -0.897638 0 
vn -0.944882 -0.322835 0 
vn -0.425197 0.905512 0 
vn -0.724409 0.685039 0 
vn 0.866142 -0.496063 0 
vn -0.866142 -0.496063 0 
vn 0.496063 -0.866142 0 
vn 0 1 0 
vn 0.866142 0.496063 0 
vn 0.92126 0.385827 0 
vn -0.866142 -0.496063 0 
vn 0 1 0 
vn 1 0 0 
vn 0.88189 -0.464567 0 
vn -0.88189 0.464567 0 
vn -0.88189 0.464567 0 
vn -0.88189 -0.464567 0 
vn 0 0 1 
vn 0 0 1 
vn 0 0 1 
vn 0 0 1 
vn 0 0 1 
vn 0 0 1 
vn 0 0 1 
vn 0 0 1 
vn 0 0 1 
vn 0 0 1 
vn 0 0 1 
vn 0 0 1 
vn 0 0 1 
vn 0 0 1 
vn 0 0 1 
vn 0 0 1 
vn 0 0 1 
vn 0 0 1 
vn 0 0 1 
vn 0 0 1 
vn 0 0 1 
vn 0 0 1 
vn 0 0 1 
vn 0 0 1 
vn 0 0 1 
vn 0 0 1 
vn 0 0 1 
vn 0 0 1 
vn 0 0 1 
vn 0 0 1 
vn 0 0 1 
vn 0 0 1 
vn 0 0 1 
vn 0 0 1 
vn 0 0 1 
vn 0 0 1 
vn 0 0 1 
vn 0 0 1 
vn 0 0 1 
vn 0 0 1 
vn 0 0 1 
vn 0 0 1 
vn 0 0 1 
vn 0 0 1 
vn 0 0 1 
vn 0 0 1 
vn 0 0 1 
vn 0 0 1 
vn 0 0 1 
vn 0 0 1 
vn 0 0 1 
vn -0.519685 0.0629921 -0.850394 
vn -0.228346 0.480315 -0.84252 
vn -0.370079 0.307087 -0.874016 
vn 0.433071 0.283465 0.858268 
vn 0.503937 -0.141732 0.850394 
vn 0.448819 0.251969 0.858268 
vn 0 0.543307 0.84252 
vn 0.503937 -0.165354 0.850394 
vn 0 0.543307 0.84252 
vn 0.511811 -0.15748 0.84252 
vn -0.456693 0.275591 0.850394 
vn 0.511811 -0.15748 0.84252 
vn -0.456693 0.259843 0.850394 
vn 0.511811 -0.149606 0.84252 
vn -0.519685 -0.15748 0.84252 
vn 0.511811 -0.149606 0.84252 
vn -0.519685 -0.15748 0.84252 
vn 0.511811 -0.149606 0.850394 
vn -0.519685 -0.15748 0.84252 
vn 0.511811 -0.149606 0.850394 
vn -0.519685 -0.15748 0.84252 
vn 0.503937 0.133858 0.850394 
vn -0.409449 -0.275591 0.866142 
vn 0.503937 0.133858 0.850394 
vn -0.409449 -0.275591 0.866142 
vn 0.519685 0.125984 0.850394 
vn -0.322835 -0.433071 0.84252 
vn 0.503937 0.141732 0.850394 
vn -0.322835 -0.433071 0.84252 
vn 0.472441 0.188976 0.858268 
vn -0.496063 -0.173228 0.850394 
vn 0.472441 0.19685 0.858268 
vn -0.496063 -0.173228 0.850394 
vn 0.480315 0.181102 0.858268 
vn -0.519685 0.141732 0.84252 
vn 0.472441 0.19685 0.858268 
vn -0.519685 0.141732 0.84252 
vn 0.511811 -0.173228 0.84252 
vn -0.519685 0.0629921 0.850394 
vn 0.511811 -0.173228 0.84252 
vn -0.519685 0.0629921 0.850394 
vn 0.228346 -0.472441 0.850394 
vn -0.496063 0.11811 0.858268 
vn 0.228346 -0.472441 0.850394 
vn -0.496063 0.11811 0.858268 
vn -0.228346 -0.472441 0.850394 
vn -0.220472 0.488189 0.84252 
vn -0.228346 -0.472441 0.850394 
vn -0.228346 0.480315 0.84252 
vn -0.511811 -0.173228 0.84252 
vn -0.370079 0.307087 0.874016 
vn -0.511811 -0.173228 0.84252 
vn -0.330709 0.338583 0.88189 
vn -0.480315 0.19685 0.850394 
vn -0.527559 0.188976 0.826772 
vn -0.480315 0.204724 0.850394 
vn -0.503937 0.228346 0.834646 
vn -0.456693 0.275591 0.850394 
vn -0.519685 -0.15748 0.84252 
vn -0.409449 -0.275591 0.866142 
vn -0.456693 0.275591 -0.850394 
vn -0.519685 -0.15748 -0.84252 
vn -0.409449 -0.275591 -0.866142 
vn -0.866142 0.503937 0 
vn -0.866142 0.503937 0 
vn -0.952756 -0.299213 0 
vn -0.952756 -0.299213 0 
vn -0.952756 -0.307087 0 
vn -0.952756 -0.307087 0 
vn -0.834646 -0.551181 0 
vn -0.834646 -0.551181 0 
vn -0.606299 -0.795276 0 
vn -0.606299 -0.795276 0 
vn -0.944882 -0.330709 0 
vn -0.944882 -0.330709 0 
vn -0.96063 0.267717 0 
vn -0.96063 0.267717 0 
vn -0.992126 0.11811 0 
vn -0.440945 -0.897638 0 
vn -0.992126 0.11811 0 
vn -0.440945 -0.897638 0 
vn -0.968504 0.23622 0 
vn -0.944882 -0.322835 0 
vn -0.968504 0.23622 0 
vn -0.944882 -0.322835 0 
vn -0.425197 0.905512 0 
vn -0.913386 0.409449 0 
vn -0.425197 0.905512 0 
vn -0.913386 0.409449 0 
vn -0.724409 0.685039 0 
vn -0.913386 0.401575 0 
vn -0.724409 0.685039 0 
vn -0.913386 0.401575 0 
vn -0.866142 0.503937 0 
vn -0.866142 0.503937 0 
vn -0.952756 -0.299213 0 
vn -0.952756 -0.299213 0 
vn -0.952756 -0.307087 0 
vn -0.952756 -0.307087 0 
vn -0.834646 -0.551181 0 
vn -0.834646 -0.551181 0 
vn -0.606299 -0.795276 0 
vn -0.606299 -0.795276 0 
vn -0.944882 -0.330709 0 
vn -0.944882 -0.330709 0 
vn -0.96063 0.267717 0 
vn -0.96063 0.267717 0 
vn -0.992126 0.11811 0 
vn -0.440945 -0.897638 0 
vn -0.992126 0.11811 0 
vn -0.440945 -0.897638 0 
vn -0.968504 0.23622 0 
vn -0.944882 -0.322835 0 
vn -0.968504 0.23622 0 
vn -0.944882 -0.322835 0 
vn -0.425197 0.905512 0 
vn -0.913386 0.409449 0 
vn -0.425197 0.905512 0 
vn -0.913386 0.409449 0 
vn -0.724409 0.685039 0 
vn -0.913386 0.401575 0 
vn -0.724409 0.685039 0 
vn -0.913386 0.401575 0 
vn 0 -1 0 
vn -0.866142 -0.496063 0 
vn -0.866142 -0.496063 0 
vn -0.866142 0.496063 0 
vn -0.866142 0.496063 0 
vn -0.866142 -0.496063 0 
vn -0.866142 -0.496063 0 
vn -0.866142 0.496063 0 
vn 0.496063 -0.866142 0 
vn 0.496063 -0.866142 0 
vn -0.866142 0.496063 0 
vn 0 1 0 
vn 0 1 0 
vn 0.866142 0.496063 0 
vn 0 -1 0 
vn -0.866142 -0.496063 0 
vn -0.866142 -0.496063 0 
vn -0.866142 0.496063 0 
vn -0.866142 0.496063 0 
vn 0.92126 0.385827 0 
vn 0.92126 0.385827 0 
vn 0.92126 -0.385827 0 
vn -0.92126 0.385827 0 
vn -0.92126 0.385827 0 
vn -0.92126 -0.385827 0 
vn -0.92126 -0.385827 0 
vn 0.92126 -0.385827 0 
vn 0.92126 0.385827 0 
vn -0.92126 -0.385827 0 
vn -0.92126 -0.385827 0 
vn -0.92126 0.385827 0 
vn -0.92126 0.385827 0 
vn -0.866142 -0.496063 0 
vn 0.496063 -0.866142 0 
vn 0.496063 -0.866142 0 
vn -0.866142 -0.496063 0 
vn -0.866142 0.496063 0 
vn -0.866142 0.496063 0 
vn 0 1 0 
vn 0 1 0 
vn 0.88189 -0.464567 0 
vn -0.88189 0.464567 0 
vn -0.88189 0.464567 0 
vn -0.88189 -0.464567 0 
vn -0.88189 -0.464567 0 
vn 0.88189 -0.464567 0 
vn -0.88189 -0.464567 0 
vn -0.88189 -0.464567 0 
vn -0.88189 0.464567 0 
vn -0.88189 0.464567 0 
vn 0.511811 -0.173228 0.84252 
vn 0.228346 -0.472441 0.850394 
vn -0.228346 -0.472441 0.850394 
vn 0.511811 -0.173228 -0.84252 
vn 0.511811 -0.173228 -0.84252 
vn -0.511811 -0.173228 -0.84252 
vn 0.228346 -0.472441 -0.850394 
vn -0.511811 -0.173228 -0.84252 
vn -0.228346 -0.472441 -0.850394 
vn -0.834646 -0.551181 0 
vn -0.834646 -0.551181 0 
vn -0.606299 -0.795276 0 
vn -0.606299 -0.795276 0 
vn 0.944882 -0.322835 0 
vn 0.433071 -0.897638 0 
vn 0.433071 -0.897638 0 
vn -0.440945 -0.897638 0 
vn -0.440945 -0.897638 0 
vn -0.944882 -0.322835 0 
vn -0.944882 -0.322835 0 
vn -0.834646 -0.551181 0 
vn -0.834646 -0.551181 0 
vn -0.606299 -0.795276 0 
vn -0.606299 -0.795276 0 
vn 0.944882 -0.322835 0 
vn 0.433071 -0.897638 0 
vn 0.433071 -0.897638 0 
vn -0.440945 -0.897638 0 
vn -0.440945 -0.897638 0 
vn -0.944882 -0.322835 0 
vn -0.944882 -0.322835 0 
vn 0 -1 0 
vn 0 -1 0 
vn -0.866142 -0.496063 0 
vn -0.866142 -0.496063 0 
vn 0.866142 -0.496063 0 
vn 0.866142 -0.496063 0 
vn -0.866142 0.496063 0 
vn 0 -1 0 
vn -0.866142 -0.496063 0 
vn -0.866142 -0.496063 0 
vn 0 -1 0 
vn 0.496063 -0.866142 0 
vn 0.496063 -0.866142 0 
vn 0 -1 0 
vn -0.866142 -0.496063 0 
vn -0.866142 -0.496063 0 
vn 0 -1 0 
vn -0.866142 0.496063 0 
vn 0.866142 -0.496063 0 
vn 0.866142 -0.496063 0 
vn 0.92126 -0.385827 0 
vn 0.92126 -0.385827 0 
vn 0 -1 0 
vn 0 -1 0 
vn -0.92126 -0.385827 0 
vn -0.92126 -0.385827 0 
vn 0.92126 -0.385827 0 
vn 0.92126 -0.385827 0 
vn 0 -1 0 
vn 0 -1 0 
vn -0.92126 -0.385827 0 
vn -0.92126 -0.385827 0 
vn 0 -1 0 
vn 0 -1 0 
vn -0.866142 -0.496063 0 
vn 0.496063 -0.866142 0 
vn 0.496063 -0.866142 0 
vn -0.866142 -0.496063 0 
vn 0.88189 -0.464567 0 
vn 0.88189 -0.464567 0 
vn 0 -1 0 
vn 0 -1 0 
vn -0.88189 -0.464567 0 
vn -0.88189 -0.464567 0 
vn 0.88189 -0.464567 0 
vn 0.88189 -0.464567 0 
vn 0 -1 0 
vn 0 -1 0 
vn -0.88189 -0.464567 0 
vn -0.88189 -0.464567 0 
vn 0 0 -1 
vn 0 0 -1 
vn 0 0 -1 
vn 0 0 -1 
vn 0 0 -1 
vn 0 0 -1 
vn 0 0 -1 
vn 0 0 -1 
vn 0 0 -1 
vn 0 0 -1 
vn 0 0 -1 
vn 0 0 -1 
vn 0 0 -1 
vn 0 0 -1 
vn 0 0 -1 
vn 0 0 -1 
vn 0 0 -1 
vn 0 0 -1 
vn 0 0 -1 
vn 0 0 -1 
vn 0 0 -1 
vn 0 0 -1 
vn 0 0 -1 
vn 0 0 -1 
vn 0 0 -1 
vn 0 0 -1 
vn 0 0 -1 
vn 0 0 -1 
vn 0 0 -1 
vn 0 0 -1 
vn 0 0 -1 
vn 0 0 -1 
vn 0 0 -1 
vn 0 0 -1 
vn 0 0 -1 
vn 0 0 -1 
vn 0 0 -1 
vn 0 0 -1 
vn 0 0 -1 
vn 0 0 -1 
vn 0 0 -1 
vn 0 0 -1 
vn 0 0 -1 
vn 0 0 -1 
vn 0 0 -1 
vn 0 0 -1 
vn 0 0 -1 
vn 0 0 -1 
vn 0 0 -1 
vn 0 0 -1 
vn 0 0 -1 
vn -0.519685 -0.15748 -0.84252 
vn -0.456693 0.275591 -0.850394 
vn -0.519685 -0.15748 -0.84252 
vn -0.456693 0.259843 -0.850394 
vn -0.519685 -0.15748 -0.84252 
vn 0 0.543307 -0.84252 
vn -0.519685 -0.15748 -0.84252 
vn 0 0.543307 -0.84252 
vn -0.409449 -0.275591 -0.866142 
vn 0.433071 0.283465 -0.858268 
vn -0.409449 -0.275591 -0.866142 
vn 0.448819 0.251969 -0.858268 
vn -0.322835 -0.433071 -0.84252 
vn 0.503937 -0.141732 -0.850394 
vn -0.322835 -0.433071 -0.84252 
vn 0.503937 -0.165354 -0.850394 
vn -0.496063 -0.173228 -0.850394 
vn 0.511811 -0.15748 -0.84252 
vn -0.496063 -0.173228 -0.850394 
vn 0.511811 -0.15748 -0.84252 
vn -0.519685 0.141732 -0.84252 
vn 0.511811 -0.149606 -0.84252 
vn -0.519685 0.141732 -0.84252 
vn 0.511811 -0.149606 -0.84252 
vn -0.519685 0.0629921 -0.850394 
vn 0.511811 -0.149606 -0.850394 
vn -0.519685 0.0629921 -0.850394 
vn 0.511811 -0.149606 -0.850394 
vn -0.496063 0.11811 -0.858268 
vn 0.503937 0.133858 -0.850394 
vn -0.496063 0.11811 -0.858268 
vn 0.503937 0.133858 -0.850394 
vn -0.220472 0.488189 -0.84252 
vn 0.519685 0.125984 -0.850394 
vn -0.228346 0.480315 -0.84252 
vn 0.503937 0.141732 -0.850394 
vn -0.370079 0.307087 -0.874016 
vn 0.472441 0.188976 -0.858268 
vn -0.330709 0.338583 -0.88189 
vn 0.472441 0.19685 -0.858268 
vn -0.527559 0.188976 -0.826772 
vn 0.480315 0.181102 -0.858268 
vn -0.503937 0.228346 -0.834646 
vn 0.472441 0.19685 -0.858268 
vn -0.480315 0.19685 -0.850394 
vn 0.511811 -0.173228 -0.84252 
vn -0.480315 0.204724 -0.850394 
vn 0.511811 -0.173228 -0.84252 
vn -0.511811 -0.173228 -0.84252 
vn 0.228346 -0.472441 -0.850394 
vn -0.511811 -0.173228 -0.84252 
vn 0.228346 -0.472441 -0.850394 
vn -0.228346 -0.472441 -0.850394 
vn -0.228346 -0.472441 -0.850394 
vn 0.866142 0.503937 0 
vn 0.944882 -0.322835 0 
vn 0.433071 -0.897638 0 
vn -0.992126 0.11811 0 
vn -0.440945 -0.897638 0 
vn -0.944882 -0.322835 0 
vn -0.425197 0.905512 0 
vn -0.724409 0.685039 0 
vn 0.866142 -0.496063 0 
vn -0.866142 -0.496063 0 
vn 0 1 0 
vn 0.866142 0.496063 0 
vn 1 0 0 
vn 0.92126 0.385827 0 
vn 0.496063 -0.866142 0 
vn -0.866142 -0.496063 0 
vn 0 1 0 
vn 0.88189 -0.464567 0 
vn -0.88189 0.464567 0 
vn -0.88189 0.464567 0 
vn -0.88189 -0.464567 0 
vn 0 0 -1 
vn 0 0 -1 
vn 0 0 -1 
vn 0 0 -1 
vn 0 0 -1 
vn 0 0 -1 
vn 0 0 -1 
vn 0 0 -1 
vn 0 0 -1 
vn 0 0 -1 
vn 0 0 -1 
vn 0 0 -1 
vn 0 0 -1 
vn 0 0 -1 
vn 0 0 -1 
vn 0 0 -1 
vn 0 0 -1 
vn 0 0 -1 
vn 0 0 -1 
vn 0 0 -1 
vn 0 0 -1 
vn 0 0 -1 
vn 0 0 -1 
vn 0 0 -1 
vn 0 0 -1 
vn 0 0 -1 
vn 0 0 -1 
vn 0 0 -1 
vn 0 0 -1 
vn 0 0 -1 
vn 0 0 -1 
vn 0 0 -1 
vn 0 0 -1 
vn 0 0 -1 
vn 0 0 -1 
vn 0 0 -1 
vn 0 0 -1 
vn 0 0 -1 
vn 0 0 -1 
vn 0 0 -1 
vn 0 0 -1 
vn 0 0 -1 
vn 0 0 -1 
vn 0 0 -1 
vn 0 0 -1 
vn 0 0 -1 
vn 0 0 -1 
vn 0 0 -1 
vn 0 0 -1 
vn 0 0 -1 
vn 0 0 -1 
vn 0.503937 -0.141732 -0.850394 
vn 0.433071 0.283465 -0.858268 
vn 0.448819 0.251969 -0.858268 
vn 0 0.543307 -0.84252 
vn 0.503937 -0.165354 -0.850394 
vn 0 0.543307 -0.84252 
vn 0.511811 -0.15748 -0.84252 
vn -0.456693 0.275591 -0.850394 
vn 0.511811 -0.15748 -0.84252 
vn -0.456693 0.259843 -0.850394 
vn 0.511811 -0.149606 -0.84252 
vn -0.519685 -0.15748 -0.84252 
vn 0.511811 -0.149606 -0.84252 
vn -0.519685 -0.15748 -0.84252 
vn 0.511811 -0.149606 -0.850394 
vn -0.519685 -0.15748 -0.84252 
vn 0.511811 -0.149606 -0.850394 
vn -0.519685 -0.15748 -0.84252 
vn 0.503937 0.133858 -0.850394 
vn -0.409449 -0.275591 -0.866142 
vn 0.503937 0.133858 -0.850394 
vn -0.409449 -0.275591 -0.866142 
vn 0.519685 0.125984 -0.850394 
vn -0.322835 -0.433071 -0.84252 
vn 0.503937 0.141732 -0.850394 
vn -0.322835 -0.433071 -0.84252 
vn 0.472441 0.188976 -0.858268 
vn -0.496063 -0.173228 -0.850394 
vn 0.472441 0.19685 -0.858268 
vn -0.496063 -0.173228 -0.850394 
vn 0.480315 0.181102 -0.858268 
vn -0.519685 0.141732 -0.84252 
vn 0.472441 0.19685 -0.858268 
vn -0.519685 0.141732 -0.84252 
vn 0.511811 -0.173228 -0.84252 
vn -0.519685 0.0629921 -0.850394 
vn 0.511811 -0.173228 -0.84252 
vn -0.519685 0.0629921 -0.850394 
vn 0.228346 -0.472441 -0.850394 
vn -0.496063 0.11811 -0.858268 
vn 0.228346 -0.472441 -0.850394 
vn -0.496063 0.11811 -0.858268 
vn -0.228346 -0.472441 -0.850394 
vn -0.220472 0.488189 -0.84252 
vn -0.228346 -0.472441 -0.850394 
vn -0.228346 0.480315 -0.84252 
vn -0.511811 -0.173228 -0.84252 
vn -0.370079 0.307087 -0.874016 
vn -0.511811 -0.173228 -0.84252 
vn -0.330709 0.338583 -0.88189 
vn -0.480315 0.19685 -0.850394 
vn -0.527559 0.188976 -0.826772 
vn -0.480315 0.204724 -0.850394 
vn -0.503937 0.228346 -0.834646 

vt -0.00175325 -14.9571 
vt -0.00175737 -14.9507 
vt -0.00496075 -14.9571 
vt -0.00171463 -14.9596 
vt -0.00495662 -14.9507 
vt -0.0049995 -14.9596 
vt -0.00176888 -14.9823 
vt -0.00494525 -14.9823 
vt -0.0049965 -14.9843 
vt -0.0017175 -14.9843 
vt -0.00170625 -15.0055 
vt -0.00500775 -15.0055 
vt -0.00176063 -15.0074 
vt -0.00495338 -15.0074 
vt -0.00167712 -15.0401 
vt -0.00503713 -15.0401 
vt -0.0049615 -15.0418 
vt -0.00175262 -15.0418 
vt -0.00494375 -15.0467 
vt -0.00177025 -15.0467 
vt -0.00176662 -15.0538 
vt -0.00494738 -15.0538 
vt 0.00175737 -14.9507 
vt 0.00175325 -14.9571 
vt 0.00496075 -14.9571 
vt 0.00171463 -14.9596 
vt 0.00495662 -14.9507 
vt 0.0049995 -14.9596 
vt 0.00176888 -14.9823 
vt 0.00494525 -14.9823 
vt 0.0049965 -14.9843 
vt 0.0017175 -14.9843 
vt 0.00170625 -15.0055 
vt 0.00500775 -15.0055 
vt 0.00176063 -15.0074 
vt 0.00495338 -15.0074 
vt 0.00167712 -15.0401 
vt 0.00503713 -15.0401 
vt 0.0049615 -15.0418 
vt 0.00175262 -15.0418 
vt 0.00494375 -15.0467 
vt 0.00177025 -15.0467 
vt 0.00176662 -15.0538 
vt 0.00494738 -15.0538 
vt 0.00167162 -15.0033 
vt -0.000320375 -14.9522 
vt -0.00639375 -14.9522 
vt -0.000320375 -14.9563 
vt -0.00639375 -14.9563 
vt -0.000320375 -15.0495 
vt -0.00639375 -15.0495 
vt -0.000320375 -15.0474 
vt -0.00639375 -15.0474 
vt -0.000320375 -15.0432 
vt -0.00639375 -15.0432 
vt 0.000320375 -14.9522 
vt 0.00639375 -14.9522 
vt 0.000320375 -14.9563 
vt 0.00639375 -14.9563 
vt -0.000320375 -15.0311 
vt -0.00639375 -15.0166 
vt -0.00639375 -15.0311 
vt -0.000320375 -15.0166 
vt -0.000320375 -15.0311 
vt -0.00639375 -15.0166 
vt 0.000320375 -15.0311 
vt 0.00639375 -15.0166 
vt 0.000320375 -15.0166 
vt 0.00639375 -15.0311 
vt 0.000320375 -15.0311 
vt 0.000320375 -15.0495 
vt 0.00639375 -15.0495 
vt 0.000320375 -15.0474 
vt 0.00639375 -15.0474 
vt 0.000320375 -15.0432 
vt 0.00639375 -15.0432 
vt -0.00639375 -14.9752 
vt -0.000320375 -14.9752 
vt -0.00639375 -14.965 
vt -0.000320375 -14.965 
vt 0.000320375 -14.9752 
vt 0.00639375 -14.965 
vt 0.000320375 -14.965 
vt 0.00639375 -14.9752 
vt 0.00550206 -14.9936 
vt 0.00755169 -14.9951 
vt -0.00535619 -14.9936 
vt -0.00755144 -14.995 
vt 0.00550206 -15.0064 
vt 0.00755169 -15.0049 
vt -0.00535619 -15.0064 
vt -0.00755144 -15.005 
vt -0.00755144 -14.9982 
vt -0.00755144 -14.995 
vt -6.26014e-08 -14.9982 
vt -6.26014e-08 -14.9951 
vt 0.00755169 -14.9982 
vt 0.00755169 -14.9951 
vt -0.00582631 -14.9983 
vt -0.00582631 -14.995 
vt -0.00770894 -14.995 
vt -0.00770906 -14.9982 
vt 0.00215131 -14.9983 
vt 0.00771119 -14.9982 
vt 0.00215131 -14.995 
vt 0.00771119 -14.995 
vt 0.00557381 -14.995 
vt 0.00585419 -14.995 
vt 0.00557381 -14.9982 
vt 0.00585419 -14.9983 
vt -0.00755144 -15.0018 
vt -0.00755144 -15.005 
vt -6.26014e-08 -15.0018 
vt -6.26014e-08 -15.0049 
vt 0.00755169 -15.0018 
vt 0.00755169 -15.0049 
vt -0.00582631 -15.0017 
vt -0.00582631 -15.005 
vt -0.00770894 -15.005 
vt -0.00770906 -15.0018 
vt 0.00215131 -15.0017 
vt 0.00771119 -15.0018 
vt 0.00215131 -15.005 
vt 0.00771119 -15.005 
vt 0.00557381 -15.005 
vt 0.00585419 -15.005 
vt 0.00557381 -15.0018 
vt 0.00585419 -15.0017 
vt 0.00360619 -14.9997 
vt -0.00360631 -14.9997 
vt 0.00360619 -14.9936 
vt -0.00360631 -14.9936 
vt 0.00360619 -14.9997 
vt -6.26014e-08 -14.9997 
vt 0.00360619 -14.9936 
vt -6.26014e-08 -14.9936 
vt -0.00360631 -14.9936 
vt -0.00360631 -14.9997 
vt -0.00360631 -14.9936 
vt -6.26014e-08 -14.9997 
vt -6.26014e-08 -14.9936 
vt 0.00360619 -14.9997 
vt 0.00360619 -14.9936 
vt 0.00360619 -14.9997 
vt 0.00360619 -14.9936 
vt -0.00360631 -15.0003 
vt -0.00360631 -15.0064 
vt 0.00360619 -15.0003 
vt -6.26014e-08 -15.0003 
vt 0.00360619 -15.0064 
vt -6.26014e-08 -15.0064 
vt 0.00360619 -15.0003 
vt 0.00360619 -15.0064 
vt 0.00224994 -14.9997 
vt 0.00224994 -14.9936 
vt -6.26014e-08 -14.9936 
vt -6.26014e-08 -14.9997 
vt -0.00225006 -14.9936 
vt -0.00225006 -14.9997 
vt 0.00224994 -15.0003 
vt 0.00224994 -15.0064 
vt -6.26014e-08 -15.0064 
vt -6.26014e-08 -15.0003 
vt -0.00225006 -15.0064 
vt -0.00225006 -15.0003 
vt -0.00360631 -15.0064 
vt -0.00360631 -15.0003 
vt -0.00360631 -15.0064 
vt -6.26014e-08 -15.0003 
vt -6.26014e-08 -15.0064 
vt 0.00360619 -15.0003 
vt 0.00360619 -15.0064 
vt 0.00360619 -15.0003 
vt 0.00360619 -15.0064 
vt 0.00224994 -14.9936 
vt 0.00224994 -14.9997 
vt -6.26014e-08 -14.9936 
vt -6.26014e-08 -14.9997 
vt -0.00225006 -14.9936 
vt -0.00225006 -14.9997 
vt 0.00224994 -15.0003 
vt 0.00224994 -15.0064 
vt -6.26014e-08 -15.0064 
vt -6.26014e-08 -15.0003 
vt -0.00225006 -15.0064 
vt -0.00225006 -15.0003 
vt 0.00360631 -14.9522 
vt 0.00536181 -14.9566 
vt 0.00535619 -14.9516 
vt 6.26014e-08 -14.9485 
vt 0.00360631 -14.9563 
vt 6.26014e-08 -14.9501 
vt -0.00360619 -14.9522 
vt -0.00550206 -14.9517 
vt -0.00550206 -14.9564 
vt -0.00360619 -14.9563 
vt 0.00374719 -14.9589 
vt -0.00374731 -14.9589 
vt 6.26014e-08 -14.9584 
vt 6.26014e-08 -14.9635 
vt 0.00225006 -14.965 
vt -0.00224994 -14.965 
vt 0.00225006 -14.9752 
vt -0.00224994 -14.9752 
vt 0.00374719 -14.9817 
vt -0.00374731 -14.9823 
vt 6.26014e-08 -14.9767 
vt -0.00252356 -14.9827 
vt 0.00249731 -14.9837 
vt 0.000327813 -14.9862 
vt 0.000327813 -14.9898 
vt 0.00174669 -15.0038 
vt -0.00144606 -14.9928 
vt 0.00249731 -15.0061 
vt -0.00132369 -15.0071 
vt 0.00375869 -15.0084 
vt 6.26014e-08 -15.0144 
vt -0.00398481 -15.0071 
vt 0.00225006 -15.0166 
vt -0.00224994 -15.0166 
vt 0.00225006 -15.0311 
vt -0.00224994 -15.0311 
vt 0.00377519 -15.0411 
vt -0.00398481 -15.0413 
vt 6.26014e-08 -15.0333 
vt 6.26014e-08 -15.0412 
vt -0.00360619 -15.0432 
vt 0.00360631 -15.0432 
vt -0.00560506 -15.0428 
vt 0.00560519 -15.0429 
vt -0.00560506 -15.046 
vt 0.00560519 -15.046 
vt -0.00360619 -15.0474 
vt 0.00360631 -15.0474 
vt -0.00117906 -15.0517 
vt 0.00117919 -15.0517 
vt 6.26014e-08 -15.0495 
vt -0.00550206 -14.9517 
vt -0.00766219 -14.9571 
vt -0.00550206 -14.9564 
vt -0.00755169 -14.9507 
vt -0.00588144 -14.9596 
vt 6.26014e-08 -14.9462 
vt -0.00374731 -14.9589 
vt 6.26014e-08 -14.9485 
vt -0.00374731 -14.9823 
vt 0.00535619 -14.9516 
vt -0.00572419 -14.9837 
vt 0.00755144 -14.9507 
vt -0.00381006 -14.9846 
vt 0.00765944 -14.9571 
vt -0.00252356 -14.9827 
vt 0.00536181 -14.9566 
vt -0.00178544 -14.987 
vt 0.00588044 -14.9596 
vt 0.000327813 -14.9862 
vt 0.00374719 -14.9589 
vt 0.000327813 -14.9898 
vt 0.00374719 -14.9817 
vt -0.00182069 -14.9892 
vt 0.00591331 -14.9823 
vt -0.00144606 -14.9928 
vt 0.00463919 -14.9843 
vt -0.00372919 -14.9925 
vt 0.00249731 -14.9837 
vt -0.000478437 -15.0033 
vt 0.00249731 -15.0061 
vt 0.00174669 -15.0038 
vt 0.00463819 -15.0055 
vt -0.00132369 -15.0071 
vt 0.00375869 -15.0084 
vt -0.00215131 -15.005 
vt 0.00590956 -15.0074 
vt -0.00398481 -15.0071 
vt 0.00582631 -15.0401 
vt -0.00557381 -15.0052 
vt 0.00377519 -15.0411 
vt -0.00585419 -15.0401 
vt 0.00560519 -15.0429 
vt -0.00398481 -15.0413 
vt 0.00770894 -15.0418 
vt -0.00560506 -15.0428 
vt 0.00775444 -15.0467 
vt -0.00771119 -15.0418 
vt 0.00560519 -15.046 
vt -0.00775444 -15.0467 
vt 0.00117919 -15.0517 
vt -0.00560506 -15.046 
vt 0.00220169 -15.0538 
vt -0.00117906 -15.0517 
vt -0.00220169 -15.0538 
vt 0.00755144 -14.9507 
vt 0.00775444 -15.0467 
vt 0.00220169 -15.0538 
vt -0.00372919 -14.9925 
vt -0.00220169 -15.0538 
vt -0.00775444 -15.0467 
vt -0.00215131 -15.005 
vt -0.00557381 -15.0052 
vt -0.00360619 -14.9522 
vt 0.00360631 -15.0432 
vt -0.00360619 -15.0432 
vt 6.26014e-08 -15.0495 
vt -0.00360619 -15.0474 
vt -0.00224994 -15.0311 
vt 0.00360631 -15.0432 
vt 6.26014e-08 -15.0495 
vt -0.00360619 -15.0432 
vt -0.00224994 -14.965 
vt 0.00225006 -14.9752 
vt 0.00225006 -14.9752 
vt 0.00225006 -14.965 
vt 0.00360631 -14.9522 
vt 6.26014e-08 -14.9485 
vt 6.26014e-08 -14.9501 
vt -0.00360619 -14.9522 
vt 0.00535619 -14.9516 
vt -0.00550206 -14.9517 
vt 0.00536181 -14.9566 
vt -0.00550206 -14.9564 
vt 0.00360631 -14.9563 
vt -0.00360619 -14.9563 
vt 0.00374719 -14.9589 
vt -0.00374731 -14.9589 
vt 6.26014e-08 -14.9584 
vt 6.26014e-08 -14.9635 
vt 0.00225006 -14.965 
vt -0.00224994 -14.965 
vt 0.00225006 -14.9752 
vt -0.00224994 -14.9752 
vt 0.00374719 -14.9817 
vt -0.00374731 -14.9823 
vt 6.26014e-08 -14.9767 
vt -0.00252356 -14.9827 
vt 0.00249731 -14.9837 
vt 0.000327813 -14.9862 
vt 0.000327813 -14.9898 
vt 0.00174669 -15.0038 
vt -0.00144606 -14.9928 
vt 0.00249731 -15.0061 
vt -0.00132369 -15.0071 
vt 0.00375869 -15.0084 
vt 6.26014e-08 -15.0144 
vt -0.00398481 -15.0071 
vt 0.00225006 -15.0166 
vt -0.00224994 -15.0166 
vt 0.00225006 -15.0311 
vt -0.00224994 -15.0311 
vt 0.00377519 -15.0411 
vt -0.00398481 -15.0413 
vt 6.26014e-08 -15.0333 
vt 6.26014e-08 -15.0412 
vt 0.00360631 -15.0432 
vt -0.00360619 -15.0432 
vt 0.00560519 -15.0429 
vt -0.00560506 -15.0428 
vt 0.00560519 -15.046 
vt -0.00560506 -15.046 
vt 0.00360631 -15.0474 
vt -0.00360619 -15.0474 
vt 0.00117919 -15.0517 
vt -0.00117906 -15.0517 
vt 6.26014e-08 -15.0495 
vt -0.00372919 -14.9925 
vt -0.00215131 -15.005 
vt -0.00398481 -15.0071 
vt 0.00535619 -14.9516 
vt 0.00765944 -14.9571 
vt 0.00755144 -14.9507 
vt 6.26014e-08 -14.9462 
vt 0.00536181 -14.9566 
vt 6.26014e-08 -14.9485 
vt 0.00588044 -14.9596 
vt -0.00550206 -14.9517 
vt 0.00374719 -14.9589 
vt -0.00755169 -14.9507 
vt 0.00374719 -14.9817 
vt -0.00766219 -14.9571 
vt 0.00591331 -14.9823 
vt -0.00550206 -14.9564 
vt 0.00463919 -14.9843 
vt -0.00588144 -14.9596 
vt 0.00249731 -14.9837 
vt -0.00374731 -14.9589 
vt 0.00249731 -15.0061 
vt -0.00374731 -14.9823 
vt 0.00463819 -15.0055 
vt -0.00572419 -14.9837 
vt 0.00375869 -15.0084 
vt -0.00380994 -14.9846 
vt 0.00590956 -15.0074 
vt -0.00252356 -14.9827 
vt 0.00582631 -15.0401 
vt -0.00178544 -14.987 
vt 0.00377519 -15.0411 
vt 0.000327813 -14.9862 
vt 0.00560519 -15.0429 
vt 0.000327813 -14.9898 
vt 0.00770906 -15.0418 
vt -0.00182056 -14.9892 
vt 0.00775444 -15.0467 
vt -0.00144606 -14.9928 
vt 0.00560519 -15.046 
vt -0.00372919 -14.9925 
vt 0.00117919 -15.0517 
vt -0.000478437 -15.0033 
vt 0.00220169 -15.0538 
vt 0.00174669 -15.0038 
vt -0.00117906 -15.0517 
vt -0.00132369 -15.0071 
vt -0.00220169 -15.0538 
vt -0.00215131 -15.005 
vt -0.00775431 -15.0467 
vt -0.00398481 -15.0071 
vt -0.00560506 -15.046 
vt -0.00557381 -15.0052 
vt -0.00560506 -15.0428 
vt -0.00585419 -15.0401 
vt -0.00771119 -15.0418 
vt -0.00398481 -15.0413 
vt 0.00639375 -14.9517 
vt 0.00499737 -14.9596 
vt 0.00639375 -14.9823 
vt -0.00639375 -14.9517 
vt -0.00499737 -14.9596 
vt -0.00639375 -14.9823 
vt 0.00177387 -14.9507 
vt 0.00494025 -14.9507 
vt 0.00494363 -14.9571 
vt 0.00177037 -14.9571 
vt 0.00171675 -14.9596 
vt 0.00499737 -14.9596 
vt 0.00175375 -14.9837 
vt 0.00496037 -14.9837 
vt 0.00499038 -14.9846 
vt 0.00172375 -14.9846 
vt 0.00500825 -14.987 
vt 0.00170575 -14.987 
vt 0.00172175 -14.9892 
vt 0.00499238 -14.9892 
vt 0.00494625 -14.9925 
vt 0.00176662 -15.0538 
vt 0.00176788 -14.9925 
vt 0.00494738 -15.0538 
vt 0.00167162 -15.0033 
vt 0.00494375 -15.0467 
vt 0.0050425 -15.0033 
vt 0.00177025 -15.0467 
vt 0.0016995 -15.005 
vt 0.001758 -15.0418 
vt 0.00501462 -15.005 
vt 0.00495612 -15.0418 
vt 0.00495875 -15.0052 
vt 0.00498562 -15.0401 
vt 0.00175525 -15.0052 
vt 0.0017285 -15.0401 
vt -0.00177387 -14.9507 
vt -0.00494025 -14.9507 
vt -0.00494363 -14.9571 
vt -0.00177037 -14.9571 
vt -0.00171675 -14.9596 
vt -0.00499737 -14.9596 
vt -0.00175375 -14.9837 
vt -0.00496037 -14.9837 
vt -0.00499038 -14.9846 
vt -0.00172375 -14.9846 
vt -0.00500825 -14.987 
vt -0.00170575 -14.987 
vt -0.00172175 -14.9892 
vt -0.00499238 -14.9892 
vt -0.00494625 -14.9925 
vt -0.00176662 -15.0538 
vt -0.00176788 -14.9925 
vt -0.00494738 -15.0538 
vt -0.00167162 -15.0033 
vt -0.00494375 -15.0467 
vt -0.0050425 -15.0033 
vt -0.00177025 -15.0467 
vt -0.0016995 -15.005 
vt -0.001758 -15.0418 
vt -0.00501462 -15.005 
vt -0.00495612 -15.0418 
vt -0.00495875 -15.0052 
vt -0.00498562 -15.0401 
vt -0.00175525 -15.0052 
vt -0.0017285 -15.0401 
vt 0.000320375 -14.9501 
vt 0.00639375 -14.9522 
vt 0.000320375 -14.9522 
vt 0.000320375 -14.9563 
vt 0.00639375 -14.9563 
vt 0.000320375 -15.0432 
vt 0.00639375 -15.0432 
vt 0.000320375 -15.0474 
vt 0.00639375 -15.0432 
vt 0.000320375 -15.0432 
vt 0.00639375 -15.0474 
vt 0.000320375 -15.0495 
vt 0.00639375 -15.0495 
vt 0.000320375 -15.0474 
vt -0.000320375 -14.9501 
vt -0.00639375 -14.9522 
vt -0.000320375 -14.9522 
vt -0.000320375 -14.9563 
vt -0.00639375 -14.9563 
vt 0.000320375 -15.0311 
vt 0.00639375 -15.0311 
vt 0.000320375 -15.0166 
vt 0.00639375 -15.0311 
vt 0.000320375 -15.0311 
vt 0.00639375 -15.0166 
vt 0.000320375 -15.0166 
vt -0.000320375 -15.0166 
vt -0.00639375 -15.0311 
vt -0.00639375 -15.0166 
vt -0.000320375 -15.0166 
vt -0.00639375 -15.0311 
vt -0.000320375 -15.0311 
vt -0.000320375 -15.0432 
vt -0.00639375 -15.0432 
vt -0.000320375 -15.0432 
vt -0.00639375 -15.0432 
vt -0.000320375 -15.0474 
vt -0.00639375 -15.0474 
vt -0.000320375 -15.0495 
vt -0.00639375 -15.0495 
vt 0.00639375 -14.965 
vt 0.00639375 -14.9752 
vt 0.000320375 -14.9752 
vt 0.00639375 -14.965 
vt 0.000320375 -14.965 
vt -0.00639375 -14.965 
vt -0.00639375 -14.965 
vt -0.000320375 -14.965 
vt -0.00639375 -14.9752 
vt -0.000320375 -14.9752 
vt 0.00775444 -14.9951 
vt 0.00117919 -14.9936 
vt -0.00220169 -14.9951 
vt 0.00775444 -15.0049 
vt 0.00560519 -15.0064 
vt -0.00775444 -15.0049 
vt 0.00117919 -15.0064 
vt -0.00560506 -15.0064 
vt -0.00220169 -15.0049 
vt -0.00572419 -14.9982 
vt -0.00572419 -14.995 
vt -0.00381006 -14.995 
vt -0.00380994 -14.9983 
vt 0.00775444 -14.9951 
vt 0.00220169 -14.9982 
vt 0.00220169 -14.9951 
vt -0.00220169 -14.9982 
vt -0.00220169 -14.9951 
vt -0.00775444 -14.9951 
vt -0.00775431 -14.9982 
vt -0.00572419 -15.0018 
vt -0.00572419 -15.005 
vt -0.00381006 -15.005 
vt -0.00380994 -15.0017 
vt 0.00775444 -15.0049 
vt 0.00220169 -15.0018 
vt 0.00220169 -15.0049 
vt -0.00220169 -15.0018 
vt -0.00220169 -15.0049 
vt -0.00775444 -15.0049 
vt -0.00775431 -15.0018 
vt 6.26014e-08 -14.9936 
vt 6.26014e-08 -14.9997 
vt 0.00360631 -14.9936 
vt 0.00360631 -14.9997 
vt -0.00360619 -14.9997 
vt -0.00360619 -14.9936 
vt 0.00360631 -14.9936 
vt 6.26014e-08 -14.9936 
vt 0.00360631 -14.9997 
vt 0.00360631 -14.9936 
vt 6.26014e-08 -14.9997 
vt -0.00360619 -14.9936 
vt -0.00360619 -14.9997 
vt 6.26014e-08 -15.0003 
vt 0.00360631 -15.0064 
vt 0.00360631 -15.0003 
vt 6.26014e-08 -15.0064 
vt 0.00360631 -15.0064 
vt -0.00360619 -15.0003 
vt -0.00360619 -15.0064 
vt -0.00224994 -14.9936 
vt -0.00224994 -14.9997 
vt 6.26014e-08 -14.9936 
vt 6.26014e-08 -14.9997 
vt 0.00225006 -14.9936 
vt 0.00225006 -14.9997 
vt -0.00224994 -15.0064 
vt -0.00224994 -15.0003 
vt 6.26014e-08 -15.0064 
vt 6.26014e-08 -15.0003 
vt 0.00225006 -15.0064 
vt 0.00225006 -15.0003 
vt 6.26014e-08 -15.0003 
vt 6.26014e-08 -15.0064 
vt 0.00360631 -15.0003 
vt -0.00360619 -15.0064 
vt -0.00360619 -15.0003 
vt 0.00360631 -15.0064 
vt -0.00224994 -14.9936 
vt -0.00224994 -14.9997 
vt 6.26014e-08 -14.9936 
vt 6.26014e-08 -14.9997 
vt 0.00225006 -14.9936 
vt 0.00225006 -14.9997 
vt -0.00224994 -15.0064 
vt -0.00224994 -15.0003 
vt 6.26014e-08 -15.0064 
vt 6.26014e-08 -15.0003 
vt 0.00225006 -15.0064 
vt 0.00225006 -15.0003 
vt -0.00536181 -14.9566 
vt -0.00360631 -14.9522 
vt -0.00535619 -14.9516 
vt -6.26014e-08 -14.9485 
vt -0.00360631 -14.9563 
vt -6.26014e-08 -14.9501 
vt 0.00360619 -14.9522 
vt 0.00550206 -14.9517 
vt 0.00550206 -14.9564 
vt 0.00360619 -14.9563 
vt -0.00374719 -14.9589 
vt 0.00374731 -14.9589 
vt -6.26014e-08 -14.9584 
vt -6.26014e-08 -14.9635 
vt -0.00225006 -14.965 
vt 0.00224994 -14.965 
vt -0.00225006 -14.9752 
vt 0.00224994 -14.9752 
vt -0.00374719 -14.9817 
vt 0.00374731 -14.9823 
vt -6.26014e-08 -14.9767 
vt 0.00252356 -14.9827 
vt -0.00249731 -14.9837 
vt -0.000327813 -14.9862 
vt -0.000327813 -14.9898 
vt -0.00174669 -15.0038 
vt 0.00144606 -14.9928 
vt -0.00249731 -15.0061 
vt 0.00132369 -15.0071 
vt -0.00375869 -15.0084 
vt -6.26014e-08 -15.0144 
vt 0.00398481 -15.0071 
vt -0.00225006 -15.0166 
vt 0.00224994 -15.0166 
vt -0.00225006 -15.0311 
vt 0.00224994 -15.0311 
vt -0.00377519 -15.0411 
vt 0.00398481 -15.0413 
vt -6.26014e-08 -15.0333 
vt -6.26014e-08 -15.0412 
vt 0.00360619 -15.0432 
vt 0.00560506 -15.0428 
vt -0.00360631 -15.0432 
vt 0.00560506 -15.046 
vt -0.00560519 -15.0429 
vt 0.00360619 -15.0474 
vt -0.00560519 -15.046 
vt 0.00117906 -15.0517 
vt -0.00360631 -15.0474 
vt -6.26014e-08 -15.0495 
vt -0.00117919 -15.0517 
vt 0.00766219 -14.9571 
vt 0.00550206 -14.9517 
vt 0.00550206 -14.9564 
vt 0.00755169 -14.9507 
vt 0.00588144 -14.9596 
vt -6.26014e-08 -14.9462 
vt 0.00374731 -14.9589 
vt -6.26014e-08 -14.9485 
vt 0.00374731 -14.9823 
vt -0.00535619 -14.9516 
vt 0.00572419 -14.9837 
vt -0.00755144 -14.9507 
vt 0.00381006 -14.9846 
vt -0.00765944 -14.9571 
vt 0.00252356 -14.9827 
vt -0.00536181 -14.9566 
vt 0.00178544 -14.987 
vt -0.00588044 -14.9596 
vt -0.000327813 -14.9862 
vt -0.00374719 -14.9589 
vt -0.000327813 -14.9898 
vt -0.00374719 -14.9817 
vt 0.00182069 -14.9892 
vt -0.00591331 -14.9823 
vt 0.00144606 -14.9928 
vt -0.00463919 -14.9843 
vt 0.00372919 -14.9925 
vt -0.00249731 -14.9837 
vt 0.000478437 -15.0033 
vt -0.00249731 -15.0061 
vt -0.00174669 -15.0038 
vt -0.00463819 -15.0055 
vt 0.00132369 -15.0071 
vt -0.00375869 -15.0084 
vt 0.00215131 -15.005 
vt -0.00590956 -15.0074 
vt 0.00398481 -15.0071 
vt -0.00582631 -15.0401 
vt 0.00557381 -15.0052 
vt -0.00377519 -15.0411 
vt 0.00585419 -15.0401 
vt -0.00560519 -15.0429 
vt 0.00398481 -15.0413 
vt -0.00770894 -15.0418 
vt 0.00560506 -15.0428 
vt -0.00775444 -15.0467 
vt 0.00771119 -15.0418 
vt -0.00560519 -15.046 
vt 0.00775444 -15.0467 
vt -0.00117919 -15.0517 
vt 0.00560506 -15.046 
vt -0.00220169 -15.0538 
vt 0.00117906 -15.0517 
vt 0.00220169 -15.0538 
vt -0.00755144 -14.9507 
vt -0.00775444 -15.0467 
vt -0.00220169 -15.0538 
vt 0.00372919 -14.9925 
vt 0.00220169 -15.0538 
vt 0.00775444 -15.0467 
vt 0.00215131 -15.005 
vt 0.00557381 -15.0052 
vt 0.00360619 -14.9522 
vt -0.00360631 -15.0432 
vt -6.26014e-08 -15.0495 
vt 0.00360619 -15.0474 
vt 0.00360619 -15.0432 
vt 0.00224994 -15.0311 
vt 0.00360619 -15.0432 
vt -0.00360631 -15.0432 
vt -6.26014e-08 -15.0495 
vt 0.00224994 -14.965 
vt -0.00225006 -14.9752 
vt -0.00225006 -14.9752 
vt -0.00225006 -14.965 
vt -6.26014e-08 -14.9485 
vt -0.00360631 -14.9522 
vt -6.26014e-08 -14.9501 
vt 0.00360619 -14.9522 
vt -0.00535619 -14.9516 
vt 0.00550206 -14.9517 
vt -0.00536181 -14.9566 
vt 0.00550206 -14.9564 
vt -0.00360631 -14.9563 
vt 0.00360619 -14.9563 
vt -0.00374719 -14.9589 
vt 0.00374731 -14.9589 
vt -6.26014e-08 -14.9584 
vt -6.26014e-08 -14.9635 
vt -0.00225006 -14.965 
vt 0.00224994 -14.965 
vt -0.00225006 -14.9752 
vt 0.00224994 -14.9752 
vt -0.00374719 -14.9817 
vt 0.00374731 -14.9823 
vt -6.26014e-08 -14.9767 
vt 0.00252356 -14.9827 
vt -0.00249731 -14.9837 
vt -0.000327813 -14.9862 
vt -0.000327813 -14.9898 
vt -0.00174669 -15.0038 
vt 0.00144606 -14.9928 
vt -0.00249731 -15.0061 
vt 0.00132369 -15.0071 
vt -0.00375869 -15.0084 
vt -6.26014e-08 -15.0144 
vt 0.00398481 -15.0071 
vt -0.00225006 -15.0166 
vt 0.00224994 -15.0166 
vt -0.00225006 -15.0311 
vt 0.00224994 -15.0311 
vt -0.00377519 -15.0411 
vt 0.00398481 -15.0413 
vt -6.26014e-08 -15.0333 
vt -6.26014e-08 -15.0412 
vt -0.00360631 -15.0432 
vt 0.00360619 -15.0432 
vt -0.00560519 -15.0429 
vt 0.00560506 -15.0428 
vt -0.00560519 -15.046 
vt 0.00560506 -15.046 
vt -0.00360631 -15.0474 
vt 0.00360619 -15.0474 
vt -0.00117919 -15.0517 
vt 0.00117906 -15.0517 
vt -6.26014e-08 -15.0495 
vt -0.00765944 -14.9571 
vt -0.00535619 -14.9516 
vt -0.00755144 -14.9507 
vt -6.26014e-08 -14.9462 
vt -0.00536181 -14.9566 
vt -6.26014e-08 -14.9485 
vt -0.00588044 -14.9596 
vt 0.00550206 -14.9517 
vt -0.00374719 -14.9589 
vt 0.00755169 -14.9507 
vt -0.00374719 -14.9817 
vt 0.00766219 -14.9571 
vt -0.00591331 -14.9823 
vt 0.00550206 -14.9564 
vt -0.00463919 -14.9843 
vt 0.00588144 -14.9596 
vt -0.00249731 -14.9837 
vt 0.00374731 -14.9589 
vt -0.00249731 -15.0061 
vt 0.00374731 -14.9823 
vt -0.00463819 -15.0055 
vt 0.00572419 -14.9837 
vt -0.00375869 -15.0084 
vt 0.00380994 -14.9846 
vt -0.00590956 -15.0074 
vt 0.00252356 -14.9827 
vt -0.00582631 -15.0401 
vt 0.00178544 -14.987 
vt -0.00377519 -15.0411 
vt -0.000327813 -14.9862 
vt -0.00560519 -15.0429 
vt -0.000327813 -14.9898 
vt -0.00770906 -15.0418 
vt 0.00182056 -14.9892 
vt -0.00775444 -15.0467 
vt 0.00144606 -14.9928 
vt -0.00560519 -15.046 
vt 0.00372919 -14.9925 
vt -0.00117919 -15.0517 
vt 0.000478437 -15.0033 
vt -0.00220169 -15.0538 
vt -0.00174669 -15.0038 
vt 0.00117906 -15.0517 
vt 0.00132369 -15.0071 
vt 0.00220169 -15.0538 
vt 0.00215131 -15.005 
vt 0.00775431 -15.0467 
vt 0.00398481 -15.0071 
vt 0.00560506 -15.046 
vt 0.00557381 -15.0052 
vt 0.00560506 -15.0428 
vt 0.00585419 -15.0401 
vt 0.00771119 -15.0418 
vt 0.00398481 -15.0413 

usemtl Default1Mtl

f 1/1/1 2/2/2 3/3/3 
f 3/3/3 4/4/4 1/1/1 
f 5/5/5 3/3/3 2/2/2 
f 4/4/4 3/3/3 6/6/6 
f 6/6/6 7/7/7 4/4/4 
f 6/6/6 8/8/8 7/7/7 
f 9/9/9 7/7/7 8/8/8 
f 7/7/7 9/9/9 10/10/10 
f 9/9/9 11/11/11 10/10/10 
f 9/9/9 12/12/12 11/11/11 
f 12/12/12 13/13/13 11/11/11 
f 12/12/12 14/14/14 13/13/13 
f 14/14/14 15/15/15 13/13/13 
f 14/14/14 16/16/16 15/15/15 
f 19/19/19 18/18/18 17/17/17 
f 18/18/18 19/19/19 20/20/20 
f 19/19/19 21/21/21 20/20/20 
f 21/21/21 19/19/19 22/22/22 
f 23/23/23 24/24/24 25/25/25 
f 26/26/26 25/25/25 24/24/24 
f 23/23/23 25/25/25 27/27/27 
f 25/25/25 26/26/26 28/28/28 
f 26/26/26 29/29/29 28/28/28 
f 30/30/30 28/28/28 29/29/29 
f 29/29/29 31/31/31 30/30/30 
f 31/31/31 29/29/29 32/32/32 
f 32/32/32 33/33/33 31/31/31 
f 34/34/34 31/31/31 33/33/33 
f 33/33/33 35/35/35 34/34/34 
f 35/35/35 36/36/36 34/34/34 
f 35/35/35 37/37/37 36/36/36 
f 38/38/38 36/36/36 37/37/37 
f 40/40/40 41/41/41 39/39/39 
f 41/41/41 40/40/40 42/42/42 
f 43/43/43 41/41/41 42/42/42 
f 41/41/41 43/43/43 44/44/44 
f 47/47/47 48/48/48 46/46/46 
f 49/49/49 48/48/48 47/47/47 
f 54/54/54 53/53/53 52/52/52 
f 53/53/53 54/54/54 55/55/55 
f 58/58/58 57/57/57 56/56/56 
f 57/57/57 58/58/58 59/59/59 
f 60/60/60 61/61/61 62/62/62 
f 61/61/61 60/60/60 63/63/63 
f 66/66/66 67/67/67 68/68/68 
f 67/67/67 66/66/66 69/69/69 
f 73/73/73 74/74/74 75/75/75 
f 75/75/75 74/74/74 76/76/76 
f 77/77/77 78/78/78 79/79/79 
f 79/79/79 78/78/78 80/80/80 
f 81/81/81 82/82/82 83/83/83 
f 82/82/82 81/81/81 84/84/84 
f 95/95/95 94/94/94 93/93/93 
f 94/94/94 95/95/95 96/96/96 
f 97/97/97 96/96/96 95/95/95 
f 96/96/96 97/97/97 98/98/98 
f 101/101/101 99/99/99 100/100/100 
f 99/99/99 101/101/101 102/102/102 
f 103/103/103 107/107/107 105/105/105 
f 106/106/106 108/108/108 104/104/104 
f 107/107/107 103/103/103 109/109/109 
f 108/108/108 110/110/110 104/104/104 
f 112/112/112 113/113/113 111/111/111 
f 113/113/113 112/112/112 114/114/114 
f 114/114/114 115/115/115 113/113/113 
f 115/115/115 114/114/114 116/116/116 
f 117/117/117 119/119/119 118/118/118 
f 119/119/119 117/117/117 120/120/120 
f 125/125/125 121/121/121 123/123/123 
f 122/122/122 126/126/126 124/124/124 
f 121/121/121 125/125/125 127/127/127 
f 128/128/128 126/126/126 122/122/122 
f 134/134/134 132/132/132 130/130/130 
f 132/132/132 134/134/134 136/136/136 
f 136/136/136 133/133/133 135/135/135 
f 133/133/133 136/136/136 134/134/134 
f 140/140/140 139/139/139 138/138/138 
f 139/139/139 140/140/140 141/141/141 
f 142/142/142 141/141/141 140/140/140 
f 141/141/141 142/142/142 143/143/143 
f 147/147/147 149/149/149 146/146/146 
f 149/149/149 147/147/147 151/151/151 
f 151/151/151 152/152/152 149/149/149 
f 152/152/152 151/151/151 153/153/153 
f 156/156/156 154/154/154 155/155/155 
f 154/154/154 156/156/156 157/157/157 
f 158/158/158 157/157/157 156/156/156 
f 157/157/157 158/158/158 159/159/159 
f 160/160/160 162/162/162 161/161/161 
f 163/163/163 162/162/162 160/160/160 
f 163/163/163 164/164/164 162/162/162 
f 165/165/165 164/164/164 163/163/163 
f 168/168/168 169/169/169 167/167/167 
f 169/169/169 168/168/168 170/170/170 
f 170/170/170 171/171/171 169/169/169 
f 171/171/171 170/170/170 172/172/172 
f 177/177/177 176/176/176 175/175/175 
f 176/176/176 177/177/177 178/178/178 
f 179/179/179 178/178/178 177/177/177 
f 178/178/178 179/179/179 180/180/180 
f 181/181/181 183/183/183 182/182/182 
f 184/184/184 183/183/183 181/181/181 
f 184/184/184 185/185/185 183/183/183 
f 186/186/186 185/185/185 184/184/184 
f 187/187/187 188/188/188 189/189/189 
f 189/189/189 190/190/190 187/187/187 
f 188/188/188 187/187/187 191/191/191 
f 187/187/187 190/190/190 192/192/192 
f 190/190/190 193/193/193 192/192/192 
f 193/193/193 190/190/190 194/194/194 
f 195/195/195 193/193/193 194/194/194 
f 193/193/193 195/195/195 196/196/196 
f 197/197/197 188/188/188 191/191/191 
f 196/196/196 195/195/195 198/198/198 
f 199/199/199 197/197/197 191/191/191 
f 196/196/196 198/198/198 199/199/199 
f 200/200/200 197/197/197 199/199/199 
f 200/200/200 199/199/199 198/198/198 
f 197/197/197 200/200/200 201/201/201 
f 200/200/200 198/198/198 202/202/202 
f 203/203/203 197/197/197 201/201/201 
f 198/198/198 204/204/204 202/202/202 
f 197/197/197 203/203/203 205/205/205 
f 204/204/204 198/198/198 206/206/206 
f 206/206/206 207/207/207 204/204/204 
f 207/207/207 205/205/205 203/203/203 
f 208/208/208 207/207/207 206/206/206 
f 208/208/208 205/205/205 207/207/207 
f 205/205/205 208/208/208 209/209/209 
f 209/209/209 208/208/208 210/210/210 
f 211/211/211 209/209/209 210/210/210 
f 212/212/212 209/209/209 211/211/211 
f 211/211/211 213/213/213 212/212/212 
f 209/209/209 212/212/212 214/214/214 
f 212/212/212 215/215/215 214/214/214 
f 215/215/215 216/216/216 214/214/214 
f 216/216/216 215/215/215 217/217/217 
f 218/218/218 217/217/217 215/215/215 
f 216/216/216 217/217/217 219/219/219 
f 217/217/217 218/218/218 220/220/220 
f 221/221/221 216/216/216 219/219/219 
f 218/218/218 222/222/222 220/220/220 
f 216/216/216 221/221/221 223/223/223 
f 218/218/218 224/224/224 222/222/222 
f 224/224/224 225/225/225 222/222/222 
f 226/226/226 221/221/221 225/225/225 
f 226/226/226 225/225/225 224/224/224 
f 221/221/221 226/226/226 223/223/223 
f 227/227/227 226/226/226 224/224/224 
f 223/223/223 226/226/226 228/228/228 
f 227/227/227 224/224/224 229/229/229 
f 228/228/228 230/230/230 223/223/223 
f 231/231/231 227/227/227 229/229/229 
f 228/228/228 232/232/232 230/230/230 
f 233/233/233 227/227/227 231/231/231 
f 232/232/232 228/228/228 234/234/234 
f 231/231/231 235/235/235 233/233/233 
f 236/236/236 232/232/232 234/234/234 
f 235/235/235 237/237/237 233/233/233 
f 237/237/237 236/236/236 234/234/234 
f 236/236/236 237/237/237 235/235/235 
f 238/238/238 239/239/239 240/240/240 
f 239/239/239 238/238/238 241/241/241 
f 242/242/242 240/240/240 239/239/239 
f 243/243/243 241/241/241 238/238/238 
f 240/240/240 242/242/242 244/244/244 
f 243/243/243 238/238/238 245/245/245 
f 246/246/246 244/244/244 242/242/242 
f 247/247/247 243/243/243 245/245/245 
f 242/242/242 248/248/248 246/246/246 
f 243/243/243 247/247/247 249/249/249 
f 250/250/250 246/246/246 248/248/248 
f 247/247/247 251/251/251 249/249/249 
f 246/246/246 250/250/250 252/252/252 
f 251/251/251 247/247/247 253/253/253 
f 254/254/254 252/252/252 250/250/250 
f 251/251/251 253/253/253 255/255/255 
f 252/252/252 254/254/254 256/256/256 
f 255/255/255 253/253/253 257/257/257 
f 254/254/254 258/258/258 256/256/256 
f 259/259/259 255/255/255 257/257/257 
f 258/258/258 254/254/254 260/260/260 
f 255/255/255 259/259/259 261/261/261 
f 258/258/258 260/260/260 262/262/262 
f 263/263/263 261/261/261 259/259/259 
f 262/262/262 260/260/260 264/264/264 
f 259/259/259 265/265/265 263/263/263 
f 266/266/266 262/262/262 264/264/264 
f 267/267/267 263/263/263 265/265/265 
f 262/262/262 266/266/266 268/268/268 
f 263/263/263 267/267/267 269/269/269 
f 270/270/270 268/268/268 266/266/266 
f 271/271/271 269/269/269 267/267/267 
f 270/270/270 266/266/266 272/272/272 
f 269/269/269 271/271/271 273/273/273 
f 274/274/274 270/270/270 272/272/272 
f 271/271/271 275/275/275 273/273/273 
f 272/272/272 276/276/276 274/274/274 
f 271/271/271 277/277/277 275/275/275 
f 278/278/278 274/274/274 276/276/276 
f 279/279/279 275/275/275 277/277/277 
f 274/274/274 278/278/278 280/280/280 
f 275/275/275 279/279/279 281/281/281 
f 282/282/282 280/280/280 278/278/278 
f 283/283/283 281/281/281 279/279/279 
f 282/282/282 278/278/278 284/284/284 
f 279/279/279 285/285/285 283/283/283 
f 286/286/286 282/282/282 284/284/284 
f 287/287/287 283/283/283 285/285/285 
f 282/282/282 286/286/286 288/288/288 
f 283/283/283 287/287/287 289/289/289 
f 286/286/286 290/290/290 288/288/288 
f 290/290/290 289/289/289 287/287/287 
f 290/290/290 286/286/286 291/291/291 
f 289/289/289 290/290/290 291/291/291 
f 313/313/313 314/314/314 315/315/315 
f 314/314/314 316/316/316 315/315/315 
f 314/314/314 313/313/313 317/317/317 
f 314/314/314 318/318/318 316/316/316 
f 313/313/313 319/319/319 317/317/317 
f 320/320/320 316/316/316 318/318/318 
f 319/319/319 313/313/313 321/321/321 
f 316/316/316 320/320/320 322/322/322 
f 321/321/321 323/323/323 319/319/319 
f 322/322/322 320/320/320 324/324/324 
f 323/323/323 321/321/321 325/325/325 
f 324/324/324 325/325/325 322/322/322 
f 326/326/326 323/323/323 325/325/325 
f 324/324/324 326/326/326 325/325/325 
f 323/323/323 326/326/326 327/327/327 
f 326/326/326 324/324/324 328/328/328 
f 329/329/329 323/323/323 327/327/327 
f 324/324/324 330/330/330 328/328/328 
f 323/323/323 329/329/329 331/331/331 
f 330/330/330 324/324/324 332/332/332 
f 332/332/332 333/333/333 330/330/330 
f 333/333/333 331/331/331 329/329/329 
f 333/333/333 332/332/332 334/334/334 
f 334/334/334 331/331/331 333/333/333 
f 331/331/331 334/334/334 335/335/335 
f 335/335/335 334/334/334 336/336/336 
f 335/335/335 336/336/336 337/337/337 
f 338/338/338 335/335/335 337/337/337 
f 339/339/339 338/338/338 337/337/337 
f 335/335/335 338/338/338 340/340/340 
f 338/338/338 341/341/341 340/340/340 
f 341/341/341 342/342/342 340/340/340 
f 342/342/342 341/341/341 343/343/343 
f 344/344/344 343/343/343 341/341/341 
f 342/342/342 343/343/343 345/345/345 
f 343/343/343 344/344/344 346/346/346 
f 347/347/347 342/342/342 345/345/345 
f 344/344/344 348/348/348 346/346/346 
f 342/342/342 347/347/347 349/349/349 
f 348/348/348 344/344/344 350/350/350 
f 351/351/351 349/349/349 347/347/347 
f 350/350/350 351/351/351 348/348/348 
f 352/352/352 349/349/349 351/351/351 
f 351/351/351 350/350/350 352/352/352 
f 349/349/349 352/352/352 353/353/353 
f 354/354/354 352/352/352 350/350/350 
f 349/349/349 353/353/353 355/355/355 
f 356/356/356 354/354/354 350/350/350 
f 355/355/355 353/353/353 357/357/357 
f 358/358/358 354/354/354 356/356/356 
f 353/353/353 359/359/359 357/357/357 
f 354/354/354 358/358/358 360/360/360 
f 361/361/361 357/357/357 359/359/359 
f 358/358/358 362/362/362 360/360/360 
f 363/363/363 361/361/361 359/359/359 
f 361/361/361 363/363/363 362/362/362 
f 360/360/360 362/362/362 363/363/363 
f 367/367/367 368/368/368 369/369/369 
f 369/369/369 370/370/370 367/367/367 
f 368/368/368 367/367/367 371/371/371 
f 367/367/367 370/370/370 372/372/372 
f 371/371/371 373/373/373 368/368/368 
f 370/370/370 374/374/374 372/372/372 
f 373/373/373 371/371/371 375/375/375 
f 374/374/374 370/370/370 376/376/376 
f 375/375/375 377/377/377 373/373/373 
f 376/376/376 378/378/378 374/374/374 
f 373/373/373 377/377/377 379/379/379 
f 374/374/374 378/378/378 380/380/380 
f 377/377/377 381/381/381 379/379/379 
f 378/378/378 382/382/382 380/380/380 
f 381/381/381 377/377/377 383/383/383 
f 382/382/382 384/384/384 380/380/380 
f 383/383/383 385/385/385 381/381/381 
f 382/382/382 386/386/386 384/384/384 
f 381/381/381 385/385/385 387/387/387 
f 386/386/386 382/382/382 388/388/388 
f 385/385/385 389/389/389 387/387/387 
f 390/390/390 386/386/386 388/388/388 
f 389/389/389 391/391/391 387/387/387 
f 390/390/390 392/392/392 386/386/386 
f 389/389/389 393/393/393 391/391/391 
f 394/394/394 392/392/392 390/390/390 
f 393/393/393 389/389/389 395/395/395 
f 392/392/392 394/394/394 396/396/396 
f 397/397/397 393/393/393 395/395/395 
f 394/394/394 398/398/398 396/396/396 
f 393/393/393 397/397/397 399/399/399 
f 398/398/398 394/394/394 400/400/400 
f 397/397/397 401/401/401 399/399/399 
f 400/400/400 402/402/402 398/398/398 
f 401/401/401 397/397/397 403/403/403 
f 402/402/402 400/400/400 404/404/404 
f 403/403/403 405/405/405 401/401/401 
f 404/404/404 406/406/406 402/402/402 
f 407/407/407 401/401/401 405/405/405 
f 402/402/402 406/406/406 408/408/408 
f 409/409/409 407/407/407 405/405/405 
f 406/406/406 410/410/410 408/408/408 
f 409/409/409 411/411/411 407/407/407 
f 410/410/410 406/406/406 412/412/412 
f 409/409/409 413/413/413 411/411/411 
f 412/412/412 414/414/414 410/410/410 
f 413/413/413 409/409/409 415/415/415 
f 414/414/414 412/412/412 416/416/416 
f 417/417/417 413/413/413 415/415/415 
f 416/416/416 418/418/418 414/414/414 
f 419/419/419 413/413/413 417/417/417 
f 417/417/417 418/418/418 419/419/419 
f 418/418/418 417/417/417 420/420/420 
f 414/414/414 418/418/418 420/420/420 
f 427/427/427 429/429/429 428/428/428 
f 429/429/429 427/427/427 430/430/430 
f 431/431/431 429/429/429 430/430/430 
f 429/429/429 431/431/431 432/432/432 
f 433/433/433 432/432/432 431/431/431 
f 432/432/432 433/433/433 434/434/434 
f 436/436/436 437/437/437 435/435/435 
f 437/437/437 436/436/436 438/438/438 
f 437/437/437 438/438/438 439/439/439 
f 440/440/440 437/437/437 439/439/439 
f 439/439/439 441/441/441 440/440/440 
f 441/441/441 439/439/439 443/443/443 
f 443/443/443 445/445/445 441/441/441 
f 444/444/444 446/446/446 442/442/442 
f 447/447/447 441/441/441 445/445/445 
f 448/448/448 442/442/442 446/446/446 
f 449/449/449 447/447/447 445/445/445 
f 446/446/446 450/450/450 448/448/448 
f 447/447/447 449/449/449 451/451/451 
f 450/450/450 446/446/446 452/452/452 
f 456/456/456 453/453/453 455/455/455 
f 453/453/453 456/456/456 454/454/454 
f 459/459/459 457/457/457 458/458/458 
f 457/457/457 459/459/459 460/460/460 
f 459/459/459 461/461/461 460/460/460 
f 461/461/461 459/459/459 462/462/462 
f 462/462/462 463/463/463 461/461/461 
f 463/463/463 462/462/462 464/464/464 
f 467/467/467 466/466/466 465/465/465 
f 466/466/466 467/467/467 468/468/468 
f 469/469/469 468/468/468 467/467/467 
f 469/469/469 467/467/467 470/470/470 
f 471/471/471 469/469/469 470/470/470 
f 469/469/469 471/471/471 473/473/473 
f 475/475/475 473/473/473 471/471/471 
f 472/472/472 476/476/476 474/474/474 
f 475/475/475 471/471/471 477/477/477 
f 472/472/472 478/478/478 476/476/476 
f 475/475/475 477/477/477 479/479/479 
f 480/480/480 476/476/476 478/478/478 
f 479/479/479 477/477/477 481/481/481 
f 476/476/476 480/480/480 482/482/482 
f 486/486/486 483/483/483 484/484/484 
f 483/483/483 486/486/486 485/485/485 
f 488/488/488 489/489/489 490/490/490 
f 491/491/491 488/488/488 490/490/490 
f 493/493/493 492/492/492 494/494/494 
f 497/497/497 493/493/493 494/494/494 
f 504/504/504 503/503/503 502/502/502 
f 504/504/504 502/502/502 505/505/505 
f 511/511/511 510/510/510 509/509/509 
f 510/510/510 511/511/511 512/512/512 
f 518/518/518 516/516/516 515/515/515 
f 518/518/518 515/515/515 517/517/517 
f 523/523/523 519/519/519 522/522/522 
f 523/523/523 522/522/522 524/524/524 
f 530/530/530 529/529/529 528/528/528 
f 529/529/529 530/530/530 531/531/531 
f 533/533/533 536/536/536 534/534/534 
f 536/536/536 533/533/533 535/535/535 
f 548/548/548 547/547/547 546/546/546 
f 548/548/548 546/546/546 549/549/549 
f 552/552/552 553/553/553 551/551/551 
f 552/552/552 554/554/554 553/553/553 
f 557/557/557 558/558/558 559/559/559 
f 560/560/560 557/557/557 559/559/559 
f 562/562/562 564/564/564 563/563/563 
f 564/564/564 565/565/565 563/563/563 
f 568/568/568 569/569/569 570/570/570 
f 570/570/570 569/569/569 571/571/571 
f 568/568/568 572/572/572 569/569/569 
f 573/573/573 572/572/572 568/568/568 
f 575/575/575 576/576/576 577/577/577 
f 576/576/576 575/575/575 578/578/578 
f 575/575/575 579/579/579 578/578/578 
f 579/579/579 580/580/580 578/578/578 
f 581/581/581 582/582/582 583/583/583 
f 582/582/582 581/581/581 584/584/584 
f 586/586/586 584/584/584 581/581/581 
f 584/584/584 586/586/586 587/587/587 
f 588/588/588 589/589/589 590/590/590 
f 590/590/590 589/589/589 591/591/591 
f 590/590/590 591/591/591 592/592/592 
f 592/592/592 591/591/591 593/593/593 
f 596/596/596 595/595/595 594/594/594 
f 595/595/595 596/596/596 597/597/597 
f 598/598/598 597/597/597 596/596/596 
f 597/597/597 598/598/598 599/599/599 
f 600/600/600 601/601/601 602/602/602 
f 600/600/600 603/603/603 601/601/601 
f 600/600/600 604/604/604 603/603/603 
f 602/602/602 601/601/601 605/605/605 
f 606/606/606 607/607/607 608/608/608 
f 608/608/608 607/607/607 609/609/609 
f 608/608/608 609/609/609 610/610/610 
f 610/610/610 609/609/609 611/611/611 
f 614/614/614 613/613/613 612/612/612 
f 613/613/613 614/614/614 615/615/615 
f 616/616/616 615/615/615 614/614/614 
f 615/615/615 616/616/616 617/617/617 
f 618/618/618 619/619/619 620/620/620 
f 621/621/621 620/620/620 619/619/619 
f 619/619/619 618/618/618 622/622/622 
f 621/621/621 619/619/619 623/623/623 
f 624/624/624 621/621/621 623/623/623 
f 621/621/621 624/624/624 625/625/625 
f 624/624/624 626/626/626 625/625/625 
f 626/626/626 624/624/624 627/627/627 
f 628/628/628 622/622/622 618/618/618 
f 626/626/626 627/627/627 629/629/629 
f 622/622/622 628/628/628 630/630/630 
f 630/630/630 629/629/629 627/627/627 
f 628/628/628 631/631/631 630/630/630 
f 631/631/631 629/629/629 630/630/630 
f 631/631/631 628/628/628 632/632/632 
f 629/629/629 631/631/631 633/633/633 
f 628/628/628 634/634/634 632/632/632 
f 635/635/635 629/629/629 633/633/633 
f 628/628/628 636/636/636 634/634/634 
f 629/629/629 635/635/635 637/637/637 
f 638/638/638 637/637/637 635/635/635 
f 636/636/636 638/638/638 634/634/634 
f 637/637/637 638/638/638 639/639/639 
f 636/636/636 639/639/639 638/638/638 
f 639/639/639 636/636/636 640/640/640 
f 639/639/639 640/640/640 641/641/641 
f 642/642/642 641/641/641 640/640/640 
f 640/640/640 643/643/643 642/642/642 
f 643/643/643 644/644/644 642/642/642 
f 643/643/643 640/640/640 645/645/645 
f 645/645/645 646/646/646 643/643/643 
f 645/645/645 647/647/647 646/646/646 
f 648/648/648 646/646/646 647/647/647 
f 646/646/646 648/648/648 649/649/649 
f 648/648/648 647/647/647 650/650/650 
f 648/648/648 651/651/651 649/649/649 
f 647/647/647 652/652/652 650/650/650 
f 653/653/653 649/649/649 651/651/651 
f 652/652/652 647/647/647 654/654/654 
f 655/655/655 649/649/649 653/653/653 
f 656/656/656 655/655/655 653/653/653 
f 652/652/652 657/657/657 656/656/656 
f 655/655/655 656/656/656 657/657/657 
f 657/657/657 652/652/652 654/654/654 
f 657/657/657 658/658/658 655/655/655 
f 655/655/655 658/658/658 659/659/659 
f 657/657/657 654/654/654 660/660/660 
f 658/658/658 661/661/661 659/659/659 
f 654/654/654 662/662/662 660/660/660 
f 658/658/658 663/663/663 661/661/661 
f 664/664/664 660/660/660 662/662/662 
f 665/665/665 661/661/661 663/663/663 
f 660/660/660 664/664/664 666/666/666 
f 667/667/667 665/665/665 663/663/663 
f 664/664/664 668/668/668 666/666/666 
f 665/665/665 667/667/667 668/668/668 
f 667/667/667 666/666/666 668/668/668 
f 669/669/669 670/670/670 671/671/671 
f 670/670/670 669/669/669 672/672/672 
f 671/671/671 673/673/673 669/669/669 
f 674/674/674 670/670/670 672/672/672 
f 673/673/673 671/671/671 675/675/675 
f 676/676/676 670/670/670 674/674/674 
f 677/677/677 673/673/673 675/675/675 
f 674/674/674 678/678/678 676/676/676 
f 679/679/679 673/673/673 677/677/677 
f 678/678/678 674/674/674 680/680/680 
f 677/677/677 681/681/681 679/679/679 
f 680/680/680 682/682/682 678/678/678 
f 681/681/681 677/677/677 683/683/683 
f 678/678/678 682/682/682 684/684/684 
f 683/683/683 685/685/685 681/681/681 
f 686/686/686 684/684/684 682/682/682 
f 685/685/685 683/683/683 687/687/687 
f 684/684/684 686/686/686 688/688/688 
f 689/689/689 685/685/685 687/687/687 
f 686/686/686 690/690/690 688/688/688 
f 685/685/685 689/689/689 691/691/691 
f 690/690/690 686/686/686 692/692/692 
f 693/693/693 691/691/691 689/689/689 
f 690/690/690 692/692/692 694/694/694 
f 691/691/691 693/693/693 695/695/695 
f 696/696/696 690/690/690 694/694/694 
f 693/693/693 697/697/697 695/695/695 
f 694/694/694 698/698/698 696/696/696 
f 697/697/697 693/693/693 699/699/699 
f 698/698/698 694/694/694 700/700/700 
f 701/701/701 697/697/697 699/699/699 
f 700/700/700 702/702/702 698/698/698 
f 697/697/697 701/701/701 703/703/703 
f 702/702/702 700/700/700 704/704/704 
f 701/701/701 705/705/705 703/703/703 
f 704/704/704 706/706/706 702/702/702 
f 705/705/705 707/707/707 703/703/703 
f 708/708/708 702/702/702 706/706/706 
f 705/705/705 709/709/709 707/707/707 
f 706/706/706 710/710/710 708/708/708 
f 709/709/709 705/705/705 711/711/711 
f 710/710/710 706/706/706 712/712/712 
f 709/709/709 711/711/711 713/713/713 
f 714/714/714 710/710/710 712/712/712 
f 715/715/715 709/709/709 713/713/713 
f 714/714/714 716/716/716 710/710/710 
f 713/713/713 717/717/717 715/715/715 
f 714/714/714 718/718/718 716/716/716 
f 717/717/717 713/713/713 719/719/719 
f 718/718/718 714/714/714 720/720/720 
f 721/721/721 717/717/717 719/719/719 
f 720/720/720 721/721/721 718/718/718 
f 717/717/717 721/721/721 722/722/722 
f 721/721/721 720/720/720 722/722/722 
f 744/744/744 745/745/745 746/746/746 
f 747/747/747 744/744/744 746/746/746 
f 745/745/745 744/744/744 748/748/748 
f 744/744/744 747/747/747 749/749/749 
f 750/750/750 745/745/745 748/748/748 
f 747/747/747 751/751/751 749/749/749 
f 745/745/745 750/750/750 752/752/752 
f 753/753/753 751/751/751 747/747/747 
f 752/752/752 750/750/750 754/754/754 
f 751/751/751 753/753/753 755/755/755 
f 754/754/754 756/756/756 752/752/752 
f 755/755/755 753/753/753 756/756/756 
f 756/756/756 754/754/754 757/757/757 
f 756/756/756 757/757/757 755/755/755 
f 757/757/757 754/754/754 758/758/758 
f 755/755/755 757/757/757 759/759/759 
f 754/754/754 760/760/760 758/758/758 
f 761/761/761 755/755/755 759/759/759 
f 760/760/760 754/754/754 762/762/762 
f 755/755/755 761/761/761 763/763/763 
f 764/764/764 763/763/763 761/761/761 
f 762/762/762 764/764/764 760/760/760 
f 763/763/763 764/764/764 765/765/765 
f 765/765/765 764/764/764 762/762/762 
f 765/765/765 762/762/762 766/766/766 
f 765/765/765 766/766/766 767/767/767 
f 766/766/766 768/768/768 767/767/767 
f 766/766/766 769/769/769 768/768/768 
f 769/769/769 770/770/770 768/768/768 
f 769/769/769 766/766/766 771/771/771 
f 771/771/771 772/772/772 769/769/769 
f 773/773/773 772/772/772 771/771/771 
f 772/772/772 773/773/773 774/774/774 
f 774/774/774 775/775/775 772/772/772 
f 774/774/774 773/773/773 776/776/776 
f 775/775/775 774/774/774 777/777/777 
f 778/778/778 776/776/776 773/773/773 
f 779/779/779 775/775/775 777/777/777 
f 773/773/773 780/780/780 778/778/778 
f 775/775/775 779/779/779 781/781/781 
f 780/780/780 782/782/782 778/778/778 
f 782/782/782 781/781/781 779/779/779 
f 782/782/782 780/780/780 783/783/783 
f 781/781/781 782/782/782 783/783/783 
f 783/783/783 780/780/780 784/784/784 
f 781/781/781 783/783/783 785/785/785 
f 780/780/780 786/786/786 784/784/784 
f 785/785/785 787/787/787 781/781/781 
f 788/788/788 784/784/784 786/786/786 
f 785/785/785 789/789/789 787/787/787 
f 790/790/790 784/784/784 788/788/788 
f 789/789/789 785/785/785 791/791/791 
f 788/788/788 792/792/792 790/790/790 
f 793/793/793 789/789/789 791/791/791 
f 792/792/792 794/794/794 790/790/790 
f 794/794/794 793/793/793 791/791/791 
f 793/793/793 794/794/794 792/792/792 
f 795/795/795 796/796/796 797/797/797 
f 798/798/798 797/797/797 796/796/796 
f 796/796/796 795/795/795 799/799/799 
f 798/798/798 796/796/796 800/800/800 
f 801/801/801 799/799/799 795/795/795 
f 802/802/802 798/798/798 800/800/800 
f 799/799/799 801/801/801 803/803/803 
f 798/798/798 802/802/802 804/804/804 
f 805/805/805 803/803/803 801/801/801 
f 806/806/806 804/804/804 802/802/802 
f 805/805/805 801/801/801 807/807/807 
f 802/802/802 808/808/808 806/806/806 
f 809/809/809 805/805/805 807/807/807 
f 810/810/810 806/806/806 808/808/808 
f 805/805/805 809/809/809 811/811/811 
f 808/808/808 812/812/812 810/810/810 
f 809/809/809 813/813/813 811/811/811 
f 814/814/814 810/810/810 812/812/812 
f 813/813/813 809/809/809 815/815/815 
f 810/810/810 814/814/814 816/816/816 
f 817/817/817 813/813/813 815/815/815 
f 816/816/816 814/814/814 818/818/818 
f 815/815/815 819/819/819 817/817/817 
f 814/814/814 820/820/820 818/818/818 
f 821/821/821 817/817/817 819/819/819 
f 820/820/820 822/822/822 818/818/818 
f 817/817/817 821/821/821 823/823/823 
f 820/820/820 824/824/824 822/822/822 
f 821/821/821 825/825/825 823/823/823 
f 826/826/826 822/822/822 824/824/824 
f 827/827/827 825/825/825 821/821/821 
f 822/822/822 826/826/826 828/828/828 
f 829/829/829 825/825/825 827/827/827 
f 830/830/830 828/828/828 826/826/826 
f 825/825/825 829/829/829 831/831/831 
f 828/828/828 830/830/830 832/832/832 
f 833/833/833 831/831/831 829/829/829 
f 830/830/830 834/834/834 832/832/832 
f 829/829/829 835/835/835 833/833/833 
f 834/834/834 830/830/830 836/836/836 
f 835/835/835 837/837/837 833/833/833 
f 838/838/838 834/834/834 836/836/836 
f 835/835/835 839/839/839 837/837/837 
f 834/834/834 838/838/838 840/840/840 
f 841/841/841 837/837/837 839/839/839 
f 842/842/842 840/840/840 838/838/838 
f 837/837/837 841/841/841 843/843/843 
f 840/840/840 842/842/842 844/844/844 
f 841/841/841 845/845/845 843/843/843 
f 846/846/846 844/844/844 842/842/842 
f 841/841/841 847/847/847 845/845/845 
f 846/846/846 845/845/845 847/847/847 
f 845/845/845 846/846/846 848/848/848 
f 842/842/842 848/848/848 846/846/846 

