# Converted from Roblox mesh format
# Vertices: 166, Faces: 136

v 0.032067 0.380552 0.014306 1.000000 1.000000 1.000000
v 0.031758 0.329871 0.014356 1.000000 1.000000 1.000000
v 0.051244 0.340964 0.000000 1.000000 1.000000 1.000000
v 0.093744 0.329871 0.014264 1.000000 1.000000 1.000000
v 0.109479 0.340964 0.000000 1.000000 1.000000 1.000000
v 0.053072 0.387296 0.000000 1.000000 1.000000 1.000000
v -0.007305 0.431516 0.014341 1.000000 1.000000 1.000000
v -0.007305 0.461883 0.000000 1.000000 1.000000 1.000000
v 0.053072 0.387296 0.000000 1.000000 1.000000 1.000000
v -0.007305 0.431516 -0.014341 1.000000 1.000000 1.000000
v -0.007305 0.461883 0.000000 1.000000 1.000000 1.000000
v 0.032067 0.380552 -0.014306 1.000000 1.000000 1.000000
v 0.051244 0.340964 0.000000 1.000000 1.000000 1.000000
v 0.031758 0.329871 -0.014356 1.000000 1.000000 1.000000
v 0.093744 0.329871 -0.014264 1.000000 1.000000 1.000000
v 0.109479 0.340964 0.000000 1.000000 1.000000 1.000000
v 0.093744 0.329871 0.014264 1.000000 1.000000 1.000000
v 0.093744 0.280657 0.014264 1.000000 1.000000 1.000000
v 0.109479 0.269570 0.000000 1.000000 1.000000 1.000000
v 0.109479 0.340964 0.000000 1.000000 1.000000 1.000000
v 0.093744 0.187955 0.014263 1.000000 1.000000 1.000000
v 0.109472 0.240331 0.000000 1.000000 1.000000 1.000000
v 0.093744 0.229639 0.014263 1.000000 1.000000 1.000000
v 0.109472 0.177230 0.000000 1.000000 1.000000 1.000000
v 0.109472 0.240331 0.000000 1.000000 1.000000 1.000000
v 0.093744 0.187955 -0.014263 1.000000 1.000000 1.000000
v 0.093744 0.229639 -0.014263 1.000000 1.000000 1.000000
v 0.109472 0.177230 0.000000 1.000000 1.000000 1.000000
v 0.093744 0.329871 -0.014264 1.000000 1.000000 1.000000
v 0.109479 0.269570 0.000000 1.000000 1.000000 1.000000
v 0.093744 0.280657 -0.014264 1.000000 1.000000 1.000000
v 0.109479 0.340964 0.000000 1.000000 1.000000 1.000000
v -0.007305 0.431516 -0.014341 1.000000 1.000000 1.000000
v -0.007305 0.007604 0.014310 1.000000 1.000000 1.000000
v -0.007305 0.431516 0.014341 1.000000 1.000000 1.000000
v -0.007305 0.007604 -0.014355 1.000000 1.000000 1.000000
v -0.007305 0.461883 0.000000 1.000000 1.000000 1.000000
v 0.031809 0.229639 0.014349 1.000000 1.000000 1.000000
v 0.051237 0.269570 0.000000 1.000000 1.000000 1.000000
v 0.031765 0.280657 0.014353 1.000000 1.000000 1.000000
v 0.093744 0.280657 0.014264 1.000000 1.000000 1.000000
v 0.109479 0.269570 0.000000 1.000000 1.000000 1.000000
v 0.051748 0.240331 0.000000 1.000000 1.000000 1.000000
v 0.093744 0.229639 0.014263 1.000000 1.000000 1.000000
v 0.109472 0.240331 0.000000 1.000000 1.000000 1.000000
v 0.031765 0.280657 -0.014353 1.000000 1.000000 1.000000
v 0.093744 0.280657 -0.014264 1.000000 1.000000 1.000000
v 0.051237 0.269570 0.000000 1.000000 1.000000 1.000000
v 0.109479 0.269570 0.000000 1.000000 1.000000 1.000000
v 0.031809 0.229639 -0.014349 1.000000 1.000000 1.000000
v 0.051748 0.240331 0.000000 1.000000 1.000000 1.000000
v 0.093744 0.229639 -0.014263 1.000000 1.000000 1.000000
v 0.109472 0.240331 0.000000 1.000000 1.000000 1.000000
v -0.065628 -0.461884 -0.000000 1.000000 1.000000 1.000000
v 0.036383 -0.445032 -0.014276 1.000000 1.000000 1.000000
v 0.048532 -0.461884 -0.000000 1.000000 1.000000 1.000000
v -0.053480 -0.445032 -0.014276 1.000000 1.000000 1.000000
v 0.070230 -0.387668 -0.014288 1.000000 1.000000 1.000000
v -0.087326 -0.387668 -0.014288 1.000000 1.000000 1.000000
v 0.092383 -0.386257 -0.000000 1.000000 1.000000 1.000000
v -0.109479 -0.386257 -0.000000 1.000000 1.000000 1.000000
v 0.053499 -0.324962 0.000000 1.000000 1.000000 1.000000
v -0.070596 -0.324962 0.000000 1.000000 1.000000 1.000000
v 0.031878 -0.330494 -0.014354 1.000000 1.000000 1.000000
v -0.048968 -0.330494 -0.014356 1.000000 1.000000 1.000000
v 0.031861 -0.223937 -0.014354 1.000000 1.000000 1.000000
v -0.049133 0.380570 -0.014313 1.000000 1.000000 1.000000
v 0.053126 -0.222995 0.000000 1.000000 1.000000 1.000000
v -0.070168 0.387287 0.000000 1.000000 1.000000 1.000000
v -0.036483 0.396450 -0.014321 1.000000 1.000000 1.000000
v -0.036483 0.428066 0.000000 1.000000 1.000000 1.000000
v 0.020002 -0.202865 0.000000 1.000000 1.000000 1.000000
v -0.001144 -0.201630 -0.014354 1.000000 1.000000 1.000000
v 0.019878 -0.073488 0.000000 1.000000 1.000000 1.000000
v -0.001149 -0.069041 -0.014354 1.000000 1.000000 1.000000
v 0.031327 -0.047381 -0.014353 1.000000 1.000000 1.000000
v 0.056512 -0.051029 0.000000 1.000000 1.000000 1.000000
v 0.056512 0.177230 0.000000 1.000000 1.000000 1.000000
v 0.031327 0.187955 -0.014353 1.000000 1.000000 1.000000
v 0.093744 0.187955 -0.014263 1.000000 1.000000 1.000000
v 0.109472 0.177230 0.000000 1.000000 1.000000 1.000000
v 0.048532 -0.461884 -0.000000 1.000000 1.000000 1.000000
v 0.070230 -0.387668 0.014288 1.000000 1.000000 1.000000
v 0.036383 -0.445032 0.014276 1.000000 1.000000 1.000000
v 0.092383 -0.386257 -0.000000 1.000000 1.000000 1.000000
v -0.065628 -0.461884 -0.000000 1.000000 1.000000 1.000000
v 0.053499 -0.324962 0.000000 1.000000 1.000000 1.000000
v -0.053480 -0.445032 0.014276 1.000000 1.000000 1.000000
v 0.031878 -0.330494 0.014354 1.000000 1.000000 1.000000
v -0.087326 -0.387668 0.014288 1.000000 1.000000 1.000000
v 0.031861 -0.223937 0.014354 1.000000 1.000000 1.000000
v -0.109479 -0.386257 -0.000000 1.000000 1.000000 1.000000
v 0.053126 -0.222995 0.000000 1.000000 1.000000 1.000000
v -0.070596 -0.324962 0.000000 1.000000 1.000000 1.000000
v 0.020002 -0.202865 0.000000 1.000000 1.000000 1.000000
v -0.048968 -0.330494 0.014356 1.000000 1.000000 1.000000
v -0.001144 -0.201630 0.014354 1.000000 1.000000 1.000000
v -0.049133 0.380570 0.014313 1.000000 1.000000 1.000000
v 0.019878 -0.073488 0.000000 1.000000 1.000000 1.000000
v -0.070168 0.387287 0.000000 1.000000 1.000000 1.000000
v -0.036483 0.396450 0.014321 1.000000 1.000000 1.000000
v -0.036483 0.428066 0.000000 1.000000 1.000000 1.000000
v -0.001149 -0.069041 0.014354 1.000000 1.000000 1.000000
v 0.031327 -0.047381 0.014353 1.000000 1.000000 1.000000
v 0.056512 -0.051029 0.000000 1.000000 1.000000 1.000000
v 0.056512 0.177230 0.000000 1.000000 1.000000 1.000000
v 0.031327 0.187955 0.014353 1.000000 1.000000 1.000000
v 0.093744 0.187955 0.014263 1.000000 1.000000 1.000000
v 0.109472 0.177230 0.000000 1.000000 1.000000 1.000000
v 0.031878 -0.330494 0.014354 1.000000 1.000000 1.000000
v 0.036383 -0.445032 0.014276 1.000000 1.000000 1.000000
v 0.070230 -0.387668 0.014288 1.000000 1.000000 1.000000
v -0.048968 -0.330494 0.014356 1.000000 1.000000 1.000000
v 0.031861 -0.223937 0.014354 1.000000 1.000000 1.000000
v -0.053480 -0.445032 0.014276 1.000000 1.000000 1.000000
v -0.087326 -0.387668 0.014288 1.000000 1.000000 1.000000
v -0.001144 -0.201630 0.014354 1.000000 1.000000 1.000000
v -0.036483 0.007604 0.014354 1.000000 1.000000 1.000000
v -0.049133 0.380570 0.014313 1.000000 1.000000 1.000000
v -0.036483 0.396450 0.014321 1.000000 1.000000 1.000000
v -0.001149 -0.069041 0.014354 1.000000 1.000000 1.000000
v -0.007305 0.007604 0.014310 1.000000 1.000000 1.000000
v 0.031327 -0.047381 0.014353 1.000000 1.000000 1.000000
v 0.031327 0.187955 0.014353 1.000000 1.000000 1.000000
v 0.031809 0.229639 0.014349 1.000000 1.000000 1.000000
v 0.093744 0.187955 0.014263 1.000000 1.000000 1.000000
v 0.093744 0.229639 0.014263 1.000000 1.000000 1.000000
v -0.007305 0.431516 0.014341 1.000000 1.000000 1.000000
v 0.031765 0.280657 0.014353 1.000000 1.000000 1.000000
v 0.031758 0.329871 0.014356 1.000000 1.000000 1.000000
v 0.032067 0.380552 0.014306 1.000000 1.000000 1.000000
v 0.093744 0.329871 0.014264 1.000000 1.000000 1.000000
v 0.093744 0.280657 0.014264 1.000000 1.000000 1.000000
v 0.093744 0.329871 -0.014264 1.000000 1.000000 1.000000
v 0.031765 0.280657 -0.014353 1.000000 1.000000 1.000000
v 0.031758 0.329871 -0.014356 1.000000 1.000000 1.000000
v 0.093744 0.280657 -0.014264 1.000000 1.000000 1.000000
v -0.007305 0.431516 -0.014341 1.000000 1.000000 1.000000
v 0.032067 0.380552 -0.014306 1.000000 1.000000 1.000000
v 0.031809 0.229639 -0.014349 1.000000 1.000000 1.000000
v -0.007305 0.007604 -0.014355 1.000000 1.000000 1.000000
v 0.093744 0.187955 -0.014263 1.000000 1.000000 1.000000
v 0.093744 0.229639 -0.014263 1.000000 1.000000 1.000000
v 0.031327 0.187955 -0.014353 1.000000 1.000000 1.000000
v 0.031327 -0.047381 -0.014353 1.000000 1.000000 1.000000
v -0.001149 -0.069041 -0.014354 1.000000 1.000000 1.000000
v -0.036483 0.007604 -0.014350 1.000000 1.000000 1.000000
v -0.001144 -0.201630 -0.014354 1.000000 1.000000 1.000000
v -0.036483 0.396450 -0.014321 1.000000 1.000000 1.000000
v -0.049133 0.380570 -0.014313 1.000000 1.000000 1.000000
v -0.048968 -0.330494 -0.014356 1.000000 1.000000 1.000000
v 0.031861 -0.223937 -0.014354 1.000000 1.000000 1.000000
v 0.031878 -0.330494 -0.014354 1.000000 1.000000 1.000000
v 0.036383 -0.445032 -0.014276 1.000000 1.000000 1.000000
v 0.070230 -0.387668 -0.014288 1.000000 1.000000 1.000000
v -0.053480 -0.445032 -0.014276 1.000000 1.000000 1.000000
v -0.087326 -0.387668 -0.014288 1.000000 1.000000 1.000000
v -0.036483 0.007604 -0.014350 1.000000 1.000000 1.000000
v -0.007305 0.007604 0.014310 1.000000 1.000000 1.000000
v -0.007305 0.007604 -0.014355 1.000000 1.000000 1.000000
v -0.036483 0.007604 0.014354 1.000000 1.000000 1.000000
v -0.036483 0.007604 -0.014350 1.000000 1.000000 1.000000
v -0.036483 0.396450 0.014321 1.000000 1.000000 1.000000
v -0.036483 0.007604 0.014354 1.000000 1.000000 1.000000
v -0.036483 0.396450 -0.014321 1.000000 1.000000 1.000000
v -0.036483 0.428066 0.000000 1.000000 1.000000 1.000000

vn 0.531021 0.181116 0.828041
vn 0.403029 0.353075 0.844651
vn 0.309233 0.487906 0.816317
vn 0.000489 0.789811 0.613092
vn 0.000489 0.789811 0.613092
vn 0.531021 0.178185 0.828041
vn 0.459697 0.364799 0.809477
vn 0.459697 0.364799 0.809477
vn 0.531021 0.178185 -0.828041
vn 0.459697 0.364799 -0.809477
vn 0.459697 0.364799 -0.809477
vn 0.531021 0.181116 -0.828041
vn 0.309233 0.487906 -0.816317
vn 0.403029 0.353075 -0.844651
vn 0.000489 0.789811 -0.613092
vn 0.000489 0.789811 -0.613092
vn 0.671715 0.000364 0.741084
vn 0.671715 0.000364 0.741084
vn 0.671715 0.000364 0.741084
vn 0.671715 0.000364 0.741084
vn 0.671715 0.000364 0.741084
vn 0.671715 0.000364 0.741084
vn 0.671715 0.000364 0.741084
vn 0.671715 0.000364 0.741084
vn 0.671715 0.000364 -0.741085
vn 0.671715 0.000364 -0.741085
vn 0.671715 0.000364 -0.741085
vn 0.671715 0.000364 -0.741085
vn 0.671715 0.000364 -0.741085
vn 0.671715 0.000364 -0.741085
vn 0.671715 0.000364 -0.741085
vn 0.671715 0.000364 -0.741085
vn -1.000000 0.000364 0.000489
vn -1.000000 0.000364 0.000489
vn -1.000000 0.000364 0.000489
vn -1.000000 0.000364 0.000489
vn -1.000000 0.000364 0.000489
vn 0.415730 0.357960 0.835857
vn 0.311187 -0.494018 0.811431
vn 0.408891 -0.357233 0.839766
vn 0.000489 -0.790061 0.613092
vn 0.000489 -0.790061 0.613092
vn 0.306302 0.512332 0.802638
vn 0.000489 0.800559 0.599414
vn 0.000489 0.800559 0.599414
vn 0.408891 -0.357233 -0.839765
vn 0.000489 -0.790061 -0.613092
vn 0.311187 -0.494018 -0.811431
vn 0.000489 -0.790061 -0.613092
vn 0.415730 0.357960 -0.835857
vn 0.306302 0.512332 -0.802638
vn 0.000489 0.800559 -0.599414
vn 0.000489 0.800559 -0.599414
vn -0.294577 -0.489133 -0.821202
vn 0.264289 -0.508674 -0.819248
vn 0.294577 -0.489133 -0.821202
vn -0.264289 -0.508674 -0.819248
vn 0.531021 0.000364 -0.847582
vn -0.531021 0.000364 -0.847582
vn 0.530044 0.015019 -0.847582
vn -0.530044 0.015019 -0.847582
vn 0.526136 0.162552 -0.834880
vn -0.527113 0.162552 -0.833903
vn 0.528090 0.155713 -0.834880
vn -0.529067 0.154736 -0.833903
vn 0.510503 0.414628 -0.753786
vn -0.510503 0.187955 -0.838788
vn 0.541768 0.242669 -0.804592
vn -0.512457 0.182093 -0.838788
vn -0.446996 0.364799 -0.817294
vn -0.446996 0.364799 -0.817294
vn 0.508549 0.430261 -0.745970
vn 0.548608 0.227037 -0.804592
vn 0.471422 -0.331830 -0.816317
vn 0.503664 -0.239988 -0.829995
vn 0.438202 -0.339646 -0.832926
vn 0.465559 -0.216539 -0.858329
vn 0.245725 -0.518444 -0.819248
vn 0.370787 -0.303496 -0.877870
vn 0.000489 -0.799832 -0.600391
vn 0.000489 -0.799832 -0.600391
vn 0.294577 -0.489133 0.821202
vn 0.531021 0.000364 0.847582
vn 0.264289 -0.508674 0.819248
vn 0.530044 0.015019 0.847582
vn -0.294577 -0.489133 0.821202
vn 0.526136 0.162552 0.834880
vn -0.264289 -0.508674 0.819248
vn 0.528090 0.155713 0.834880
vn -0.531021 0.000364 0.847582
vn 0.510503 0.414628 0.753786
vn -0.530044 0.015019 0.847582
vn 0.541768 0.242669 0.804592
vn -0.527113 0.162552 0.833903
vn 0.508549 0.430261 0.745970
vn -0.529067 0.154736 0.833903
vn 0.548608 0.227037 0.804592
vn -0.510503 0.187955 0.838789
vn 0.471422 -0.331830 0.816317
vn -0.512457 0.182093 0.838789
vn -0.446996 0.364799 0.817294
vn -0.446996 0.364799 0.817294
vn 0.503664 -0.239988 0.829995
vn 0.438202 -0.339646 0.832926
vn 0.465559 -0.216539 0.858329
vn 0.245725 -0.518444 0.819248
vn 0.370787 -0.303496 0.877870
vn 0.000489 -0.799832 0.600391
vn 0.000489 -0.799832 0.600391
vn -0.000489 0.000364 1.000000
vn -0.000489 0.000364 1.000000
vn -0.000489 0.000364 1.000000
vn -0.000489 0.000364 1.000000
vn -0.000489 0.000364 1.000000
vn -0.000489 0.000364 1.000000
vn -0.000489 0.000364 1.000000
vn -0.000489 0.000364 1.000000
vn -0.000489 0.000364 1.000000
vn -0.000489 0.000364 1.000000
vn -0.000489 0.000364 1.000000
vn -0.000489 0.000364 1.000000
vn -0.000489 0.000364 1.000000
vn -0.000489 0.000364 1.000000
vn -0.000489 0.000364 1.000000
vn -0.000489 0.000364 1.000000
vn -0.000489 0.000364 1.000000
vn -0.000489 0.000364 1.000000
vn -0.000489 0.000364 1.000000
vn -0.000489 0.000364 1.000000
vn -0.000489 0.000364 1.000000
vn -0.000489 0.000364 1.000000
vn -0.000489 0.000364 1.000000
vn -0.000489 0.000364 1.000000
vn 0.000489 0.000364 -1.000000
vn 0.000489 0.000364 -1.000000
vn 0.000489 0.000364 -1.000000
vn 0.000489 0.000364 -1.000000
vn 0.000489 0.000364 -1.000000
vn 0.000489 0.000364 -1.000000
vn 0.000489 0.000364 -1.000000
vn 0.000489 0.000364 -1.000000
vn 0.000489 0.000364 -1.000000
vn 0.000489 0.000364 -1.000000
vn 0.000489 0.000364 -1.000000
vn 0.000489 0.000364 -1.000000
vn 0.000489 0.000364 -1.000000
vn 0.000489 0.000364 -1.000000
vn 0.000489 0.000364 -1.000000
vn 0.000489 0.000364 -1.000000
vn 0.000489 0.000364 -1.000000
vn 0.000489 0.000364 -1.000000
vn 0.000489 0.000364 -1.000000
vn 0.000489 0.000364 -1.000000
vn 0.000489 0.000364 -1.000000
vn 0.000489 0.000364 -1.000000
vn 0.000489 0.000364 -1.000000
vn 0.000489 0.000364 -1.000000
vn 0.000489 0.999875 0.000489
vn 0.000489 0.999875 0.000489
vn 0.000489 0.999875 0.000489
vn 0.000489 0.999875 0.000489
vn 1.000000 0.000364 0.000489
vn 1.000000 0.000364 0.000489
vn 1.000000 0.000364 0.000489
vn 1.000000 0.000364 0.000489
vn 1.000000 0.000364 0.000489

vt 0.000000 0.000000 0.0
vt 0.000000 0.000000 0.0
vt 0.000000 0.000000 0.0
vt 0.000000 0.000000 0.0
vt 0.000000 0.000000 0.0
vt 0.000000 0.000000 0.0
vt 0.000000 0.000000 0.0
vt 0.000000 0.000000 0.0
vt 0.000000 0.000000 0.0
vt 0.000000 0.000000 0.0
vt 0.000000 0.000000 0.0
vt 0.000000 0.000000 0.0
vt 0.000000 0.000000 0.0
vt 0.000000 0.000000 0.0
vt 0.000000 0.000000 0.0
vt 0.000000 0.000000 0.0
vt 0.000000 0.000000 0.0
vt 0.000000 0.000000 0.0
vt 0.000000 0.000000 0.0
vt 0.000000 0.000000 0.0
vt 0.000000 0.000000 0.0
vt 0.000000 0.000000 0.0
vt 0.000000 0.000000 0.0
vt 0.000000 0.000000 0.0
vt 0.000000 0.000000 0.0
vt 0.000000 0.000000 0.0
vt 0.000000 0.000000 0.0
vt 0.000000 0.000000 0.0
vt 0.000000 0.000000 0.0
vt 0.000000 0.000000 0.0
vt 0.000000 0.000000 0.0
vt 0.000000 0.000000 0.0
vt 0.000000 0.000000 0.0
vt 0.000000 0.000000 0.0
vt 0.000000 0.000000 0.0
vt 0.000000 0.000000 0.0
vt 0.000000 0.000000 0.0
vt 0.000000 0.000000 0.0
vt 0.000000 0.000000 0.0
vt 0.000000 0.000000 0.0
vt 0.000000 0.000000 0.0
vt 0.000000 0.000000 0.0
vt 0.000000 0.000000 0.0
vt 0.000000 0.000000 0.0
vt 0.000000 0.000000 0.0
vt 0.000000 0.000000 0.0
vt 0.000000 0.000000 0.0
vt 0.000000 0.000000 0.0
vt 0.000000 0.000000 0.0
vt 0.000000 0.000000 0.0
vt 0.000000 0.000000 0.0
vt 0.000000 0.000000 0.0
vt 0.000000 0.000000 0.0
vt 0.000000 0.000000 0.0
vt 0.000000 0.000000 0.0
vt 0.000000 0.000000 0.0
vt 0.000000 0.000000 0.0
vt 0.000000 0.000000 0.0
vt 0.000000 0.000000 0.0
vt 0.000000 0.000000 0.0
vt 0.000000 0.000000 0.0
vt 0.000000 0.000000 0.0
vt 0.000000 0.000000 0.0
vt 0.000000 0.000000 0.0
vt 0.000000 0.000000 0.0
vt 0.000000 0.000000 0.0
vt 0.000000 0.000000 0.0
vt 0.000000 0.000000 0.0
vt 0.000000 0.000000 0.0
vt 0.000000 0.000000 0.0
vt 0.000000 0.000000 0.0
vt 0.000000 0.000000 0.0
vt 0.000000 0.000000 0.0
vt 0.000000 0.000000 0.0
vt 0.000000 0.000000 0.0
vt 0.000000 0.000000 0.0
vt 0.000000 0.000000 0.0
vt 0.000000 0.000000 0.0
vt 0.000000 0.000000 0.0
vt 0.000000 0.000000 0.0
vt 0.000000 0.000000 0.0
vt 0.000000 0.000000 0.0
vt 0.000000 0.000000 0.0
vt 0.000000 0.000000 0.0
vt 0.000000 0.000000 0.0
vt 0.000000 0.000000 0.0
vt 0.000000 0.000000 0.0
vt 0.000000 0.000000 0.0
vt 0.000000 0.000000 0.0
vt 0.000000 0.000000 0.0
vt 0.000000 0.000000 0.0
vt 0.000000 0.000000 0.0
vt 0.000000 0.000000 0.0
vt 0.000000 0.000000 0.0
vt 0.000000 0.000000 0.0
vt 0.000000 0.000000 0.0
vt 0.000000 0.000000 0.0
vt 0.000000 0.000000 0.0
vt 0.000000 0.000000 0.0
vt 0.000000 0.000000 0.0
vt 0.000000 0.000000 0.0
vt 0.000000 0.000000 0.0
vt 0.000000 0.000000 0.0
vt 0.000000 0.000000 0.0
vt 0.000000 0.000000 0.0
vt 0.000000 0.000000 0.0
vt 0.000000 0.000000 0.0
vt 0.000000 0.000000 0.0
vt 0.000000 0.000000 0.0
vt 0.000000 0.000000 0.0
vt 0.000000 0.000000 0.0
vt 0.000000 0.000000 0.0
vt 0.000000 0.000000 0.0
vt 0.000000 0.000000 0.0
vt 0.000000 0.000000 0.0
vt 0.000000 0.000000 0.0
vt 0.000000 0.000000 0.0
vt 0.000000 0.000000 0.0
vt 0.000000 0.000000 0.0
vt 0.000000 0.000000 0.0
vt 0.000000 0.000000 0.0
vt 0.000000 0.000000 0.0
vt 0.000000 0.000000 0.0
vt 0.000000 0.000000 0.0
vt 0.000000 0.000000 0.0
vt 0.000000 0.000000 0.0
vt 0.000000 0.000000 0.0
vt 0.000000 0.000000 0.0
vt 0.000000 0.000000 0.0
vt 0.000000 0.000000 0.0
vt 0.000000 0.000000 0.0
vt 0.000000 0.000000 0.0
vt 0.000000 0.000000 0.0
vt 0.000000 0.000000 0.0
vt 0.000000 0.000000 0.0
vt 0.000000 0.000000 0.0
vt 0.000000 0.000000 0.0
vt 0.000000 0.000000 0.0
vt 0.000000 0.000000 0.0
vt 0.000000 0.000000 0.0
vt 0.000000 0.000000 0.0
vt 0.000000 0.000000 0.0
vt 0.000000 0.000000 0.0
vt 0.000000 0.000000 0.0
vt 0.000000 0.000000 0.0
vt 0.000000 0.000000 0.0
vt 0.000000 0.000000 0.0
vt 0.000000 0.000000 0.0
vt 0.000000 0.000000 0.0
vt 0.000000 0.000000 0.0
vt 0.000000 0.000000 0.0
vt 0.000000 0.000000 0.0
vt 0.000000 0.000000 0.0
vt 0.000000 0.000000 0.0
vt 0.000000 0.000000 0.0
vt 0.000000 0.000000 0.0
vt 0.000000 0.000000 0.0
vt 0.000000 0.000000 0.0
vt 0.000000 0.000000 0.0
vt 0.000000 0.000000 0.0
vt 0.000000 0.000000 0.0
vt 0.000000 0.000000 0.0
vt 0.000000 0.000000 0.0
vt 0.000000 0.000000 0.0
vt 0.000000 0.000000 0.0
vt 0.000000 0.000000 0.0

f 1/1/1 2/2/2 3/3/3
f 2/2/2 4/4/4 3/3/3
f 5/5/5 3/3/3 4/4/4
f 3/3/3 6/6/6 1/1/1
f 6/6/6 7/7/7 1/1/1
f 6/6/6 8/8/8 7/7/7
f 9/9/9 10/10/10 11/11/11
f 10/10/10 9/9/9 12/12/12
f 13/13/13 12/12/12 9/9/9
f 12/12/12 13/13/13 14/14/14
f 13/13/13 15/15/15 14/14/14
f 15/15/15 13/13/13 16/16/16
f 17/17/17 18/18/18 19/19/19
f 19/19/19 20/20/20 17/17/17
f 21/21/21 22/22/22 23/23/23
f 22/22/22 21/21/21 24/24/24
f 25/25/25 26/26/26 27/27/27
f 25/25/25 28/28/28 26/26/26
f 29/29/29 30/30/30 31/31/31
f 30/30/30 29/29/29 32/32/32
f 33/33/33 34/34/34 35/35/35
f 34/34/34 33/33/33 36/36/36
f 35/35/35 37/37/37 33/33/33
f 38/38/38 39/39/39 40/40/40
f 39/39/39 41/41/41 40/40/40
f 41/41/41 39/39/39 42/42/42
f 39/39/39 38/38/38 43/43/43
f 38/38/38 44/44/44 43/43/43
f 45/45/45 43/43/43 44/44/44
f 46/46/46 47/47/47 48/48/48
f 48/48/48 47/47/47 49/49/49
f 48/48/48 50/50/50 46/46/46
f 50/50/50 48/48/48 51/51/51
f 51/51/51 52/52/52 50/50/50
f 52/52/52 51/51/51 53/53/53
f 54/54/54 55/55/55 56/56/56
f 55/55/55 54/54/54 57/57/57
f 58/58/58 56/56/56 55/55/55
f 54/54/54 59/59/59 57/57/57
f 60/60/60 56/56/56 58/58/58
f 59/59/59 54/54/54 61/61/61
f 58/58/58 62/62/62 60/60/60
f 63/63/63 59/59/59 61/61/61
f 62/62/62 58/58/58 64/64/64
f 59/59/59 63/63/63 65/65/65
f 66/66/66 62/62/62 64/64/64
f 63/63/63 67/67/67 65/65/65
f 62/62/62 66/66/66 68/68/68
f 67/67/67 63/63/63 69/69/69
f 69/69/69 70/70/70 67/67/67
f 70/70/70 69/69/69 71/71/71
f 72/72/72 68/68/68 66/66/66
f 73/73/73 72/72/72 66/66/66
f 73/73/73 74/74/74 72/72/72
f 74/74/74 73/73/73 75/75/75
f 76/76/76 74/74/74 75/75/75
f 74/74/74 76/76/76 77/77/77
f 76/76/76 78/78/78 77/77/77
f 78/78/78 76/76/76 79/79/79
f 79/79/79 80/80/80 78/78/78
f 78/78/78 80/80/80 81/81/81
f 82/82/82 83/83/83 84/84/84
f 83/83/83 82/82/82 85/85/85
f 86/86/86 82/82/82 84/84/84
f 85/85/85 87/87/87 83/83/83
f 86/86/86 84/84/84 88/88/88
f 89/89/89 83/83/83 87/87/87
f 90/90/90 86/86/86 88/88/88
f 91/91/91 89/89/89 87/87/87
f 92/92/92 86/86/86 90/90/90
f 87/87/87 93/93/93 91/91/91
f 90/90/90 94/94/94 92/92/92
f 95/95/95 91/91/91 93/93/93
f 94/94/94 90/90/90 96/96/96
f 91/91/91 95/95/95 97/97/97
f 98/98/98 94/94/94 96/96/96
f 99/99/99 97/97/97 95/95/95
f 94/94/94 98/98/98 100/100/100
f 101/101/101 100/100/100 98/98/98
f 100/100/100 101/101/101 102/102/102
f 97/97/97 99/99/99 103/103/103
f 104/104/104 103/103/103 99/99/99
f 99/99/99 105/105/105 104/104/104
f 106/106/106 104/104/104 105/105/105
f 104/104/104 106/106/106 107/107/107
f 106/106/106 108/108/108 107/107/107
f 108/108/108 106/106/106 109/109/109
f 110/110/110 111/111/111 112/112/112
f 111/111/111 110/110/110 113/113/113
f 114/114/114 113/113/113 110/110/110
f 111/111/111 113/113/113 115/115/115
f 113/113/113 116/116/116 115/115/115
f 113/113/113 114/114/114 117/117/117
f 118/118/118 113/113/113 117/117/117
f 119/119/119 113/113/113 118/118/118
f 118/118/118 120/120/120 119/119/119
f 121/121/121 118/118/118 117/117/117
f 118/118/118 121/121/121 122/122/122
f 123/123/123 122/122/122 121/121/121
f 123/123/123 124/124/124 122/122/122
f 125/125/125 122/122/122 124/124/124
f 126/126/126 125/125/125 124/124/124
f 125/125/125 126/126/126 127/127/127
f 125/125/125 128/128/128 122/122/122
f 129/129/129 128/128/128 125/125/125
f 130/130/130 128/128/128 129/129/129
f 128/128/128 130/130/130 131/131/131
f 129/129/129 132/132/132 130/130/130
f 132/132/132 129/129/129 133/133/133
f 134/134/134 135/135/135 136/136/136
f 135/135/135 134/134/134 137/137/137
f 138/138/138 136/136/136 135/135/135
f 136/136/136 138/138/138 139/139/139
f 138/138/138 135/135/135 140/140/140
f 140/140/140 141/141/141 138/138/138
f 142/142/142 140/140/140 143/143/143
f 140/140/140 142/142/142 144/144/144
f 141/141/141 140/140/140 144/144/144
f 144/144/144 145/145/145 141/141/141
f 146/146/146 141/141/141 145/145/145
f 141/141/141 146/146/146 147/147/147
f 148/148/148 147/147/147 146/146/146
f 149/149/149 147/147/147 150/150/150
f 151/151/151 150/150/150 147/147/147
f 151/151/151 147/147/147 148/148/148
f 152/152/152 151/151/151 148/148/148
f 151/151/151 152/152/152 153/153/153
f 154/154/154 151/151/151 153/153/153
f 154/154/154 153/153/153 155/155/155
f 151/151/151 154/154/154 156/156/156
f 151/151/151 156/156/156 157/157/157
f 158/158/158 159/159/159 160/160/160
f 159/159/159 158/158/158 161/161/161
f 162/162/162 163/163/163 164/164/164
f 163/163/163 162/162/162 165/165/165
f 163/163/163 165/165/165 166/166/166
