# Converted from Roblox mesh format
# Vertices: 493, Faces: 260

v 0.032103 0.397909 -0.083853 1.000000 1.000000 1.000000
v 0.352807 0.397909 0.083853 1.000000 1.000000 1.000000
v 0.352807 0.397909 -0.083853 1.000000 1.000000 1.000000
v 0.032103 0.397909 0.083853 1.000000 1.000000 1.000000
v 0.352807 0.397909 -0.083853 1.000000 1.000000 1.000000
v 0.338423 0.254669 0.083853 1.000000 1.000000 1.000000
v 0.338423 0.254669 -0.083853 1.000000 1.000000 1.000000
v 0.352807 0.397909 0.083853 1.000000 1.000000 1.000000
v 0.305431 0.136419 0.083853 1.000000 1.000000 1.000000
v 0.305431 0.136419 -0.083853 1.000000 1.000000 1.000000
v 0.274769 0.051570 0.083853 1.000000 1.000000 1.000000
v 0.274769 0.051570 -0.083853 1.000000 1.000000 1.000000
v 0.164341 -0.112305 0.083853 1.000000 1.000000 1.000000
v 0.164341 -0.112305 -0.083853 1.000000 1.000000 1.000000
v 0.016391 -0.248493 0.083853 1.000000 1.000000 1.000000
v 0.016391 -0.248493 -0.083853 1.000000 1.000000 1.000000
v 0.020269 -0.308895 0.083853 1.000000 1.000000 1.000000
v 0.020269 -0.308895 -0.083853 1.000000 1.000000 1.000000
v -0.299349 -0.397908 -0.053565 1.000000 1.000000 1.000000
v -0.299349 -0.397908 0.053561 1.000000 1.000000 1.000000
v -0.352807 -0.344450 -0.053565 1.000000 1.000000 1.000000
v -0.352807 -0.344450 0.053561 1.000000 1.000000 1.000000
v -0.291751 -0.390027 -0.073261 1.000000 1.000000 1.000000
v -0.352807 -0.344450 -0.053565 1.000000 1.000000 1.000000
v -0.344927 -0.336851 -0.073261 1.000000 1.000000 1.000000
v -0.299349 -0.397908 -0.053565 1.000000 1.000000 1.000000
v -0.352807 -0.344450 0.053561 1.000000 1.000000 1.000000
v -0.299349 -0.397908 0.053561 1.000000 1.000000 1.000000
v -0.291751 -0.390027 0.073257 1.000000 1.000000 1.000000
v -0.344927 -0.336851 0.073257 1.000000 1.000000 1.000000
v -0.198526 -0.392127 -0.053551 1.000000 1.000000 1.000000
v -0.291751 -0.390027 -0.073261 1.000000 1.000000 1.000000
v -0.205205 -0.385129 -0.073251 1.000000 1.000000 1.000000
v -0.299349 -0.397908 -0.053565 1.000000 1.000000 1.000000
v -0.205205 -0.385129 0.073247 1.000000 1.000000 1.000000
v -0.291751 -0.390027 0.073257 1.000000 1.000000 1.000000
v -0.198526 -0.392127 0.053547 1.000000 1.000000 1.000000
v -0.299349 -0.397908 0.053561 1.000000 1.000000 1.000000
v -0.017437 -0.337614 0.083853 1.000000 1.000000 1.000000
v -0.017437 -0.337614 -0.083853 1.000000 1.000000 1.000000
v 0.020269 -0.308895 -0.083853 1.000000 1.000000 1.000000
v 0.020269 -0.308895 0.083853 1.000000 1.000000 1.000000
v -0.044106 -0.343819 -0.073261 1.000000 1.000000 1.000000
v -0.009774 -0.309485 -0.073260 1.000000 1.000000 1.000000
v -0.002770 -0.316168 -0.053566 1.000000 1.000000 1.000000
v -0.037423 -0.350822 -0.053565 1.000000 1.000000 1.000000
v -0.002770 -0.316168 0.053562 1.000000 1.000000 1.000000
v -0.044106 -0.343819 0.073256 1.000000 1.000000 1.000000
v -0.037423 -0.350822 0.053561 1.000000 1.000000 1.000000
v -0.009774 -0.309485 0.073256 1.000000 1.000000 1.000000
v -0.002770 -0.316168 -0.053566 1.000000 1.000000 1.000000
v -0.002770 -0.316168 0.053562 1.000000 1.000000 1.000000
v -0.037423 -0.350822 -0.053565 1.000000 1.000000 1.000000
v -0.037423 -0.350822 0.053561 1.000000 1.000000 1.000000
v -0.299349 -0.397908 -0.053565 1.000000 1.000000 1.000000
v -0.198526 -0.392127 -0.053551 1.000000 1.000000 1.000000
v -0.299349 -0.397908 0.053561 1.000000 1.000000 1.000000
v -0.198526 -0.392127 0.053547 1.000000 1.000000 1.000000
v -0.347027 -0.243626 -0.053551 1.000000 1.000000 1.000000
v -0.344927 -0.336851 -0.073261 1.000000 1.000000 1.000000
v -0.352807 -0.344450 -0.053565 1.000000 1.000000 1.000000
v -0.340028 -0.250305 -0.073251 1.000000 1.000000 1.000000
v -0.347027 -0.243626 0.053547 1.000000 1.000000 1.000000
v -0.344927 -0.336851 0.073257 1.000000 1.000000 1.000000
v -0.340028 -0.250305 0.073247 1.000000 1.000000 1.000000
v -0.352807 -0.344450 0.053561 1.000000 1.000000 1.000000
v -0.296264 -0.061441 -0.083853 1.000000 1.000000 1.000000
v -0.258559 -0.032723 0.083853 1.000000 1.000000 1.000000
v -0.258559 -0.032723 -0.083853 1.000000 1.000000 1.000000
v -0.296264 -0.061441 0.083853 1.000000 1.000000 1.000000
v -0.298719 -0.089207 -0.073260 1.000000 1.000000 1.000000
v -0.271068 -0.047870 -0.053566 1.000000 1.000000 1.000000
v -0.264384 -0.054874 -0.073260 1.000000 1.000000 1.000000
v -0.305722 -0.082523 -0.053565 1.000000 1.000000 1.000000
v -0.305722 -0.082523 0.053561 1.000000 1.000000 1.000000
v -0.298718 -0.089207 0.073257 1.000000 1.000000 1.000000
v -0.271068 -0.047870 0.053562 1.000000 1.000000 1.000000
v -0.264384 -0.054874 0.073256 1.000000 1.000000 1.000000
v -0.352807 -0.344450 -0.053565 1.000000 1.000000 1.000000
v -0.347027 -0.243626 0.053547 1.000000 1.000000 1.000000
v -0.347027 -0.243626 -0.053551 1.000000 1.000000 1.000000
v -0.352807 -0.344450 0.053561 1.000000 1.000000 1.000000
v -0.305722 -0.082523 0.053561 1.000000 1.000000 1.000000
v -0.271068 -0.047870 -0.053566 1.000000 1.000000 1.000000
v -0.305722 -0.082523 -0.053565 1.000000 1.000000 1.000000
v -0.271068 -0.047870 0.053562 1.000000 1.000000 1.000000
v -0.037423 -0.350822 -0.053565 1.000000 1.000000 1.000000
v -0.129562 -0.349092 -0.073259 1.000000 1.000000 1.000000
v -0.044106 -0.343819 -0.073261 1.000000 1.000000 1.000000
v -0.137153 -0.356976 -0.053559 1.000000 1.000000 1.000000
v -0.044106 -0.343819 0.073256 1.000000 1.000000 1.000000
v -0.129562 -0.349092 0.073255 1.000000 1.000000 1.000000
v -0.037423 -0.350822 0.053561 1.000000 1.000000 1.000000
v -0.137153 -0.356976 0.053555 1.000000 1.000000 1.000000
v -0.137153 -0.356976 -0.053559 1.000000 1.000000 1.000000
v -0.037423 -0.350822 -0.053565 1.000000 1.000000 1.000000
v -0.137153 -0.356976 0.053555 1.000000 1.000000 1.000000
v -0.037423 -0.350822 0.053561 1.000000 1.000000 1.000000
v -0.305722 -0.082523 -0.053565 1.000000 1.000000 1.000000
v -0.303991 -0.174662 -0.073259 1.000000 1.000000 1.000000
v -0.311876 -0.182254 -0.053559 1.000000 1.000000 1.000000
v -0.298719 -0.089207 -0.073260 1.000000 1.000000 1.000000
v -0.305722 -0.082523 0.053561 1.000000 1.000000 1.000000
v -0.303991 -0.174662 0.073255 1.000000 1.000000 1.000000
v -0.298718 -0.089207 0.073257 1.000000 1.000000 1.000000
v -0.311876 -0.182254 0.053555 1.000000 1.000000 1.000000
v -0.150214 -0.343721 -0.053572 1.000000 1.000000 1.000000
v -0.156678 -0.336272 -0.073538 1.000000 1.000000 1.000000
v -0.142952 -0.335345 -0.073537 1.000000 1.000000 1.000000
v -0.156678 -0.336272 0.073534 1.000000 1.000000 1.000000
v -0.150214 -0.343721 0.053568 1.000000 1.000000 1.000000
v -0.142952 -0.335345 0.073533 1.000000 1.000000 1.000000
v -0.311876 -0.182254 -0.053559 1.000000 1.000000 1.000000
v -0.305722 -0.082523 0.053561 1.000000 1.000000 1.000000
v -0.305722 -0.082523 -0.053565 1.000000 1.000000 1.000000
v -0.311876 -0.182254 0.053555 1.000000 1.000000 1.000000
v -0.291171 -0.201779 -0.073538 1.000000 1.000000 1.000000
v -0.298620 -0.195315 -0.053572 1.000000 1.000000 1.000000
v -0.290244 -0.188053 -0.073537 1.000000 1.000000 1.000000
v -0.298620 -0.195315 0.053568 1.000000 1.000000 1.000000
v -0.291171 -0.201779 0.073534 1.000000 1.000000 1.000000
v -0.290244 -0.188053 0.073533 1.000000 1.000000 1.000000
v -0.205205 -0.385129 -0.073251 1.000000 1.000000 1.000000
v -0.156678 -0.336272 -0.073538 1.000000 1.000000 1.000000
v -0.150214 -0.343721 -0.053572 1.000000 1.000000 1.000000
v -0.198526 -0.392127 -0.053551 1.000000 1.000000 1.000000
v -0.150214 -0.343721 0.053568 1.000000 1.000000 1.000000
v -0.205205 -0.385129 0.073247 1.000000 1.000000 1.000000
v -0.198526 -0.392127 0.053547 1.000000 1.000000 1.000000
v -0.156678 -0.336272 0.073534 1.000000 1.000000 1.000000
v -0.150214 -0.343721 -0.053572 1.000000 1.000000 1.000000
v -0.150214 -0.343721 0.053568 1.000000 1.000000 1.000000
v -0.198526 -0.392127 -0.053551 1.000000 1.000000 1.000000
v -0.198526 -0.392127 0.053547 1.000000 1.000000 1.000000
v -0.290244 -0.188053 -0.073537 1.000000 1.000000 1.000000
v -0.298556 -0.195461 -0.053543 1.000000 1.000000 1.000000
v -0.303991 -0.174662 -0.073259 1.000000 1.000000 1.000000
v -0.311876 -0.182254 -0.053559 1.000000 1.000000 1.000000
v -0.298556 -0.195461 0.053539 1.000000 1.000000 1.000000
v -0.303991 -0.174662 0.073255 1.000000 1.000000 1.000000
v -0.311876 -0.182254 0.053555 1.000000 1.000000 1.000000
v -0.290244 -0.188053 0.073533 1.000000 1.000000 1.000000
v -0.129562 -0.349092 -0.073259 1.000000 1.000000 1.000000
v -0.150361 -0.343656 -0.053543 1.000000 1.000000 1.000000
v -0.142952 -0.335345 -0.073537 1.000000 1.000000 1.000000
v -0.137153 -0.356976 -0.053559 1.000000 1.000000 1.000000
v -0.137153 -0.356976 0.053555 1.000000 1.000000 1.000000
v -0.129562 -0.349092 0.073255 1.000000 1.000000 1.000000
v -0.150361 -0.343656 0.053539 1.000000 1.000000 1.000000
v -0.142952 -0.335345 0.073533 1.000000 1.000000 1.000000
v 0.032103 0.397909 -0.083853 1.000000 1.000000 1.000000
v 0.018802 0.293806 -0.083853 1.000000 1.000000 1.000000
v 0.032103 0.397909 0.083853 1.000000 1.000000 1.000000
v 0.018802 0.293806 0.083853 1.000000 1.000000 1.000000
v -0.006763 0.208304 -0.083853 1.000000 1.000000 1.000000
v -0.006763 0.208304 0.083853 1.000000 1.000000 1.000000
v -0.027338 0.152127 -0.083853 1.000000 1.000000 1.000000
v -0.027338 0.152127 0.083853 1.000000 1.000000 1.000000
v -0.116857 0.028097 -0.083853 1.000000 1.000000 1.000000
v -0.116857 0.028097 0.083853 1.000000 1.000000 1.000000
v -0.207433 -0.044616 -0.083853 1.000000 1.000000 1.000000
v -0.207433 -0.044616 0.083853 1.000000 1.000000 1.000000
v -0.258559 -0.032723 -0.083853 1.000000 1.000000 1.000000
v -0.258559 -0.032723 0.083853 1.000000 1.000000 1.000000
v -0.340028 -0.250305 -0.073251 1.000000 1.000000 1.000000
v -0.298620 -0.195315 -0.053572 1.000000 1.000000 1.000000
v -0.291171 -0.201779 -0.073538 1.000000 1.000000 1.000000
v -0.347027 -0.243626 -0.053551 1.000000 1.000000 1.000000
v -0.298620 -0.195315 0.053568 1.000000 1.000000 1.000000
v -0.347027 -0.243626 0.053547 1.000000 1.000000 1.000000
v -0.340028 -0.250305 0.073247 1.000000 1.000000 1.000000
v -0.291171 -0.201779 0.073534 1.000000 1.000000 1.000000
v -0.083966 -0.301664 -0.053552 1.000000 1.000000 1.000000
v -0.084219 -0.301666 0.053555 1.000000 1.000000 1.000000
v -0.084219 -0.301666 -0.053559 1.000000 1.000000 1.000000
v -0.083966 -0.301664 0.053548 1.000000 1.000000 1.000000
v -0.298556 -0.195461 -0.053543 1.000000 1.000000 1.000000
v -0.311876 -0.182254 0.053555 1.000000 1.000000 1.000000
v -0.311876 -0.182254 -0.053559 1.000000 1.000000 1.000000
v -0.298556 -0.195461 0.053539 1.000000 1.000000 1.000000
v -0.137153 -0.356976 -0.053559 1.000000 1.000000 1.000000
v -0.137153 -0.356976 0.053555 1.000000 1.000000 1.000000
v -0.150361 -0.343656 -0.053543 1.000000 1.000000 1.000000
v -0.150361 -0.343656 -0.053543 1.000000 1.000000 1.000000
v -0.137153 -0.356976 0.053555 1.000000 1.000000 1.000000
v -0.150361 -0.343656 0.053539 1.000000 1.000000 1.000000
v -0.150361 -0.343656 0.053539 1.000000 1.000000 1.000000
v -0.150214 -0.343721 0.053568 1.000000 1.000000 1.000000
v -0.150214 -0.343721 -0.053572 1.000000 1.000000 1.000000
v -0.347027 -0.243626 -0.053551 1.000000 1.000000 1.000000
v -0.298620 -0.195315 0.053568 1.000000 1.000000 1.000000
v -0.298620 -0.195315 -0.053572 1.000000 1.000000 1.000000
v -0.347027 -0.243626 0.053547 1.000000 1.000000 1.000000
v -0.256564 -0.129067 -0.053552 1.000000 1.000000 1.000000
v -0.256565 -0.129319 0.053555 1.000000 1.000000 1.000000
v -0.256564 -0.129067 0.053548 1.000000 1.000000 1.000000
v -0.256565 -0.129319 -0.053559 1.000000 1.000000 1.000000
v 0.338423 0.254669 0.083853 1.000000 1.000000 1.000000
v 0.032103 0.397909 0.083853 1.000000 1.000000 1.000000
v 0.018802 0.293806 0.083853 1.000000 1.000000 1.000000
v 0.352807 0.397909 0.083853 1.000000 1.000000 1.000000
v 0.305431 0.136419 0.083853 1.000000 1.000000 1.000000
v -0.006763 0.208304 0.083853 1.000000 1.000000 1.000000
v 0.274769 0.051570 0.083853 1.000000 1.000000 1.000000
v -0.027338 0.152127 0.083853 1.000000 1.000000 1.000000
v 0.164341 -0.112305 0.083853 1.000000 1.000000 1.000000
v -0.116857 0.028097 0.083853 1.000000 1.000000 1.000000
v 0.016391 -0.248493 0.083853 1.000000 1.000000 1.000000
v -0.207433 -0.044616 0.083853 1.000000 1.000000 1.000000
v 0.020269 -0.308895 -0.083853 1.000000 1.000000 1.000000
v -0.258559 -0.032723 -0.083853 1.000000 1.000000 1.000000
v -0.207433 -0.044616 -0.083853 1.000000 1.000000 1.000000
v 0.016391 -0.248493 -0.083853 1.000000 1.000000 1.000000
v -0.207433 -0.044616 0.083853 1.000000 1.000000 1.000000
v 0.020269 -0.308895 0.083853 1.000000 1.000000 1.000000
v 0.016391 -0.248493 0.083853 1.000000 1.000000 1.000000
v -0.258559 -0.032723 0.083853 1.000000 1.000000 1.000000
v -0.017437 -0.337614 -0.083853 1.000000 1.000000 1.000000
v -0.296264 -0.061441 -0.083853 1.000000 1.000000 1.000000
v -0.258559 -0.032723 -0.083853 1.000000 1.000000 1.000000
v 0.020269 -0.308895 -0.083853 1.000000 1.000000 1.000000
v -0.258559 -0.032723 0.083853 1.000000 1.000000 1.000000
v -0.017437 -0.337614 0.083853 1.000000 1.000000 1.000000
v 0.020269 -0.308895 0.083853 1.000000 1.000000 1.000000
v -0.296264 -0.061441 0.083853 1.000000 1.000000 1.000000
v -0.006763 0.208304 -0.083853 1.000000 1.000000 1.000000
v 0.305431 0.136419 -0.083853 1.000000 1.000000 1.000000
v 0.274769 0.051570 -0.083853 1.000000 1.000000 1.000000
v 0.018802 0.293806 -0.083853 1.000000 1.000000 1.000000
v -0.027338 0.152127 -0.083853 1.000000 1.000000 1.000000
v 0.338423 0.254669 -0.083853 1.000000 1.000000 1.000000
v 0.032103 0.397909 -0.083853 1.000000 1.000000 1.000000
v 0.352807 0.397909 -0.083853 1.000000 1.000000 1.000000
v 0.164341 -0.112305 -0.083853 1.000000 1.000000 1.000000
v -0.116857 0.028097 -0.083853 1.000000 1.000000 1.000000
v 0.016391 -0.248493 -0.083853 1.000000 1.000000 1.000000
v -0.207433 -0.044616 -0.083853 1.000000 1.000000 1.000000
v -0.253548 -0.350901 0.073523 1.000000 1.000000 1.000000
v -0.205205 -0.385129 0.073247 1.000000 1.000000 1.000000
v -0.238844 -0.350428 0.073544 1.000000 1.000000 1.000000
v -0.291751 -0.390027 0.073257 1.000000 1.000000 1.000000
v -0.205205 -0.385129 -0.073251 1.000000 1.000000 1.000000
v -0.253548 -0.350901 -0.073527 1.000000 1.000000 1.000000
v -0.238844 -0.350428 -0.073548 1.000000 1.000000 1.000000
v -0.291751 -0.390027 -0.073261 1.000000 1.000000 1.000000
v -0.230742 -0.089574 0.073538 1.000000 1.000000 1.000000
v -0.264384 -0.054874 0.073256 1.000000 1.000000 1.000000
v -0.298718 -0.089207 0.073257 1.000000 1.000000 1.000000
v -0.264014 -0.122860 0.073532 1.000000 1.000000 1.000000
v -0.298719 -0.089207 -0.073260 1.000000 1.000000 1.000000
v -0.230742 -0.089574 -0.073541 1.000000 1.000000 1.000000
v -0.264014 -0.122860 -0.073536 1.000000 1.000000 1.000000
v -0.264384 -0.054874 -0.073260 1.000000 1.000000 1.000000
v -0.044474 -0.275842 0.073537 1.000000 1.000000 1.000000
v -0.044106 -0.343819 0.073256 1.000000 1.000000 1.000000
v -0.009774 -0.309485 0.073256 1.000000 1.000000 1.000000
v -0.077760 -0.309115 0.073532 1.000000 1.000000 1.000000
v -0.044474 -0.275842 -0.073542 1.000000 1.000000 1.000000
v -0.044106 -0.343819 -0.073261 1.000000 1.000000 1.000000
v -0.077760 -0.309115 -0.073536 1.000000 1.000000 1.000000
v -0.009774 -0.309485 -0.073260 1.000000 1.000000 1.000000
v -0.291751 -0.390027 0.073257 1.000000 1.000000 1.000000
v -0.305800 -0.298648 0.073523 1.000000 1.000000 1.000000
v -0.344927 -0.336851 0.073257 1.000000 1.000000 1.000000
v -0.253548 -0.350901 0.073523 1.000000 1.000000 1.000000
v -0.291751 -0.390027 -0.073261 1.000000 1.000000 1.000000
v -0.305800 -0.298648 -0.073527 1.000000 1.000000 1.000000
v -0.253548 -0.350901 -0.073527 1.000000 1.000000 1.000000
v -0.344927 -0.336851 -0.073261 1.000000 1.000000 1.000000
v -0.091381 -0.309970 0.073531 1.000000 1.000000 1.000000
v -0.044106 -0.343819 0.073256 1.000000 1.000000 1.000000
v -0.077760 -0.309115 0.073532 1.000000 1.000000 1.000000
v -0.129562 -0.349092 0.073255 1.000000 1.000000 1.000000
v -0.264870 -0.136481 -0.073535 1.000000 1.000000 1.000000
v -0.298719 -0.089207 -0.073260 1.000000 1.000000 1.000000
v -0.264014 -0.122860 -0.073536 1.000000 1.000000 1.000000
v -0.303991 -0.174662 -0.073259 1.000000 1.000000 1.000000
v -0.298718 -0.089207 0.073257 1.000000 1.000000 1.000000
v -0.264870 -0.136481 0.073531 1.000000 1.000000 1.000000
v -0.264014 -0.122860 0.073532 1.000000 1.000000 1.000000
v -0.303991 -0.174662 0.073255 1.000000 1.000000 1.000000
v -0.044106 -0.343819 -0.073261 1.000000 1.000000 1.000000
v -0.091381 -0.309970 -0.073535 1.000000 1.000000 1.000000
v -0.077760 -0.309115 -0.073536 1.000000 1.000000 1.000000
v -0.129562 -0.349092 -0.073259 1.000000 1.000000 1.000000
v -0.305800 -0.298648 -0.073527 1.000000 1.000000 1.000000
v -0.340028 -0.250305 -0.073251 1.000000 1.000000 1.000000
v -0.305328 -0.283944 -0.073548 1.000000 1.000000 1.000000
v -0.344927 -0.336851 -0.073261 1.000000 1.000000 1.000000
v -0.340028 -0.250305 0.073247 1.000000 1.000000 1.000000
v -0.305800 -0.298648 0.073523 1.000000 1.000000 1.000000
v -0.305328 -0.283944 0.073544 1.000000 1.000000 1.000000
v -0.344927 -0.336851 0.073257 1.000000 1.000000 1.000000
v -0.291171 -0.201779 0.073534 1.000000 1.000000 1.000000
v -0.305328 -0.283944 0.073544 1.000000 1.000000 1.000000
v -0.256464 -0.235432 0.073249 1.000000 1.000000 1.000000
v -0.340028 -0.250305 0.073247 1.000000 1.000000 1.000000
v -0.291171 -0.201779 -0.073538 1.000000 1.000000 1.000000
v -0.305328 -0.283944 -0.073548 1.000000 1.000000 1.000000
v -0.340028 -0.250305 -0.073251 1.000000 1.000000 1.000000
v -0.256464 -0.235432 -0.073253 1.000000 1.000000 1.000000
v -0.190332 -0.301564 0.073249 1.000000 1.000000 1.000000
v -0.238844 -0.350428 0.073544 1.000000 1.000000 1.000000
v -0.156678 -0.336272 0.073534 1.000000 1.000000 1.000000
v -0.205205 -0.385129 0.073247 1.000000 1.000000 1.000000
v -0.238844 -0.350428 -0.073548 1.000000 1.000000 1.000000
v -0.156678 -0.336272 -0.073538 1.000000 1.000000 1.000000
v -0.205205 -0.385129 -0.073251 1.000000 1.000000 1.000000
v -0.190332 -0.301564 -0.073253 1.000000 1.000000 1.000000
v -0.290244 -0.188053 0.073533 1.000000 1.000000 1.000000
v -0.264870 -0.136481 0.073531 1.000000 1.000000 1.000000
v -0.303991 -0.174662 0.073255 1.000000 1.000000 1.000000
v -0.251124 -0.149874 0.073255 1.000000 1.000000 1.000000
v -0.290244 -0.188053 -0.073537 1.000000 1.000000 1.000000
v -0.264870 -0.136481 -0.073535 1.000000 1.000000 1.000000
v -0.251124 -0.149874 -0.073259 1.000000 1.000000 1.000000
v -0.303991 -0.174662 -0.073259 1.000000 1.000000 1.000000
v -0.142952 -0.335345 0.073533 1.000000 1.000000 1.000000
v -0.091381 -0.309970 0.073531 1.000000 1.000000 1.000000
v -0.104774 -0.296225 0.073255 1.000000 1.000000 1.000000
v -0.129562 -0.349092 0.073255 1.000000 1.000000 1.000000
v -0.091381 -0.309970 -0.073535 1.000000 1.000000 1.000000
v -0.129562 -0.349092 -0.073259 1.000000 1.000000 1.000000
v -0.142952 -0.335345 -0.073537 1.000000 1.000000 1.000000
v -0.104774 -0.296225 -0.073259 1.000000 1.000000 1.000000
v -0.251124 -0.149874 -0.073259 1.000000 1.000000 1.000000
v -0.256464 -0.235432 -0.073253 1.000000 1.000000 1.000000
v -0.290244 -0.188053 -0.073537 1.000000 1.000000 1.000000
v -0.291171 -0.201779 -0.073538 1.000000 1.000000 1.000000
v -0.256464 -0.235432 0.073249 1.000000 1.000000 1.000000
v -0.290244 -0.188053 0.073533 1.000000 1.000000 1.000000
v -0.291171 -0.201779 0.073534 1.000000 1.000000 1.000000
v -0.251124 -0.149874 0.073255 1.000000 1.000000 1.000000
v -0.142952 -0.335345 -0.073537 1.000000 1.000000 1.000000
v -0.190332 -0.301564 -0.073253 1.000000 1.000000 1.000000
v -0.104774 -0.296225 -0.073259 1.000000 1.000000 1.000000
v -0.156678 -0.336272 -0.073538 1.000000 1.000000 1.000000
v -0.142952 -0.335345 0.073533 1.000000 1.000000 1.000000
v -0.104774 -0.296225 0.073255 1.000000 1.000000 1.000000
v -0.190332 -0.301564 0.073249 1.000000 1.000000 1.000000
v -0.156678 -0.336272 0.073534 1.000000 1.000000 1.000000
v -0.264870 -0.136481 -0.073535 1.000000 1.000000 1.000000
v -0.256564 -0.129067 -0.053552 1.000000 1.000000 1.000000
v -0.251124 -0.149874 -0.073259 1.000000 1.000000 1.000000
v -0.243241 -0.142281 -0.053558 1.000000 1.000000 1.000000
v -0.256564 -0.129067 0.053548 1.000000 1.000000 1.000000
v -0.251124 -0.149874 0.073255 1.000000 1.000000 1.000000
v -0.243241 -0.142281 0.053554 1.000000 1.000000 1.000000
v -0.264870 -0.136481 0.073531 1.000000 1.000000 1.000000
v -0.104774 -0.296225 -0.073259 1.000000 1.000000 1.000000
v -0.083966 -0.301664 -0.053552 1.000000 1.000000 1.000000
v -0.091381 -0.309970 -0.073535 1.000000 1.000000 1.000000
v -0.097181 -0.288341 -0.053558 1.000000 1.000000 1.000000
v -0.097181 -0.288341 0.053554 1.000000 1.000000 1.000000
v -0.104774 -0.296225 0.073255 1.000000 1.000000 1.000000
v -0.083966 -0.301664 0.053548 1.000000 1.000000 1.000000
v -0.091381 -0.309970 0.073531 1.000000 1.000000 1.000000
v -0.296264 -0.061441 -0.083853 1.000000 1.000000 1.000000
v -0.017437 -0.337614 -0.083853 1.000000 1.000000 1.000000
v -0.017437 -0.337614 0.083853 1.000000 1.000000 1.000000
v -0.296264 -0.061441 0.083853 1.000000 1.000000 1.000000
v -0.256464 -0.235432 -0.073253 1.000000 1.000000 1.000000
v -0.297836 -0.290344 -0.053554 1.000000 1.000000 1.000000
v -0.305328 -0.283944 -0.073548 1.000000 1.000000 1.000000
v -0.249463 -0.242109 -0.053556 1.000000 1.000000 1.000000
v -0.297836 -0.290344 0.053550 1.000000 1.000000 1.000000
v -0.249463 -0.242109 0.053552 1.000000 1.000000 1.000000
v -0.256464 -0.235432 0.073249 1.000000 1.000000 1.000000
v -0.305328 -0.283944 0.073544 1.000000 1.000000 1.000000
v -0.190332 -0.301564 -0.073253 1.000000 1.000000 1.000000
v -0.238844 -0.350428 -0.073548 1.000000 1.000000 1.000000
v -0.245244 -0.342937 -0.053554 1.000000 1.000000 1.000000
v -0.197009 -0.294563 -0.053556 1.000000 1.000000 1.000000
v -0.245244 -0.342937 0.053550 1.000000 1.000000 1.000000
v -0.190332 -0.301564 0.073249 1.000000 1.000000 1.000000
v -0.197009 -0.294563 0.053552 1.000000 1.000000 1.000000
v -0.238844 -0.350428 0.073544 1.000000 1.000000 1.000000
v -0.256564 -0.129067 0.053548 1.000000 1.000000 1.000000
v -0.243241 -0.142281 -0.053558 1.000000 1.000000 1.000000
v -0.256564 -0.129067 -0.053552 1.000000 1.000000 1.000000
v -0.243241 -0.142281 0.053554 1.000000 1.000000 1.000000
v -0.097181 -0.288341 -0.053558 1.000000 1.000000 1.000000
v -0.097181 -0.288341 0.053554 1.000000 1.000000 1.000000
v -0.083966 -0.301664 -0.053552 1.000000 1.000000 1.000000
v -0.083966 -0.301664 0.053548 1.000000 1.000000 1.000000
v -0.249463 -0.242109 -0.053556 1.000000 1.000000 1.000000
v -0.249463 -0.242109 0.053552 1.000000 1.000000 1.000000
v -0.297836 -0.290344 -0.053554 1.000000 1.000000 1.000000
v -0.297836 -0.290344 0.053550 1.000000 1.000000 1.000000
v -0.245244 -0.342937 0.053550 1.000000 1.000000 1.000000
v -0.197009 -0.294563 -0.053556 1.000000 1.000000 1.000000
v -0.245244 -0.342937 -0.053554 1.000000 1.000000 1.000000
v -0.197009 -0.294563 0.053552 1.000000 1.000000 1.000000
v -0.243241 -0.142281 -0.053558 1.000000 1.000000 1.000000
v -0.249463 -0.242109 -0.053556 1.000000 1.000000 1.000000
v -0.251124 -0.149874 -0.073259 1.000000 1.000000 1.000000
v -0.256464 -0.235432 -0.073253 1.000000 1.000000 1.000000
v -0.251124 -0.149874 0.073255 1.000000 1.000000 1.000000
v -0.249463 -0.242109 0.053552 1.000000 1.000000 1.000000
v -0.243241 -0.142281 0.053554 1.000000 1.000000 1.000000
v -0.256464 -0.235432 0.073249 1.000000 1.000000 1.000000
v -0.197009 -0.294563 -0.053556 1.000000 1.000000 1.000000
v -0.104774 -0.296225 -0.073259 1.000000 1.000000 1.000000
v -0.190332 -0.301564 -0.073253 1.000000 1.000000 1.000000
v -0.097181 -0.288341 -0.053558 1.000000 1.000000 1.000000
v -0.197009 -0.294563 0.053552 1.000000 1.000000 1.000000
v -0.104774 -0.296225 0.073255 1.000000 1.000000 1.000000
v -0.097181 -0.288341 0.053554 1.000000 1.000000 1.000000
v -0.190332 -0.301564 0.073249 1.000000 1.000000 1.000000
v -0.256564 -0.129067 -0.053552 1.000000 1.000000 1.000000
v -0.264870 -0.136481 -0.073535 1.000000 1.000000 1.000000
v -0.264014 -0.122860 -0.073536 1.000000 1.000000 1.000000
v -0.264870 -0.136481 0.073531 1.000000 1.000000 1.000000
v -0.256564 -0.129067 0.053548 1.000000 1.000000 1.000000
v -0.264014 -0.122860 0.073532 1.000000 1.000000 1.000000
v -0.264014 -0.122860 -0.073536 1.000000 1.000000 1.000000
v -0.230742 -0.089574 -0.073541 1.000000 1.000000 1.000000
v -0.224334 -0.097052 -0.053556 1.000000 1.000000 1.000000
v -0.256565 -0.129319 -0.053559 1.000000 1.000000 1.000000
v -0.224334 -0.097052 0.053552 1.000000 1.000000 1.000000
v -0.264014 -0.122860 0.073532 1.000000 1.000000 1.000000
v -0.256565 -0.129319 0.053555 1.000000 1.000000 1.000000
v -0.230742 -0.089574 0.073538 1.000000 1.000000 1.000000
v -0.083966 -0.301664 0.053548 1.000000 1.000000 1.000000
v -0.091381 -0.309970 0.073531 1.000000 1.000000 1.000000
v -0.077760 -0.309115 0.073532 1.000000 1.000000 1.000000
v -0.091381 -0.309970 -0.073535 1.000000 1.000000 1.000000
v -0.083966 -0.301664 -0.053552 1.000000 1.000000 1.000000
v -0.077760 -0.309115 -0.073536 1.000000 1.000000 1.000000
v -0.249463 -0.242109 -0.053556 1.000000 1.000000 1.000000
v -0.243241 -0.142281 0.053554 1.000000 1.000000 1.000000
v -0.249463 -0.242109 0.053552 1.000000 1.000000 1.000000
v -0.243241 -0.142281 -0.053558 1.000000 1.000000 1.000000
v -0.077760 -0.309115 -0.073536 1.000000 1.000000 1.000000
v -0.051952 -0.269435 -0.053556 1.000000 1.000000 1.000000
v -0.044474 -0.275842 -0.073542 1.000000 1.000000 1.000000
v -0.084219 -0.301666 -0.053559 1.000000 1.000000 1.000000
v -0.084219 -0.301666 0.053555 1.000000 1.000000 1.000000
v -0.077760 -0.309115 0.073532 1.000000 1.000000 1.000000
v -0.051952 -0.269435 0.053552 1.000000 1.000000 1.000000
v -0.044474 -0.275842 0.073537 1.000000 1.000000 1.000000
v -0.197009 -0.294563 -0.053556 1.000000 1.000000 1.000000
v -0.097181 -0.288341 0.053554 1.000000 1.000000 1.000000
v -0.097181 -0.288341 -0.053558 1.000000 1.000000 1.000000
v -0.197009 -0.294563 0.053552 1.000000 1.000000 1.000000
v -0.297523 -0.291177 -0.053556 1.000000 1.000000 1.000000
v -0.305800 -0.298648 -0.073527 1.000000 1.000000 1.000000
v -0.305328 -0.283944 -0.073548 1.000000 1.000000 1.000000
v -0.297836 -0.290344 -0.053554 1.000000 1.000000 1.000000
v -0.297523 -0.291177 0.053552 1.000000 1.000000 1.000000
v -0.305328 -0.283944 0.073544 1.000000 1.000000 1.000000
v -0.305800 -0.298648 0.073523 1.000000 1.000000 1.000000
v -0.297836 -0.290344 0.053550 1.000000 1.000000 1.000000
v -0.224334 -0.097052 -0.053556 1.000000 1.000000 1.000000
v -0.256565 -0.129319 0.053555 1.000000 1.000000 1.000000
v -0.256565 -0.129319 -0.053559 1.000000 1.000000 1.000000
v -0.224334 -0.097052 0.053552 1.000000 1.000000 1.000000
v -0.238844 -0.350428 0.073544 1.000000 1.000000 1.000000
v -0.246077 -0.342624 0.053552 1.000000 1.000000 1.000000
v -0.253548 -0.350901 0.073523 1.000000 1.000000 1.000000
v -0.245244 -0.342937 0.053550 1.000000 1.000000 1.000000
v -0.305800 -0.298648 -0.073527 1.000000 1.000000 1.000000
v -0.246077 -0.342624 -0.053556 1.000000 1.000000 1.000000
v -0.253548 -0.350901 -0.073527 1.000000 1.000000 1.000000
v -0.297523 -0.291177 -0.053556 1.000000 1.000000 1.000000
v -0.246077 -0.342624 0.053552 1.000000 1.000000 1.000000
v -0.297523 -0.291177 0.053552 1.000000 1.000000 1.000000
v -0.305800 -0.298648 0.073523 1.000000 1.000000 1.000000
v -0.253548 -0.350901 0.073523 1.000000 1.000000 1.000000
v -0.238844 -0.350428 -0.073548 1.000000 1.000000 1.000000
v -0.246077 -0.342624 -0.053556 1.000000 1.000000 1.000000
v -0.245244 -0.342937 -0.053554 1.000000 1.000000 1.000000
v -0.253548 -0.350901 -0.073527 1.000000 1.000000 1.000000
v -0.298556 -0.195461 -0.053543 1.000000 1.000000 1.000000
v -0.298620 -0.195315 0.053568 1.000000 1.000000 1.000000
v -0.298556 -0.195461 0.053539 1.000000 1.000000 1.000000
v -0.298620 -0.195315 -0.053572 1.000000 1.000000 1.000000
v -0.084219 -0.301666 -0.053559 1.000000 1.000000 1.000000
v -0.084219 -0.301666 0.053555 1.000000 1.000000 1.000000
v -0.051952 -0.269435 -0.053556 1.000000 1.000000 1.000000
v -0.051952 -0.269435 0.053552 1.000000 1.000000 1.000000
v -0.297523 -0.291177 0.053552 1.000000 1.000000 1.000000
v -0.297523 -0.291177 -0.053556 1.000000 1.000000 1.000000
v -0.297836 -0.290344 -0.053554 1.000000 1.000000 1.000000
v -0.297836 -0.290344 0.053550 1.000000 1.000000 1.000000
v -0.297523 -0.291177 -0.053556 1.000000 1.000000 1.000000
v -0.297523 -0.291177 0.053552 1.000000 1.000000 1.000000
v -0.246077 -0.342624 -0.053556 1.000000 1.000000 1.000000
v -0.246077 -0.342624 0.053552 1.000000 1.000000 1.000000
v -0.246077 -0.342624 -0.053556 1.000000 1.000000 1.000000
v -0.245244 -0.342937 0.053550 1.000000 1.000000 1.000000
v -0.245244 -0.342937 -0.053554 1.000000 1.000000 1.000000
v -0.246077 -0.342624 0.053552 1.000000 1.000000 1.000000

vn 0.000000 1.000000 0.000000
vn 0.000000 1.000000 0.000000
vn 0.000000 1.000000 0.000000
vn 0.000000 1.000000 0.000000
vn 0.994998 -0.099900 -0.000000
vn 0.982511 -0.186202 -0.000000
vn 0.982511 -0.186202 -0.000000
vn 0.994998 -0.099900 -0.000000
vn 0.952386 -0.304895 -0.000000
vn 0.952386 -0.304895 -0.000000
vn 0.888531 -0.458816 -0.000000
vn 0.888531 -0.458816 -0.000000
vn 0.751982 -0.659184 -0.000000
vn 0.751982 -0.659184 -0.000000
vn 0.896379 -0.443289 -0.000000
vn 0.896379 -0.443289 -0.000000
vn 0.997943 0.064103 0.000000
vn 0.997943 0.064103 0.000000
vn -0.707107 -0.707107 -0.000000
vn -0.707107 -0.707107 -0.000000
vn -0.707107 -0.707107 -0.000000
vn -0.707107 -0.707107 -0.000000
vn -0.618100 -0.618100 -0.485700
vn -0.618100 -0.618100 -0.485700
vn -0.618100 -0.618100 -0.485700
vn -0.618100 -0.618100 -0.485700
vn -0.618100 -0.618100 0.485700
vn -0.618100 -0.618100 0.485700
vn -0.618100 -0.618100 0.485700
vn -0.618100 -0.618100 0.485700
vn 0.053300 -0.934595 -0.351698
vn 0.053300 -0.934595 -0.351698
vn 0.053300 -0.934595 -0.351698
vn 0.053300 -0.934595 -0.351698
vn 0.053300 -0.934595 0.351698
vn 0.053300 -0.934595 0.351698
vn 0.053300 -0.934595 0.351698
vn 0.053300 -0.934595 0.351698
vn 0.605920 -0.795526 -0.000000
vn 0.605920 -0.795526 -0.000000
vn 0.605920 -0.795526 -0.000000
vn 0.605920 -0.795526 -0.000000
vn 0.634627 -0.634627 -0.441019
vn 0.634627 -0.634627 -0.441019
vn 0.634627 -0.634627 -0.441019
vn 0.634627 -0.634627 -0.441019
vn 0.634627 -0.634627 0.441019
vn 0.634627 -0.634627 0.441019
vn 0.634627 -0.634627 0.441019
vn 0.634627 -0.634627 0.441019
vn 0.707107 -0.707107 -0.000000
vn 0.707107 -0.707107 -0.000000
vn 0.707107 -0.707107 -0.000000
vn 0.707107 -0.707107 -0.000000
vn 0.057198 -0.998363 -0.000000
vn 0.057198 -0.998363 -0.000000
vn 0.057198 -0.998363 -0.000000
vn 0.057198 -0.998363 -0.000000
vn -0.934595 0.053300 -0.351698
vn -0.934595 0.053300 -0.351698
vn -0.934595 0.053300 -0.351698
vn -0.934595 0.053300 -0.351698
vn -0.934595 0.053300 0.351698
vn -0.934595 0.053300 0.351698
vn -0.934595 0.053300 0.351698
vn -0.934595 0.053300 0.351698
vn -0.605920 0.795526 0.000000
vn -0.605920 0.795526 0.000000
vn -0.605920 0.795526 0.000000
vn -0.605920 0.795526 0.000000
vn -0.634627 0.634627 -0.441019
vn -0.634627 0.634627 -0.441019
vn -0.634627 0.634627 -0.441019
vn -0.634627 0.634627 -0.441019
vn -0.634627 0.634627 0.441019
vn -0.634627 0.634627 0.441019
vn -0.634627 0.634627 0.441019
vn -0.634627 0.634627 0.441019
vn -0.998363 0.057198 0.000000
vn -0.998363 0.057198 0.000000
vn -0.998363 0.057198 0.000000
vn -0.998363 0.057198 0.000000
vn -0.707107 0.707107 0.000000
vn -0.707107 0.707107 0.000000
vn -0.707107 0.707107 0.000000
vn -0.707107 0.707107 0.000000
vn 0.057600 -0.934301 -0.351800
vn 0.057600 -0.934301 -0.351800
vn 0.057600 -0.934301 -0.351800
vn 0.057600 -0.934301 -0.351800
vn 0.057600 -0.934301 0.351800
vn 0.057600 -0.934301 0.351800
vn 0.057600 -0.934301 0.351800
vn 0.057600 -0.934301 0.351800
vn 0.061600 -0.998101 -0.000000
vn 0.061600 -0.998101 -0.000000
vn 0.061600 -0.998101 -0.000000
vn 0.061600 -0.998101 -0.000000
vn -0.934301 0.057600 -0.351800
vn -0.934301 0.057600 -0.351800
vn -0.934301 0.057600 -0.351800
vn -0.934301 0.057600 -0.351800
vn -0.934301 0.057600 0.351800
vn -0.934301 0.057600 0.351800
vn -0.934301 0.057600 0.351800
vn -0.934301 0.057600 0.351800
vn 0.289694 -0.863481 -0.412891
vn 0.238206 -0.883423 -0.403511
vn -0.148096 -0.891376 -0.428388
vn 0.238206 -0.883423 0.403511
vn 0.289694 -0.863481 0.412891
vn -0.148096 -0.891376 0.428388
vn -0.998101 0.061600 0.000000
vn -0.998101 0.061600 0.000000
vn -0.998101 0.061600 0.000000
vn -0.998101 0.061600 0.000000
vn -0.768810 0.467606 -0.436206
vn -0.806999 0.405000 -0.429800
vn -0.765805 -0.429403 -0.478703
vn -0.806999 0.405000 0.429800
vn -0.768810 0.467606 0.436206
vn -0.765805 -0.429403 0.478703
vn 0.635223 -0.633823 -0.441316
vn 0.238206 -0.883423 -0.403511
vn 0.289694 -0.863481 -0.412891
vn 0.635223 -0.633823 -0.441316
vn 0.289694 -0.863481 0.412891
vn 0.635223 -0.633823 0.441316
vn 0.635223 -0.633823 0.441316
vn 0.238206 -0.883423 0.403511
vn 0.956785 0.290796 0.000000
vn 0.956841 0.290612 0.000000
vn 0.707806 -0.706406 -0.000000
vn 0.707806 -0.706406 -0.000000
vn -0.765805 -0.429403 -0.478703
vn -0.786721 -0.394611 -0.474713
vn -0.615095 -0.621095 -0.485696
vn -0.615095 -0.621095 -0.485696
vn -0.786752 -0.394526 0.474732
vn -0.615095 -0.621095 0.485696
vn -0.615095 -0.621095 0.485696
vn -0.765805 -0.429403 0.478703
vn -0.621095 -0.615095 -0.485696
vn -0.213009 -0.870636 -0.443418
vn -0.148096 -0.891376 -0.428388
vn -0.621095 -0.615095 -0.485696
vn -0.621095 -0.615095 0.485696
vn -0.621095 -0.615095 0.485696
vn -0.213009 -0.870636 0.443418
vn -0.148096 -0.891376 0.428388
vn -0.991940 0.126705 0.000000
vn -0.978021 0.208505 0.000000
vn -0.991940 0.126705 0.000000
vn -0.978021 0.208505 0.000000
vn -0.948893 0.315598 0.000000
vn -0.948893 0.315598 0.000000
vn -0.879074 0.476686 0.000000
vn -0.879074 0.476686 0.000000
vn -0.715111 0.699011 0.000000
vn -0.715111 0.699011 0.000000
vn -0.092799 0.995685 0.000000
vn -0.092799 0.995685 0.000000
vn 0.226597 0.973989 0.000000
vn 0.226597 0.973989 0.000000
vn -0.633823 0.635223 -0.441316
vn -0.806999 0.405000 -0.429800
vn -0.768810 0.467606 -0.436206
vn -0.633823 0.635223 -0.441316
vn -0.806999 0.405000 0.429800
vn -0.633823 0.635223 0.441316
vn -0.633823 0.635223 0.441316
vn -0.768810 0.467606 0.436206
vn 0.004600 -0.999989 -0.000000
vn 0.004600 -0.999989 -0.000000
vn 0.004600 -0.999989 -0.000000
vn 0.004600 -0.999989 -0.000000
vn 0.321083 -0.947051 -0.000000
vn -0.704100 -0.710100 -0.000000
vn -0.704100 -0.710100 -0.000000
vn 0.320994 -0.947081 -0.000000
vn -0.710100 -0.704100 -0.000000
vn -0.710100 -0.704100 -0.000000
vn 0.024600 0.999697 0.000000
vn 0.024600 0.999697 0.000000
vn -0.710100 -0.704100 -0.000000
vn 0.024700 0.999695 0.000000
vn 0.024700 0.999695 0.000000
vn 0.956841 0.290612 0.000000
vn 0.956785 0.290796 0.000000
vn -0.706406 0.707806 0.000000
vn -0.062297 0.998058 0.000000
vn -0.062397 0.998051 0.000000
vn -0.706406 0.707806 0.000000
vn -0.999991 0.004200 0.000000
vn -0.999991 0.004200 0.000000
vn -0.999991 0.004200 0.000000
vn -0.999991 0.004200 0.000000
vn -0.000000 -0.000000 1.000000
vn -0.000000 -0.000000 1.000000
vn -0.000000 -0.000000 1.000000
vn -0.000000 -0.000000 1.000000
vn -0.000000 -0.000000 1.000000
vn -0.000000 -0.000000 1.000000
vn -0.000000 -0.000000 1.000000
vn -0.000000 -0.000000 1.000000
vn -0.000000 -0.000000 1.000000
vn -0.000000 -0.000000 1.000000
vn -0.000000 -0.000000 1.000000
vn -0.000000 -0.000000 1.000000
vn 0.000000 0.000000 -1.000000
vn 0.000000 0.000000 -1.000000
vn 0.000000 0.000000 -1.000000
vn 0.000000 0.000000 -1.000000
vn -0.000000 -0.000000 1.000000
vn -0.000000 -0.000000 1.000000
vn -0.000000 -0.000000 1.000000
vn -0.000000 -0.000000 1.000000
vn 0.000000 0.000000 -1.000000
vn 0.000000 0.000000 -1.000000
vn 0.000000 0.000000 -1.000000
vn 0.000000 0.000000 -1.000000
vn -0.000000 -0.000000 1.000000
vn -0.000000 -0.000000 1.000000
vn -0.000000 -0.000000 1.000000
vn -0.000000 -0.000000 1.000000
vn 0.000000 0.000000 -1.000000
vn 0.000000 0.000000 -1.000000
vn 0.000000 0.000000 -1.000000
vn 0.000000 0.000000 -1.000000
vn 0.000000 0.000000 -1.000000
vn 0.000000 0.000000 -1.000000
vn 0.000000 0.000000 -1.000000
vn 0.000000 0.000000 -1.000000
vn 0.000000 0.000000 -1.000000
vn 0.000000 0.000000 -1.000000
vn 0.000000 0.000000 -1.000000
vn 0.000000 0.000000 -1.000000
vn 0.000300 -0.007600 0.999971
vn 0.000300 -0.007600 0.999971
vn 0.000300 -0.007600 0.999971
vn 0.000300 -0.007600 0.999971
vn 0.000300 -0.007600 -0.999971
vn 0.000300 -0.007600 -0.999971
vn 0.000300 -0.007600 -0.999971
vn 0.000300 -0.007600 -0.999971
vn -0.004100 0.004000 0.999984
vn -0.004100 0.004000 0.999984
vn -0.004100 0.004000 0.999984
vn -0.004100 0.004000 0.999984
vn -0.004100 0.004000 -0.999984
vn -0.004100 0.004000 -0.999984
vn -0.004100 0.004000 -0.999984
vn -0.004100 0.004000 -0.999984
vn 0.004000 -0.004100 0.999984
vn 0.004000 -0.004100 0.999984
vn 0.004000 -0.004100 0.999984
vn 0.004000 -0.004100 0.999984
vn 0.004000 -0.004100 -0.999984
vn 0.004000 -0.004100 -0.999984
vn 0.004000 -0.004100 -0.999984
vn 0.004000 -0.004100 -0.999984
vn -0.003400 -0.003400 0.999988
vn -0.003400 -0.003400 0.999988
vn -0.003400 -0.003400 0.999988
vn -0.003400 -0.003400 0.999988
vn -0.003400 -0.003400 -0.999988
vn -0.003400 -0.003400 -0.999988
vn -0.003400 -0.003400 -0.999988
vn -0.003400 -0.003400 -0.999988
vn 0.000400 -0.007500 0.999972
vn 0.000400 -0.007500 0.999972
vn 0.000400 -0.007500 0.999972
vn 0.000400 -0.007500 0.999972
vn -0.007500 0.000400 -0.999972
vn -0.007500 0.000400 -0.999972
vn -0.007500 0.000400 -0.999972
vn -0.007500 0.000400 -0.999972
vn -0.007500 0.000400 0.999972
vn -0.007500 0.000400 0.999972
vn -0.007500 0.000400 0.999972
vn -0.007500 0.000400 0.999972
vn 0.000400 -0.007500 -0.999972
vn 0.000400 -0.007500 -0.999972
vn 0.000400 -0.007500 -0.999972
vn 0.000400 -0.007500 -0.999972
vn -0.007600 0.000300 -0.999971
vn -0.007600 0.000300 -0.999971
vn -0.007600 0.000300 -0.999971
vn -0.007600 0.000300 -0.999971
vn -0.007600 0.000300 0.999971
vn -0.007600 0.000300 0.999971
vn -0.007600 0.000300 0.999971
vn -0.007600 0.000300 0.999971
vn 0.006200 -0.000400 0.999981
vn -0.000100 0.000100 1.000000
vn 0.000900 -0.000000 1.000000
vn -0.000100 0.000100 1.000000
vn 0.006200 -0.000400 -0.999981
vn -0.000100 0.000100 -1.000000
vn -0.000100 0.000100 -1.000000
vn 0.000900 0.000100 -1.000000
vn -0.000300 0.005400 0.999985
vn 0.000100 -0.000100 1.000000
vn -0.000100 0.003000 0.999995
vn 0.000100 -0.000100 1.000000
vn 0.000100 -0.000100 -1.000000
vn -0.000100 0.003000 -0.999995
vn 0.000100 -0.000100 -1.000000
vn -0.000300 0.005400 -0.999985
vn 0.006300 -0.000400 0.999980
vn -0.000000 -0.000000 1.000000
vn -0.000000 -0.000000 1.000000
vn 0.000800 -0.000000 1.000000
vn 0.006300 -0.000400 -0.999980
vn 0.000000 0.000000 -1.000000
vn 0.000800 0.000000 -1.000000
vn 0.000000 0.000000 -1.000000
vn -0.000200 0.003500 0.999994
vn -0.000000 -0.000000 1.000000
vn -0.000300 0.004900 0.999988
vn -0.000000 -0.000000 1.000000
vn 0.000000 0.000000 -1.000000
vn 0.000000 0.000000 -1.000000
vn -0.000200 0.003500 -0.999994
vn -0.000300 0.004900 -0.999988
vn 0.000800 0.000000 -1.000000
vn 0.000900 0.000100 -1.000000
vn 0.006300 -0.000400 -0.999980
vn 0.006200 -0.000400 -0.999981
vn 0.000900 -0.000000 1.000000
vn 0.006300 -0.000400 0.999980
vn 0.006200 -0.000400 0.999981
vn 0.000800 -0.000000 1.000000
vn -0.000200 0.003500 -0.999994
vn -0.000300 0.005400 -0.999985
vn -0.000300 0.004900 -0.999988
vn -0.000100 0.003000 -0.999995
vn -0.000200 0.003500 0.999994
vn -0.000300 0.004900 0.999988
vn -0.000300 0.005400 0.999985
vn -0.000100 0.003000 0.999995
vn 0.615203 0.620903 -0.485803
vn 0.615203 0.620903 -0.485803
vn 0.843579 0.292293 -0.450489
vn 0.763854 0.437431 -0.474533
vn 0.615203 0.620903 0.485803
vn 0.843579 0.292293 0.450489
vn 0.763854 0.437431 0.474533
vn 0.615203 0.620903 0.485803
vn 0.190309 0.883843 -0.427321
vn 0.620903 0.615203 -0.485803
vn 0.620903 0.615203 -0.485803
vn 0.158897 0.893884 -0.419193
vn 0.158897 0.893884 0.419193
vn 0.190309 0.883843 0.427321
vn 0.620903 0.615203 0.485803
vn 0.620903 0.615203 0.485803
vn -0.703699 -0.710499 -0.000000
vn -0.703699 -0.710499 -0.000000
vn -0.703699 -0.710499 -0.000000
vn -0.703699 -0.710499 -0.000000
vn 0.834066 -0.359685 -0.418283
vn 0.633802 -0.635602 -0.440801
vn 0.633802 -0.635602 -0.440801
vn 0.770111 -0.468807 -0.432606
vn 0.633802 -0.635602 0.440801
vn 0.770111 -0.468807 0.432606
vn 0.834066 -0.359685 0.418283
vn 0.633802 -0.635602 0.440801
vn -0.278600 0.871301 -0.404000
vn -0.635602 0.633802 -0.440801
vn -0.635602 0.633802 -0.440801
vn -0.233606 0.888523 -0.394910
vn -0.635602 0.633802 0.440801
vn -0.278600 0.871301 0.404000
vn -0.233606 0.888523 0.394910
vn -0.635602 0.633802 0.440801
vn 0.704201 0.710001 0.000000
vn 0.908626 0.417612 0.000000
vn 0.704201 0.710001 0.000000
vn 0.908626 0.417612 0.000000
vn 0.187397 0.982284 0.000000
vn 0.187397 0.982284 0.000000
vn 0.710001 0.704201 0.000000
vn 0.710001 0.704201 0.000000
vn 0.886884 -0.461992 -0.000000
vn 0.886884 -0.461992 -0.000000
vn 0.706106 -0.708106 -0.000000
vn 0.706106 -0.708106 -0.000000
vn -0.708106 0.706106 0.000000
vn -0.274589 0.961562 0.000000
vn -0.708106 0.706106 0.000000
vn -0.274589 0.961562 0.000000
vn 0.763854 0.437431 -0.474533
vn 0.770111 -0.468807 -0.432606
vn 0.843579 0.292293 -0.450489
vn 0.834066 -0.359685 -0.418283
vn 0.843579 0.292293 0.450489
vn 0.770111 -0.468807 0.432606
vn 0.763854 0.437431 0.474533
vn 0.834066 -0.359685 0.418283
vn -0.233606 0.888523 -0.394910
vn 0.190309 0.883843 -0.427321
vn -0.278600 0.871301 -0.404000
vn 0.158897 0.893884 -0.419193
vn -0.233606 0.888523 0.394910
vn 0.190309 0.883843 0.427321
vn 0.158897 0.893884 0.419193
vn -0.278600 0.871301 0.404000
vn 0.929132 -0.059602 -0.364913
vn 0.929132 -0.059602 -0.364913
vn 0.929132 -0.059602 -0.364913
vn 0.929132 -0.059602 0.364913
vn 0.929132 -0.059602 0.364913
vn 0.929132 -0.059602 0.364913
vn 0.634783 -0.634283 -0.441288
vn 0.634783 -0.634283 -0.441288
vn 0.634783 -0.634283 -0.441288
vn 0.634783 -0.634283 -0.441288
vn 0.634783 -0.634283 0.441288
vn 0.634783 -0.634283 0.441288
vn 0.634783 -0.634283 0.441288
vn 0.634783 -0.634283 0.441288
vn -0.059602 0.929132 0.364913
vn -0.059602 0.929132 0.364913
vn -0.059602 0.929132 0.364913
vn -0.059602 0.929132 -0.364913
vn -0.059602 0.929132 -0.364913
vn -0.059602 0.929132 -0.364913
vn 0.886884 -0.461992 -0.000000
vn 0.908626 0.417612 0.000000
vn 0.886884 -0.461992 -0.000000
vn 0.908626 0.417612 0.000000
vn -0.634283 0.634783 -0.441288
vn -0.634283 0.634783 -0.441288
vn -0.634283 0.634783 -0.441288
vn -0.634283 0.634783 -0.441288
vn -0.634283 0.634783 0.441288
vn -0.634283 0.634783 0.441288
vn -0.634283 0.634783 0.441288
vn -0.634283 0.634783 0.441288
vn -0.274589 0.961562 0.000000
vn 0.187397 0.982284 0.000000
vn 0.187397 0.982284 0.000000
vn -0.274589 0.961562 0.000000
vn 0.930287 -0.010000 -0.366695
vn 0.930287 -0.010000 -0.366695
vn 0.930287 -0.010000 -0.366695
vn 0.930287 -0.010000 -0.366695
vn 0.930287 -0.010000 0.366695
vn 0.930287 -0.010000 0.366695
vn 0.930287 -0.010000 0.366695
vn 0.930287 -0.010000 0.366695
vn 0.707507 -0.706707 -0.000000
vn 0.707507 -0.706707 -0.000000
vn 0.707507 -0.706707 -0.000000
vn 0.707507 -0.706707 -0.000000
vn -0.009999 0.930253 0.366782
vn -0.009999 0.930253 0.366782
vn -0.009999 0.930253 0.366782
vn -0.009999 0.930253 0.366782
vn 0.617591 0.617591 -0.486993
vn 0.617591 0.617591 -0.486993
vn 0.617591 0.617591 -0.486993
vn 0.617591 0.617591 -0.486993
vn 0.617591 0.617591 0.486993
vn 0.617591 0.617591 0.486993
vn 0.617591 0.617591 0.486993
vn 0.617591 0.617591 0.486993
vn -0.009999 0.930253 -0.366782
vn -0.009999 0.930253 -0.366782
vn -0.009999 0.930253 -0.366782
vn -0.009999 0.930253 -0.366782
vn 0.321083 -0.947051 -0.000000
vn -0.062297 0.998058 0.000000
vn 0.320994 -0.947081 -0.000000
vn -0.062397 0.998051 0.000000
vn -0.706707 0.707507 0.000000
vn -0.706707 0.707507 0.000000
vn -0.706707 0.707507 0.000000
vn -0.706707 0.707507 0.000000
vn 0.936078 0.351792 0.000000
vn 0.936078 0.351792 0.000000
vn 0.936078 0.351792 0.000000
vn 0.936078 0.351792 0.000000
vn 0.707107 0.707107 0.000000
vn 0.707107 0.707107 0.000000
vn 0.707107 0.707107 0.000000
vn 0.707107 0.707107 0.000000
vn 0.351704 0.936111 0.000000
vn 0.351704 0.936111 0.000000
vn 0.351704 0.936111 0.000000
vn 0.351704 0.936111 0.000000

vt 0.375000 0.750000 0.0
vt 0.375000 0.250000 0.0
vt 0.375000 1.000000 0.0
vt 0.375000 0.500000 0.0
vt 0.375000 0.000000 0.0
vt 0.375000 0.250000 0.0
vt 0.375000 0.000000 0.0
vt 0.375000 0.250000 0.0
vt 0.375000 0.250000 0.0
vt 0.375000 0.000000 0.0
vt 0.375000 0.250000 0.0
vt 0.375000 0.000000 0.0
vt 0.375000 0.250000 0.0
vt 0.375000 0.000000 0.0
vt 0.375000 0.250000 0.0
vt 0.375000 0.000000 0.0
vt 0.375000 0.250000 0.0
vt 0.375000 0.000000 0.0
vt 0.375000 0.534077 0.0
vt 0.375000 0.715923 0.0
vt 0.125000 0.534077 0.0
vt 0.125000 0.715923 0.0
vt 0.375000 0.500000 0.0
vt 0.125000 0.534077 0.0
vt 0.125000 0.500000 0.0
vt 0.375000 0.534077 0.0
vt 0.125000 0.715923 0.0
vt 0.375000 0.715923 0.0
vt 0.375000 0.750000 0.0
vt 0.125000 0.750000 0.0
vt 0.625000 0.500000 0.0
vt 0.375000 0.500000 0.0
vt 0.590923 0.500000 0.0
vt 0.375000 0.534077 0.0
vt 0.590923 0.750000 0.0
vt 0.375000 0.750000 0.0
vt 0.625000 0.750000 0.0
vt 0.375000 0.715923 0.0
vt 0.375000 0.250000 0.0
vt 0.375000 0.000000 0.0
vt 0.375000 0.000000 0.0
vt 0.375000 0.250000 0.0
vt 0.590923 0.500000 0.0
vt 0.590923 0.250000 0.0
vt 0.625000 0.250000 0.0
vt 0.625000 0.500000 0.0
vt 0.625000 1.000000 0.0
vt 0.590923 0.750000 0.0
vt 0.625000 0.750000 0.0
vt 0.590923 1.000000 0.0
vt 0.875000 0.534077 0.0
vt 0.875000 0.715923 0.0
vt 0.625000 0.534077 0.0
vt 0.625000 0.715923 0.0
vt 0.375000 0.534077 0.0
vt 0.625000 0.534077 0.0
vt 0.375000 0.715923 0.0
vt 0.625000 0.715923 0.0
vt 0.375000 0.534077 0.0
vt 0.125000 0.500000 0.0
vt 0.125000 0.534077 0.0
vt 0.375000 0.500000 0.0
vt 0.375000 0.715923 0.0
vt 0.125000 0.750000 0.0
vt 0.375000 0.750000 0.0
vt 0.125000 0.715923 0.0
vt 0.375000 0.750000 0.0
vt 0.375000 0.500000 0.0
vt 0.375000 0.750000 0.0
vt 0.375000 0.500000 0.0
vt 0.375000 0.500000 0.0
vt 0.125000 0.534077 0.0
vt 0.125000 0.500000 0.0
vt 0.375000 0.534077 0.0
vt 0.375000 0.715923 0.0
vt 0.375000 0.750000 0.0
vt 0.125000 0.715923 0.0
vt 0.125000 0.750000 0.0
vt 0.125000 0.534077 0.0
vt 0.375000 0.715923 0.0
vt 0.375000 0.534077 0.0
vt 0.125000 0.715923 0.0
vt 0.375000 0.715923 0.0
vt 0.125000 0.534077 0.0
vt 0.375000 0.534077 0.0
vt 0.125000 0.715923 0.0
vt 0.625000 0.500000 0.0
vt 0.375000 0.500000 0.0
vt 0.590923 0.500000 0.0
vt 0.375000 0.534077 0.0
vt 0.590923 0.750000 0.0
vt 0.375000 0.750000 0.0
vt 0.625000 0.750000 0.0
vt 0.375000 0.715923 0.0
vt 0.375000 0.534077 0.0
vt 0.625000 0.534077 0.0
vt 0.375000 0.715923 0.0
vt 0.625000 0.715923 0.0
vt 0.375000 0.534077 0.0
vt 0.125000 0.500000 0.0
vt 0.125000 0.534077 0.0
vt 0.375000 0.500000 0.0
vt 0.375000 0.715923 0.0
vt 0.125000 0.750000 0.0
vt 0.375000 0.750000 0.0
vt 0.125000 0.715923 0.0
vt 0.625000 0.250000 0.0
vt 0.590923 0.250000 0.0
vt 0.125000 0.500000 0.0
vt 0.590923 1.000000 0.0
vt 0.625000 1.000000 0.0
vt 0.125000 0.750000 0.0
vt 0.125000 0.534077 0.0
vt 0.375000 0.715923 0.0
vt 0.375000 0.534077 0.0
vt 0.125000 0.715923 0.0
vt 0.125000 0.500000 0.0
vt 0.125000 0.534077 0.0
vt 0.375000 0.500000 0.0
vt 0.125000 0.715923 0.0
vt 0.125000 0.750000 0.0
vt 0.375000 0.750000 0.0
vt 0.590923 0.500000 0.0
vt 0.590923 0.250000 0.0
vt 0.625000 0.250000 0.0
vt 0.625000 0.500000 0.0
vt 0.625000 1.000000 0.0
vt 0.590923 0.750000 0.0
vt 0.625000 0.750000 0.0
vt 0.590923 1.000000 0.0
vt 0.875000 0.534077 0.0
vt 0.875000 0.715923 0.0
vt 0.625000 0.534077 0.0
vt 0.625000 0.715923 0.0
vt 0.375000 0.500000 0.0
vt 0.375000 0.534077 0.0
vt 0.125000 0.500000 0.0
vt 0.125000 0.534077 0.0
vt 0.375000 0.715923 0.0
vt 0.125000 0.750000 0.0
vt 0.125000 0.715923 0.0
vt 0.375000 0.750000 0.0
vt 0.375000 0.500000 0.0
vt 0.125000 0.534077 0.0
vt 0.125000 0.500000 0.0
vt 0.375000 0.534077 0.0
vt 0.375000 0.715923 0.0
vt 0.375000 0.750000 0.0
vt 0.125000 0.715923 0.0
vt 0.125000 0.750000 0.0
vt 0.375000 0.750000 0.0
vt 0.375000 0.750000 0.0
vt 0.375000 0.500000 0.0
vt 0.375000 0.500000 0.0
vt 0.375000 0.750000 0.0
vt 0.375000 0.500000 0.0
vt 0.375000 0.750000 0.0
vt 0.375000 0.500000 0.0
vt 0.375000 0.750000 0.0
vt 0.375000 0.500000 0.0
vt 0.375000 0.750000 0.0
vt 0.375000 0.500000 0.0
vt 0.375000 0.750000 0.0
vt 0.375000 0.500000 0.0
vt 0.375000 0.500000 0.0
vt 0.125000 0.534077 0.0
vt 0.125000 0.500000 0.0
vt 0.375000 0.534077 0.0
vt 0.125000 0.715923 0.0
vt 0.375000 0.715923 0.0
vt 0.375000 0.750000 0.0
vt 0.125000 0.750000 0.0
vt 0.625000 0.534077 0.0
vt 0.375000 0.715923 0.0
vt 0.375000 0.534077 0.0
vt 0.625000 0.715923 0.0
vt 0.375000 0.534077 0.0
vt 0.125000 0.715923 0.0
vt 0.125000 0.534077 0.0
vt 0.375000 0.715923 0.0
vt 0.375000 0.534077 0.0
vt 0.375000 0.715923 0.0
vt 0.125000 0.534077 0.0
vt 0.125000 0.534077 0.0
vt 0.375000 0.715923 0.0
vt 0.125000 0.715923 0.0
vt 0.125000 0.715923 0.0
vt 0.875000 0.715923 0.0
vt 0.875000 0.534077 0.0
vt 0.375000 0.534077 0.0
vt 0.125000 0.715923 0.0
vt 0.125000 0.534077 0.0
vt 0.375000 0.715923 0.0
vt 0.875000 0.534077 0.0
vt 0.625000 0.715923 0.0
vt 0.875000 0.715923 0.0
vt 0.625000 0.534077 0.0
vt 0.375000 0.250000 0.0
vt 0.375000 0.500000 0.0
vt 0.375000 0.500000 0.0
vt 0.375000 0.250000 0.0
vt 0.375000 0.250000 0.0
vt 0.375000 0.500000 0.0
vt 0.375000 0.250000 0.0
vt 0.375000 0.500000 0.0
vt 0.375000 0.250000 0.0
vt 0.375000 0.500000 0.0
vt 0.375000 0.250000 0.0
vt 0.375000 0.500000 0.0
vt 0.375000 1.000000 0.0
vt 0.375000 0.750000 0.0
vt 0.375000 0.750000 0.0
vt 0.375000 1.000000 0.0
vt 0.375000 0.500000 0.0
vt 0.375000 0.250000 0.0
vt 0.375000 0.250000 0.0
vt 0.375000 0.500000 0.0
vt 0.375000 1.000000 0.0
vt 0.375000 0.750000 0.0
vt 0.375000 0.750000 0.0
vt 0.375000 1.000000 0.0
vt 0.375000 0.500000 0.0
vt 0.375000 0.250000 0.0
vt 0.375000 0.250000 0.0
vt 0.375000 0.500000 0.0
vt 0.375000 0.750000 0.0
vt 0.375000 1.000000 0.0
vt 0.375000 1.000000 0.0
vt 0.375000 0.750000 0.0
vt 0.375000 0.750000 0.0
vt 0.375000 1.000000 0.0
vt 0.375000 0.750000 0.0
vt 0.375000 1.000000 0.0
vt 0.375000 1.000000 0.0
vt 0.375000 0.750000 0.0
vt 0.375000 1.000000 0.0
vt 0.375000 0.750000 0.0
vt 0.590923 0.750000 0.0
vt 0.590923 0.750000 0.0
vt 0.409077 0.750000 0.0
vt 0.409077 0.750000 0.0
vt 0.590923 0.500000 0.0
vt 0.590923 0.500000 0.0
vt 0.409077 0.500000 0.0
vt 0.409077 0.500000 0.0
vt 0.590923 1.000000 0.0
vt 0.409077 1.000000 0.0
vt 0.409077 0.750000 0.0
vt 0.590923 0.750000 0.0
vt 0.409077 0.500000 0.0
vt 0.590923 0.250000 0.0
vt 0.590923 0.500000 0.0
vt 0.409077 0.250000 0.0
vt 0.409077 1.000000 0.0
vt 0.590923 0.750000 0.0
vt 0.590923 1.000000 0.0
vt 0.409077 0.750000 0.0
vt 0.409077 0.250000 0.0
vt 0.590923 0.500000 0.0
vt 0.409077 0.500000 0.0
vt 0.590923 0.250000 0.0
vt 0.409077 0.750000 0.0
vt 0.590923 1.000000 0.0
vt 0.409077 1.000000 0.0
vt 0.590923 0.750000 0.0
vt 0.409077 0.500000 0.0
vt 0.590923 0.250000 0.0
vt 0.590923 0.500000 0.0
vt 0.409077 0.250000 0.0
vt 0.590923 0.750000 0.0
vt 0.590923 0.750000 0.0
vt 0.409077 0.750000 0.0
vt 0.409077 0.750000 0.0
vt 0.590923 0.250000 0.0
vt 0.409077 0.500000 0.0
vt 0.590923 0.500000 0.0
vt 0.409077 0.250000 0.0
vt 0.409077 0.750000 0.0
vt 0.590923 1.000000 0.0
vt 0.590923 0.750000 0.0
vt 0.409077 1.000000 0.0
vt 0.590923 0.500000 0.0
vt 0.590923 0.500000 0.0
vt 0.409077 0.500000 0.0
vt 0.409077 0.500000 0.0
vt 0.590923 0.250000 0.0
vt 0.409077 0.500000 0.0
vt 0.590923 0.500000 0.0
vt 0.409077 0.250000 0.0
vt 0.409077 0.750000 0.0
vt 0.590923 1.000000 0.0
vt 0.590923 0.750000 0.0
vt 0.409077 1.000000 0.0
vt 0.409077 1.000000 0.0
vt 0.590923 0.750000 0.0
vt 0.590923 1.000000 0.0
vt 0.409077 0.750000 0.0
vt 0.409077 0.250000 0.0
vt 0.590923 0.500000 0.0
vt 0.409077 0.500000 0.0
vt 0.590923 0.250000 0.0
vt 0.409077 1.000000 0.0
vt 0.409077 0.750000 0.0
vt 0.590923 1.000000 0.0
vt 0.590923 0.750000 0.0
vt 0.409077 0.500000 0.0
vt 0.590923 0.250000 0.0
vt 0.590923 0.500000 0.0
vt 0.409077 0.250000 0.0
vt 0.409077 0.750000 0.0
vt 0.590923 1.000000 0.0
vt 0.409077 1.000000 0.0
vt 0.590923 0.750000 0.0
vt 0.409077 0.500000 0.0
vt 0.590923 0.250000 0.0
vt 0.590923 0.500000 0.0
vt 0.409077 0.250000 0.0
vt 0.409077 1.000000 0.0
vt 0.590923 0.750000 0.0
vt 0.590923 1.000000 0.0
vt 0.409077 0.750000 0.0
vt 0.590923 0.500000 0.0
vt 0.409077 0.500000 0.0
vt 0.409077 0.250000 0.0
vt 0.590923 0.250000 0.0
vt 0.590923 0.500000 0.0
vt 0.590923 0.250000 0.0
vt 0.409077 0.500000 0.0
vt 0.409077 0.250000 0.0
vt 0.590923 1.000000 0.0
vt 0.409077 0.750000 0.0
vt 0.409077 1.000000 0.0
vt 0.590923 0.750000 0.0
vt 0.409077 0.250000 0.0
vt 0.409077 0.250000 0.0
vt 0.590923 0.250000 0.0
vt 0.590923 0.250000 0.0
vt 0.409077 1.000000 0.0
vt 0.590923 1.000000 0.0
vt 0.409077 1.000000 0.0
vt 0.590923 1.000000 0.0
vt 0.590923 0.250000 0.0
vt 0.625000 0.250000 0.0
vt 0.590923 0.500000 0.0
vt 0.625000 0.500000 0.0
vt 0.625000 1.000000 0.0
vt 0.590923 0.750000 0.0
vt 0.625000 0.750000 0.0
vt 0.590923 1.000000 0.0
vt 0.590923 0.250000 0.0
vt 0.625000 0.500000 0.0
vt 0.590923 0.500000 0.0
vt 0.625000 0.250000 0.0
vt 0.625000 1.000000 0.0
vt 0.590923 1.000000 0.0
vt 0.625000 0.750000 0.0
vt 0.590923 0.750000 0.0
vt 0.375000 0.750000 0.0
vt 0.125000 0.750000 0.0
vt 0.125000 0.500000 0.0
vt 0.375000 0.500000 0.0
vt 0.590923 0.250000 0.0
vt 0.625000 0.500000 0.0
vt 0.590923 0.500000 0.0
vt 0.625000 0.250000 0.0
vt 0.625000 0.750000 0.0
vt 0.625000 1.000000 0.0
vt 0.590923 1.000000 0.0
vt 0.590923 0.750000 0.0
vt 0.125000 0.500000 0.0
vt 0.375000 0.500000 0.0
vt 0.375000 0.534077 0.0
vt 0.125000 0.534077 0.0
vt 0.375000 0.715923 0.0
vt 0.125000 0.750000 0.0
vt 0.125000 0.715923 0.0
vt 0.375000 0.750000 0.0
vt 0.875000 0.715923 0.0
vt 0.625000 0.534077 0.0
vt 0.875000 0.534077 0.0
vt 0.625000 0.715923 0.0
vt 0.875000 0.534077 0.0
vt 0.875000 0.715923 0.0
vt 0.625000 0.534077 0.0
vt 0.625000 0.715923 0.0
vt 0.875000 0.534077 0.0
vt 0.875000 0.715923 0.0
vt 0.625000 0.534077 0.0
vt 0.625000 0.715923 0.0
vt 0.375000 0.715923 0.0
vt 0.125000 0.534077 0.0
vt 0.375000 0.534077 0.0
vt 0.125000 0.715923 0.0
vt 0.625000 0.500000 0.0
vt 0.625000 0.250000 0.0
vt 0.590923 0.500000 0.0
vt 0.590923 0.250000 0.0
vt 0.590923 0.750000 0.0
vt 0.625000 1.000000 0.0
vt 0.625000 0.750000 0.0
vt 0.590923 1.000000 0.0
vt 0.125000 0.534077 0.0
vt 0.590923 0.250000 0.0
vt 0.125000 0.500000 0.0
vt 0.625000 0.250000 0.0
vt 0.125000 0.715923 0.0
vt 0.590923 1.000000 0.0
vt 0.625000 1.000000 0.0
vt 0.125000 0.750000 0.0
vt 0.625000 0.250000 0.0
vt 0.590923 0.250000 0.0
vt 0.590923 0.500000 0.0
vt 0.590923 1.000000 0.0
vt 0.625000 1.000000 0.0
vt 0.590923 0.750000 0.0
vt 0.590923 0.500000 0.0
vt 0.590923 0.250000 0.0
vt 0.625000 0.250000 0.0
vt 0.625000 0.500000 0.0
vt 0.625000 1.000000 0.0
vt 0.590923 0.750000 0.0
vt 0.625000 0.750000 0.0
vt 0.590923 1.000000 0.0
vt 0.625000 0.750000 0.0
vt 0.590923 0.750000 0.0
vt 0.375000 0.750000 0.0
vt 0.590923 0.500000 0.0
vt 0.625000 0.500000 0.0
vt 0.375000 0.500000 0.0
vt 0.875000 0.534077 0.0
vt 0.625000 0.715923 0.0
vt 0.875000 0.715923 0.0
vt 0.625000 0.534077 0.0
vt 0.375000 0.500000 0.0
vt 0.125000 0.534077 0.0
vt 0.125000 0.500000 0.0
vt 0.375000 0.534077 0.0
vt 0.375000 0.715923 0.0
vt 0.375000 0.750000 0.0
vt 0.125000 0.715923 0.0
vt 0.125000 0.750000 0.0
vt 0.125000 0.534077 0.0
vt 0.875000 0.715923 0.0
vt 0.875000 0.534077 0.0
vt 0.125000 0.715923 0.0
vt 0.625000 0.250000 0.0
vt 0.590923 0.250000 0.0
vt 0.590923 0.500000 0.0
vt 0.625000 0.500000 0.0
vt 0.625000 1.000000 0.0
vt 0.590923 0.750000 0.0
vt 0.590923 1.000000 0.0
vt 0.625000 0.750000 0.0
vt 0.875000 0.534077 0.0
vt 0.625000 0.715923 0.0
vt 0.625000 0.534077 0.0
vt 0.875000 0.715923 0.0
vt 0.375000 0.750000 0.0
vt 0.625000 0.750000 0.0
vt 0.590923 0.750000 0.0
vt 0.375000 0.715923 0.0
vt 0.590923 0.250000 0.0
vt 0.625000 0.500000 0.0
vt 0.590923 0.500000 0.0
vt 0.625000 0.250000 0.0
vt 0.625000 0.750000 0.0
vt 0.625000 1.000000 0.0
vt 0.590923 1.000000 0.0
vt 0.590923 0.750000 0.0
vt 0.375000 0.500000 0.0
vt 0.625000 0.500000 0.0
vt 0.375000 0.534077 0.0
vt 0.590923 0.500000 0.0
vt 0.375000 0.534077 0.0
vt 0.125000 0.715923 0.0
vt 0.375000 0.715923 0.0
vt 0.125000 0.534077 0.0
vt 0.375000 0.534077 0.0
vt 0.375000 0.715923 0.0
vt 0.125000 0.534077 0.0
vt 0.125000 0.715923 0.0
vt 0.875000 0.715923 0.0
vt 0.875000 0.534077 0.0
vt 0.625000 0.534077 0.0
vt 0.625000 0.715923 0.0
vt 0.875000 0.534077 0.0
vt 0.875000 0.715923 0.0
vt 0.625000 0.534077 0.0
vt 0.625000 0.715923 0.0
vt 0.625000 0.534077 0.0
vt 0.375000 0.715923 0.0
vt 0.375000 0.534077 0.0
vt 0.625000 0.715923 0.0

f 1/1/1 2/2/2 3/3/3
f 2/2/2 1/1/1 4/4/4
f 5/5/5 6/6/6 7/7/7
f 6/6/6 5/5/5 8/8/8
f 9/9/9 7/7/7 6/6/6
f 7/7/7 9/9/9 10/10/10
f 11/11/11 10/10/10 9/9/9
f 10/10/10 11/11/11 12/12/12
f 13/13/13 12/12/12 11/11/11
f 12/12/12 13/13/13 14/14/14
f 15/15/15 14/14/14 13/13/13
f 14/14/14 15/15/15 16/16/16
f 16/16/16 15/15/15 17/17/17
f 17/17/17 18/18/18 16/16/16
f 19/19/19 20/20/20 21/21/21
f 21/21/21 20/20/20 22/22/22
f 23/23/23 24/24/24 25/25/25
f 24/24/24 23/23/23 26/26/26
f 27/27/27 28/28/28 29/29/29
f 27/27/27 29/29/29 30/30/30
f 31/31/31 32/32/32 33/33/33
f 32/32/32 31/31/31 34/34/34
f 35/35/35 36/36/36 37/37/37
f 38/38/38 37/37/37 36/36/36
f 39/39/39 40/40/40 41/41/41
f 41/41/41 42/42/42 39/39/39
f 43/43/43 44/44/44 45/45/45
f 45/45/45 46/46/46 43/43/43
f 47/47/47 48/48/48 49/49/49
f 48/48/48 47/47/47 50/50/50
f 51/51/51 52/52/52 53/53/53
f 53/53/53 52/52/52 54/54/54
f 55/55/55 56/56/56 57/57/57
f 56/56/56 58/58/58 57/57/57
f 59/59/59 60/60/60 61/61/61
f 60/60/60 59/59/59 62/62/62
f 63/63/63 64/64/64 65/65/65
f 64/64/64 63/63/63 66/66/66
f 67/67/67 68/68/68 69/69/69
f 68/68/68 67/67/67 70/70/70
f 71/71/71 72/72/72 73/73/73
f 72/72/72 71/71/71 74/74/74
f 75/75/75 76/76/76 77/77/77
f 77/77/77 76/76/76 78/78/78
f 79/79/79 80/80/80 81/81/81
f 80/80/80 79/79/79 82/82/82
f 83/83/83 84/84/84 85/85/85
f 84/84/84 83/83/83 86/86/86
f 87/87/87 88/88/88 89/89/89
f 88/88/88 87/87/87 90/90/90
f 91/91/91 92/92/92 93/93/93
f 94/94/94 93/93/93 92/92/92
f 95/95/95 96/96/96 97/97/97
f 96/96/96 98/98/98 97/97/97
f 99/99/99 100/100/100 101/101/101
f 100/100/100 99/99/99 102/102/102
f 103/103/103 104/104/104 105/105/105
f 104/104/104 103/103/103 106/106/106
f 107/107/107 108/108/108 109/109/109
f 110/110/110 111/111/111 112/112/112
f 113/113/113 114/114/114 115/115/115
f 114/114/114 113/113/113 116/116/116
f 117/117/117 118/118/118 119/119/119
f 120/120/120 121/121/121 122/122/122
f 123/123/123 124/124/124 125/125/125
f 125/125/125 126/126/126 123/123/123
f 127/127/127 128/128/128 129/129/129
f 128/128/128 127/127/127 130/130/130
f 131/131/131 132/132/132 133/133/133
f 133/133/133 132/132/132 134/134/134
f 135/135/135 136/136/136 137/137/137
f 136/136/136 138/138/138 137/137/137
f 139/139/139 140/140/140 141/141/141
f 140/140/140 139/139/139 142/142/142
f 143/143/143 144/144/144 145/145/145
f 144/144/144 143/143/143 146/146/146
f 147/147/147 148/148/148 149/149/149
f 149/149/149 148/148/148 150/150/150
f 151/151/151 152/152/152 153/153/153
f 152/152/152 154/154/154 153/153/153
f 154/154/154 152/152/152 155/155/155
f 155/155/155 156/156/156 154/154/154
f 156/156/156 155/155/155 157/157/157
f 157/157/157 158/158/158 156/156/156
f 157/157/157 159/159/159 158/158/158
f 159/159/159 160/160/160 158/158/158
f 160/160/160 159/159/159 161/161/161
f 161/161/161 162/162/162 160/160/160
f 163/163/163 162/162/162 161/161/161
f 162/162/162 163/163/163 164/164/164
f 165/165/165 166/166/166 167/167/167
f 166/166/166 165/165/165 168/168/168
f 169/169/169 170/170/170 171/171/171
f 169/169/169 171/171/171 172/172/172
f 173/173/173 174/174/174 175/175/175
f 174/174/174 173/173/173 176/176/176
f 177/177/177 178/178/178 179/179/179
f 178/178/178 177/177/177 180/180/180
f 181/181/181 182/182/182 183/183/183
f 184/184/184 185/185/185 186/186/186
f 184/184/184 187/187/187 188/188/188
f 188/188/188 189/189/189 184/184/184
f 190/190/190 191/191/191 192/192/192
f 191/191/191 190/190/190 193/193/193
f 194/194/194 195/195/195 196/196/196
f 195/195/195 194/194/194 197/197/197
f 198/198/198 199/199/199 200/200/200
f 199/199/199 198/198/198 201/201/201
f 200/200/200 202/202/202 198/198/198
f 202/202/202 200/200/200 203/203/203
f 203/203/203 204/204/204 202/202/202
f 204/204/204 203/203/203 205/205/205
f 205/205/205 206/206/206 204/204/204
f 206/206/206 205/205/205 207/207/207
f 207/207/207 208/208/208 206/206/206
f 208/208/208 207/207/207 209/209/209
f 210/210/210 211/211/211 212/212/212
f 210/210/210 212/212/212 213/213/213
f 214/214/214 215/215/215 216/216/216
f 215/215/215 214/214/214 217/217/217
f 218/218/218 219/219/219 220/220/220
f 218/218/218 220/220/220 221/221/221
f 222/222/222 223/223/223 224/224/224
f 223/223/223 222/222/222 225/225/225
f 226/226/226 227/227/227 228/228/228
f 227/227/227 226/226/226 229/229/229
f 228/228/228 230/230/230 226/226/226
f 229/229/229 231/231/231 227/227/227
f 232/232/232 231/231/231 229/229/229
f 232/232/232 233/233/233 231/231/231
f 230/230/230 228/228/228 234/234/234
f 234/234/234 235/235/235 230/230/230
f 234/234/234 236/236/236 235/235/235
f 236/236/236 237/237/237 235/235/235
f 238/238/238 239/239/239 240/240/240
f 241/241/241 239/239/239 238/238/238
f 242/242/242 243/243/243 244/244/244
f 243/243/243 242/242/242 245/245/245
f 246/246/246 247/247/247 248/248/248
f 248/248/248 249/249/249 246/246/246
f 250/250/250 251/251/251 252/252/252
f 251/251/251 250/250/250 253/253/253
f 254/254/254 255/255/255 256/256/256
f 255/255/255 254/254/254 257/257/257
f 258/258/258 259/259/259 260/260/260
f 259/259/259 258/258/258 261/261/261
f 262/262/262 263/263/263 264/264/264
f 263/263/263 262/262/262 265/265/265
f 266/266/266 267/267/267 268/268/268
f 267/267/267 266/266/266 269/269/269
f 270/270/270 271/271/271 272/272/272
f 273/273/273 271/271/271 270/270/270
f 274/274/274 275/275/275 276/276/276
f 277/277/277 275/275/275 274/274/274
f 278/278/278 279/279/279 280/280/280
f 279/279/279 278/278/278 281/281/281
f 282/282/282 283/283/283 284/284/284
f 283/283/283 282/282/282 285/285/285
f 286/286/286 287/287/287 288/288/288
f 289/289/289 287/287/287 286/286/286
f 290/290/290 291/291/291 292/292/292
f 291/291/291 290/290/290 293/293/293
f 294/294/294 295/295/295 296/296/296
f 295/295/295 294/294/294 297/297/297
f 298/298/298 299/299/299 300/300/300
f 299/299/299 298/298/298 301/301/301
f 302/302/302 303/303/303 304/304/304
f 303/303/303 305/305/305 304/304/304
f 306/306/306 307/307/307 308/308/308
f 307/307/307 306/306/306 309/309/309
f 310/310/310 311/311/311 312/312/312
f 311/311/311 310/310/310 313/313/313
f 314/314/314 315/315/315 316/316/316
f 315/315/315 314/314/314 317/317/317
f 318/318/318 319/319/319 320/320/320
f 319/319/319 318/318/318 321/321/321
f 322/322/322 323/323/323 324/324/324
f 324/324/324 325/325/325 322/322/322
f 326/326/326 327/327/327 328/328/328
f 328/328/328 327/327/327 329/329/329
f 330/330/330 331/331/331 332/332/332
f 331/331/331 330/330/330 333/333/333
f 334/334/334 335/335/335 336/336/336
f 335/335/335 334/334/334 337/337/337
f 338/338/338 339/339/339 340/340/340
f 338/338/338 340/340/340 341/341/341
f 342/342/342 343/343/343 344/344/344
f 343/343/343 345/345/345 344/344/344
f 346/346/346 347/347/347 348/348/348
f 347/347/347 346/346/346 349/349/349
f 350/350/350 351/351/351 352/352/352
f 351/351/351 350/350/350 353/353/353
f 354/354/354 355/355/355 356/356/356
f 356/356/356 355/355/355 357/357/357
f 358/358/358 359/359/359 360/360/360
f 358/358/358 360/360/360 361/361/361
f 362/362/362 363/363/363 364/364/364
f 363/363/363 362/362/362 365/365/365
f 366/366/366 367/367/367 368/368/368
f 366/366/366 368/368/368 369/369/369
f 370/370/370 371/371/371 372/372/372
f 372/372/372 373/373/373 370/370/370
f 374/374/374 375/375/375 376/376/376
f 375/375/375 374/374/374 377/377/377
f 378/378/378 379/379/379 380/380/380
f 379/379/379 378/378/378 381/381/381
f 382/382/382 383/383/383 384/384/384
f 384/384/384 383/383/383 385/385/385
f 386/386/386 387/387/387 388/388/388
f 388/388/388 387/387/387 389/389/389
f 390/390/390 391/391/391 392/392/392
f 391/391/391 390/390/390 393/393/393
f 394/394/394 395/395/395 396/396/396
f 396/396/396 395/395/395 397/397/397
f 398/398/398 399/399/399 400/400/400
f 399/399/399 398/398/398 401/401/401
f 402/402/402 403/403/403 404/404/404
f 403/403/403 402/402/402 405/405/405
f 406/406/406 407/407/407 408/408/408
f 407/407/407 406/406/406 409/409/409
f 410/410/410 411/411/411 412/412/412
f 413/413/413 414/414/414 415/415/415
f 416/416/416 417/417/417 418/418/418
f 418/418/418 419/419/419 416/416/416
f 420/420/420 421/421/421 422/422/422
f 421/421/421 420/420/420 423/423/423
f 424/424/424 425/425/425 426/426/426
f 427/427/427 428/428/428 429/429/429
f 430/430/430 431/431/431 432/432/432
f 431/431/431 430/430/430 433/433/433
f 434/434/434 435/435/435 436/436/436
f 435/435/435 434/434/434 437/437/437
f 438/438/438 439/439/439 440/440/440
f 440/440/440 439/439/439 441/441/441
f 442/442/442 443/443/443 444/444/444
f 443/443/443 442/442/442 445/445/445
f 446/446/446 447/447/447 448/448/448
f 448/448/448 449/449/449 446/446/446
f 450/450/450 451/451/451 452/452/452
f 451/451/451 450/450/450 453/453/453
f 454/454/454 455/455/455 456/456/456
f 455/455/455 454/454/454 457/457/457
f 458/458/458 459/459/459 460/460/460
f 459/459/459 458/458/458 461/461/461
f 462/462/462 463/463/463 464/464/464
f 463/463/463 462/462/462 465/465/465
f 466/466/466 467/467/467 468/468/468
f 466/466/466 468/468/468 469/469/469
f 470/470/470 471/471/471 472/472/472
f 471/471/471 470/470/470 473/473/473
f 474/474/474 475/475/475 476/476/476
f 475/475/475 474/474/474 477/477/477
f 478/478/478 479/479/479 480/480/480
f 480/480/480 479/479/479 481/481/481
f 482/482/482 483/483/483 484/484/484
f 484/484/484 485/485/485 482/482/482
f 486/486/486 487/487/487 488/488/488
f 488/488/488 487/487/487 489/489/489
f 490/490/490 491/491/491 492/492/492
f 491/491/491 490/490/490 493/493/493
