# Blender 5.2.0 LTS
# www.blender.org
mtllib mags.mtl
o pxl_mag
v 0.112157 -0.204844 0.120038
v 0.113657 -0.204844 0.120038
v 0.112157 -0.170312 -0.087154
v 0.113657 -0.170312 -0.087154
v 0.112157 -0.170312 0.085506
v 0.113657 -0.170312 0.085506
v 0.112157 -0.170312 0.120038
v 0.113657 -0.170312 0.120038
v 0.112157 -0.204844 -0.121686
v 0.113657 -0.204844 -0.121686
v 0.112157 -0.170312 -0.121686
v 0.113657 -0.170312 -0.121686
v 0.112157 0.140476 0.085506
v 0.113657 0.140476 0.085506
v 0.112157 0.140476 -0.087154
v 0.113657 0.140476 -0.087154
v 0.112907 0.139726 -0.087154
v 0.112907 0.141226 -0.087154
v -0.025221 0.139726 -0.087154
v -0.025221 0.141226 -0.087154
v 0.112907 0.139726 0.085506
v 0.112907 0.141226 0.085506
v -0.025221 0.139726 0.085506
v -0.025221 0.141226 0.085506
v -0.025221 0.036130 0.085506
v -0.025221 0.037630 0.085506
v -0.025221 0.036130 -0.087154
v -0.025221 0.037630 -0.087154
v -0.059754 0.036130 -0.087154
v -0.059754 0.037630 -0.087154
v -0.059754 0.036130 0.085506
v -0.059754 0.037630 0.085506
v -0.059754 -0.171062 0.085506
v -0.059754 -0.169562 0.085506
v -0.059754 -0.171062 -0.087154
v -0.059754 -0.169562 -0.087154
v -0.094285 -0.171062 -0.087154
v -0.094285 -0.169562 -0.087154
v -0.094285 -0.171062 0.085506
v -0.094285 -0.169562 0.085506
v 0.112907 -0.171062 -0.087154
v 0.112907 -0.169562 -0.087154
v -0.059754 -0.171062 -0.121686
v -0.059754 -0.169562 -0.121686
v 0.112907 -0.171062 -0.121686
v 0.112907 -0.169562 -0.121686
v 0.112907 -0.171062 0.085506
v 0.112907 -0.169562 0.085506
v 0.112907 -0.171062 0.120038
v 0.112907 -0.169562 0.120038
v -0.059754 -0.171062 0.120038
v -0.059754 -0.169562 0.120038
v -0.059754 -0.204844 0.119288
v -0.059754 -0.204844 0.120788
v 0.112907 -0.204844 0.119288
v 0.112907 -0.204844 0.120788
v 0.112907 -0.170312 0.119288
v 0.112907 -0.170312 0.120788
v -0.059754 -0.170312 0.119288
v -0.059754 -0.170312 0.120788
v -0.094285 -0.204844 0.084756
v -0.094285 -0.204844 0.086256
v -0.059754 -0.204844 0.084756
v -0.059754 -0.204844 0.086256
v -0.059754 -0.170312 0.084756
v -0.059754 -0.170312 0.086256
v -0.094285 -0.170312 0.084756
v -0.094285 -0.170312 0.086256
v -0.025221 0.036880 0.084756
v -0.025221 0.036880 0.086256
v -0.059754 0.036880 0.084756
v -0.059754 0.036880 0.086256
v 0.112907 -0.170312 0.084756
v 0.112907 -0.170312 0.086256
v 0.112907 0.140476 0.084756
v 0.112907 0.140476 0.086256
v -0.025221 0.140476 0.084756
v -0.025221 0.140476 0.086256
v -0.093535 -0.204844 -0.087154
v -0.095035 -0.204844 -0.087154
v -0.093535 -0.204844 0.085506
v -0.095035 -0.204844 0.085506
v -0.093535 -0.170312 -0.087154
v -0.095035 -0.170312 -0.087154
v -0.093535 -0.170312 0.085506
v -0.095035 -0.170312 0.085506
v -0.059004 -0.170312 0.085506
v -0.060504 -0.170312 0.085506
v -0.059004 -0.204844 0.085506
v -0.060504 -0.204844 0.085506
v -0.059004 -0.204844 0.120038
v -0.060504 -0.204844 0.120038
v -0.059004 -0.170312 0.120038
v -0.060504 -0.170312 0.120038
v -0.059004 0.036880 -0.087154
v -0.060504 0.036880 -0.087154
v -0.059004 0.036880 0.085506
v -0.060504 0.036880 0.085506
v -0.059004 -0.170312 -0.087154
v -0.060504 -0.170312 -0.087154
v -0.059004 -0.170312 -0.121686
v -0.060504 -0.170312 -0.121686
v -0.059004 -0.204844 -0.087154
v -0.060504 -0.204844 -0.087154
v -0.059004 -0.204844 -0.121686
v -0.060504 -0.204844 -0.121686
v -0.024471 0.140476 -0.087154
v -0.025971 0.140476 -0.087154
v -0.024471 0.036880 -0.087154
v -0.025971 0.036880 -0.087154
v -0.024471 0.036880 0.085506
v -0.025971 0.036880 0.085506
v -0.024471 0.140476 0.085506
v -0.025971 0.140476 0.085506
v -0.059754 -0.204094 -0.087154
v -0.059754 -0.205594 -0.087154
v -0.094285 -0.204094 0.085506
v -0.094285 -0.205594 0.085506
v -0.094285 -0.204094 -0.087154
v -0.094285 -0.205594 -0.087154
v -0.059754 -0.204094 0.085506
v -0.059754 -0.205594 0.085506
v 0.112907 -0.204094 0.120038
v 0.112907 -0.205594 0.120038
v -0.059754 -0.204094 0.120038
v -0.059754 -0.205594 0.120038
v 0.112907 -0.204094 -0.121686
v 0.112907 -0.205594 -0.121686
v -0.059754 -0.204094 -0.121686
v -0.059754 -0.205594 -0.121686
v -0.059754 -0.170312 -0.120936
v -0.059754 -0.170312 -0.122436
v 0.112907 -0.170312 -0.120936
v 0.112907 -0.170312 -0.122436
v 0.112907 -0.204844 -0.120936
v 0.112907 -0.204844 -0.122436
v -0.059754 -0.204844 -0.120936
v -0.059754 -0.204844 -0.122436
v -0.025221 0.036880 -0.086404
v -0.025221 0.036880 -0.087904
v -0.025221 0.140476 -0.086404
v -0.025221 0.140476 -0.087904
v 0.112907 0.140476 -0.086404
v 0.112907 0.140476 -0.087904
v 0.112907 -0.170312 -0.086404
v 0.112907 -0.170312 -0.087904
v -0.059754 -0.170312 -0.086404
v -0.059754 -0.170312 -0.087904
v -0.059754 0.036880 -0.086404
v -0.059754 0.036880 -0.087904
v -0.059754 -0.204844 -0.086404
v -0.059754 -0.204844 -0.087904
v -0.094285 -0.170312 -0.086404
v -0.094285 -0.170312 -0.087904
v -0.094285 -0.204844 -0.086404
v -0.094285 -0.204844 -0.087904
v 0.112907 -0.203719 0.117853
v 0.112907 -0.171062 -0.078092
v 0.112907 -0.171062 0.085195
v 0.112907 -0.171062 0.087317
v 0.112907 -0.171062 0.119288
v 0.112907 -0.203033 0.119288
v 0.112907 -0.171115 -0.086897
v 0.112907 -0.204094 0.110976
v 0.112907 -0.204094 -0.119875
v 0.112907 -0.171062 -0.088965
v 0.112907 -0.203033 -0.120936
v 0.112907 -0.171062 -0.120936
v 0.112907 0.137582 0.084756
v 0.112907 -0.169562 0.084756
v 0.112907 -0.169562 -0.085879
v 0.112907 -0.167418 -0.086404
v 0.112907 0.139726 -0.086404
v 0.112907 0.139726 0.084231
v 0.112157 0.140476 -0.086404
v -0.023661 0.140476 -0.086404
v 0.112157 0.140476 0.083368
v -0.024471 0.140476 -0.085016
v -0.024471 0.140476 0.084756
v 0.111347 0.140476 0.084756
v -0.025971 0.036880 0.077932
v -0.025971 0.036880 -0.086404
v -0.058839 0.036880 -0.086404
v -0.059004 0.036880 -0.079580
v -0.059004 0.036880 0.084756
v -0.026136 0.036880 0.084756
v -0.060504 -0.170312 0.077932
v -0.060504 -0.170312 -0.086404
v -0.093370 -0.170312 -0.086404
v -0.093535 -0.170312 -0.079580
v -0.093535 -0.170312 0.084756
v -0.060669 -0.170312 0.084756
v -0.059004 -0.170312 -0.087904
v 0.105333 -0.170312 -0.087904
v -0.059004 -0.170312 -0.120771
v 0.112157 -0.170312 -0.120936
v -0.052180 -0.170312 -0.120936
v 0.112157 -0.170312 -0.088069
v 0.112157 -0.170312 0.086256
v -0.052180 -0.170312 0.086256
v 0.112157 -0.170312 0.119123
v -0.059004 -0.170312 0.119288
v 0.105333 -0.170312 0.119288
v -0.059004 -0.170312 0.086421
v -0.052180 -0.204094 0.120038
v 0.112157 -0.204094 0.120038
v 0.112157 -0.171227 0.120038
v -0.059004 -0.203929 0.120038
v 0.105333 -0.171062 0.120038
v -0.059004 -0.171062 0.120038
v -0.092474 -0.204094 0.085506
v -0.060504 -0.204094 0.085506
v -0.060504 -0.172123 0.085506
v -0.093535 -0.203033 0.085506
v -0.061565 -0.171062 0.085506
v -0.093535 -0.171062 0.085506
v -0.059004 -0.161250 0.085506
v -0.026106 0.036130 0.085506
v -0.059004 0.036130 0.085506
v -0.024793 0.034886 0.085506
v -0.058869 -0.169562 0.085506
v 0.111506 -0.169562 0.085506
v 0.112157 -0.167835 0.085506
v 0.112157 0.138976 0.085506
v -0.024203 0.036706 0.085506
v -0.024471 0.139726 0.085506
v -0.024471 0.038380 0.085506
v 0.110657 0.139726 0.085506
v -0.094285 -0.204094 -0.086404
v -0.094285 -0.204094 0.077932
v -0.094285 -0.171227 -0.086404
v -0.094285 -0.171062 -0.079580
v -0.094285 -0.203929 0.084756
v -0.094285 -0.171062 0.084756
v -0.059754 -0.172123 0.086256
v -0.059754 -0.204094 0.086256
v -0.059754 -0.204094 0.118227
v -0.059754 -0.171062 0.087317
v -0.059754 -0.203033 0.119288
v -0.059754 -0.171062 0.119288
v -0.059754 0.036130 -0.085553
v -0.059754 -0.168240 0.084756
v -0.059754 0.036130 0.084756
v -0.059754 0.034808 -0.086404
v -0.059754 -0.169562 -0.086404
v -0.059754 -0.169562 0.083905
v -0.059754 -0.171062 -0.119875
v -0.059754 -0.203033 -0.087904
v -0.059754 -0.171062 -0.087904
v -0.059754 -0.172123 -0.120936
v -0.059754 -0.204094 -0.120936
v -0.059754 -0.204094 -0.088965
v -0.025221 0.139151 -0.086404
v -0.025221 0.037630 -0.086404
v -0.025221 0.037630 0.082798
v -0.025221 0.139726 -0.084446
v -0.025221 0.038205 0.084756
v -0.025221 0.139726 0.084756
v -0.060669 -0.204844 -0.086404
v -0.093535 -0.204844 0.077932
v -0.093535 -0.204844 -0.086404
v -0.060504 -0.204844 0.084756
v -0.093370 -0.204844 0.084756
v -0.060504 -0.204844 -0.079580
v -0.059004 -0.204844 -0.085082
v 0.110971 -0.204844 0.118886
v -0.059004 -0.204844 0.084891
v 0.105333 -0.204844 0.119288
v -0.059004 -0.204844 0.119288
v -0.059004 -0.204844 0.086421
v -0.058371 -0.204844 -0.086666
v 0.112157 -0.204844 -0.120771
v 0.112157 -0.204844 0.117966
v 0.105333 -0.204844 -0.120936
v -0.059004 -0.204844 -0.088069
v -0.059004 -0.204844 -0.120936
v -0.052180 -0.171062 -0.121686
v 0.112157 -0.171062 -0.121686
v 0.112157 -0.203929 -0.121686
v -0.059004 -0.171227 -0.121686
v 0.105333 -0.204094 -0.121686
v -0.059004 -0.204094 -0.121686
v -0.024471 0.038380 -0.087154
v -0.024471 0.139726 -0.087154
v 0.110657 0.139726 -0.087154
v 0.112157 0.138976 -0.087154
v 0.112157 -0.167835 -0.087154
v -0.024203 0.036706 -0.087154
v -0.058869 -0.169562 -0.087154
v -0.024793 0.034886 -0.087154
v 0.111506 -0.169562 -0.087154
v -0.026106 0.036130 -0.087154
v -0.059004 -0.161250 -0.087154
v -0.059004 0.036130 -0.087154
v -0.060504 -0.171062 -0.087154
v -0.060504 -0.203033 -0.087154
v -0.092474 -0.171062 -0.087154
v -0.093535 -0.172123 -0.087154
v -0.061565 -0.204094 -0.087154
v -0.093535 -0.204094 -0.087154
vn -0.0000 0.4576 -0.8892
vn 0.0001 -0.0825 0.9966
vn -0.9483 -0.2764 0.1560
vn -0.9582 0.2213 -0.1811
vn 0.9582 0.2213 -0.1811
vn 0.9483 -0.2764 0.1560
vn -0.0000 -0.9239 -0.3827
vn -0.9384 -0.2362 -0.2523
vn 0.9384 -0.2362 -0.2523
vn -0.0000 -0.3827 0.9239
vn -0.0000 -0.7071 -0.7071
vn -0.8165 -0.4082 -0.4082
vn 0.8165 -0.4082 -0.4082
vn -0.0000 0.9239 -0.3827
vn -0.0000 -0.9523 0.3052
vn -0.0000 0.0825 -0.9966
vn -0.0000 0.3827 0.9239
vn -0.9428 0.2357 0.2357
vn 0.9428 0.2357 0.2357
vn -0.0000 -0.3827 -0.9239
vn -0.0000 0.9239 0.3827
vn -0.0000 -0.7071 0.7071
vn -0.8165 -0.4082 0.4082
vn 0.8165 -0.4082 0.4082
vn -0.0000 -0.9680 -0.2508
vn -0.0000 0.7071 -0.7071
vn -0.9282 -0.2342 -0.2890
vn 0.9282 -0.2342 -0.2890
vn -0.0000 0.5071 0.8619
vn -0.0000 0.9680 0.2508
vn -0.0000 -0.5071 -0.8619
vn -0.7071 -0.0000 0.7071
vn 0.9013 -0.0000 0.4332
vn 0.2522 -0.9405 0.2276
vn -0.4082 -0.8165 0.4083
vn -0.4082 0.8165 0.4083
vn 0.2522 0.9405 0.2276
vn -0.3310 -0.0000 -0.9436
vn -0.2522 -0.9405 -0.2276
vn -0.2522 0.9405 -0.2276
vn 0.3310 -0.0000 0.9436
vn 0.7071 -0.0000 -0.7071
vn 0.4083 -0.8165 -0.4083
vn 0.4083 0.8165 -0.4083
vn -0.9013 -0.0000 -0.4332
vn -0.0986 -0.0000 -0.9951
vn -0.4083 -0.8165 0.4082
vn -0.3701 -0.8742 -0.3144
vn -0.3701 0.8742 -0.3144
vn -0.4083 0.8165 0.4082
vn 0.7733 -0.0000 0.6340
vn 0.3701 -0.8742 0.3144
vn 0.3701 0.8742 0.3144
vn 0.0986 -0.0000 0.9951
vn 0.4083 -0.8165 -0.4082
vn -0.7733 -0.0000 -0.6340
vn -0.4083 -0.8165 0.4083
vn 0.4083 0.8165 -0.4082
vn -0.9951 0.0001 -0.0985
vn -0.3144 -0.8742 -0.3701
vn -0.3144 0.8742 -0.3701
vn 0.6340 -0.0000 0.7733
vn 0.3144 -0.8742 0.3701
vn 0.3144 0.8742 0.3701
vn 0.9951 0.0002 0.0985
vn -0.6340 -0.0000 -0.7733
vn -0.4082 0.8165 0.4082
vn 0.9951 0.0984 -0.0000
vn -0.7071 0.7071 -0.0000
vn -0.4082 0.4082 -0.8165
vn 0.3144 0.3701 -0.8742
vn 0.3144 0.3701 0.8742
vn -0.4082 0.4082 0.8165
vn -0.6340 -0.7733 -0.0000
vn -0.3144 -0.3701 -0.8742
vn -0.3144 -0.3701 0.8742
vn 0.6340 0.7733 -0.0000
vn -0.9951 -0.0986 -0.0000
vn 0.7071 -0.7071 -0.0000
vn 0.4082 -0.4083 -0.8165
vn 0.4082 -0.4083 0.8165
vn 0.9239 0.3827 -0.0000
vn 0.2357 0.2357 -0.9428
vn 0.2357 0.2357 0.9428
vn -0.3827 -0.9239 -0.0000
vn -0.2357 -0.2357 -0.9428
vn -0.2357 -0.2357 0.9428
vn 0.3827 0.9239 -0.0000
vn -0.9239 -0.3827 -0.0000
vn 0.4082 -0.4082 -0.8165
vn 0.4082 -0.4082 0.8165
vn 0.0824 0.9966 -0.0000
vn -0.7630 -0.6464 -0.0000
vn 0.1424 -0.1391 -0.9800
vn 0.3776 0.3277 -0.8660
vn 0.3776 0.3277 0.8660
vn 0.1424 -0.1391 0.9800
vn 0.2099 -0.9777 -0.0000
vn 0.7630 0.6464 -0.0000
vn -0.8817 0.4718 -0.0000
vn -0.2698 0.2280 -0.9355
vn -0.2698 0.2280 0.9355
vn -0.2898 0.9571 -0.0000
vn -0.4472 -0.8944 -0.0000
vn -0.2270 -0.2581 -0.9391
vn -0.2270 -0.2581 0.9391
vn 0.9856 -0.1688 -0.0000
vn 0.4472 0.8944 -0.0000
vn -0.9487 -0.3162 -0.0000
vn -0.0000 0.7071 0.7071
vn -0.0000 0.0986 -0.9951
vn 0.8742 0.3701 -0.3144
vn 0.8165 0.4083 0.4082
vn -0.8165 0.4083 0.4082
vn -0.8742 0.3701 -0.3144
vn -0.0000 -0.7733 0.6340
vn 0.8742 -0.3701 0.3144
vn -0.8742 -0.3701 0.3144
vn -0.0000 -0.0986 0.9951
vn -0.0000 0.7733 -0.6340
vn 0.8165 -0.4083 -0.4082
vn -0.8165 -0.4083 -0.4082
vn -0.0000 -0.9239 0.3827
vn 0.8165 0.4082 0.4082
vn 0.9428 -0.2357 0.2357
vn -0.9428 -0.2357 0.2357
vn -0.0000 0.3827 -0.9239
vn 0.9428 0.2357 -0.2357
vn -0.9428 0.2357 -0.2357
vn -0.0000 -0.4242 0.9056
vn -0.0000 0.9403 -0.3404
vn 0.9413 0.2284 -0.2487
vn 0.9413 -0.2284 0.2487
vn -0.9413 -0.2284 0.2487
vn -0.9413 0.2284 -0.2487
vn -0.0000 -0.9403 0.3404
vn -0.8165 0.4082 0.4082
vn -0.0000 0.4241 -0.9056
vn -0.0000 -0.8702 0.4927
vn 0.9316 -0.2808 0.2309
vn -0.9316 -0.2808 0.2309
vn -0.0000 0.2669 -0.9637
vn 0.9316 0.2808 -0.2309
vn -0.9316 0.2808 -0.2309
vn -0.0000 -0.2669 0.9637
vn -0.0000 0.8702 -0.4927
vn -0.7733 -0.0000 0.6340
vn 0.0986 -0.0000 -0.9951
vn 0.3701 0.8742 -0.3144
vn 0.1031 0.9923 0.0682
vn 0.1031 -0.9923 0.0682
vn 0.3701 -0.8742 -0.3144
vn 0.7071 -0.0000 0.7071
vn 0.4083 0.8165 0.4083
vn 0.4083 -0.8165 0.4083
vn -0.7071 -0.0000 -0.7071
vn 0.7733 -0.0000 -0.6340
vn 0.1667 0.9671 -0.1924
vn 0.1667 -0.9671 -0.1924
vn -0.0986 -0.0000 0.9951
vn 0.3404 -0.0000 0.9403
vn -0.8594 -0.0000 -0.5113
vn -0.1797 0.9617 -0.2071
vn -0.1797 -0.9617 -0.2071
vn 0.9430 -0.0000 0.3329
vn -0.6340 -0.0000 0.7733
vn -0.3144 0.8742 0.3701
vn -0.3144 -0.8742 0.3701
vn -0.3404 -0.0000 -0.9403
vn -0.9951 0.0001 0.0985
vn 0.6340 -0.0000 -0.7733
vn 0.4083 0.8165 0.4082
vn 0.9951 -0.0986 -0.0000
vn -0.7071 -0.7071 -0.0000
vn -0.4082 -0.4083 0.8165
vn 0.3144 -0.3701 0.8742
vn 0.3144 -0.3701 -0.8742
vn -0.4082 -0.4083 -0.8165
vn -0.6340 0.7733 -0.0000
vn -0.3144 0.3701 0.8742
vn -0.3144 0.3701 -0.8742
vn 0.6340 -0.7733 -0.0000
vn -0.9951 0.0984 -0.0000
vn 0.7071 0.7071 -0.0000
vn 0.4082 0.4082 0.8165
vn 0.4082 0.4082 -0.8165
vn -0.3827 0.9239 -0.0000
vn -0.2357 0.2357 0.9428
vn -0.4082 -0.4082 0.8165
vn -0.4082 -0.4082 -0.8165
vn -0.2357 0.2357 -0.9428
vn 0.9239 -0.3827 -0.0000
vn 0.2357 -0.2357 0.9428
vn 0.2357 -0.2357 -0.9428
vn 0.3827 -0.9239 -0.0000
vn -0.9239 0.3827 -0.0000
vt 3.940750 -33.084599
vt 4.042320 -33.067699
vt 3.957680 -33.067699
vt 3.940750 -33.067699
vt 4.059250 -33.084599
vt 4.059250 -33.067699
vt 3.957680 -32.915401
vt 4.042320 -32.915401
vt 3.949220 -33.042301
vt 4.016930 -33.042301
vt 3.949220 -32.957699
vt 4.016930 -32.957699
vt 4.033850 -33.042301
vt 4.033850 -32.957699
vt 4.050780 -33.042301
vt 4.050780 -32.957699
vt 4.033850 -33.059200
vt 3.949220 -33.059200
vt 3.949220 -32.940800
vt 4.033850 -32.940800
vt 3.966150 -33.084599
vt 4.050780 -33.084599
vt 4.050780 -33.067699
vt 3.966150 -33.067699
vt 3.949220 -33.084599
vt 3.949220 -33.067699
vt 3.983070 -32.966099
vt 3.966150 -32.966099
vt 4.050780 -32.915401
vt 3.983070 -32.915401
vt 3.957680 -33.084599
vt 4.042320 -33.084599
vt 3.957680 -32.966099
vt 4.042320 -32.966099
vt 3.966150 -33.042301
vt 3.966150 -32.957699
vt 4.050780 -32.940800
vt 3.966150 -32.940800
vt 4.050780 -33.059200
vt 3.966150 -33.059200
vt 4.033850 -33.067699
vt 4.033850 -33.084599
vt 4.016930 -32.966099
vt 4.016930 -32.915401
vt 3.949220 -32.915401
vt 4.033850 -32.966099
s 1
usemtl Meshpart1Mtl
f 157/1/1 158/2/2 3/2/3 1/1/4
f 158/2/2 157/1/1 2/1/5 4/2/6
f 158/2/2 159/3/7 5/3/8 3/2/3
f 159/3/7 158/2/2 4/2/6 6/3/9
f 159/3/7 157/1/1 1/1/4 5/3/8
f 157/1/1 159/3/7 6/3/9 2/1/5
f 160/3/10 161/4/11 7/4/12 5/3/8
f 161/4/11 160/3/10 6/3/9 8/4/13
f 161/4/11 162/1/14 1/1/4 7/4/12
f 162/1/14 161/4/11 8/4/13 2/1/5
f 162/1/14 160/3/10 5/3/8 1/1/4
f 160/3/10 162/1/14 2/1/5 6/3/9
f 163/2/15 164/1/16 1/1/4 3/2/3
f 164/1/16 163/2/15 4/2/6 2/1/5
f 164/1/16 165/5/17 9/5/18 1/1/4
f 165/5/17 164/1/16 2/1/5 10/5/19
f 165/5/17 163/2/15 3/2/3 9/5/18
f 163/2/15 165/5/17 10/5/19 4/2/6
f 166/2/20 167/5/21 9/5/18 3/2/3
f 167/5/21 166/2/20 4/2/6 10/5/19
f 167/5/21 168/6/22 11/6/23 9/5/18
f 168/6/22 167/5/21 10/5/19 12/6/24
f 168/6/22 166/2/20 3/2/3 11/6/23
f 166/2/20 168/6/22 12/6/24 4/2/6
f 169/7/25 170/3/26 5/3/8 13/7/27
f 170/3/26 169/7/25 14/7/28 6/3/9
f 170/3/26 171/2/29 3/2/3 5/3/8
f 171/2/29 170/3/26 6/3/9 4/2/6
f 171/2/29 169/7/25 13/7/27 3/2/3
f 169/7/25 171/2/29 4/2/6 14/7/28
f 172/2/30 173/8/22 15/8/23 3/2/3
f 173/8/22 172/2/30 4/2/6 16/8/24
f 173/8/22 174/7/31 13/7/27 15/8/23
f 174/7/31 173/8/22 16/8/24 14/7/28
f 174/7/31 172/2/30 3/2/3 13/7/27
f 172/2/30 174/7/31 14/7/28 4/2/6
f 175/9/32 176/10/33 19/10/34 17/9/35
f 176/10/33 175/9/32 18/9/36 20/10/37
f 176/10/33 177/11/38 21/11/39 19/10/34
f 177/11/38 176/10/33 20/10/37 22/11/40
f 177/11/38 175/9/32 17/9/35 21/11/39
f 175/9/32 177/11/38 22/11/40 18/9/36
f 178/10/41 179/12/42 23/12/43 19/10/34
f 179/12/42 178/10/41 20/10/37 24/12/44
f 179/12/42 180/11/45 21/11/39 23/12/43
f 180/11/45 179/12/42 24/12/44 22/11/40
f 180/11/45 178/10/41 19/10/34 21/11/39
f 178/10/41 180/11/45 22/11/40 20/10/37
f 181/12/46 182/10/32 27/10/47 25/12/48
f 182/10/32 181/12/46 26/12/49 28/10/50
f 182/10/32 183/13/51 29/13/52 27/10/47
f 183/13/51 182/10/32 28/10/50 30/13/53
f 183/13/51 181/12/46 25/12/48 29/13/52
f 181/12/46 183/13/51 30/13/53 26/12/49
f 184/13/54 185/14/42 31/14/55 29/13/52
f 185/14/42 184/13/54 30/13/53 32/14/44
f 185/14/42 186/12/56 25/12/48 31/14/55
f 186/12/56 185/14/42 32/14/44 26/12/49
f 186/12/56 184/13/54 29/13/52 25/12/48
f 184/13/54 186/12/56 26/12/49 30/13/53
f 187/14/46 188/13/32 35/13/57 33/14/48
f 188/13/32 187/14/46 34/14/49 36/13/50
f 188/13/32 189/15/51 37/15/52 35/13/57
f 189/15/51 188/13/32 36/13/50 38/15/53
f 189/15/51 187/14/46 33/14/48 37/15/52
f 187/14/46 189/15/51 38/15/53 34/14/49
f 190/15/54 191/16/42 39/16/43 37/15/52
f 191/16/42 190/15/54 38/15/53 40/16/58
f 191/16/42 192/14/56 33/14/48 39/16/43
f 192/14/56 191/16/42 40/16/58 34/14/49
f 192/14/56 190/15/54 37/15/52 33/14/48
f 190/15/54 192/14/56 34/14/49 38/15/53
f 193/13/42 194/9/59 41/9/60 35/13/43
f 194/9/59 193/13/42 36/13/58 42/9/61
f 194/9/59 195/17/62 43/17/63 41/9/60
f 195/17/62 194/9/59 42/9/61 44/17/64
f 195/17/62 193/13/42 35/13/43 43/17/63
f 193/13/42 195/17/62 44/17/64 36/13/58
f 196/18/32 197/17/65 43/17/63 45/18/57
f 197/17/65 196/18/32 46/18/50 44/17/64
f 197/17/65 198/9/66 41/9/60 43/17/63
f 198/9/66 197/17/65 44/17/64 42/9/61
f 198/9/66 196/18/32 45/18/57 41/9/60
f 196/18/32 198/9/66 42/9/61 46/18/50
f 199/11/32 200/14/65 33/14/63 47/11/57
f 200/14/65 199/11/32 48/11/67 34/14/64
f 200/14/65 201/19/66 49/19/60 33/14/63
f 201/19/66 200/14/65 34/14/64 50/19/61
f 201/19/66 199/11/32 47/11/57 49/19/60
f 199/11/32 201/19/66 50/19/61 48/11/67
f 202/20/42 203/19/59 49/19/60 51/20/43
f 203/19/59 202/20/42 52/20/58 50/19/61
f 203/19/59 204/14/62 33/14/63 49/19/60
f 204/14/62 203/19/59 50/19/61 34/14/64
f 204/14/62 202/20/42 51/20/43 33/14/63
f 202/20/42 204/14/62 34/14/64 52/20/58
f 205/21/68 206/22/69 55/22/70 53/21/71
f 206/22/69 205/21/68 54/21/72 56/22/73
f 206/22/69 207/23/74 57/23/75 55/22/70
f 207/23/74 206/22/69 56/22/73 58/23/76
f 207/23/74 205/21/68 53/21/71 57/23/75
f 205/21/68 207/23/74 58/23/76 54/21/72
f 208/21/77 209/23/78 57/23/75 53/21/71
f 209/23/78 208/21/77 54/21/72 58/23/76
f 209/23/78 210/24/79 59/24/80 57/23/75
f 210/24/79 209/23/78 58/23/76 60/24/81
f 210/24/79 208/21/77 53/21/71 59/24/80
f 208/21/77 210/24/79 60/24/81 54/21/72
f 211/25/82 212/21/69 63/21/70 61/25/83
f 212/21/69 211/25/82 62/25/84 64/21/73
f 212/21/69 213/24/85 65/24/86 63/21/70
f 213/24/85 212/21/69 64/21/73 66/24/87
f 213/24/85 211/25/82 61/25/83 65/24/86
f 211/25/82 213/24/85 66/24/87 62/25/84
f 214/25/88 215/24/89 65/24/86 61/25/83
f 215/24/89 214/25/88 62/25/84 66/24/87
f 215/24/89 216/26/79 67/26/90 65/24/86
f 216/26/79 215/24/89 66/24/87 68/26/91
f 216/26/79 214/25/88 61/25/83 67/26/90
f 214/25/88 216/26/79 68/26/91 62/25/84
f 217/24/92 218/27/93 69/27/94 65/24/95
f 218/27/93 217/24/92 66/24/96 70/27/97
f 218/27/93 219/28/79 71/28/90 69/27/94
f 219/28/79 218/27/93 70/27/97 72/28/91
f 219/28/79 217/24/92 65/24/95 71/28/90
f 217/24/92 219/28/79 72/28/91 66/24/96
f 220/27/98 221/24/99 65/24/95 69/27/94
f 221/24/99 220/27/98 70/27/97 66/24/96
f 221/24/99 222/23/100 73/23/101 65/24/95
f 222/23/100 221/24/99 66/24/96 74/23/102
f 222/23/100 220/27/98 69/27/94 73/23/101
f 220/27/98 222/23/100 74/23/102 70/27/97
f 223/23/103 224/29/104 75/29/105 73/23/101
f 224/29/104 223/23/103 74/23/102 76/29/106
f 224/29/104 225/27/107 69/27/94 75/29/105
f 225/27/107 224/29/104 76/29/106 70/27/97
f 225/27/107 223/23/103 73/23/101 69/27/94
f 223/23/103 225/27/107 70/27/97 74/23/102
f 226/30/79 227/27/108 69/27/94 77/30/90
f 227/27/108 226/30/79 78/30/91 70/27/97
f 227/27/108 228/29/109 75/29/105 69/27/94
f 228/29/109 227/27/108 70/27/97 76/29/106
f 228/29/109 226/30/79 77/30/90 75/29/105
f 226/30/79 228/29/109 76/29/106 78/30/91
f 229/31/110 230/32/111 81/32/112 79/31/113
f 230/32/111 229/31/110 80/31/114 82/32/115
f 230/32/111 231/3/116 83/3/117 81/32/112
f 231/3/116 230/32/111 82/32/115 84/3/118
f 231/3/116 229/31/110 79/31/113 83/3/117
f 229/31/110 231/3/116 84/3/118 80/31/114
f 232/3/119 233/32/120 81/32/112 83/3/117
f 233/32/120 232/3/119 84/3/118 82/32/115
f 233/32/120 234/2/11 85/2/121 81/32/112
f 234/2/11 233/32/120 82/32/115 86/2/122
f 234/2/11 232/3/119 83/3/117 85/2/121
f 232/3/119 234/2/11 86/2/122 84/3/118
f 235/2/123 236/32/110 89/32/124 87/2/125
f 236/32/110 235/2/123 88/2/126 90/32/114
f 236/32/110 237/5/127 91/5/128 89/32/124
f 237/5/127 236/32/110 90/32/114 92/5/129
f 237/5/127 235/2/123 87/2/125 91/5/128
f 235/2/123 237/5/127 92/5/129 88/2/126
f 238/2/10 239/5/14 91/5/128 87/2/125
f 239/5/14 238/2/10 88/2/126 92/5/129
f 239/5/14 240/6/11 93/6/13 91/5/128
f 240/6/11 239/5/14 92/5/129 94/6/12
f 240/6/11 238/2/10 87/2/125 93/6/13
f 238/2/10 240/6/11 94/6/12 88/2/126
f 241/33/130 242/2/131 87/2/132 95/33/133
f 242/2/131 241/33/130 96/33/134 88/2/135
f 242/2/131 243/34/11 97/34/13 87/2/132
f 243/34/11 242/2/131 88/2/135 98/34/12
f 243/34/11 241/33/130 95/33/133 97/34/13
f 241/33/130 243/34/11 98/34/12 96/33/134
f 244/33/136 245/3/110 99/3/124 95/33/133
f 245/3/110 244/33/136 96/33/134 100/3/137
f 245/3/110 246/2/138 87/2/132 99/3/124
f 246/2/138 245/3/110 100/3/137 88/2/135
f 246/2/138 244/33/136 95/33/133 87/2/132
f 244/33/136 246/2/138 88/2/135 96/33/134
f 247/4/10 248/31/14 103/31/128 101/4/125
f 248/31/14 247/4/10 102/4/126 104/31/129
f 248/31/14 249/3/11 99/3/13 103/31/128
f 249/3/11 248/31/14 104/31/129 100/3/122
f 249/3/11 247/4/10 101/4/125 99/3/13
f 247/4/10 249/3/11 100/3/122 102/4/126
f 250/4/123 251/1/110 105/1/124 101/4/125
f 251/1/110 250/4/123 102/4/126 106/1/137
f 251/1/110 252/31/127 103/31/128 105/1/124
f 252/31/127 251/1/110 106/1/137 104/31/129
f 252/31/127 250/4/123 101/4/125 103/31/128
f 250/4/123 252/31/127 104/31/129 102/4/126
f 253/7/139 254/33/110 109/33/124 107/7/140
f 254/33/110 253/7/139 108/7/141 110/33/137
f 254/33/110 255/34/142 111/34/143 109/33/124
f 255/34/142 254/33/110 110/33/137 112/34/144
f 255/34/142 253/7/139 107/7/140 111/34/143
f 253/7/139 255/34/142 112/34/144 108/7/141
f 256/7/145 257/34/146 111/34/143 107/7/140
f 257/34/146 256/7/145 108/7/141 112/34/144
f 257/34/146 258/8/11 113/8/13 111/34/143
f 258/8/11 257/34/146 112/34/144 114/8/12
f 258/8/11 256/7/145 107/7/140 113/8/13
f 256/7/145 258/8/11 114/8/12 108/7/141
f 259/35/147 260/11/148 117/11/149 115/35/150
f 260/11/148 259/35/147 116/35/151 118/11/152
f 260/11/148 261/9/153 119/9/154 117/11/149
f 261/9/153 260/11/148 118/11/152 120/9/155
f 261/9/153 259/35/147 115/35/150 119/9/154
f 259/35/147 261/9/153 120/9/155 116/35/151
f 262/36/156 263/11/157 117/11/149 121/36/158
f 263/11/157 262/36/156 122/36/159 118/11/152
f 263/11/157 264/35/160 115/35/150 117/11/149
f 264/35/160 263/11/157 118/11/152 116/35/151
f 264/35/160 262/36/156 121/36/158 115/35/150
f 262/36/156 264/35/160 116/35/151 122/36/159
f 265/35/161 266/37/162 123/37/163 115/35/150
f 266/37/162 265/35/161 116/35/151 124/37/164
f 266/37/162 267/36/157 121/36/158 123/37/163
f 267/36/157 266/37/162 124/37/164 122/36/159
f 267/36/157 265/35/161 115/35/150 121/36/158
f 265/35/161 267/36/157 122/36/159 116/35/151
f 268/37/59 269/38/42 125/38/58 123/37/163
f 269/38/42 268/37/59 124/37/164 126/38/43
f 269/38/42 270/36/62 121/36/158 125/38/58
f 270/36/62 269/38/42 126/38/43 122/36/159
f 270/36/62 268/37/59 123/37/163 121/36/158
f 268/37/59 270/36/62 122/36/159 124/37/164
f 271/35/165 272/39/166 127/39/167 115/35/150
f 272/39/166 271/35/165 116/35/151 128/39/168
f 272/39/166 273/37/169 123/37/163 127/39/167
f 273/37/169 272/39/166 128/39/168 124/37/164
f 273/37/169 271/35/165 115/35/150 123/37/163
f 271/35/165 273/37/169 124/37/164 116/35/151
f 274/39/170 275/35/171 115/35/150 127/39/167
f 275/35/171 274/39/170 128/39/168 116/35/151
f 275/35/171 276/40/153 129/40/172 115/35/150
f 276/40/153 275/35/171 116/35/151 130/40/155
f 276/40/153 274/39/170 127/39/167 129/40/172
f 274/39/170 276/40/153 130/40/155 128/39/168
f 277/41/173 278/26/174 133/26/175 131/41/176
f 278/26/174 277/41/173 132/41/177 134/26/178
f 278/26/174 279/25/179 135/25/180 133/26/175
f 279/25/179 278/26/174 134/26/178 136/25/181
f 279/25/179 277/41/173 131/41/176 135/25/180
f 277/41/173 279/25/179 136/25/181 132/41/177
f 280/41/182 281/25/183 135/25/180 131/41/176
f 281/25/183 280/41/182 132/41/177 136/25/181
f 281/25/183 282/42/184 137/42/185 135/25/180
f 282/42/184 281/25/183 136/25/181 138/42/186
f 282/42/184 280/41/182 131/41/176 137/42/185
f 280/41/182 282/42/184 138/42/186 132/41/177
f 283/43/108 284/44/79 141/44/91 139/43/97
f 284/44/79 283/43/108 140/43/94 142/44/90
f 284/44/79 285/45/109 143/45/106 141/44/91
f 285/45/109 284/44/79 142/44/90 144/45/105
f 285/45/109 283/43/108 139/43/97 143/45/106
f 283/43/108 285/45/109 144/45/105 140/43/94
f 286/45/104 287/26/103 145/26/102 143/45/106
f 287/26/103 286/45/104 144/45/105 146/26/101
f 287/26/103 288/43/107 139/43/97 145/26/102
f 288/43/107 287/26/103 146/26/101 140/43/94
f 288/43/107 286/45/104 143/45/106 139/43/97
f 286/45/104 288/43/107 140/43/94 144/45/105
f 289/41/99 290/43/98 139/43/97 147/41/96
f 290/43/98 289/41/99 148/41/95 140/43/94
f 290/43/98 291/26/100 145/26/102 139/43/97
f 291/26/100 290/43/98 140/43/94 146/26/101
f 291/26/100 289/41/99 147/41/96 145/26/102
f 289/41/99 291/26/100 146/26/101 148/41/95
f 292/43/93 293/41/92 147/41/96 139/43/97
f 293/41/92 292/43/93 140/43/94 148/41/95
f 293/41/92 294/46/79 149/46/91 147/41/96
f 294/46/79 293/41/92 148/41/95 150/46/90
f 294/46/79 292/43/93 139/43/97 149/46/91
f 292/43/93 294/46/79 150/46/90 140/43/94
f 295/41/174 296/42/187 151/42/188 147/41/189
f 296/42/187 295/41/174 148/41/190 152/42/191
f 296/42/187 297/23/192 153/23/193 151/42/188
f 297/23/192 296/42/187 152/42/191 154/23/194
f 297/23/192 295/41/174 147/41/189 153/23/193
f 295/41/174 297/23/192 154/23/194 148/41/190
f 298/23/195 299/42/196 151/42/188 153/23/193
f 299/42/196 298/23/195 154/23/194 152/42/191
f 299/42/196 300/22/184 155/22/185 151/42/188
f 300/22/184 299/42/196 152/42/191 156/22/186
f 300/22/184 298/23/195 153/23/193 155/22/185
f 298/23/195 300/22/184 156/22/186 154/23/194
