# Blender 5.2.0 LTS
# www.blender.org
mtllib pixel handgun mag.mtl
o pxl_mag
v 0.112389 -0.204844 0.120038
v 0.113425 -0.204844 0.120038
v 0.112260 -0.170312 -0.087154
v 0.113554 -0.170312 -0.087154
v 0.112260 -0.170312 0.085506
v 0.113554 -0.170312 0.085506
v 0.112778 -0.170312 0.120038
v 0.113036 -0.170312 0.120038
v 0.112389 -0.204844 -0.121686
v 0.113425 -0.204844 -0.121686
v 0.112778 -0.170312 -0.121686
v 0.113036 -0.170312 -0.121686
v 0.112001 0.140476 0.085506
v 0.113813 0.140476 0.085506
v 0.112001 0.140476 -0.087154
v 0.113813 0.140476 -0.087154
v 0.112907 0.139893 -0.087154
v 0.112907 0.141059 -0.087154
v -0.025221 0.139893 -0.087154
v -0.025221 0.141059 -0.087154
v 0.112907 0.139893 0.085506
v 0.112907 0.141059 0.085506
v -0.025221 0.139893 0.085506
v -0.025221 0.141059 0.085506
v -0.025221 0.036492 0.085506
v -0.025221 0.037268 0.085506
v -0.025221 0.036492 -0.087154
v -0.025221 0.037268 -0.087154
v -0.059754 0.036492 -0.087154
v -0.059754 0.037268 -0.087154
v -0.059754 0.036492 0.085506
v -0.059754 0.037268 0.085506
v -0.059754 -0.170700 0.085506
v -0.059754 -0.169924 0.085506
v -0.059754 -0.170700 -0.087154
v -0.059754 -0.169924 -0.087154
v -0.094285 -0.170700 -0.087154
v -0.094285 -0.169924 -0.087154
v -0.094285 -0.170700 0.085506
v -0.094285 -0.169924 0.085506
v 0.112907 -0.170700 -0.087154
v 0.112907 -0.169924 -0.087154
v -0.059754 -0.170701 -0.121686
v -0.059754 -0.169924 -0.121686
v 0.112907 -0.170701 -0.121686
v 0.112907 -0.169924 -0.121686
v 0.112907 -0.170700 0.085506
v 0.112907 -0.169924 0.085506
v 0.112907 -0.170700 0.120038
v 0.112907 -0.169923 0.120038
v -0.059754 -0.170700 0.120038
v -0.059754 -0.169923 0.120038
v -0.059754 -0.204844 0.119650
v -0.059754 -0.204844 0.120427
v 0.112907 -0.204844 0.119650
v 0.112907 -0.204844 0.120427
v 0.112907 -0.170312 0.119650
v 0.112907 -0.170312 0.120427
v -0.059754 -0.170312 0.119650
v -0.059754 -0.170312 0.120427
v -0.094285 -0.204844 0.085377
v -0.094285 -0.204844 0.085636
v -0.059754 -0.204844 0.085377
v -0.059754 -0.204844 0.085636
v -0.059754 -0.170312 0.085085
v -0.059754 -0.170312 0.085927
v -0.094285 -0.170312 0.085377
v -0.094285 -0.170312 0.085636
v -0.025221 0.036880 0.085247
v -0.025221 0.036880 0.085765
v -0.059754 0.036880 0.085053
v -0.059754 0.036880 0.085959
v 0.112907 -0.170312 0.084600
v 0.112907 -0.170312 0.086412
v 0.112907 0.140476 0.084664
v 0.112907 0.140476 0.086348
v -0.025221 0.140476 0.085053
v -0.025221 0.140476 0.085959
v -0.093897 -0.204844 -0.087154
v -0.094673 -0.204844 -0.087154
v -0.093897 -0.204844 0.085506
v -0.094673 -0.204844 0.085506
v -0.093897 -0.170312 -0.087154
v -0.094673 -0.170312 -0.087154
v -0.093897 -0.170312 0.085506
v -0.094673 -0.170312 0.085506
v -0.059333 -0.170312 0.085506
v -0.060175 -0.170312 0.085506
v -0.059625 -0.204844 0.085506
v -0.059883 -0.204844 0.085506
v -0.059625 -0.204844 0.120038
v -0.059883 -0.204844 0.120038
v -0.059625 -0.170312 0.120038
v -0.059883 -0.170312 0.120038
v -0.059042 0.036880 -0.087154
v -0.060466 0.036880 -0.087154
v -0.059042 0.036880 0.085506
v -0.060466 0.036880 0.085506
v -0.059333 -0.170312 -0.087154
v -0.060175 -0.170312 -0.087154
v -0.059625 -0.170312 -0.121686
v -0.059883 -0.170312 -0.121686
v -0.059625 -0.204844 -0.087154
v -0.059883 -0.204844 -0.087154
v -0.059625 -0.204844 -0.121686
v -0.059883 -0.204844 -0.121686
v -0.024703 0.140476 -0.087154
v -0.025739 0.140476 -0.087154
v -0.024703 0.036880 -0.087154
v -0.025739 0.036880 -0.087154
v -0.024703 0.036880 0.085506
v -0.025739 0.036880 0.085506
v -0.024703 0.140476 0.085506
v -0.025739 0.140476 0.085506
v -0.059754 -0.204715 -0.087154
v -0.059754 -0.204973 -0.087154
v -0.094285 -0.204456 0.085506
v -0.094285 -0.205232 0.085506
v -0.094285 -0.204456 -0.087154
v -0.094285 -0.205232 -0.087154
v -0.059754 -0.204715 0.085506
v -0.059754 -0.204973 0.085506
v 0.112907 -0.204067 0.120038
v 0.112907 -0.205621 0.120038
v -0.059754 -0.204455 0.120038
v -0.059754 -0.205232 0.120038
v 0.112907 -0.204067 -0.121686
v 0.112907 -0.205621 -0.121686
v -0.059754 -0.204456 -0.121686
v -0.059754 -0.205233 -0.121686
v -0.059754 -0.170312 -0.121297
v -0.059754 -0.170312 -0.122074
v 0.112907 -0.170312 -0.121297
v 0.112907 -0.170312 -0.122074
v 0.112907 -0.204844 -0.121297
v 0.112907 -0.204844 -0.122074
v -0.059754 -0.204844 -0.121297
v -0.059754 -0.204844 -0.122074
v -0.025221 0.036880 -0.086895
v -0.025221 0.036880 -0.087413
v -0.025221 0.140476 -0.086701
v -0.025221 0.140476 -0.087607
v 0.112907 0.140476 -0.086312
v 0.112907 0.140476 -0.087996
v 0.112907 -0.170312 -0.086248
v 0.112907 -0.170312 -0.088060
v -0.059754 -0.170312 -0.086733
v -0.059754 -0.170312 -0.087575
v -0.059754 0.036880 -0.086701
v -0.059754 0.036880 -0.087607
v -0.059754 -0.204844 -0.087024
v -0.059754 -0.204844 -0.087283
v -0.094285 -0.170312 -0.087024
v -0.094285 -0.170312 -0.087283
v -0.094285 -0.204844 -0.087024
v -0.094285 -0.204844 -0.087283
v -0.059333 -0.169891 -0.087154
v -0.059301 0.036427 -0.087154
v -0.024962 0.036621 -0.087154
v -0.024768 0.140023 -0.087154
v 0.112065 0.139634 -0.087154
v 0.112001 -0.169406 -0.087154
v 0.112907 -0.204326 -0.121168
v 0.112907 -0.170442 -0.121556
v 0.112907 -0.170959 -0.086507
v 0.112907 0.139570 -0.086248
v 0.112907 0.139570 0.084600
v 0.112907 -0.170959 0.084859
v 0.112907 -0.170441 0.119909
v 0.112907 -0.204326 0.119520
v 0.112519 -0.170700 0.120038
v -0.059366 -0.170700 0.120038
v -0.059366 -0.204455 0.120038
v 0.112519 -0.204455 0.120038
v -0.025221 0.037398 0.084988
v -0.025221 0.139958 0.084988
v -0.025221 0.139958 -0.086636
v -0.025221 0.037398 -0.086636
v -0.059754 -0.204714 0.119909
v -0.059754 -0.170441 0.119909
v -0.059754 -0.170733 0.085927
v -0.059754 -0.204715 0.085636
v -0.093897 -0.170312 -0.086766
v -0.093897 -0.170312 0.085118
v -0.060142 -0.170312 0.085118
v -0.060142 -0.170312 -0.086765
v 0.112001 -0.169406 0.085506
v 0.112065 0.139634 0.085506
v -0.024768 0.140023 0.085506
v -0.024962 0.036621 0.085506
v -0.059301 0.036427 0.085506
v -0.059333 -0.169891 0.085506
v -0.059366 -0.170312 0.119650
v 0.112519 -0.170312 0.119650
v 0.112519 -0.170312 0.085895
v -0.059366 -0.170312 0.085895
v -0.094285 -0.204456 0.085118
v -0.094285 -0.170700 0.085118
v -0.094285 -0.170700 -0.086765
v -0.094285 -0.204456 -0.086765
v -0.024638 0.140476 -0.086571
v -0.024638 0.140476 0.084923
v 0.112324 0.140476 0.084923
v 0.112324 0.140476 -0.086571
v 0.112519 -0.170312 -0.121297
v -0.059366 -0.170312 -0.121297
v -0.059366 -0.170312 -0.087542
v 0.112519 -0.170312 -0.087542
v -0.059754 -0.170442 -0.121556
v -0.059754 -0.204715 -0.121556
v -0.059754 -0.204715 -0.087283
v -0.059754 -0.170733 -0.087575
v -0.059754 0.036168 -0.086442
v -0.059754 -0.169891 -0.086733
v -0.059754 -0.169891 0.085085
v -0.059754 0.036168 0.084794
v 0.112130 -0.204844 -0.120909
v 0.112130 -0.204844 0.119261
v -0.059366 -0.204844 0.119650
v -0.059625 -0.204844 0.085377
v -0.093897 -0.204844 0.085118
v -0.093897 -0.204844 -0.086766
v -0.059625 -0.204844 -0.087024
v -0.059366 -0.204844 -0.121297
v -0.060175 -0.170733 0.085506
v -0.094156 -0.170441 0.085506
v -0.094156 -0.204715 0.085506
v -0.059883 -0.204715 0.085506
v -0.059366 0.036880 -0.086766
v -0.059366 0.036880 0.085118
v -0.025609 0.036880 0.085118
v -0.025609 0.036880 -0.086766
v 0.112519 -0.204456 -0.121686
v -0.059366 -0.204456 -0.121686
v -0.059366 -0.170701 -0.121686
v 0.112519 -0.170701 -0.121686
v -0.059883 -0.204715 -0.087154
v -0.094156 -0.204715 -0.087154
v -0.094156 -0.170441 -0.087154
v -0.060175 -0.170733 -0.087154
vn 0.7060 0.7082 -0.0000
vn 0.7107 -0.7035 -0.0000
vn 0.4108 -0.4057 0.8165
vn 0.4069 0.4085 0.8170
vn 0.4069 0.4085 -0.8170
vn 0.4108 -0.4057 -0.8165
vn 0.7081 -0.7061 -0.0000
vn 0.4092 -0.4073 0.8165
vn 0.4091 -0.4073 -0.8165
vn 0.7047 -0.7095 -0.0000
vn 0.4060 -0.4095 0.8170
vn 0.4060 -0.4095 -0.8170
vn -0.7087 -0.7055 -0.0000
vn -0.4096 -0.4073 0.8163
vn -0.4096 -0.4073 -0.8163
vn -0.7085 0.7057 -0.0000
vn -0.4095 0.4075 0.8162
vn -0.4095 0.4075 -0.8162
vn -0.0000 0.7136 0.7006
vn -0.0000 -0.7126 0.7016
vn -0.8190 -0.4093 0.4022
vn -0.8159 0.4136 0.4041
vn 0.8159 0.4135 0.4041
vn 0.8190 -0.4093 0.4022
vn -0.0000 -0.7113 0.7029
vn -0.8165 -0.4120 0.4045
vn 0.8165 -0.4120 0.4045
vn -0.0000 -0.7076 0.7066
vn -0.8165 -0.4086 0.4079
vn 0.8165 -0.4086 0.4079
vn -0.0000 -0.7076 -0.7066
vn -0.8165 -0.4086 -0.4079
vn 0.8165 -0.4086 -0.4079
vn -0.0000 -0.7113 -0.7029
vn -0.8165 -0.4120 -0.4045
vn 0.8165 -0.4120 -0.4045
vn -0.0000 -0.7126 -0.7016
vn -0.8190 -0.4093 -0.4022
vn 0.8190 -0.4093 -0.4022
vn -0.0000 0.7136 -0.7006
vn -0.8159 0.4136 -0.4041
vn 0.8159 0.4135 -0.4041
vn -0.7071 -0.7071 -0.0000
vn 0.7071 -0.7071 -0.0000
vn 0.4082 -0.4083 -0.8165
vn -0.4082 -0.4083 -0.8165
vn -0.4083 -0.4083 0.8165
vn 0.4083 -0.4083 0.8165
vn 0.7071 0.7071 -0.0000
vn 0.4082 0.4083 -0.8165
vn 0.4083 0.4083 0.8165
vn -0.7071 0.7071 -0.0000
vn -0.4082 0.4083 -0.8165
vn -0.4083 0.4083 0.8165
vn -0.0000 0.7071 -0.7071
vn -0.0000 -0.7071 -0.7071
vn 0.8165 -0.4082 -0.4082
vn 0.8165 0.4082 -0.4082
vn -0.8165 0.4082 -0.4082
vn -0.8165 -0.4082 -0.4082
vn -0.0000 -0.7071 0.7071
vn 0.8165 -0.4082 0.4082
vn -0.8165 -0.4082 0.4082
vn -0.0000 0.7071 0.7071
vn 0.8165 0.4082 0.4082
vn -0.8165 0.4082 0.4082
vn -0.0000 -0.7103 -0.7039
vn 0.8183 -0.4090 -0.4039
vn 0.8165 0.4083 -0.4082
vn -0.8183 -0.4090 -0.4039
vn 0.8154 -0.4093 0.4093
vn -0.8154 -0.4093 0.4093
vn -0.0000 0.7039 0.7103
vn 0.8183 0.4039 0.4090
vn -0.8183 0.4039 0.4090
vn 0.7071 -0.0000 0.7071
vn 0.7071 -0.0000 -0.7071
vn 0.4083 -0.8165 -0.4083
vn 0.4083 -0.8165 0.4083
vn 0.4083 0.8165 0.4083
vn 0.4083 0.8165 -0.4083
vn -0.7071 -0.0000 -0.7071
vn -0.4082 -0.8165 -0.4083
vn -0.4082 0.8165 -0.4083
vn -0.7071 -0.0000 0.7071
vn -0.4082 -0.8165 0.4083
vn -0.4082 0.8165 0.4083
vn -0.4096 0.4075 -0.8162
vn 0.4092 -0.4073 -0.8165
vn -0.4082 -0.8165 -0.4082
vn 0.4082 -0.8165 -0.4082
vn 0.4082 0.8165 -0.4083
vn -0.4082 -0.8165 0.4082
vn 0.4082 -0.8165 0.4082
vn 0.4082 0.8165 0.4083
vn -0.8165 0.4083 -0.4082
vn -0.8165 -0.4083 -0.4082
vn -0.8165 -0.4083 0.4082
vn -0.8165 0.4083 0.4082
vn 0.4082 0.8165 0.4082
vn 0.4082 0.8165 -0.4082
vn -0.4083 -0.8165 -0.4083
vn -0.4083 0.8165 -0.4083
vn -0.4083 -0.8165 0.4083
vn -0.4083 0.8165 0.4083
vn -0.0000 -0.7103 0.7039
vn 0.8165 0.4083 0.4082
vn 0.8183 -0.4090 0.4039
vn -0.8183 -0.4090 0.4039
vn -0.0000 0.7039 -0.7103
vn 0.8183 0.4039 -0.4090
vn -0.8183 0.4039 -0.4090
vn 0.8154 -0.4093 -0.4093
vn -0.8154 -0.4093 -0.4093
vn -0.0000 -0.7078 0.7064
vn -0.0000 0.7065 0.7077
vn 0.8167 0.4075 0.4085
vn 0.8164 -0.4089 0.4078
vn -0.8164 -0.4089 0.4078
vn -0.8167 0.4075 0.4085
vn -0.0000 0.7065 -0.7077
vn 0.8167 0.4075 -0.4085
vn -0.8167 0.4075 -0.4085
vn -0.0000 -0.7078 -0.7064
vn 0.8164 -0.4089 -0.4079
vn -0.8164 -0.4089 -0.4079
vn -0.7083 -0.0000 0.7059
vn -0.7083 -0.0000 -0.7059
vn -0.4093 0.8163 -0.4076
vn -0.4093 0.8163 0.4076
vn -0.4093 -0.8163 0.4076
vn -0.4093 -0.8163 -0.4076
vn 0.7013 -0.0000 -0.7129
vn 0.4037 0.8169 -0.4120
vn 0.4037 -0.8169 -0.4120
vn 0.4082 -0.8165 -0.4083
vn 0.7119 -0.0000 -0.7022
vn 0.4117 0.8165 -0.4048
vn 0.4117 -0.8165 -0.4048
vn 0.7119 -0.0000 0.7022
vn 0.4117 0.8165 0.4048
vn 0.4117 -0.8165 0.4048
vn 0.4082 -0.8165 0.4083
vn 0.7013 -0.0000 0.7129
vn 0.4037 0.8169 0.4120
vn 0.4037 -0.8169 0.4120
vn 0.7039 -0.7103 -0.0000
vn 0.4039 -0.4090 -0.8183
vn -0.4093 -0.4093 -0.8154
vn -0.4093 -0.4093 0.8154
vn 0.4039 -0.4090 0.8183
vn 0.4082 0.4083 0.8165
vn -0.7103 0.7039 -0.0000
vn -0.4090 0.4039 -0.8183
vn -0.4090 0.4039 0.8183
vn 0.4083 -0.8165 -0.4082
vn 0.4083 -0.8165 0.4082
vn -0.4082 0.4083 0.8165
vn -0.4083 0.4083 -0.8165
vn 0.4083 0.4083 -0.8165
vn 0.4082 -0.4083 0.8165
vn 0.4083 -0.4083 -0.8165
vn -0.4082 -0.4083 0.8165
vn -0.4083 -0.4083 -0.8165
vt 4.033850 -33.067699
vt 4.033850 -32.966099
vt 4.016930 -32.966099
vt 4.016930 -32.915401
vt 3.949220 -32.915401
vt 3.949220 -33.067699
vt 4.059250 -33.084599
vt 4.059250 -33.067699
vt 4.042320 -33.067699
vt 4.042320 -32.915401
vt 3.957680 -32.915401
vt 3.957680 -33.067699
vt 3.940750 -33.067699
vt 3.940750 -33.084599
vt 4.050780 -33.067699
vt 3.966150 -33.067699
vt 3.966150 -33.084599
vt 4.050780 -33.084599
vt 4.042320 -32.966099
vt 3.957680 -32.966099
vt 4.042320 -33.084599
vt 4.050780 -33.042301
vt 4.050780 -32.957699
vt 4.033850 -32.957699
vt 4.033850 -33.042301
vt 4.050780 -32.915401
vt 3.983070 -32.915401
vt 3.983070 -32.966099
vt 3.966150 -32.966099
vt 4.033850 -32.940800
vt 3.949220 -32.940800
vt 3.949220 -32.957699
vt 3.957680 -33.084599
vt 4.016930 -33.042301
vt 4.016930 -32.957699
vt 3.949220 -33.042301
vt 3.949220 -33.059200
vt 4.033850 -33.059200
vt 4.050780 -33.059200
vt 4.050780 -32.940800
vt 3.966150 -32.940800
vt 3.966150 -32.957699
vt 3.966150 -33.042301
vt 3.966150 -33.059200
vt 3.949220 -33.084599
vt 4.033850 -33.084599
s 1
usemtl Meshpart1Mtl
f 157/1/1 158/2/2 149/2/3 147/1/4
f 158/2/2 157/1/1 148/1/5 150/2/6
f 158/2/2 159/3/7 139/3/8 149/2/3
f 159/3/7 158/2/2 150/2/6 140/3/9
f 159/3/7 160/4/10 141/4/11 139/3/8
f 160/4/10 159/3/7 140/3/9 142/4/12
f 160/4/10 161/5/13 143/5/14 141/4/11
f 161/5/13 160/4/10 142/4/12 144/5/15
f 161/5/13 162/6/16 145/6/17 143/5/14
f 162/6/16 161/5/13 144/5/15 146/6/18
f 162/6/16 157/1/1 147/1/4 145/6/17
f 157/1/1 162/6/16 146/6/18 148/1/5
f 163/7/19 164/8/20 11/8/21 9/7/22
f 164/8/20 163/7/19 10/7/23 12/8/24
f 164/8/20 165/9/25 3/9/26 11/8/21
f 165/9/25 164/8/20 12/8/24 4/9/27
f 165/9/25 166/10/28 15/10/29 3/9/26
f 166/10/28 165/9/25 4/9/27 16/10/30
f 166/10/28 167/11/31 13/11/32 15/10/29
f 167/11/31 166/10/28 16/10/30 14/11/33
f 167/11/31 168/12/34 5/12/35 13/11/32
f 168/12/34 167/11/31 14/11/33 6/12/36
f 168/12/34 169/13/37 7/13/38 5/12/35
f 169/13/37 168/12/34 6/12/36 8/13/39
f 169/13/37 170/14/40 1/14/41 7/13/38
f 170/14/40 169/13/37 8/13/39 2/14/42
f 170/14/40 163/7/19 9/7/22 1/14/41
f 163/7/19 170/14/40 2/14/42 10/7/23
f 171/15/43 172/16/44 59/16/45 57/15/46
f 172/16/44 171/15/43 58/15/47 60/16/48
f 172/16/44 173/17/49 53/17/50 59/16/45
f 173/17/49 172/16/44 60/16/48 54/17/51
f 173/17/49 174/18/52 55/18/53 53/17/50
f 174/18/52 173/17/49 54/17/51 56/18/54
f 174/18/52 171/15/43 57/15/46 55/18/53
f 171/15/43 174/18/52 56/18/54 58/15/47
f 175/19/55 176/10/56 113/10/57 111/19/58
f 176/10/56 175/19/55 112/19/59 114/10/60
f 176/10/56 177/11/61 107/11/62 113/10/57
f 177/11/61 176/10/56 114/10/60 108/11/63
f 177/11/61 178/20/64 109/20/65 107/11/62
f 178/20/64 177/11/61 108/11/63 110/20/66
f 178/20/64 175/19/55 111/19/58 109/20/65
f 175/19/55 178/20/64 110/20/66 112/19/59
f 179/7/55 180/8/67 93/8/68 91/7/69
f 180/8/67 179/7/55 92/7/59 94/8/70
f 180/8/67 181/9/61 87/9/71 93/8/68
f 181/9/61 180/8/67 94/8/70 88/9/72
f 181/9/61 182/21/73 89/21/74 87/9/71
f 182/21/73 181/9/61 88/9/72 90/21/75
f 182/21/73 179/7/55 91/7/69 89/21/74
f 179/7/55 182/21/73 90/21/75 92/7/59
f 183/22/76 184/23/77 39/23/78 37/22/79
f 184/23/77 183/22/76 38/22/80 40/23/81
f 184/23/77 185/24/82 33/24/83 39/23/78
f 185/24/82 184/23/77 40/23/81 34/24/84
f 185/24/82 186/25/85 35/25/86 33/24/83
f 186/25/85 185/24/82 34/24/84 36/25/87
f 186/25/85 183/22/76 37/22/79 35/25/86
f 183/22/76 186/25/85 36/25/87 38/22/80
f 187/15/16 188/26/13 75/26/15 73/15/88
f 188/26/13 187/15/16 74/15/17 76/26/14
f 188/26/13 189/27/10 77/27/12 75/26/15
f 189/27/10 188/26/13 76/26/14 78/27/11
f 189/27/10 190/28/7 69/28/89 77/27/12
f 190/28/7 189/27/10 78/27/11 70/28/8
f 190/28/7 191/29/2 71/29/6 69/28/89
f 191/29/2 190/28/7 70/28/8 72/29/3
f 191/29/2 192/16/1 65/16/5 71/29/6
f 192/16/1 191/29/2 72/29/3 66/16/4
f 192/16/1 187/15/16 73/15/88 65/16/5
f 187/15/16 192/16/1 66/16/4 74/15/17
f 193/30/77 194/31/82 49/31/90 51/30/91
f 194/31/82 193/30/77 52/30/92 50/31/84
f 194/31/82 195/32/85 47/32/93 49/31/90
f 195/32/85 194/31/82 50/31/84 48/32/87
f 195/32/85 196/24/76 33/24/94 47/32/93
f 196/24/76 195/32/85 48/32/87 34/24/95
f 196/24/76 193/30/77 51/30/91 33/24/94
f 193/30/77 196/24/76 34/24/95 52/30/92
f 197/21/55 198/9/56 85/9/57 81/21/58
f 198/9/56 197/21/55 82/21/96 86/9/97
f 198/9/56 199/12/61 83/12/62 85/9/57
f 199/12/61 198/9/56 86/9/97 84/12/98
f 199/12/61 200/33/64 79/33/65 83/12/62
f 200/33/64 199/12/61 84/12/98 80/33/99
f 200/33/64 197/21/55 81/21/58 79/33/65
f 197/21/55 200/33/64 80/33/99 82/21/96
f 201/34/76 202/35/77 23/35/91 19/34/94
f 202/35/77 201/34/76 20/34/100 24/35/101
f 202/35/77 203/32/82 21/32/102 23/35/91
f 203/32/82 202/35/77 24/35/101 22/32/103
f 203/32/82 204/36/85 17/36/104 21/32/102
f 204/36/85 203/32/82 22/32/103 18/36/105
f 204/36/85 201/34/76 19/34/94 17/36/104
f 201/34/76 204/36/85 18/36/105 20/34/100
f 205/37/85 206/38/76 43/38/94 45/37/93
f 206/38/76 205/37/85 46/37/87 44/38/95
f 206/38/76 207/25/77 35/25/91 43/38/94
f 207/25/77 206/38/76 44/38/95 36/25/92
f 207/25/77 208/36/82 41/36/90 35/25/91
f 208/36/82 207/25/77 36/25/92 42/36/84
f 208/36/82 205/37/85 45/37/93 41/36/90
f 205/37/85 208/36/82 42/36/84 46/37/87
f 209/13/106 210/14/64 105/14/107 101/13/108
f 210/14/64 209/13/106 102/13/109 106/14/66
f 210/14/64 211/33/110 103/33/111 105/14/107
f 211/33/110 210/14/64 106/14/66 104/33/112
f 211/33/110 212/12/56 99/12/113 103/33/111
f 212/12/56 211/33/110 104/33/112 100/12/114
f 212/12/56 209/13/106 101/13/108 99/12/113
f 209/13/106 212/12/56 100/12/114 102/13/109
f 213/20/115 214/12/116 99/12/117 95/20/118
f 214/12/116 213/20/115 96/20/119 100/12/120
f 214/12/116 215/9/121 87/9/122 99/12/117
f 215/9/121 214/12/116 100/12/120 88/9/123
f 215/9/121 216/19/124 97/19/125 87/9/122
f 216/19/124 215/9/121 88/9/123 98/19/126
f 216/19/124 213/20/115 95/20/118 97/19/125
f 213/20/115 216/19/124 98/19/126 96/20/119
f 217/39/127 218/40/128 123/40/129 127/39/130
f 218/40/128 217/39/127 128/39/131 124/40/132
f 218/40/128 219/41/133 125/41/134 123/40/129
f 219/41/133 218/40/128 124/40/132 126/41/135
f 219/41/133 220/42/77 121/42/101 125/41/134
f 220/42/77 219/41/133 126/41/135 122/42/136
f 220/42/77 221/32/137 117/32/138 121/42/101
f 221/32/137 220/42/77 122/42/136 118/32/139
f 221/32/137 222/36/140 119/36/141 117/32/138
f 222/36/140 221/32/137 118/32/139 120/36/142
f 222/36/140 223/43/76 115/43/100 119/36/141
f 223/43/76 222/36/140 120/36/142 116/43/143
f 223/43/76 224/44/144 129/44/145 115/43/100
f 224/44/144 223/43/76 116/43/143 130/44/146
f 224/44/144 217/39/127 127/39/130 129/44/145
f 217/39/127 224/44/144 130/44/146 128/39/131
f 225/16/43 226/6/147 67/6/148 65/16/149
f 226/6/147 225/16/43 66/16/150 68/6/151
f 226/6/147 227/45/49 61/45/50 67/6/148
f 227/45/49 226/6/147 68/6/151 62/45/152
f 227/45/49 228/17/153 63/17/154 61/45/50
f 228/17/153 227/45/49 62/45/152 64/17/155
f 228/17/153 225/16/43 65/16/149 63/17/154
f 225/16/43 228/17/153 64/17/155 66/16/150
f 229/25/76 230/24/77 31/24/156 29/25/157
f 230/24/77 229/25/76 30/25/80 32/24/81
f 230/24/77 231/35/82 25/35/90 31/24/156
f 231/35/82 230/24/77 32/24/81 26/35/84
f 231/35/82 232/34/85 27/34/93 25/35/90
f 232/34/85 231/35/82 26/35/84 28/34/87
f 232/34/85 229/25/76 29/25/157 27/34/93
f 229/25/76 232/34/85 28/34/87 30/25/80
f 233/45/52 234/46/49 137/46/152 135/45/158
f 234/46/49 233/45/52 136/45/159 138/46/160
f 234/46/49 235/1/44 131/1/161 137/46/152
f 235/1/44 234/46/49 138/46/160 132/1/162
f 235/1/44 236/6/43 133/6/163 131/1/161
f 236/6/43 235/1/44 132/1/162 134/6/164
f 236/6/43 233/45/52 135/45/158 133/6/163
f 233/45/52 236/6/43 134/6/164 136/45/159
f 237/46/153 238/18/49 155/18/51 151/46/155
f 238/18/49 237/46/153 152/46/154 156/18/50
f 238/18/49 239/15/147 153/15/151 155/18/51
f 239/15/147 238/18/49 156/18/50 154/15/148
f 239/15/147 240/1/43 147/1/150 153/15/151
f 240/1/43 239/15/147 154/15/148 148/1/149
f 240/1/43 237/46/153 151/46/155 147/1/150
f 237/46/153 240/1/43 148/1/149 152/46/154
